<svg xmlns="http://www.w3.org/2000/svg" xmlns:xlink="http://www.w3.org/1999/xlink" viewBox="0 0 2000 1023.98"><defs><style>.cls-1{fill:none;}.cls-2{fill:#8bc34a;}.cls-3{fill:#7ab200;}.cls-4{fill:#abe0d6;stroke:#25597c;stroke-miterlimit:5.04;stroke-width:0.13px;}.cls-5{clip-path:url(#clip-path);}.cls-6{fill:#1f2e4a;}.cls-7{fill:#6e95d8;}.cls-8{fill:#628dd0;}.cls-9{fill:#6b96da;}.cls-10{fill:#78a2dd;}.cls-11{fill:#5c86ce;}.cls-12{fill:#849eca;}.cls-13{fill:#283956;}.cls-14{fill:#74819a;}.cls-15{fill:#314669;}.cls-16{fill:#7c96bf;}.cls-17{fill:#2c3f60;}.cls-18{fill:#89a7d7;}.cls-19{fill:#638cce;}.cls-20{fill:#557cc0;}.cls-21{fill:#364e75;}.cls-22{fill:#2b406a;}.cls-23{fill:#314a78;}.cls-24{fill:#4f71a7;}.cls-25{fill:#293f66;}.cls-26{fill:#31476f;}.cls-27{fill:#3e5c90;}.cls-28{fill:#597bb3;}.cls-29{fill:#5d83c0;}.cls-30{fill:#415f99;}.cls-31{fill:#273b60;}.cls-32{fill:#496ca7;}.cls-33{fill:#44608f;}.cls-34{fill:#5176b4;}.cls-35{fill:#263958;}.cls-36{fill:#3a537d;}.cls-37{fill:#405985;}.cls-38{fill:#49699e;}.cls-39{fill:#48699a;}.cls-40{fill:#390c15;}.cls-41{fill:#031536;}.cls-42{fill:#1d010e;}.cls-43{fill:#283854;}.cls-44{fill:#223858;}.cls-45{fill:#01031a;}.cls-46{fill:#243a52;}.cls-47{fill:#0d1b38;}.cls-48{fill:#84b6c3;}.cls-49{fill:#4b82ae;}.cls-50{fill:#85b4c2;}.cls-51{fill:#4f1017;}.cls-52{fill:#709bd9;}.cls-53{fill:#64926f;}.cls-54{fill:#7b9ac8;}.cls-55{fill:#7589a9;}.cls-56{fill:#a8a25d;}.cls-57{fill:#8da9d9;}.cls-58{fill:#6f7a91;}.cls-59{fill:#8e4340;}.cls-60{fill:#70788c;}.cls-61{fill:#7690b6;}.cls-62{fill:#6395ae;}.cls-63{fill:#3c5785;}.cls-64{fill:#668190;}.cls-65{fill:#47492d;}.cls-66{fill:#383332;}.cls-67{fill:#571c19;}.cls-68{fill:#681f19;}.cls-69{fill:#82291f;}.cls-70{fill:#480c14;}.cls-71{fill:#561d1a;}.cls-72{fill:#0d2647;}.cls-73{fill:#453a4c;}.cls-74{fill:#3e5464;}.cls-75{fill:#3c7871;}.cls-76{fill:#64945e;}.cls-77{fill:#683610;}.cls-78{fill:#621719;}.cls-79{fill:#6e1221;}.cls-80{fill:#636535;}.cls-81{fill:#8ea5c8;}.cls-82{fill:#b6b36a;}.cls-83{fill:#adc390;}.cls-84{fill:#b4c386;}.cls-85{fill:#92704b;}.cls-86{fill:#a78641;}.cls-87{fill:#9f7a42;}.cls-88{fill:#842e39;}.cls-89{fill:#a28d4f;}.cls-90{fill:#80a1ab;}.cls-91{fill:#8bb8b6;}.cls-92{fill:#3a757c;}.cls-93{fill:#7184a0;}.cls-94{fill:#7690b4;}.cls-95{fill:#657187;}.cls-96{fill:#827b78;}.cls-97{fill:#38414e;}.cls-98{fill:#54657c;}.cls-99{fill:#687c90;}.cls-100{fill:#04031b;}.cls-101{fill:#3b2532;}.cls-102{fill:#6e6e6e;}.cls-103{fill:#5f5552;}.cls-104{fill:#180f14;}.cls-105{fill:#741a1f;}.cls-106{fill:#4a0f17;}.cls-107{fill:#581703;}.cls-108{fill:#9f3624;}.cls-109{fill:#203e4a;}.cls-110{fill:#4f676e;}.cls-111{fill:#524c61;}.cls-112{fill:#65945f;}.cls-113{fill:#bb3b22;}.cls-114{fill:#76621b;}.cls-115{fill:#6e3c11;}.cls-116{fill:#b78c46;}.cls-117{fill:#a04c42;}.cls-118{fill:#63171c;}.cls-119{fill:#430518;}.cls-120{fill:#191b22;}.cls-121{fill:#639458;}.cls-122{fill:#abc181;}.cls-123{fill:#366f67;}.cls-124{fill:#1a381b;}.cls-125{fill:#061e21;}.cls-126{fill:#54765a;}.cls-127{fill:#7ea59e;}.cls-128{fill:#0b1712;}.cls-129{fill:#09122b;}.cls-130{fill:#3a361f;}.cls-131{fill:#2f2312;}.cls-132{fill:#83342c;}.cls-133{fill:#380f03;}.cls-134{fill:#68617d;}.cls-135{fill:#443539;}.cls-136{fill:#402107;}.cls-137{fill:#50431a;}.cls-138{fill:#604f0b;}.cls-139{fill:#b9b767;}.cls-140{fill:#5e4808;}.cls-141{fill:#a24f16;}.cls-142{fill:#13311d;}.cls-143{fill:#bdbc6c;}.cls-144{fill:#bd8212;}.cls-145{fill:#cdad38;}.cls-146{fill:#7d681c;}.cls-147{fill:#715f1b;}.cls-148{fill:#4a2508;}.cls-149{fill:#a36d11;}.cls-150{fill:#95945c;}.cls-151{fill:#2b4347;}.cls-152{fill:#628173;}.cls-153{fill:#b5584a;}.cls-154{fill:#c38f4b;}.cls-155{fill:#b7a452;}.cls-156{fill:#c4c17f;}.cls-157{fill:#b9b374;}.cls-158{fill:#913443;}.cls-159{fill:#b48042;}.cls-160{fill:#ab7545;}.cls-161{fill:#721d19;}.cls-162{fill:#aec183;}.cls-163{fill:#c1b559;}.cls-164{fill:#b2c480;}.cls-165{fill:#5f9255;}.cls-166{fill:#a18351;}.cls-167{fill:#64713c;}.cls-168{fill:#afbd7c;}.cls-169{fill:#1d262a;}.cls-170{fill:#040b18;}.cls-171{fill:#643b0f;}.cls-172{fill:#05222f;}.cls-173{fill:#753f12;}.cls-174{fill:#7b6b20;}.cls-175{fill:#2a3c3d;}.cls-176{fill:#b84117;}.cls-177{fill:#cb4318;}.cls-178{fill:#c4664a;}.cls-179{fill:#b4944c;}.cls-180{fill:#d1e2f2;}.cls-181{fill:#9fd609;}.cls-182{fill:#706461;}.cls-183{fill:#87807e;}</style><clipPath id="clip-path"><polygon class="cls-1" points="1263.88 243.92 1207.03 286.99 1207.03 266.32 1171.54 243.92 1114.69 271.83 1119.17 779.34 1167.41 779.34 1193.94 779.34 1193.94 779.34 1263.88 779.34 1292.82 262.18 1263.88 243.92"/></clipPath></defs><g id="Capa_3" data-name="Capa 3"><rect class="cls-2" x="-0.43" y="812.5" width="2000" height="36.28"/><path class="cls-3" d="M1529.52,822.06c0-23.77-225-43.07-502.69-43.07s-502.68,19.3-502.68,43.07Z"/><path class="cls-4" d="M652.49,807.36a20,20,0,0,1-2.74,1.95c-2.34,1.17-4.68,1.17-7,1.17h-23V772.64h22.63a7.6,7.6,0,0,1,3.12.39,13.16,13.16,0,0,1,6.64,3.12,6,6,0,0,1,1.56,2.34,8.89,8.89,0,0,1,1.17,4.29,10.23,10.23,0,0,1-3.51,7.42c-.78.39-1.18.78-2.74,1.56l1.56.39a8.45,8.45,0,0,1,3.13,2,8.29,8.29,0,0,1,2.34,6.24A10.32,10.32,0,0,1,652.49,807.36Zm-9.76-10.92a4.51,4.51,0,0,0-3.9-2h-7.41v7.41h7.41a3.8,3.8,0,0,0,3.51-1.56,3.3,3.3,0,0,0,.78-2.34C643.51,798,643.51,797.22,642.73,796.44ZM642,781.61a3.76,3.76,0,0,0-3.12-1.56h-7v6.25h6.63a3.79,3.79,0,0,0,3.51-1.57,4.24,4.24,0,0,0,.39-2A1.43,1.43,0,0,0,642,781.61Z"/><path class="cls-4" d="M685.65,810.09l-1.56-5.46H670.82l-1.56,5.46H656.39l14.43-37.84h13.66l14,37.84Zm-8.19-26.92-4.3,13.27h8.2Z"/><path class="cls-4" d="M723.88,810.09l-7.41-13.26H713v13.26h-12.1V772.25h20.29a10.8,10.8,0,0,1,3.51.39c1.56.39,6.63.78,9.37,5.07a12.13,12.13,0,0,1,2,6.63,10.43,10.43,0,0,1-4.69,9c-.78.78-1.56.78-3.51,1.56l9.37,15.21ZM723.1,782c-.39-.78-1.17-.78-1.17-1.17a7,7,0,0,0-3.9-.78H713v9H718c2.34,0,4.68-.39,5.46-2.73,0-.39.39-1.17.39-1.57A7.23,7.23,0,0,0,723.1,782Z"/><path class="cls-4" d="M761.73,810.09l-7.42-13.26H750.8v13.26H738.71V772.25H759a10.8,10.8,0,0,1,3.51.39c1.56.39,6.63.78,9.36,5.07a12.13,12.13,0,0,1,2,6.63,10.44,10.44,0,0,1-4.68,9c-.78.78-1.56.78-3.51,1.56L775,810.09ZM761,782c-.39-.78-1.17-.78-1.17-1.17a7,7,0,0,0-3.91-.78H750.8v9h5.07c2.35,0,4.69-.39,5.47-2.73,0-.39.39-1.17.39-1.57A3.71,3.71,0,0,0,761,782Z"/><path class="cls-4" d="M803.86,810.09l-1.56-5.46H789l-1.56,5.46H774.6L789,772.25h13.65l14,37.84Zm-8.19-26.92-4.29,13.27h8.19Z"/><path class="cls-4" d="M842.88,810.09l-12.49-21.84.39,21.84H819.86V772.25h12.48l12.88,21.85-.39-21.85h11.31v37.84Z"/><path class="cls-4" d="M898.28,814.78a15.92,15.92,0,0,1-7.8-3.51l-2-2a6.73,6.73,0,0,1-2,.78,22.93,22.93,0,0,1-7.8,1.18,23.33,23.33,0,0,1-9-1.57c-7.81-3.51-10.93-10.53-10.93-18.72,0-9.76,5.08-14.83,8.2-16.78a19.85,19.85,0,0,1,12.09-3.51,20.31,20.31,0,0,1,8.2,1.56,19.63,19.63,0,0,1,11.7,18.34,25.54,25.54,0,0,1-2.34,10.14,30.27,30.27,0,0,0-1.56,2.73,17.52,17.52,0,0,0,5.85,2.73Zm-12.88-32a10.34,10.34,0,0,0-2.34-1.95,7.12,7.12,0,0,0-3.51-.78,7.79,7.79,0,0,0-3.51.78C873.31,782,871,785.13,871,791a16.15,16.15,0,0,0,.78,5.46c1.56,4.68,5.46,5.07,7.41,5.07a9.45,9.45,0,0,0,5.85-2.34c1.56-1.56,2.73-3.9,2.73-8.58C887.74,787.86,887.36,785.13,885.4,782.78Z"/><path class="cls-4" d="M936.9,801.51c-2.73,7-9.36,9.37-16,9.37a26.22,26.22,0,0,1-9-2,14.56,14.56,0,0,1-7.41-7.41c-.78-2-1.17-3.51-1.17-7.41V771.47h12.1v23.8a11,11,0,0,0,.39,3.12,4.61,4.61,0,0,0,4.68,3.12c.78,0,3.9-.39,5.07-3.12a8.59,8.59,0,0,0,.39-3.12v-23.8h12.1V794.1A19.84,19.84,0,0,1,936.9,801.51Z"/><path class="cls-4" d="M942.76,810.09V772.25h12.09v37.84Z"/><path class="cls-4" d="M959.53,810.09V772.25h12.1v28.09h14.43v9.36l-26.53.39Z"/><path class="cls-4" d="M988.4,810.09V772.25h12.1v28.09h14.43v9.36l-26.53.39Z"/><path class="cls-4" d="M1044.19,810.09l-1.56-5.46h-13.26l-1.56,5.46h-12.88l14.44-37.84H1043l14,37.84ZM1036,783.17l-4.29,13.27h8.19Z"/><g class="cls-5"><path class="cls-6" d="M1186,250.47a80.7,80.7,0,0,0-22-4.14,9.39,9.39,0,0,1-3.1.35c-9.3,1.38-18.6,2.06-28.25,3.1a12.41,12.41,0,0,1-6.2,10c-1,.69-1.72,1.38-2.76,2.07a42.83,42.83,0,0,0,6.55.69c-17.57,6.89-19,8.27-18.61,22.74a123.09,123.09,0,0,0,0,15.84c.35,3.11-.69,6.55,1.73,9.31,3.79,2.75,5.85.34,7.57-2.76,2.42-4.13,1.73-9,2.07-14.12,1.73,6.2,4.83,5.85,9,3.44s6.55-5.51,7.24-10.34c.69-5.16,1.72-10.68,1.72-15.84,0-2.76-.35-5.86,3.44-7.24,2.07-1,4.14-5.17,5.17.69s4.14,5.17,7.93,2.07c3.1-3.1,6.54-5.17,7.58-9.65.69-3.1,2.75-4.82,5.17-6.89a2.58,2.58,0,0,1,3.1,0c5.16,2.75,9.3,7.58,15.5,6.89l6.2-1a2.57,2.57,0,0,0-1.38-.35C1189.8,254.26,1187.39,252.53,1186,250.47Z"/><path class="cls-6" d="M1273.87,249.43c-4.13-2.06-9-4.48-14.13-5.51a75.48,75.48,0,0,0-15.84,11.72,10.68,10.68,0,0,1,3.44,1.72c3.45,1.72,5.86,0,8.27-2.41,2.76-2.42,5.51-5.52,9.3-6.55,4.82,1.38,8.62,4.48,12.75,6.89,6.2,4.14,12.06,8.27,11,16.88-.34,1.38.69,2.76,2.07,3.45,2.76-1,2.76-3.45,2.76-5.51-.35-2.42,1-3.79,2.76-4.83q1-3.09,2.06-6.2C1289.72,257,1281.45,253.22,1273.87,249.43Z"/><path class="cls-7" d="M1110.56,440c-1,3.44-2.41,6.89-3.1,10.33-.69,4.48-1,8.61-2.07,12.75a24.72,24.72,0,0,1-.69,2.41c1,11.37,2.41,23.09,3.45,34.11a42.29,42.29,0,0,1,.34,6.55,13.53,13.53,0,0,0,6.89-9.65c1.38-4.13,1.72-8.61,2.41-12.75-.34-7.58.35-15.16-.34-22.74-.35-1-1-2.07-1.38-3.1-1.38-1.72-1.38-3.79-1.38-5.86C1115,447.89,1116.07,442,1110.56,440Z"/><path class="cls-8" d="M1285.24,420.33c-.34,0-.34,0-.34.34a8.06,8.06,0,0,0-2.42,2.41,6.81,6.81,0,0,0-.34,4.48c.69,2.76,1.38,4.83,2.76,6.55C1284.9,429.63,1284.9,425.15,1285.24,420.33Z"/><path class="cls-9" d="M1285.24,451.33c0-6.89-.34-13.78-.34-21a14.21,14.21,0,0,1-1.38-3.45,4.64,4.64,0,0,0-1.72,4.14,58.59,58.59,0,0,1,1.37,13.09c.35,3.79,1.73,7.58,2.07,11.37A16.87,16.87,0,0,1,1285.24,451.33Z"/><path class="cls-10" d="M1108.49,503.36a269.37,269.37,0,0,1-.34,33.42,12.07,12.07,0,0,1,2.06,4.82c1,5.17,2.42,11,3.45,17.23,1-.69,2.41-1,3.44-1.72,1.38-2.41,1.38-5.17,1.38-7.93V510.25c-.69-2.41,0-4.82-.34-7.23-.35-3.1,0-6.55-3.45-7.93A15.57,15.57,0,0,1,1108.49,503.36Z"/><path class="cls-11" d="M1285.24,421.7c.35-2.06.35-3.79.69-5.51v-.69a1.26,1.26,0,0,1-1,.35c-1.73,2.06-1.73,3.79.34,5.85Z"/><path class="cls-12" d="M1105.05,616c.68,6.89,1.72,13.43,2.75,20.32a31.94,31.94,0,0,0,5.86-.34,12.4,12.4,0,0,0,3.1-1.38c2.07-3.1,1-7.23,3.45-10.34,2.41-11,.68-22-3.45-32.38-.35-.35-.69-.69-1-.69C1114.69,601.21,1111.59,609.82,1105.05,616Z"/><path class="cls-13" d="M1109.52,285.61c1.73-.34,3.45-.34,4.83-.69,0-1.72.34-3.1,0-4.82-.35-5.51.69-9,7.23-11,4.14-1.38,9.31-2.06,12.75-5.51.69-.69,1.72-1.72,1.72-2.76,0-1.37-1.37-1.72-2.41-1.72-2.06,0-3.79-.34-5.85-.34-.35.34-.69.34-.69.69-5.52,3.79-11.72,10-18.26,15.5C1108.84,278.38,1109.18,281.82,1109.52,285.61Z"/><path class="cls-14" d="M1114.35,705.61c0,3.44,0,6.89.34,10.33.35,5.17.69,10,1,15.51a11.38,11.38,0,0,1,4.13-2.07c1.38-3.1.69-6.2,1.38-9-.35-4.82,1-9.65-1.72-14.12-1.38-1.38-2.76-1.38-4.48-.69C1114.69,705.26,1114.69,705.26,1114.35,705.61Z"/><path class="cls-15" d="M1108.49,326.61a7.47,7.47,0,0,1,.35,2.76c1.37.34,2.41.69,3.44,1,2.76,1.38,6.2-.69,8.27,2.07,2.76,0,4.48-1.38,6.2-3.45,1.72-3.44,3.1-7.58-1.38-9-5.85-1.72-7.92-5.51-10.68-10v-9.3a14.77,14.77,0,0,0-3.79-.69A74.94,74.94,0,0,1,1108.49,326.61Z"/><path class="cls-16" d="M1113.31,634.63c-2.06.69-3.79,1.72-5.51,2.07,1,6.54,1.72,13.09,2.41,19.29,2.41,1.38,5.52,2.07,7.24-1.38.34-6.89,2.41-13.78-1.38-20.32h-2.76Z"/><path class="cls-17" d="M1110.9,302.84a11,11,0,0,0,3.45-1.73V284.92a17.43,17.43,0,0,0-5.17-2.41C1109.87,289.06,1110.56,296,1110.9,302.84Z"/><path class="cls-18" d="M1116.07,580.19c.35-.34.69-.69.69-1a5,5,0,0,0,.69-2.07c.34-5.85.69-11.37-.35-17.22-.34-.69-1-1.38-1.37-2.07h-2.42A99.12,99.12,0,0,1,1116.07,580.19Z"/><path class="cls-19" d="M1114,424.46c-.34,5.86-2.06,11.37-3.79,16.54,2.41,1.38,2.76,3.79,3.1,6.2.35,4.48-1.37,9,1.38,13.09,2.07-2.41,2.07-5.17,2.41-7.92,0-4.48-.34-9.3,1-13.78-.69-4.48,4.82-7.58,2.41-12.06-1.72-2.07-3.45-3.45-5.86-3.79A2.23,2.23,0,0,0,1114,424.46Z"/><path class="cls-20" d="M1285.58,416.54v-.69c.69-4.14,1-8.27,1.73-12.06-1,0-1.73-.35-2.41-.35a4.58,4.58,0,0,0-2.07,3.1c0,3.45-1,6.9,2.07,9.65C1285.24,416.19,1285.24,416.54,1285.58,416.54Z"/><path class="cls-21" d="M1108.49,326.61a74.81,74.81,0,0,1,.69,12.4c0,1.73.34,3.11.34,4.83,1.73,0,3.8.34,5.52.34,2.75-4.48,3.1-9-.35-13.43a6.42,6.42,0,0,0-6.2-4.14Z"/><path class="cls-22" d="M1293.51,313.86c0-2.41-.35-4.48-.35-6.89a7.65,7.65,0,0,0-.34-2.75,13.73,13.73,0,0,0-3.1,1.72,4.88,4.88,0,0,0-.35,4.82A16.19,16.19,0,0,0,1293.51,313.86Z"/><path class="cls-23" d="M1290.75,345.22a6.66,6.66,0,0,1,2.41-.35c.35-4.13.35-8.27.35-12.75-3.1.69-4.48,2.76-6.89,8.27a4.71,4.71,0,0,0,.34,3.79A7,7,0,0,0,1290.75,345.22Z"/><path class="cls-24" d="M1109.18,392.76c1.38,6.89,3.1,13.78,4.13,21a1.29,1.29,0,0,0,1,.34c2.41-2.06,2.07-4.82,2.07-7.58a60.57,60.57,0,0,1,1.37-13.78c-.34-4.48-3.1-7.23-7.23-8.61A40.45,40.45,0,0,1,1109.18,392.76Z"/><path class="cls-25" d="M1293.16,306.28c-.34-4.48-.68-8.61-.68-13.09l-3.1,1c-1.73,4.14-2.42,8.27.68,12.06Z"/><path class="cls-26" d="M1287.31,341.08c1.38-4.13,3.44-6.2,5.85-7.23.35-7.58,0-14.82-.34-22.4-1-.34-2.07-1-3.1-1.38-1.72.69-2.41,2.07-3.1,3.79-1,4.14-2.07,8.27-2.07,12.41C1285.58,331.43,1283.86,336.6,1287.31,341.08Z"/><path class="cls-27" d="M1291.79,369.68c.34-4.48.69-8.61,1-13.09-6.2.69-7.92,4.82-5.51,11.71A13.78,13.78,0,0,0,1291.79,369.68Z"/><path class="cls-28" d="M1113,411h0a12.68,12.68,0,0,0,.35-3.44c0-4.83-.69-7.24-2.42-8.27C1111.59,403.44,1112.63,407.23,1113,411Z"/><path class="cls-29" d="M1114,424.46v.69a11.44,11.44,0,0,1,5.86,3.45c1.72-6.21-1.38-10.69-5.51-14.82A3.12,3.12,0,0,1,1113,411h-.35A34.29,34.29,0,0,1,1114,424.46Z"/><path class="cls-30" d="M1289.72,374.5c.69,0,1,.35,1.72.35.35-2.42.35-4.48.69-6.89-1.38,0-2.76.34-4.13.34a3.69,3.69,0,0,0-.69,4.82C1287.31,373.81,1288.34,374.16,1289.72,374.5Z"/><path class="cls-31" d="M1290.41,294.22a6.61,6.61,0,0,0,2.41.35,44.24,44.24,0,0,1,.35-11.72,31.58,31.58,0,0,0-3.11,3.45,6,6,0,0,0-1,4.82A2.42,2.42,0,0,0,1290.41,294.22Z"/><path class="cls-32" d="M1288.34,396.55a85.17,85.17,0,0,0,1.38-9.3,9.81,9.81,0,0,0-3.45,3.1C1285.58,393.8,1285.93,395.86,1288.34,396.55Z"/><path class="cls-33" d="M1111.59,376.57c1.38,1.38,2.07,3.1,3.1,5.51,1.38,2.76,1.72,6.2,4.48,7.93a4.9,4.9,0,0,0,3.79-.35,6.46,6.46,0,0,0,3.45-4.82c-.35-2.41-.69-4.83-2.41-6.55-3.11-2.75-4.48-6.89-5.52-10.33-1.72-5.52-3.79-8.27-7.23-9.65C1111.25,364.51,1111.59,370.71,1111.59,376.57Z"/><path class="cls-34" d="M1287.31,404.82a100.31,100.31,0,0,0,1.38-10c-1.38-.69-1.38-2.41-1.38-4.48-1-1-2.07-.69-3.1,0-1.73,2.07-1.38,4.48-1.38,6.89-.35,2.41,0,4.83,2.07,6.55A3.1,3.1,0,0,0,1287.31,404.82Z"/><path class="cls-35" d="M1292.82,286c.35-4.48.69-9,1.38-13.44.69-2.41,1-4.48,1.72-6.55a1.27,1.27,0,0,1-.34-1c-2.42-.35-4.14-1-4.14,2.75.35,2.76,1,5.52-1.38,7.93-3.44,4.13-3.1,7.92,0,12.06A19.9,19.9,0,0,0,1292.82,286Z"/><path class="cls-36" d="M1110.21,354.17c1.38,1,2.07,2.42,3.1,3.79,3.79,7.24,5.52,15.51,10.69,22.05.34,2.07-.69,3.79,1.37,5.52,2.41-.35,4.83-.69,6.89,1,1.73,1.38,3.45,1,4.14-1.38s1.38-5.17-.35-6.2c-4.13-3.44-2.75-7.92-3.1-12.06-.34-3.44.35-6.89.35-10.68.69-10-1-19.29-7.93-26.87-1.72,1-3.44,1.72-5.16,2.75-3.45,6.55-2.76,10.34,2.06,15.16a5.18,5.18,0,0,1,1.38,3.79c0,3.79.69,7.93-1.38,11.37,2.07-7.92-1.38-13.78-7.23-18.26a37.54,37.54,0,0,1-5.17-2.75A79.63,79.63,0,0,0,1110.21,354.17Z"/><path class="cls-37" d="M1110.9,360.38c2.76,1,4.48,3.44,5.52,7.58,1,4.47,1.37,10.68,7.92,12.05,0-1,.35-2.41-.34-3.44-4.48-7.24-6.55-14.82-9.65-22.4a10.47,10.47,0,0,0-4.14-4.47A105.71,105.71,0,0,0,1110.9,360.38Z"/><path class="cls-38" d="M1284.9,390.7h2.41a9.31,9.31,0,0,1,2.07-1.73c.34-2.75.68-5.85,1-8.61s.69-5.51,1-8.27a17,17,0,0,0-4.13-.34,1.62,1.62,0,0,0-2.07.34,12.4,12.4,0,0,0-1.38,3.1c-.34,4.14.35,8.61-.69,12.75C1283.86,389,1283.86,390,1284.9,390.7Z"/><path class="cls-39" d="M1110.9,384.15c.35.34.69,1,1,1.38,2.75,1.72,3.79,4.48,5.51,6.89,2.41.69,4.13.34,3.79-2.76-4.48-2.41-3.45-7.23-5.17-11a13.83,13.83,0,0,0-4.82-5.86A42.09,42.09,0,0,1,1110.9,384.15Z"/><path class="cls-40" d="M1284.9,387.94v2.76c-.35,2.41-.35,4.47-.69,6.54-3.45,1.38-3.79-1.38-4.14-3.44-.69-2.76-.34-5.86-.34-8.62.69-7.58,0-9.3-7.58-11.71-7.93-2.76-12.41-7.58-14.13-15.16a46.77,46.77,0,0,1-.34-6.89c.34-5.51-1-11,.34-16.2,1.72-5.85,1-11.37,1-17.22-6.21-5.52-6.21-13.1-7.24-20.33-1-4.82-.69-9.65-.69-14.47-.34-2.76.35-5.86-2.41-7.93-3.1-2.75-5.86-3.44-9.65-1-3.44,2.07-7.23,4.48-11.71,1.72-.69-1-1-2.06-.35-2.41,6.55-6.2,11.37-13.78,20.68-16.54,4.47.35,5.85-4.13,9-5.85,2.42-1.73,4.48-3.79,7.24-4.83,2.41,2.76,2.41,5.86,1.72,9-1.72,10-.69,20-1,30-.35,7.92,3.44,12.4,10,15.5,5.17,2.41,10.68,3.79,13.44,9.3a2.21,2.21,0,0,1-.35,3.1c-1,9.31-2.07,18.61-1.38,28.26v2.75c2.42,2.76,2.42,5.86,1.73,8.62-2.07,6.2-2.07,12.74-2.76,19.29,0,1-.34,2.07-.34,2.76C1284.21,379,1286.27,383.8,1284.9,387.94Z"/><path class="cls-41" d="M1206.34,298c0-5.16-2.07-8.26-6.2-11a150,150,0,0,0-20.67-11.37c-4.83-2.41-6.89-5.51-6.89-11,.34-5.85.68-11.71-.69-17.22a.34.34,0,0,0-.35-.35,4.43,4.43,0,0,0-2.07-.34l-.69.69a16.67,16.67,0,0,0-2.41,8.95c0,13.44-.34,26.88.35,40.32.69,7.23-1,14.81,1,22.39.69,1.72,2.41,2.76,3.79,3.45,8.62,3.44,16.2,7.92,24.81,11.71,6.2,3.1,7.58,2.07,10.68-4.48,1-4.13.69-8.27,0-12.4C1205.31,311.11,1206.34,304.56,1206.34,298Z"/><path class="cls-42" d="M1288.34,310.42c-4.48-4.14-10-6.2-15.5-8.62-6.55-2.75-9.65-7.58-9.65-14.81,0-13.44,1-26.88,1.72-40.66,9.65,2.76,16.54,9.65,24.12,15.51,3.79,2.75.69,9.3,1.38,13.78v12.06c0,1.38-.35,2.75-.35,3.79C1288,297.67,1291.1,304.22,1288.34,310.42Z"/><path class="cls-43" d="M1246,253.57c-2.06,2.07-4.13,3.79-6.2,5.86a11.88,11.88,0,0,1-14.13,2.41c-7.58,2.41-16.19.34-23.42-3.79-3.11-1-6.21-2.07-9.65-3.1a16.45,16.45,0,0,1-2.41-1c-1.38.35-2.76,1-3.79,1.38,1.37,5.51,6.2,6.55,10.33,8.27,5.86,2.76,9,6.55,7.93,12.75.34,4.13-.69,7.92,1,11.71,5.51,4.14,8.27-1,11.71-3.79,3.11-3.79,8.62-4.82,10.69-9.64,5.51-7.58,13.43-12.41,20.32-18.61A4.12,4.12,0,0,0,1246,253.57Z"/><path class="cls-44" d="M1119.86,306.28c2.76-5.51.35-11.71,2.07-17.57,3.44,1,3.44,3.45,3.44,5.86.35,3.1,1.38,2.75,4.48,1.72,10-3.79,7.24-12.75,9-19.64.69-3.1.35-6.2.35-9.3,0-3.79,1.72-5.17,5.51-5.17,2.07,1.72,2.07,3.79,2.07,6.2s0,4.14,3.44,4.14c3.1.34,3.1,3.44,3.45,5.86.69,4.47-.69,9.3.34,13.78-.69,4.13-2.06,8.27-1.37,12.4,1.72,9-3.11,15.16-9,21-1,1-2.41,2.41-4.14,1.72-2.07-.69-2.41-2.41-2.75-4.13-.69-3.11.34-6.21-.69-9.31-2.07,1-2.07,3.45-3.79,4.83-3.45,1.72-5.17-.35-6.55-2.76A31.44,31.44,0,0,1,1119.86,306.28Z"/><path class="cls-45" d="M1186.7,255.64a37.84,37.84,0,0,0,12.41,7.23c5.85,2.41,9,6.2,7.58,12.75-2.07,8.61,1.37,16.54,1,25.15a45.74,45.74,0,0,1,0,9.65c-.69,2.41.34,5.17-2.41,6.89-2.41-6.2-1-12.75-1-18.95,0-4.14-1.37-6.89-5.16-9a222.43,222.43,0,0,0-23.43-12.75c-3.79-1.72-5.52-4.13-5.17-8.27.69-6.89-1.72-13.78,1.38-20.32C1177.05,250.12,1181.53,253.91,1186.7,255.64Z"/><path class="cls-46" d="M1169.47,247.37V297a8.7,8.7,0,0,0-1.37,2.41c-3.45,3.45-6.89,8.27-11.37,6.89s-2.41-7.23-2.76-11.37c-.34-2.75,0-5.16-.69-7.92,1-7.24-1.38-14.82,2.41-22.05C1162.58,260.46,1161.89,250.81,1169.47,247.37Z"/><path class="cls-17" d="M1119.86,306.28c3.45,1,4.48,3.79,5.51,6.89,1,2.42,1.73,5.17,5.17,5.17,1.72,1.38,1.72,3.1,2.07,4.83.34,3.44-.69,7.23,4.13,9.3,2.07,1,1.38,4.48,1.73,6.89,0,3.44.34,6.89-.35,10.34-.34,3.44-1.38,6.54-5.86,6.2-2.75-4.48-.68-9-1.37-13.44-.35-2.07,1-3.79-3.1-4.48-5.17-1-1.73-5.86-2.42-9,1.73-4.82,2.42-8.27-4.82-8.61-5.86-.35-5.51-5.86-5.86-10.34C1117.79,310.76,1118.83,308.69,1119.86,306.28Z"/><path class="cls-47" d="M1156,264.94c-.69,7.58,1.38,15.16-1.38,22.74.69,2.41-.69,3.44-2.76,3.79-1.72-.35-2.41-1-2.06-2.76a98.39,98.39,0,0,0,.68-10c0-6.55,0-6.55-6.54-3.1V261.84c.34-3.45,2.76-5.17,5.51-4.48,2.41.34,1.38,3.44,1.38,5.17C1150.52,269.07,1153.28,266.66,1156,264.94Z"/><path class="cls-48" d="M1114.69,460.29c.69-7.58-1.37-15.16,1.38-22.74,1.72-1.72,3.1-4.48,6.2-3.1,2.76,1.38,2.76,4.14,2.76,6.55a52.88,52.88,0,0,1-.35,12.75,11.37,11.37,0,0,1-1.72,4.13c-1.38,1.72-2.75,3.45-5.51,2.76C1116.42,460.64,1115.38,460.29,1114.69,460.29Z"/><path class="cls-49" d="M1117.45,460.64l4.13-3.1c4.83,2.75,4.83,7.23,4.48,11.71a47.43,47.43,0,0,1-3.1,12.06c-1.38,2.07-2.41,3.79-5.51,3.1C1115.38,476.49,1115,468.56,1117.45,460.64Z"/><path class="cls-50" d="M1117.1,484.76a28.37,28.37,0,0,1,4.14-2.76l1,1c2.41,7.24,1.73,14.82.69,22.05-1.38,2.76-2.75,5.86-6.89,5.17-.69-4.82,1-10-1.38-14.47C1115.73,492,1113.66,487.51,1117.1,484.76Z"/><path class="cls-51" d="M1260.43,358.65c2.07,7.24,6.21,11.37,13.44,13.44,8.27,2.07,8.61,4.48,8.27,12.75-.35,4.13-2.76,9.3,2.07,12.75a46.77,46.77,0,0,1,.34,6.89,7.65,7.65,0,0,1-.34,2.75c-1.73,5.17.34,10.68-1,16.2a17,17,0,0,1-.34,4.13c0,1.38-.35,2.76-.35,3.79-.69,4.14.69,8.27.35,12.06a17.54,17.54,0,0,1-1,7.24A3.13,3.13,0,0,1,1279,452a5.31,5.31,0,0,1-2.07-2.75c-1-5.86-.35-11.37-.69-17.23-.34-3.1-.69-6.55-3.79-7.23-15.85-3.45-15.16-15.85-16.19-27.91v-3.45c-.35-9.3-.35-18.6-.69-28.25C1257.33,362.44,1257,359,1260.43,358.65Z"/><path class="cls-34" d="M1283.52,423.08c-.35-5.51-1-10.68,1-16.19,0,3.1.35,6.2.35,9.65v5.51A1.82,1.82,0,0,0,1283.52,423.08Z"/><path class="cls-52" d="M1285.24,451.33v-5.85a1.29,1.29,0,0,1-.34-1c-1-.69-1.73-1-2.42,0-.34,1.73-1.37,3.45-.68,5.52a36.53,36.53,0,0,0-1.73,6.54,299.25,299.25,0,0,0-2.75,49.62v43.06c0,2.07.34,4.14-.35,5.86-4.48,11.37-2.07,23.09-2.07,34.46,0,3.1,1,5.85,3.45,6.89a291.72,291.72,0,0,0,3.1-38.59c.34-16.2.34-33.08,3.45-48.93C1281.8,489.23,1284.9,470.63,1285.24,451.33Z"/><path class="cls-8" d="M1284.55,444.44h-2.41c-.35-4.47-1-9.3,1-13.43C1284.9,435.14,1284.9,439.62,1284.55,444.44Z"/><path class="cls-53" d="M1116.07,509.91l5.17-4.14c.34.35.69.35.69.69,2.07,4.14,1.38,8.61,1,12.75-.34,4.48.69,7.58,4.82,9.3,2.07,7.24,1,14.13.69,21.71-.69,6.54-5.51,8.27-10.68,10a4.75,4.75,0,0,1-2.06-.69,2.06,2.06,0,0,0-.35-1.38C1116.07,542.29,1116.07,526.1,1116.07,509.91Z"/><path class="cls-54" d="M1113.31,634.63c-2.06-.34-4.13-.34-5.85-.69a27,27,0,0,1,.69,5.17C1109.87,639.11,1111.94,637.39,1113.31,634.63Z"/><path class="cls-55" d="M1115.73,634.63V656c-4.14,6.89-1.73,14.47-2.07,22v.35a8.62,8.62,0,0,1,.34,2.75c.69,8.27.35,16.54.69,24.81l.35-.34h4.13c3.45-3.79,2.41-7.93,2.07-12.41.34-10,.69-19.64,0-29.63.69-10,.34-20,.34-30,0-3.1.35-6.2-2.75-8.62C1113.66,627.4,1116.76,631.53,1115.73,634.63Z"/><path class="cls-56" d="M1115.73,591.56h0c1,11.37,4.13,22.4,2.75,33.77.35,12.75.35,25.84.35,38.59,2.41,1,4.13.34,5.85-1.38l1-2.07c1-5.86.69-11.71.69-17.57,0-4.13,1-7.24,4.48-9.65a32.44,32.44,0,0,0,.69-26.53c-2.07-4.48-3.45-8.27-3.45-13.09-.35-4.48.69-9-1-13.09-2.76-3.79-5.52-1-8.27,0-1.38,1.72-1.38,4.13-2.07,6.2A40.39,40.39,0,0,0,1115.73,591.56Z"/><path class="cls-57" d="M1115.73,591.91h0a7.73,7.73,0,0,0,.34-2.76c1.72-3.1,2.07-5.86.35-9C1116.42,584.33,1116.07,588.12,1115.73,591.91Z"/><path class="cls-58" d="M1116.07,745.92a14.63,14.63,0,0,0,2.41-16.2,16,16,0,0,1-3.1-1C1115.73,734.55,1116.07,740.4,1116.07,745.92Z"/><path class="cls-59" d="M1118.48,705.61c.35-4.14.35-8.27.35-12.06,3.1-4.14,3.1-9,3.1-13.78.34-5.52-1.38-11.37,2.07-16.89h0c2.06-2.41,4.13-3.44,7.23-1.72,3.1,5.86,1.38,12.4,1.72,18.61.35,4.13,1.38,6.89,5.17,7.92,3.1,9,3.79,18.61.35,26.87-2.76,6.21-5.86,12.06-7.24,19-1.38,5.52-6.54,6.89-11.37,4.14-1-5.86.69-11.72-1-17.23C1118.48,715.6,1118.48,710.43,1118.48,705.61Z"/><path class="cls-60" d="M1116.07,742.47a61.11,61.11,0,0,1-2.07,19.64,23.36,23.36,0,0,0,4.48.69c5.52-3.45,2.41-8.61,3.45-13.09.69-4.14.69-8.27-2.07-11.72-1-5.85,1.38-11.71-1.38-17.57,0,3.1-.34,6.2-.34,9.3A14.75,14.75,0,0,1,1116.07,742.47Z"/><path class="cls-17" d="M1119.86,331.78v13.44c3.79-3.1,5.86-2.76,5.51,2.41-1,6.54,2.42,13.78-5.51,20.67,0-4.82.35-7.92,0-11.37-.34-2.76,1.72-6.55-4.13-6.89-2.41-.34-1-3.79-1.38-5.86V330.75c2.07-.69,2.76-3.45,4.82-2.76C1119.86,328,1119.86,330.4,1119.86,331.78Z"/><path class="cls-61" d="M1109.52,654.27a16.52,16.52,0,0,1,.35,4.13,113.58,113.58,0,0,1,4.13,24.12,15.17,15.17,0,0,0,2.07-2.41V656C1113.66,656.34,1111.59,655.3,1109.52,654.27Z"/><path class="cls-57" d="M1116.07,578.47c1.38.69,2.41.69,3.45-.69,2.06-3.1,1.72-6.54,1.37-9.65-.34-3.44,1-7.23-3.44-9h-1.38v19.29Z"/><path class="cls-54" d="M1116.07,589.15h0c4.48-1.38,1.72-5.51,2.76-7.92a1.68,1.68,0,0,0-.69-2.76h-2.07A54.41,54.41,0,0,1,1116.07,589.15Z"/><path class="cls-62" d="M1122.62,455.12V442.38c0-7.58,0-7.58-6.89-4.83-.69-4.13,3.1-6.2,4.13-9.3-1.72-4.82-3.79-10-5.51-14.81,0-4.83.34-9.65,0-14.48a7.5,7.5,0,0,1,2.75-6.89,35.52,35.52,0,0,0,3.79-2.75l1.38-1.38c3.79.69,3.1,3.79,3.45,6.2a109.94,109.94,0,0,1-.69,23.77c-.35,2.42-1,4.83,0,7.24,2.07-.69,1.72-3.79,4.13-3.79,1.73,1,2.07,2.76,2.41,4.48,0,7.92-1,15.5-.34,23.77.34,2.41,0,4.83-2.76,6.2C1126.75,452.37,1124.68,457.54,1122.62,455.12Z"/><path class="cls-35" d="M1288.34,310.42c1.38-6.2-1-12.75,1.72-18.61,0,1,.35,2.07.35,2.76v16.19a10.48,10.48,0,0,0-1.38,2.76A17.94,17.94,0,0,1,1288.34,310.42Z"/><path class="cls-63" d="M1286.62,372.09h.69a16.92,16.92,0,0,1,.34-4.13c0-7.24.35-9,4.83-9.31.34-4.48.68-8.61.68-13.09-1-.69-2.06-1-3.1-1.72h-2.75c-.69,9.3-2.41,18.6-1.38,28.25Z"/><path class="cls-39" d="M1129.16,421.7c-2.41,2.42,0,9.65-5.16,8.27-3.11-.69-1.73-6.89-1.38-10.33a129.31,129.31,0,0,0,1-25.84c0-2.07.69-4.14-1.38-5.52l2.76-2.75c4.13-6.89,6.2.34,9.3,1.38,2.41,1.72,2.07,4.13,2.07,6.54C1134,402.75,1131.58,412.06,1129.16,421.7Z"/><path class="cls-64" d="M1134.68,393.45c0-2.41-.35-4.82-.35-6.89,0-4.13-2.07-7.58-3.44-11-2.07-5.86-1.73-13.1.68-19.64,6.9-4.48,3.1-11.37,4.14-17.23a1.94,1.94,0,0,1,3.1,0c1.38,1.72,1.38,3.79,1,5.86-2.06,6.89.35,14.12-.69,21-.68,5.17.35,10.34.35,15.51-1.72,5.86,1.72,11.71-.35,17.23C1133.3,401,1136.4,395.17,1134.68,393.45Z"/><path class="cls-63" d="M1284.9,387.94c.34-4.48-1-9,1.37-13.09C1285.58,379,1287.31,383.8,1284.9,387.94Z"/><path class="cls-65" d="M1110.21,780c1.73,2.75,4.14,3.79,8.27,4.13,11,1,22.4.69,33.42,2.07,7.58,1,14.82,2.07,22.4,3.1h.69a26.34,26.34,0,0,1,5.16-.34,13.86,13.86,0,0,1,5.17-1c11.72,0,23.78-1,35.15-2.07-10.34-.68-21-1-30.67-2.41,5.17-.34,11,1.73,17.23.69,2.07-.34,6.2.69,4.48-4.13-9.65-3.45-19-.69-28.6-1-.69.35-1.38.35-2.07.69-1.37,1-1.72,3.1-4.48,2.76-10.33-.69-20.67-1.38-30.66-2.76a4.32,4.32,0,0,0-2.07.35c-1.37.69-2.75,1.72-4.48,1.38-8.61-1.73-17.22-1-25.84-1.38A4.71,4.71,0,0,1,1110.21,780Z"/><path class="cls-66" d="M1108.49,775.2c1,3.45,2.07,5.52,3.79,6.89h2.41c3.1-.34,6.2-.68,8.27-3.79,1.38-9.3,2.07-18.6-.69-27.9-.69-1-1.38-1-2.06-.69-1.73,3.79,2.75,8.61-2.76,11.71a10.87,10.87,0,0,0-3.1-1A37.28,37.28,0,0,1,1108.49,775.2Z"/><path class="cls-67" d="M1206,310.42c0-3.1-.35-6.55-.35-9.65,2.07-3.79-.34-7.92,1.38-11.71,5.17,1.37,6.55-4.83,10.68-5.52,4.82,3.45,3.1,8.62,3.45,13.1s.68,7.23,6.2,6.89c3.79-.35,5.51,2.41,5.85,5.85.35,2.42,0,4.83.35,7.24.34,1.72-.35,4.13,2.41,4.13a4.56,4.56,0,0,0,5.17-3.44c1-4.48.69-9.3.34-13.78-.34-1.73-1.37-2.07-2.75-2.07-9-1-10-2.76-7.93-11.71,5.52-1.38,10.68-.35,14.82,3.79,2.76,2.41,5.17,5.16,9,4.82,1.37,1,2.41,2.41,2.06,3.79-2.41,6.54,1.73,10,6.21,13.44-2.07,1.72-2.07,4.47-3.79,6.2-1,.69-2.07,1.72-3.1,1.38-6.9-3.45-11.37,2.41-16.54,4.82s-9.65,6.2-15.85,5.51c-1.72-1.72-1.38-4.13-2.76-5.86-2.07-2.75-4.13-5.51-7.23-6.89C1208.06,318.69,1206,315.24,1206,310.42Z"/><path class="cls-68" d="M1223.22,333.16c7.93-4.14,16.54-6.2,23.09-12.75,1.38-1.38,3.44-2.07,5.17,0,2.06,2.76,4.47.69,6.54.69,2.76-.35,3.45,1.72,3.45,3.79-.35,3.44.69,6.54-.69,9.65,0,5.85,0,11.71-.35,17.22-1.72.69-2.75-.34-3.44-1.38-3.45-4.13-6.89-3.44-10.34-.68-1.38,1-3.1,2.41-4.82,2.41-6.89,0-7.58,4.48-7.58,10,.34,5.86.69,12.06-6.55,14.12-6.2-5.16-3.79-12.05-4.13-18.6-.35-2.76-.35-4.82-1.38-7.58C1220.47,344.87,1219.78,338.67,1223.22,333.16Z"/><path class="cls-69" d="M1228.39,375.88c5.51-5.17,4.14-12.06,4.14-18.26-.35-5.17,1.37-7.58,6.89-7.24a6.6,6.6,0,0,0,4.48-.68c10-5.86,10-5.86,16.88,2.06v6.55c-1,1.72-1.72,3.79-2.76,5.51-1,.69-1.38,2.07-2.41,2.07-9,1.72-9.3,8.27-9,15.5a21.23,21.23,0,0,1-.69,9.31c-.34.68-1,1.72-1,1.37-3.79-2.75-7.93-.34-11.72-.69-1.37-.68-1.72-2.06-2.41-3.1C1231.49,384.15,1226.67,380.7,1228.39,375.88Z"/><path class="cls-70" d="M1231.15,289.06v4.82c.34,7.58,1,8.27,7.58,5.51,3.79-1.72,4.48-.69,4.48,2.76v16.54c0,2.06-1,3.1-2.76,4.13-7.24,3.79-9.3,2.76-9.3-5.86,0-1.72-.35-3.79,0-5.51.69-5.51-1.73-7.58-6.89-5.51-4.14,1.38-5.17-.69-5.17-4.14,0-5.85,1-12.06-1.38-17.91,2.41-4.48,6.89-5.86,10.68-8.27,5.51-.69,11-.69,14.13-6.2,1-1.73,2.41-1.38,3.44.34s1.73,3.45,3.79,3.45c0,4.13-3.79,4.82-6.2,5.51C1237.69,280.1,1233.56,283.2,1231.15,289.06Z"/><path class="cls-71" d="M1231.15,289.06c-1-6.21,2.06-9.65,8.27-10.68a23.87,23.87,0,0,0,10.68-5.17c3.44.34,4.13,2.75,4.13,5.51v20c-.34,2.07-1.72,3.45-3.1,2.41A52.79,52.79,0,0,0,1231.15,289.06Z"/><path class="cls-71" d="M1260.78,334.54c-1-4.48,2.41-9.65-2.76-13.44-.34-2.76.69-5.17,4.14-5.51C1261.47,321.79,1263.19,328.33,1260.78,334.54Z"/><path class="cls-72" d="M1169.47,319.72c10.34,2.76,19,8.27,28.26,13.09,3.79,2.07,6.2,1.73,7.58-2.41a5.71,5.71,0,0,1,2.06,5.51c-1,7.24-.34,14.47-2.06,21.71a4,4,0,0,1-5.17,1.72c-9.65-4.13-19.64-8.27-28.94-13.43a8.07,8.07,0,0,1-3.45-4.14,50.43,50.43,0,0,1,0-20.33C1168.44,320.75,1168.79,320.06,1169.47,319.72Z"/><path class="cls-73" d="M1204.27,358.65c.69-9.3,1-18.6,1.38-28.25V317a43.21,43.21,0,0,0,.35-6.54c1.37,4.82,4.48,7.23,9,9.3,2.76,1.38,4.83,4.48,7.24,6.55,1,10.68.35,21.7,1.38,32.38-.35,1.38-1.38,3.45-2.41,2.42-4.14-3.79-7.93-2.42-12.06-1.38a3.88,3.88,0,0,1-3.79-1C1204.62,359,1204.27,358.65,1204.27,358.65Z"/><path class="cls-74" d="M1169.47,319.72a2.63,2.63,0,0,0-.34,1.38c-2.07,2.75-4.13,4.82-7.92,3.1-3.11-3.45-1-8.27-2.76-13.09-7.93,8.95-16.19,16.19-20.33,27.56h-2.41c-1.38-2.07,2.76-7.92-4.48-5.51-1.72.69-1.38-2.07-1.38-3.1V318.34c0-4.48,2.07-7.58,6.89-10.33v17.57c.69.34,1.38.34,2.07.69,4.14-5.86,11.71-9,10.34-18.61-.69-5.17-1.73-11,2.41-15.85,1-1.38,2.07-2.75,2.76-3.79,3.1,5.52.34,11.72,1.72,17.92,4.48-3.1,8.61-5.86,12.75-8.61C1169.47,304.56,1169.47,312.14,1169.47,319.72Z"/><path class="cls-41" d="M1207,289.06c-.69,4.13,1.38,8.26-1.38,11.71.69-8.61-1.38-16.88,1.38-25.5Z"/><path class="cls-75" d="M1122.62,455.12c1.72,1.38,3.44-4.82,5.51,0,3.1,4.14,1.72,8.62,1.72,12.75,0,3.79,2.07,3.79,4.48,4.14,3.45,5.85,3.45,21-.34,26.18a6.21,6.21,0,0,1-5.52,3.1c-4.13-2.06-2.75-5.51-2.41-8.61.35-4.48-.34-8.27-4.48-10.68h-.34c.69-7.93,5.51-16.19,0-24.12C1121.58,456.85,1122.27,456.16,1122.62,455.12Z"/><path class="cls-76" d="M1121.58,482c5.52-1,6.89,1.38,6.55,6.55,0,4.13-2.07,8.26-.35,12.05.69,2.07-1,2.76-1.72,4.14-1.38,1.38-3.1,2.41-5.17,1.38h0C1121.24,497.85,1121.24,489.92,1121.58,482Z"/><path class="cls-77" d="M1279.38,449.61a4.7,4.7,0,0,0,1,1.38c1,7.92-.69,15.85-1,23.77,0,.69-1,1-1.72,1a47.34,47.34,0,0,1-23.77-9.31c-2.07-8.95-2.41-17.91,1-26.53,1-1.37,2.07-2.06,3.45-1.37C1265.6,442.38,1273.18,444.79,1279.38,449.61Z"/><path class="cls-78" d="M1279.38,449.61a76.52,76.52,0,0,1-22.74-10.68c-4.13-4.82-2.06-10.33-1.72-15.85,2.07-5.85.35-12.06,1-18.26.35-3.79-.68-7.58,1.38-11,.69-.69,1.38-1,2.07-.69.69,6.2.69,12.4,1.38,18.26,1,6.54,6.2,8.61,11.37,9.3,5.51,1,7.23,3.79,7.23,9Z"/><path class="cls-79" d="M1259.4,393.45H1258a9.69,9.69,0,0,0-7.58-1c-2.06.69-4.13,1.38-6.2-.35,0-5.16.69-10.33-.34-15.5-1-7.24,1.72-11,8.95-11.37,1.73-.34,3.1-.69,4.48-1C1260.43,373.81,1258.71,383.8,1259.4,393.45Z"/><path class="cls-80" d="M1276.63,475.11c3.79-.69,2.75-3.45,2.75-5.86.35-6.2-.34-12.4,1-18.26l1.38-1.38c-1,16.2-1.73,32.39-2.42,48.58a51.45,51.45,0,0,0,0,7.24c-1.37,6.2-.34,12.06-.69,18.26-.34,1.38,1,3.79-2.41,3.44-3.44-5.16-1.72-11-2.06-16.53a32.3,32.3,0,0,1,.34-10c-.34-5.85-.34-11.71-.34-17.22C1274.56,480.28,1274.21,477.52,1276.63,475.11Z"/><path class="cls-81" d="M1273.18,656.34c.35-8.27.69-16.2,1.38-24.81,1.38-12.75,3.1-25.15,4.48-37.56-1-.68-1.38-2.41-2.07-4.47a23.15,23.15,0,0,1-.34-4.83c.34-11,.69-22,2.06-32.73,2.07-15.16.35-31,.35-46.51-1.38,2.41-1,4.82-1,6.89-.69,4.82,1,10-1.38,14.81l-1,1c-2.06,11-.69,22.74-2.75,33.76-2.07,12.41-.35,24.81-1.38,37.21-1.72,15.51-3.45,31.36-2.76,47.2C1269.74,653.58,1270.43,656.34,1273.18,656.34Z"/><path class="cls-82" d="M1118.48,581.23a28.32,28.32,0,0,0-.69-2.76c.35-6.2,1.73-12.75-.69-19,2.76-3.1,8.62-2.76,9.31-7.92a10.51,10.51,0,0,1,5.17-3.45c2.41-1,4.82-2.41,7.23-.69a6.45,6.45,0,0,1,1.72,4.83c.69,15.84-.69,32-2.06,47.89-1,2.06-2.76,3.44-5.52,2.75s-3.1-3.1-3.1-5.16c-.34-4.14-.34-8.27-.34-12.41.34-3.79-1.73-5.17-4.83-5.86C1123,580.54,1121.24,582.61,1118.48,581.23Z"/><path class="cls-83" d="M1121.24,506.12a8.77,8.77,0,0,0,4.13-2.76c4.14,1,3.1,4.14,3.45,6.89,0,5.51,1.38,11-1,16.54l-1,1c-1.72.35-2.76,3.45-5.17,1.73-2.06-1.38-.69-3.11-.69-4.83C1121.24,518.18,1121.24,512.32,1121.24,506.12Z"/><path class="cls-84" d="M1132.26,550.22a32.67,32.67,0,0,1-5.51,1.38V527.48h0c2.07-1.72,3.45-5.17,6.55-1.72,1.72,6.54.69,13.43.69,20A17.55,17.55,0,0,1,1132.26,550.22Z"/><path class="cls-85" d="M1124,662.88V688c0,3.45-2.76,4.14-5.17,5.52,0-9.65-.35-19.64-.35-29.29A7.91,7.91,0,0,1,1124,662.88Z"/><path class="cls-86" d="M1125.37,579.85c2.07-1,3.79-2.07,6.89-3.45v21.71q0,6.72,5.17,3.1c1-.34,1.38-.34,2.07.69,1,7.58.34,15.5.34,23.08-.34,5.17-3.1,8.27-7.92,9.31a2.1,2.1,0,0,1-2.07-1c2.76-7.92.69-15.85,1.38-23.77,0-.35,0-1.38-.34-1.38-10.34-4.13-3.11-12.75-4.83-19C1124.68,586.39,1125.37,583,1125.37,579.85Z"/><path class="cls-87" d="M1129.16,633.25h1.38c2.76,2.76,2.41,6.2,2.41,9.31,0,5.85.69,12.05-.34,17.91a1.45,1.45,0,0,1-2.07,1,48,48,0,0,1-6.89,1.38V639.11C1123.65,635.32,1125,633.25,1129.16,633.25Z"/><path class="cls-88" d="M1121.24,750.05a2.05,2.05,0,0,0-1.38.35V738.34c7.58,0,11.37-3.79,10-10.68-1-4.48-1-7.58,4.48-9.31,3.1-1,3.45-3.79,3.45-6.54V688.38a1.62,1.62,0,0,1,.34-2.07c3.45-2.07,4.48-4.82,4.48-8.27,0-4.82-.34-10,0-14.81.35-2.41.35-4.83,2.41-6.89,1.73-1.73,3.79-2.76,5.86-2.42,2.76.69,3.45,2.76,3.79,4.83a132.86,132.86,0,0,1,0,23.43,9.48,9.48,0,0,1-2.76,5.17c-6.54,6.54-6.54,20.32.35,26.53a10.25,10.25,0,0,1,2.75,5.85c.35,1.73.35,3.79,1,5.17.34.69.69.69,1,.69,1.38-1.72.69-3.45.69-5.17-1-9.65,1-11.71,10.68-10a7.12,7.12,0,0,1,1.38,2.07c1,7.23,1.72,14.47-.69,21.7-3.79,2.41-7.23,4.83-8.27,9.65-.69,2.76-3.44,3.45-6.2,3.1-2.41-.34-4.13-1.72-4.13-3.79.34-4.48-3.45-4.48-5.52-6.2-3.1-4.82-.69-10.34-2.75-15.85-3.45,8.61-2.41,13.09,3.79,17.57,1.72,3.45,2.06,7.24-2.07,9-3.1,1.38-5.51,0-6.89-3.45-.69-1.37-.69-2.75-2.07-4.13-1.72,2.76-1.38,6.55-4.13,8.27C1127.1,750.74,1124.34,752.12,1121.24,750.05Z"/><path class="cls-89" d="M1137.43,687c0,.35-.34,1-.34,1.38-5.17,2.07-7.24.69-6.89-5.17.34-7.23.34-14.47.34-21.7h1.38c2.76-3.45,6.2-3.11,6.55,1C1140.19,670.46,1141.57,679.08,1137.43,687Z"/><path class="cls-90" d="M1134.68,393.45c2.06,1.38.34,5.17,3.79,5.17,2.41,2.07,4.13,4.48,6.89,6.2,2.06,1.38,4.13,3.1,3.44,5.86a7.48,7.48,0,0,1-1.72,2.76c-3.79,3.44-3.79,8.26-3.79,12.74-.35,6.21.69,12.41-2.76,17.92a5.59,5.59,0,0,1-5.85,1.72c-3.45-4.13-1.73-9-2.07-13.43-.35-2.42,1-5.52-2.07-7.24-1.72-1-1.38-2.76-1.38-4.13,0-3.45.35-6.55.35-10,0-4.13,0-8.27,4.13-11C1135.37,398.62,1134.68,395.86,1134.68,393.45Z"/><path class="cls-91" d="M1133.3,472.35c-1.38,1-3.1,2.07-5.52,3.79v-21c1-1.72,1.73-3.44,2.76-5.51,1-2.41,2.07-4.48,5.17-2.07,2.07,6.9,1.38,13.79.69,21A4.49,4.49,0,0,1,1133.3,472.35Z"/><path class="cls-92" d="M1134.68,446.86a34.83,34.83,0,0,0-3.79,3.1c-.69-.35-2.42-1-2.07-1.38,1.72-7.58-1-15.51,2.07-23.09,2.06-1.37,4.13-3.44,4.13,1.73-.35,6.2,0,12.4,0,18.6a1.29,1.29,0,0,1,.34,1Z"/><path class="cls-93" d="M1268.7,744.19h0a204.29,204.29,0,0,0,3.79-29.63c.35-5.85.69-11.37.69-17.22a11.53,11.53,0,0,1-5.86.69c-2.06,3.1-1.72,6.2-1.72,9.64-.34,5.17,1,10.68-1,15.85-.69,6.89-1.72,13.78,1,20.67C1266.29,745.57,1267.67,744.88,1268.7,744.19Z"/><path class="cls-94" d="M1266.29,688.72c0,3.1-.34,6.21,2.07,9,.69,1.72-.35,5.17,3.1,3.1.34-.34.69-.34,1-.69.35-14.81,0-30,.35-44.79-1.72-.34-1.72-2.06-2.07-6.89-3.45.69-3.1,3.45-3.45,5.51a52.54,52.54,0,0,0,0,10.34C1265.6,672.19,1266.29,680.45,1266.29,688.72Z"/><path class="cls-95" d="M1264.57,763.83c1-5.16,2.07-10,3.1-14.81.69-2.76,1-5.51,1.72-7.93a32.85,32.85,0,0,0-3.44,3.45c-5.86,5.17-3.1,11.37-2.76,17.57A3.39,3.39,0,0,0,1264.57,763.83Z"/><path class="cls-96" d="M1205.65,786.92c15.51-1,30.67-2.76,46.17-5.17a63.35,63.35,0,0,1,11.37-1v-.35c-4.48-1.38-9.3,0-13.78-.34-10-.69-20.33,1-30.32-.69-2.41-1-2.07-3.1-2.41-4.83a9,9,0,0,0-1.38-5.16c-2.76-1.73-3.1.69-3.45,2.06a15.41,15.41,0,0,0,.35,9.65c-8.27,2.41-16.88.35-25.5,2.07,5.86,1.72,11.72,3.44,17.57,3.79C1205,786.57,1205.31,786.92,1205.65,786.92Z"/><path class="cls-97" d="M1138.47,338.67c0-5.17.68-9.3,5.51-13.44,4.48-3.79,8.27-9.3,12.4-14.47,1-1.38,2.07-2.75,3.79-2.41,2.07.69,1.38,2.76,1.38,4.13.35,3.79,0,7.58,0,11.37,3.45,4.48,2.07,9.65,1.72,14.48-2.75,8.95,0,18.26-1,27.56-.35,2.07-.35,3.79-1.38,5.51-5.86,0-10.33-2.75-14.12-6.54-5.52-5.86-10-12.41-8.27-21.37Z"/><path class="cls-74" d="M1138.47,343.84c2.06,5.86,2.41,12.06,7.58,16.88,2.75,2.41,3.44,6.2,8.26,6.2,3.1-.34,3.79,3.45,5.86,5.17,3.45,3.45,2.07,7.92,2.41,11.71-1,4.83.69,9.31-1,13.79-3.1,2.75-3.79-.35-4.14-2.07-.34-5.51-3.44-7.93-7.57-11-6.55-4.82-12.06-10.33-12.41-19.29C1138.12,358,1136.05,350.73,1138.47,343.84Z"/><path class="cls-98" d="M1137.43,365.2a35.89,35.89,0,0,0,17.23,20.33,7.22,7.22,0,0,1,4.13,6.89c0,2.07-.69,4.48,1,6.2.69,3.45-2.07,4.13-4.14,5.17-7.58-1.38-11.37-7.93-16.88-11.72-2.76-2.06.35-7.23-1.38-10.68Z"/><path class="cls-99" d="M1137.43,381.39c1.72,5.17,5.52,10.68,10.34,15.16,2.75,2.41,4.13,5.86,8.27,6.2,1.72,7.24,2.41,14.48-1.38,21.71-4.82-1-3.1-4.82-3.1-7.23-.35-3.11-.35-5.17-3.79-6.21-1-3.44-3.79-5.16-6.55-6.2-3.1-1.38-3.1-3.44-3.1-5.86C1138.12,393.11,1136.74,387.25,1137.43,381.39Z"/><path class="cls-100" d="M1215.3,770c-3.45,3.1,1,7.92-2.76,11-10.33-.34-20.67-.34-31-.34.35-3.79,3.45-3.1,5.52-3.1,2.75-.35,4.82-1,4.48-4.14-.69-16.88-1-33.76.34-50.65.69-8.61,1.38-17.22,1.38-25.84,0-2.41.34-4.48,2.07-6.2a3.3,3.3,0,0,1,3.44-.69,5,5,0,0,1,2.07,3.1c1,6.55.34,13.44.69,20,0,3.79,1.38,5.85,5.17,6.2,4.82.34,7.23,3.1,6.89,7.92-.35,4.14,1,7.93,1.37,12.06.69,7.93.69,7.93,8.62,8.27,1,0,1.72.34,2.75.34a85.3,85.3,0,0,1,9.31-.34c3.44.34,7.23,0,8.27,4.48a44.53,44.53,0,0,1,.34,6.55c0,1.37-.34,3.1,1.38,3.44,2.76.35,4.82,1.38,4.82,4.48-.34,4.13.69,8.61-1.38,12.4a2.84,2.84,0,0,1-3.44,1.73c-2.41-.35-3.45-2.07-3.79-4.14-1-5.17-8.62-7.58-12.75-4.13a9.81,9.81,0,0,1-5.86,3.1C1219.09,776.24,1215.64,775.55,1215.3,770Z"/><path class="cls-101" d="M1193.59,775.55c.35,3.44-1.38,4.13-4.48,4.13-2.75,0-5.51-1.38-7.58,1.38-.69,0-1,.35-1.37.35-2.76,2.41-5.86-1.73-8.62.34-2.07-.34-3.1-1.38-4.82-2.41-.35-.69-.69-1-.69-1.72a7.71,7.71,0,0,1,1-1.73,8.62,8.62,0,0,0,2.07-4.82c1.72-5.51,4.48-7.24,8.62-4.14C1182.57,770.72,1187.39,774.17,1193.59,775.55Z"/><path class="cls-102" d="M1170.85,780.72c3.45-5.86,6.2.34,9.3.34,1,1.38,3.11.69,4.14,3.79-13.09-1-26.19-.34-38.59-3.79C1154,777.27,1162.24,778.3,1170.85,780.72Z"/><path class="cls-103" d="M1114.35,782.09c1.72-2.41,4.82-1,6.89-2.75,2.41-2.07,5.51-1.72,7.92-3.1,3.1-3.45,5.17-2.76,6.89,1,2.07,2.76,6.21.35,8.27,3.45-.34,1.37-.69,2.41-2.06,2.41Q1128.3,782.1,1114.35,782.09Z"/><path class="cls-104" d="M1144,781.06c-3.45-1-7.24.69-10.34-1.38,2.41-3.1,5.52-2.06,8.62-2.41,6.2-.69,12.4.69,18.26-1a5.52,5.52,0,0,1,6.2,1.72c2.07.34,4.13-.34,4.13,2.76-8.27.34-16.88.34-25.15.34Z"/><path class="cls-105" d="M1130.54,778.3c-2.76,2.42-6.2,1-9.3,1.38V750.4c5.86-.35,10.68-2.07,9.3-9.65-.34-1.72,0-3.45,2.07-3.79,2.41-.69,3.44,1,4.13,2.76a10,10,0,0,1,.69,3.44c0,2.41.35,4.48,3.45,4.48,3.44,0,3.44-2.41,3.44-4.82v-3.45c-.69-1-.69-1.72.35-2.75,4.13,1,7.92,1.37,6.89,7.23-.35,2.07,2.07,2.07,3.44,2.07,2.76,0,4.48-1.38,4.14-4.14-1-6.89,3.44-6.89,7.92-6.54.69.69,1.73,1.37,1.73,2.06,1,13.1,2.41,26.53-1.38,39.28l-.35.35c-1.72,1.37-3.79.69-5.85.69-11.72,1-11.37,1-12.06-11-.35-4.48.34-9-.35-13.44,0-.69-.34-1-1.38-1.72-1.72,3.79-1,7.58-1,11-.34,3.79.35,7.23-.34,10.68-.35,2.41-.35,5.16-3.79,5.51-3.11.34-5.86-1-6.55-4.48-1-4.48-2.07-8.61-1.38-13.09.35-2.07,1.38-4.48-1-6.89C1131.92,762.46,1132.26,770.38,1130.54,778.3Z"/><path class="cls-106" d="M1221.84,361.07c0-11.72.35-23.43.35-34.8,2.07,2.06,1,4.48,1.38,6.89v9.3c0,1-.35,2.07,0,2.76,5.17,8.27,1.38,17.22,3.1,25.49.34,2.07,1.72,3.79,2.41,5.51,1.38,4.14,5.51,7.24,4.13,12.06,1,14.82.35,29.63.69,44.45,0,4.48-.34,8.61-3.79,11.71-5.51,1.38-6.89-2.75-7.92-6.54-.69-2.41-.69-5.17-1.38-7.93-.34-1.72,1-3.44,1-5.16.35-4.48-.34-9,.35-13.44,0-12.06,0-24.46-1.38-36.52C1219.43,370.37,1218.4,365.54,1221.84,361.07Z"/><path class="cls-107" d="M1227,444.44c4.14-2.75,4.14-7.23,4.14-11.37v-37.9c0-2.41-1-4.82,1.38-6.89.34,1,1,1.73,1.37,2.76,4.14,5.51,2.07,12.06,2.41,17.92.69,18.6.69,36.86,2.42,55.47,1,9.3.69,18.6.34,27.91-1,18.26,1.72,36.86,1.72,55.12a3.62,3.62,0,0,1-1.72,3.1c-4.48,2.41-9.3,2.41-13.78,3.79a11.54,11.54,0,0,1-3.45.35c-10-1-11-3.1-11.37-13.1-.34-11.71,2.76-22.74,5.86-33.76,1.38-4.13,4.82-6.55,5.86-10.34,10-4.48,10-4.48,10-16.19,0-3.1.34-6.2-1.72-9-2.07-3.44-6.89-1.38-9-4.48C1217.71,456.5,1219.43,449.61,1227,444.44Z"/><path class="cls-108" d="M1236.32,464.77a5.22,5.22,0,0,1-1-4.48c.35-23.08-2.41-46.17-1.38-69.59,3.79-1.73,7.93-5.17,10.68,1.37,3.11-.69,5.86-1.72,9-2.41,3.45-1,4.48.69,4.48,3.79-1,10,1.38,20-1.38,29.63-2.06-2.06-1.72-7.23-7.23-4.13-7.24,4.13-7.58,3.44-9.65-5.51a31.31,31.31,0,0,0,2.41,7.92c1,1.72,1.38,3.79-.34,5.17-4.14,4.13-3.45,9.3-3.45,14.47v16.54C1238.38,460,1238.73,462.7,1236.32,464.77Z"/><path class="cls-109" d="M1169.47,342.46a286,286,0,0,0,34.8,15.85h.35c3.79,10.68,3.1,21,.34,31.7-3.44,1.72-3.44-1.38-3.79-2.76-1-3.79-3.44-5.51-6.54-6.89-6.2-2.76-12.06-5.51-18.26-7.92-3.1-1.38-6.21-2.76-7.93-5.86-.34-1-.34.34-.34-.69-1-4.82-4.48-13.44-6.55-16.54C1162.58,345.56,1164.65,342.46,1169.47,342.46Z"/><path class="cls-110" d="M1169.47,342.46a24.84,24.84,0,0,0-6.54,6.89c-4.14-3.1-1.38-7.23-1.38-10.68,0-4.82,0-9.65.35-14.82,3.1.69,4.82-2.75,7.92-2.75C1169.13,328.33,1169.47,335.22,1169.47,342.46Z"/><path class="cls-111" d="M1203.24,390.7c2.76-7.93.69-15.85,1.38-23.78a72.83,72.83,0,0,0,.34-8.61c3.1-.35,5.86-.35,9-2.41,4.48-3.45,5.51,3.44,8.27,5.17.69,16.88,2.41,33.76,1.38,51-3.79-1-2.76-4.14-3.1-6.2-.35-3.79-2.41-6.55-5.52-8.62-4.13-2.75-6.54-1.72-8.26,2.76-.69,1.72,0,5.86-4.14,2.75C1200.48,398.62,1199.79,394.49,1203.24,390.7Z"/><path class="cls-112" d="M1133.3,472.35c.69-.69,1-1.72,1.72-2.41,4.82-3.1,6.2-2.76,7.24,2.41a53.34,53.34,0,0,1,0,16.54c0,1.38,0,3.1-1,3.79-8.61,8.61-5.17,19.29-5.17,29.63-.34,5.51-.34,11-.68,16.54-.35,2.75.68,5.86-3.11,6.89,0-7.24-.34-14.13-.34-21.36-2.41-2.07-2.07-4.83-2.07-7.24,0-3.1-.69-5.51-3.44-7.58-.69-2.41.69-4.82-1.73-6.89a17.94,17.94,0,0,1,2.76-2.41c3.79-2.07,5.86-4.48,5.86-9C1134,485.44,1135.71,478.9,1133.3,472.35Z"/><path class="cls-113" d="M1236.32,464.77c0-10.68,0-21.36.34-32,0-2.07-.69-4.48,1.72-5.51,5.86-2.41,3.45-5.86,1-9-.69-1-2.07-2.07-2.41-3.45-.69-2.06-.69-4.13,1.72-5.16,2.75-1,3.44,1.37,4.13,3.1a4.72,4.72,0,0,1-.34,3.79c-.35,1.37-1,2.75.69,3.44,1.37.69,2.06-.69,2.75-1.72.35-.35.35-.35.35-.69a9.8,9.8,0,0,1,9.3-2.41c2.07.69.69,4.48,1,6.89V437.9c-1.72,9.3-1.72,18.6-1.37,28.25,3.79,7.58,2.06,15.16,1.37,23.08a9,9,0,0,1-1.72,3.11,14,14,0,0,1-6.89,3.1c-2.41.69-4.82,1.37-7.24.69-2.41-.35-3.1-2.42-4.13-4.14C1236.66,483.38,1236.66,474.07,1236.32,464.77Z"/><path class="cls-114" d="M1255.27,491.3c.34-7.92.34-16.19.34-24.12a124.82,124.82,0,0,1,21.36,8.27V501C1268.7,498.88,1260.78,498.19,1255.27,491.3Z"/><path class="cls-115" d="M1255.27,491.3c6.89,4.14,14.81,4.83,21.7,9.3,0,9,0,17.92.35,26.88h0a4.83,4.83,0,0,1-3.1,1c-6.9-.69-13.1-4.13-20-6.2a5.18,5.18,0,0,1-3.1-3.45c-1-8.95-1.72-17.57,2.76-26.18C1254.23,492.34,1254.58,491.65,1255.27,491.3Z"/><path class="cls-80" d="M1274.21,527.48H1277c.35,25.49-2.76,50.65-3.79,75.8-.69,14.81-2.41,29.63-2.07,44.79-2.41,5.17-.34,11-1.72,16.19-2.07,1.72-4.13,1.38-6.2,1-5.51-1.38-11.37-1.38-16.88-1.73a23.1,23.1,0,0,1-4.83-.34,16.94,16.94,0,0,1-2.41-1c-3.1-2.06-3.44-4.82-3.79-7.92-.34-5.17-.34-10-.69-15.16-.34-3.45.35-6.2,4.83-6.55,3.1,1.73,2.75,4.83,2.75,7.58.35,4.48.35,9,1.73,14.13,2.06-7.58.34-14.82,1.72-21.71l1-2.06c2.76-5.17,1-10.34,1.38-15.51.34-2.75-.35-5.86.69-8.61a7.12,7.12,0,0,1,1.38-2.07c6.89-4.13,12.74,1.38,19.29,1.72.69-7.23.35-14.12.35-21.36,0-3.79-2.42-4.82-5.52-5.85-5.17-1.73-10.68-1.38-14.81-5.52-2.76-8.27-.69-16.54,1-24.46,4.48-4.48,9.65-3.79,14.82-2.76,6.89,1.73,6.54,1.73,6.89-5.51C1272.49,536.78,1270.77,531.61,1274.21,527.48Z"/><path class="cls-116" d="M1138.81,601.21h-1.38c.69-15.5,1-31,1.38-46.51,0-2.41,1-4.83-1-7.24-.69-1,.34-2.07,1-2.75a60.65,60.65,0,0,1,8.61-5.52c1.73-1,3.79-2.75,5.86-.69,1,1.38,1,2.76,1.38,4.14,1,7.23-1.72,14.81,2.41,22.05.69,3.1-1.72,3.79-3.79,4.82-4.13,1.73-5.17,5.52-5.17,9.31-.34,5.51.35,11-.34,16.53a11,11,0,0,1-1,3.1C1144,600.52,1141.57,601.55,1138.81,601.21Z"/><path class="cls-76" d="M1139.15,546.43c-.68.34-1,1-1.37,1.38-2.07,1-3.79,2.06-5.52,2.75,0-1.38.35-2.75.35-4.13,2.41-4.83.69-10,1-14.82.35-3.1-.69-6.2,1.38-9,3.1-3.78,5.17-1.72,5.86,1.73C1141.22,531.27,1142.26,538.85,1139.15,546.43Z"/><path class="cls-76" d="M1126.75,509.91c3.1-1,5.51-1.38,5.17,3.44-.34,3.79,0,7.58,0,11.37-2.07.69-3.1,2.76-5.51,2.76C1126.75,521.62,1126.75,515.76,1126.75,509.91Z"/><path class="cls-117" d="M1138.81,601.21a6.94,6.94,0,0,1,6.55-2.41c3.79,3.79,1.72,8.61,2.06,13.09.35,2.76,0,5.17.35,7.93.34,2.41,1.38,3.79,3.79,2.75,2.76-.69,5.17-2.75,7.92-.69a5.39,5.39,0,0,1,1.38,4.48c-1.72,8.62-.34,16.88,2.76,25.15-4.48,8.62-2.07,17.23-2.07,26.19,0,4.48,5.51,2.41,6.89,5.51,1.38,9.65,3.45,18.95-1.38,28.6-7.92.69-10.68,4.13-8.26,12.06.68,2.41,2.06,7.23-2.42,7.58-4.13.34-3.79-4.48-4.13-7.58-.35-3.79,1-8.27-5.51-8.27-1.38,0-1.73-2.07-1.73-3.45-.34-5.17-.69-10.68-1-15.85-.35-4.48.34-7.92,5.51-9.3,2.76-.69,2.76-3.1,2.76-5.51,0-6.55.34-13.44-.35-20,0-2.06,1.38-5.85-2.75-5.51-3.1.35-5.17,2.07-5.17,5.86.34,6.55-.35,12.75,0,19.29.34,4.83-1.72,7.24-6.55,6.55,0-7.58-.34-15.16-.34-22.74,0-4.82-2.07-4.82-5.51-3.1-3.1-9.3-.69-18.61-1.38-28.25,5.51-2.42,7.23-6.55,6.89-12.75C1137.43,614.3,1136.05,607.41,1138.81,601.21Z"/><path class="cls-118" d="M1166.72,711.12V681.83c-2.41-2.75-2.41-5.85-2.41-9,0-7.92-.35-15.5.34-23.42-.34-13.79-1.38-27.91.69-42,3.1-3.79,4.13-7.92,2.41-12.75-1.38-4.82,1.38-7.23,5.86-7.58,4.82-.69,9.65.35,14.47,1.73,3.44,1,5.51.34,6.55-3.45.34-1.72,0-5.86,4.13-3.1,3.1,7.58-.35,14.82-.35,22.4-.34,12.05-.34,24.46,0,36.52a99.21,99.21,0,0,1-.34,17.57c-.34,1.72-1,3.1-1,4.48,1.37,15.5-4.14,30.66-2.76,46.17.69,5.51-1.72,7.23-6.89,6.54-6.89-1-14.13,0-20.67-3.79Z"/><path class="cls-119" d="M1166.72,712.5c7.23.69,14.47.69,22,1.72,4.48.69,5.17-.69,4.82-4.13-1-15.16,1.72-30.32,1.38-45.48,0-2.07-.69-4.14,1.38-5.86a4.86,4.86,0,0,1,2.06,4.82c-.34,7.93.35,15.51-.34,23.43a5.75,5.75,0,0,1-1.72,4.14,13.87,13.87,0,0,0-1.38,6.54c-1.72,25.84-1.38,52-1.38,77.87-6.2,2.07-10.68.34-13.78-5.51-1.38-2.42-4.48-3.11-6.89-3.11-3.45.35-.69,3.79-2.07,5.52s.35,5.17-3.79,4.13c0-13.78-.34-27.56-.34-41.69Z"/><path class="cls-59" d="M1144,736.61a7.47,7.47,0,0,1-.35,2.76c-4.82.69-7.23-1.72-6.54-6.55a49,49,0,0,0,0-10c0-2.75,1.72-4.13,4.13-4.48,3.1-.34,2.76,2.42,2.76,4.48Z"/><path class="cls-120" d="M1225.29,778.3c-3.45,1.38-6.89-.34-9,2.76,2.76,2.07,5.51,1,8.27,1,7.93.35,15.5.35,23.43.35,1.38-.35,2.76-.35,3.79-.69a62.47,62.47,0,0,1,11-1c-.34-5.86.69-11.72,1.38-17.23-1-.69-2.06-.35-3.1.34-6.2,3.45-6.2,3.45-9-3.79-2.06-4.82-5.16-7.92-10.68-5.85,2.41,3.1-5.51,11.37,5.52,10,1.37-.35,1.37,1.72,1.37,2.75,0,3.45-.34,6.55-.34,10-.35,1.37-.35,3.44-2.76,3.1-1.72-.35-2.41-1.73-2.41-3.45a6,6,0,0,1,2.07-4.13c1-1,.69-2.07-.69-2.76s-2.07,0-2.76,1.38c-.69,1-1,2.07-1.72,3.1-3.45-5.86-9.3-6.55-12.75-2.41-3.44,4.48-9.3,4.13-12.75-1.38v5.51C1217.37,780,1221.84,776.24,1225.29,778.3Z"/><path class="cls-121" d="M1140.19,444.44c1.38-7.23,1.38-14.81,1.38-22.39,0-4.48,1.72-7.58,5.51-9.65,2.76,1.38,2.07,3.79,2.07,5.86a105,105,0,0,0,1.37,17.92c-1.37,4.47-1.37,8.61-1.37,13.09.34,3.79-1,7.92,4.48,9,1.72.34,1.72,2.41,2.06,4.13a25.52,25.52,0,0,1,.35,7.24c-1,5.16.69,8.95,5.86,11,2.41,8.27,1,16.54,1,24.81a5.85,5.85,0,0,1-1,3.44c-2.07,2.42-4.48,4.14-7.93,3.45a4.25,4.25,0,0,1-1.38-2.76c-.69-5.17-.34-10.33-.34-15.16,0-3.1-.69-5.51-4.14-5.51a4.63,4.63,0,0,1-2.06-2.41c-1-3.1-.69-6.2-.69-9.3-.35-4.14.69-7.93-4.48-10.69C1136.4,463.74,1137.09,450.3,1140.19,444.44Z"/><path class="cls-122" d="M1140.19,444.44c0,5.86-.35,11.37,0,17.23,0,1.72-.69,4.82,2.41,3.45,5.51-2.76,4.13,1.37,4.48,3.79,0,5.85-.35,11.37-.35,17.22-1,3.45-1.72,6.55-6.2,4.14,0-5.51-.34-11,0-16.2.35-4.82-1.72-5.51-5.17-3.44-.34-7.58-.34-15.51-.34-23.09a2.07,2.07,0,0,1,.34-1.37A16,16,0,0,1,1140.19,444.44Z"/><path class="cls-123" d="M1149.15,434.8c-3.1,0-2.07-2.41-2.07-3.79-.35-6.2-.35-12.41-.69-18.61.35-.69,1-1,1.38-1.72,4.48-2.76,6.2-1.38,5.51,3.79a91.3,91.3,0,0,0,0,9.65c1.38,1.37,1.38,3.1,1.38,4.82a12.41,12.41,0,0,1-1.38,3.79A3.7,3.7,0,0,1,1149.15,434.8Z"/><path class="cls-124" d="M1246,661.5c7.93-.68,15.85,1,23.43,2.76q-.51,16.54-1,33.08c-2.07,5.85-.69,12.06-1.38,18.26-.34,2.75.69,5.17-1,7.58-7.58-1.38-15.51-1.73-23.09,0a6.8,6.8,0,0,1-2.07-4.83c1.38-9.3-2.41-18.26-.34-27.9l1-2.07c3.45-5.51,2.42-11.37,2.76-17.23C1243.9,668.05,1243.21,664.26,1246,661.5Z"/><path class="cls-125" d="M1241.83,753.84c5.51,1.38,10,3.1,9.65,10.34a5.14,5.14,0,0,0,4.13,5.51c3.1,1,3.45-2.07,4.82-3.44a21,21,0,0,1,4.48-3.11h0c.35-6.2-1-12.74,1.38-18.6,0-7.24.35-14.13.35-21.36-3.8-4.14-18.61-4.14-22.74,0-2.42,1.72-2.42,4.48-2.42,6.54.69,7.58-.34,14.47-6.2,20C1238,750.4,1242.17,748.67,1241.83,753.84Z"/><path class="cls-100" d="M1215,775.55c3.79,2.07,7.24-.69,11,0,2.07.34,3.79.69,3.44,3.1-.34,2.07-1.72,2.41-3.44,2.41a95.19,95.19,0,0,0-10,.35C1213.92,779.68,1215,777.62,1215,775.55Z"/><path class="cls-126" d="M1160.17,384.49c0-4.13-.34-8.27-.34-12.4v-5.17c4.48,2.41,10,3.1,11,9a48.47,48.47,0,0,1,0,14.13c-.69,2.06-1,4.48-2.41,6.2-2.41,1.72-4.48,4.48-7.92,2.41C1160.17,393.8,1161.55,389,1160.17,384.49Z"/><path class="cls-74" d="M1169.13,374.85c-1.38-1-1-4.14-2.41-3.45-5.17,2.07-4.83-2.41-6.55-4.82.69-9.3-1.38-18.95,1.38-28.25.69,3.44-1.38,7.58,1.38,10.68,0,.34,0,.69.34.69,9.65,2.06,5.86,9.64,6.55,15.5v1.38C1171.2,369.68,1172.23,372.09,1169.13,374.85Z"/><path class="cls-127" d="M1160.17,384.49c2.41,4.83.69,9.65,1.38,14.47,4.48,7.93,1.72,16.2,2.07,24.47.34,2.75.34,5.17-1.73,7.58-2.41,2.41-2.41-2.07-3.44-1.38-1.72,1-3.1,3.79-5.17.34v-5.51c2.07-4.48,1-9.3,1-13.78.34-2.76,0-5.51,1.37-7.93a39.59,39.59,0,0,0,3.79-4.13C1159.83,393.8,1160.17,389,1160.17,384.49Z"/><path class="cls-128" d="M1241.83,690.1c-.35,6.89.69,13.78,1.38,20.67.34,2.76.69,5.86-1.38,8.27-4.14,5.86-10,3.1-15.16,3.45-4.14.34-5.17-1.72-4.14-5.51,1.73-4.83,1-9.65,1-14.47.34-4.83-2.07-6.9-6.89-6.9-2.76.35-5.52.69-7.24-2.41-1.72-4.48-.69-9-1-13.09-.69-4.13,2.41-11.71-3.45-11.71-6.89,0-3.44,7.58-4.13,12.05-.69,3.45.69,7.24-2.41,10h-2.76V658.4c0-5.85.35-11.71.35-17.22,1.37-2.07,0-4.83,2.75-5.86,4.48-.34,8.62-.34,9.65-5.86.34-1.38,1.38-2.41,3.1-1.38,1.72,2.42,1.72,5.17,2.07,7.93-.35,5.86-.35,11.71-.35,17.57-.34,5.17,1.72,7.58,6.89,6.89,3.1-.34,6.2,0,9-1,3.1-.69,6.2-.69,9,1.38,3.45,5.85,1,12.4,1.72,18.6C1240.11,683.56,1239.76,687,1241.83,690.1Z"/><path class="cls-129" d="M1211.16,693.55l.69.69c5.17,1.37,13.44-5.17,14.13,5.85.34,5.86,2.07,12.41-1.38,17.92-1.38,2.07-1.72,3.45,1.72,2.41a40.81,40.81,0,0,1,.35,29.29h-4.13c-9.31,0-9.65,0-9.65-9.65,0-5.51-2.07-10.34-1.38-15.85.69-3.79-3.45-2.75-5.51-2.75-5.17.34-7.24-1.73-6.89-6.9.34-7.23,0-14.12,0-21.36C1202.9,693.89,1207,693.55,1211.16,693.55Z"/><path class="cls-130" d="M1226,750.05c0-9.65,0-19.64-.35-29.28,5.52-.69,11,1.37,15.85-1.38,1.73,1,1.38,2.75,1.73,4.13,0,4.83-.35,9.65-.35,14.82,0,5.85-1,11-7.92,12.06A73.85,73.85,0,0,0,1226,750.05Z"/><path class="cls-131" d="M1211.16,693.55c-4.13,2.75-7.92,4.13-12.05,0v-2.76c0-6.55.34-12.75,0-19.29-.35-4.83,2.75-6.2,6.54-6.2,4.48-.35,5.51,2.41,5.51,6.2Z"/><path class="cls-132" d="M1130.54,778.3c-2.76-8.61.69-17.22.35-25.84-.35-1.72,1-2.41,2.41-2.75,1.72-.35,2.41,1,2.75,2.41,1,2.76,1.73,5.17.69,7.92-2.06,5.17.69,10,1,15.16.34,2.07,2.06,3.1,4.13,3.1,2.76.35,2.41-2.06,2.41-3.79V755.22c0-3.1-1-7.23,4.14-6.89,4.13.34,2.41,4.13,2.75,6.55.35,5.85.35,12.06.35,17.91-.35,3.45,1,5.17,4.48,4.83,3.79-.35,7.58,0,11.37,0,.34.69.34,1,0,1.37-11,1.73-22.05,1.38-33.08,1.73-.34-1.38-.34-2.76-.69-4.48C1132.26,776.24,1131.58,777.27,1130.54,778.3Z"/><path class="cls-133" d="M1227,444.44c-6.2,7.24-5.85,15.51-5.51,24.12,1.72,2.41,2.07,5.17-.34,6.55-7.24,5.86-7.24,13.44-7.24,21.7-.35,9.31-5.86,12.06-14.82,8.62-2.75-8.62-1.37-17.23-1-26.19,2.07-7.58,1-15.5,1-23.08,0-7.24-1.37-14.47,1-21.71,6.2-4.13,12.06-7.58,20-4.82,2.07.34,3.1,1.38,2.76,3.1C1221.16,437.9,1224.6,441,1227,444.44Z"/><path class="cls-134" d="M1203.24,404.48c1.38-1.38,1-2.76,1.38-4.48.34-2.07-1-5.51,1.72-5.86,3.1-.69,6.55-1.72,9.3,1,3.79,3.45,7.58,6.9,6.55,12.75-.35,1.73-.35,3.1,1,4.48,0,4.83,0,9.65.35,14.82-10.68,2.41-21-4.14-22-13.1,0-3.1-.35-6.2,1.38-8.95C1202.55,404.82,1202.9,404.48,1203.24,404.48Z"/><path class="cls-135" d="M1202.9,413.44c-.69,5.16,2.06,7.92,6.54,8.95,4.82,1.38,8.61,4.48,13.78,4.48l-2.75,2.76c-6.55-.35-12.06,4.48-18.61,4.13-2.41,0-4.48.35-4.48-3.44,2.07-3.1,2.07-6.55,2.41-10C1199.79,417.91,1199.11,414.47,1202.9,413.44Z"/><path class="cls-136" d="M1200.48,506.12l2.07-1c10.34-2.41,10.34-2.41,10-12.74-.34-7.24.35-13.79,7.58-17.92,2.41-1.38,1.72-3.79,1.72-6.2,3.45.34,7.24-1.38,9.31,2.75.34.69.34,1.73-.35,1.73-7.23,3.44-7.23,9.64-6.89,16.19.35,3.1.35,6.2-2.07,9,.35,1.38,2.76,1.72,1.38,3.1-7.92,9.3-9.3,20.67-10.68,32-.34,3.1,0,6.2-.34,9.3-.69,9.31-.35,9.65,9.3,10.34.34,1.38-.69,2.07-1.72,2.76-2.42,1.37-6.21,1-6.55,4.82-.69,4.82-1,9.65.34,14.47.69,2.76,3.1,2.76,4.83,2.41,5.17,0,6.54,3.1,6.54,7.24,0,6.54.69,13.44-.34,20l-1,2.07c-3.79,4.48-9.3,3.1-13.78,3.79-9-.35-8.61-.35-9,8.27-.34,5.85,1.73,11.71-2.06,17.22-1,1.73-1.73,3.45-2.76,5.52-.34-20.33-.34-40.31,1.38-60.3-3.45-4.48-2.07-9.64-2.07-14.47-.34-9.3,1.72-18.6,1.38-28.25,0-8.61-.69-17.23.34-25.84C1198.07,510.25,1198.07,507.5,1200.48,506.12Z"/><path class="cls-137" d="M1223.22,605.34c0-7.23-.34-14.12,0-21.36,0-3.44-.69-5.16-4.48-4.13-6.2,1.38-8.61-1.38-7.58-7.58.35-1,0-1.72,0-2.76,0-12.75,0-12.75,10.69-16.54h2.75c2.76,3.45.69,7.24.69,10.69,0,9,0,9.3,8.27,12.05,1.38.69,2.41,1,3.1,2.42.69,9.3,2.07,18.26-1,27.21C1231.49,608.1,1227.36,608.45,1223.22,605.34Z"/><path class="cls-138" d="M1235.28,577.09c-10,1.38-11.71-.69-12.06-10.33-.34-4.83.69-9.31,1.38-13.79,4.48-1.72,8.61-3.1,13.44-2.75,4.82,7.92,3.79,16.19,3.1,24.81a3.16,3.16,0,0,1-1.38,2.06C1238,578.13,1236.66,578.13,1235.28,577.09Z"/><path class="cls-139" d="M1239.42,575.71c-.69-8.61-1-16.88-1.73-25.49l1.38-1.38c3.1-2.41,6.89-2.76,10.68-2.41,1,.69,2.07,1,1.73,2.75-.69,8.62-1,16.89-1.73,25.5a5.48,5.48,0,0,1-3.44,2.76C1243.9,577.78,1241.48,577.78,1239.42,575.71Z"/><path class="cls-140" d="M1221.84,497.85c0-4.14.69-7.93-.34-11.72-1.38-7.92,1.72-12.74,9.65-14.81,2.41,1.38,2.75,3.44,2.75,5.51v9.3C1233.9,497.85,1233.9,497.85,1221.84,497.85Z"/><path class="cls-141" d="M1250.1,547.12c-3.79,1-6.89,2.41-10.68,2.06-.35-1.37-1-2.75-1-3.79.69-17.57-2.75-34.79-1-52.37,2.07,0,2.41,2.07,3.79,2.76.34,4.48-1,8.61-.69,13.09.34,10.68.34,10.68,10.68,10.34a4.84,4.84,0,0,1,2.07.69c.69,1.38,1.72,1.38,2.75,1.72,1,1,2.07,2.07,1.73,3.45-.69,6.89-2.07,13.78-3.45,21a2.72,2.72,0,0,1-2.75,1.73c-2.76-1.73-3.1-4.14-3.1-6.89a70.77,70.77,0,0,1,0-8.62c-.35-2.75,1.37-6.54-3.45-6.54-4.48.34-3.1,4.13-3.45,6.89-.34,1,.35,2.41,0,3.44-1,6.2,1.73,9.65,7.58,10.68C1249.41,545.74,1249.75,546.43,1250.1,547.12Z"/><path class="cls-142" d="M1169.13,374.85a61.89,61.89,0,0,0,.34-7.93c7.93,5.17,16.89,8.27,25.5,11.72,6.2,2.75,8.61,6.2,7.93,12.4v13.44l-.35-.35c-2.76,4.14-6.55,2.07-9.65,1-3.79-1.38-7.23-3.1-11-4.48-6.89-2.76-6.89-2.76-8.27,4.48-.69,2.75-.69,6.89-5.51,3.79-2.42-6.21.34-11.72.68-17.58S1169.13,380,1169.13,374.85Z"/><path class="cls-143" d="M1140.19,489.92c3.44,1,4.13-2.75,6.2-4.13a6.13,6.13,0,0,0,1.72,1.38c2.76,3.1,2.07,6.54,2.07,10,.35,4.13-.34,7.92,2.76,11.37a7.65,7.65,0,0,1,.34,2.75c2.41,9.31,2.41,18.27-1.38,26.88-4.47,2.76-8.61,5.17-13.09,7.92,0-7.23-.34-14.12-.34-21.36,0-3.1-.69-5.17-4.14-2.75-1-10-5.85-21,4.83-29.29C1140.19,492.68,1139.84,491,1140.19,489.92Z"/><path class="cls-144" d="M1251.48,519.55c-3.45,2.42-6.9,1-10.34,1.38a2.2,2.2,0,0,1-2.76-1.72c.35-7.92-3.1-16.19,2.41-23.77a49.56,49.56,0,0,0,6.9-1.38c2.75,3.1,2.06,6.89,2.06,10.33C1249.41,509.56,1248.72,514.73,1251.48,519.55Z"/><path class="cls-145" d="M1251.48,519.55c-3.45.35-4.14-1.72-4.14-4.82.35-6.89.35-13.78.35-20.67a39.18,39.18,0,0,1,6.2-1.38c-.35,9-1,17.57-1.38,26.53A1.26,1.26,0,0,0,1251.48,519.55Z"/><path class="cls-146" d="M1250.1,547.12c0-.35,0-.69-.35-.69l.35-.35c1.37-.34,2.75-.69,2.41-1.72-1.38-8.27,3.44-15.5,3.1-23.77,6.2,2.41,12.4,4.48,18.6,6.54v20c0,3.79-2.06,5.51-4.82,3.44-5.86-4.13-11.71-2.06-17.57-2.06A2.28,2.28,0,0,1,1250.1,547.12Z"/><path class="cls-147" d="M1247,575.37a19.47,19.47,0,0,0,2.75-1.38c6.2,1.38,12.06,3.1,18.26,4.14,2.76.69,3.45,1.72,3.45,4.13v26.87c-7.58-.68-14.13-4.82-21.36-3.79-1.72.69-2.76-.34-3.45-2.06C1247.69,594,1248.37,585,1247,575.37Z"/><path class="cls-148" d="M1235.28,577.09h3.79c2.76,2.07,2.41,5.17,2.41,7.93a123.9,123.9,0,0,1-.34,19.64c-.69,9,2.76,17.57.69,26.87-.35,1-1,1.38-1.72,2.07-2.07.34-3.79,1.38-3.45,3.44,1.72,7.24.69,14.47,1.38,21.71a9.48,9.48,0,0,0,2.41,3.1c-1,1-1.72,1-2.76.34h-9.3c-3.44,1-5.51-1-6.55-3.79a21.87,21.87,0,0,1,8.62-26.53c3.44-1.72,3.79-4.82,4.13-8.26.69-5.86-1.72-11.72.69-17.58Z"/><path class="cls-149" d="M1240.79,631.87c0-9-2.41-17.91-1-26.87,2.07-3.79,4.82-3.1,7.58-1.38a18.79,18.79,0,0,0,2.41,1.38v1.38c-2.41,5.17-.69,10.33-1.38,15.85-.34,3.44,1,6.54-1.37,9.64l-.35.35C1244.93,633.94,1242.86,633.94,1240.79,631.87Z"/><path class="cls-150" d="M1240.79,631.87h6.55c0,8.27.69,16.2-1,24.47-.35,1.72-.35,3.44-2.41,3.44s-2.07-2.06-2.07-3.44c-.69-7.58-1-15.51-1.38-23.09A2.11,2.11,0,0,1,1240.79,631.87Z"/><path class="cls-151" d="M1237.69,661.5c1,0,1.73-.34,2.76-.34a2.1,2.1,0,0,0,1.38.34c4.13,9.31,2.75,18.61.34,27.91l-.34.69c-3.45-.34-4.14-2.41-4.14-5.51C1238,677,1237.69,669.08,1237.69,661.5Z"/><path class="cls-152" d="M1241.83,689.41c-.35-9.3-.35-18.6-.35-27.9H1246c-.34,7.58.35,15.5-1,23.08C1244.58,686.66,1245.62,689.76,1241.83,689.41Z"/><path class="cls-147" d="M1247.34,631.87v-19c0-2.41-.34-4.82,2.76-6.2,0,6.89.34,13.44,0,20.33C1250.1,628.77,1250.79,631.53,1247.34,631.87Z"/><path class="cls-153" d="M1167.06,606.72c-.34,14.13-.34,28.6-.34,42.73-1,1.37-2.07,2.41-3.79,1.37-4.48-6.2-6.89-12.4-4.48-20.32,1-2.76.34-6.21.34-9.31-2.75-3.1-2.06-6.54-2.06-10,.34-6.89,1-13.44-6.21-17.57-.68-8.61-2.75-17.23,1.73-25.84,1.37-.69,3.1-1.38,3.79-3.1.34-1.38,1-1.72,2.41-1.72,3.79,3.1,2.41,7.23,2.76,11,.34,6.2.68,12.06,6.89,15.85C1167.75,595.35,1170.51,601.21,1167.06,606.72Z"/><path class="cls-154" d="M1152.25,538.16c0-9-.35-17.92,1.38-26.87,2.06-1.38,3.79-3.11,6.54-2.76,3.1,3.1,2.07,6.89,2.41,10.34.35,4.13.35,8.26.35,12.4a5.72,5.72,0,0,1-1.72,5.17c-3.45,1-5.52,4.82-9,5.85Z"/><path class="cls-155" d="M1151.9,624c-6.54,3.45-6.54,3.45-6.89-4.13V598.45c0-1,.35-2.06.35-3.1,1.72-1.72,3.44-3.44,5.85-1C1156,604.31,1155,614,1151.9,624Z"/><path class="cls-156" d="M1152.25,542.29c2.41-2.41,2.07-8.61,7.92-5.16a4.5,4.5,0,0,1,1.38,4.47c-1.38,5.17-.69,10-.69,14.82-.34,2.76.35,5.86-3.44,7.24-.69.34-1,1-1.38,1.37-3.79.69-3.79-1.72-3.79-4.48Z"/><path class="cls-157" d="M1150.87,594.66a32.67,32.67,0,0,0-5.51,1.38c0-6.54,0-12.75-.35-18.95-.34-4.82,2.07-7.92,6.89-9,0,9,0,17.58-.34,26.88C1151.9,595,1151.56,595,1150.87,594.66Z"/><path class="cls-158" d="M1162.93,650.82a26.82,26.82,0,0,1,3.79-1.37v32.38c-7.93,2.07-7.93,2.07-7.93-5.85v-19.3C1158.79,653.58,1159.14,651.17,1162.93,650.82Z"/><path class="cls-159" d="M1150.87,594.66c.34,0,.69-.34,1.38-.34,5.85-1.38,7.58,1.38,6.89,6.89-.69,6.55-.35,13.44-.35,20-2.41,1-4.48,1.73-6.89,2.76C1151.56,614,1153.63,604.31,1150.87,594.66Z"/><path class="cls-160" d="M1138.81,658.06c-.69-7.92-1.38-15.5-1-23.43.34-2.76,1.37-4.48,3.44-5.17,2.41-.69,3.45,1.38,3.79,3.1,1.73,7.58-.69,14.82-1.72,22.4C1143.29,656.34,1141.22,657.72,1138.81,658.06Z"/><path class="cls-161" d="M1167.06,606.72c-.34-5.85-.34-11.71-.34-17.57a4.93,4.93,0,0,1-.69-2.41c.69-7.58,0-15.16.34-22.74.35-6.2,2.07-7.92,7.93-6.2,7.92,2.41,16.88,2.41,23.43,8.61v14.82c-.35.69-1,1-1,1.72-1.72,10-1.72,10-12,7.24a53.27,53.27,0,0,0-7.24-1c-8.61-.34-8.61,0-6.89,8.62C1171.2,601.55,1171.2,605,1167.06,606.72Z"/><path class="cls-162" d="M1149.15,434.8c1-1,2.06-1.73,3.1-2.76,3.1.35,2.75,3.1,3.1,5.17a21.39,21.39,0,0,1,.34,6.54c-1,4.83,1.38,7.93,5.86,9.31a47.92,47.92,0,0,1-.34,25.15l-1,1c-5.51,3.1-7.58,1.73-6.89-4.82.69-5.17.35-10.34.35-15.85-7.58,3.79-7.24-1.38-6.55-5.86C1147.42,446.86,1144.67,440.31,1149.15,434.8Z"/><path class="cls-163" d="M1161.55,532.65c-3.1-7.93-.69-16.2-1.38-24.47,0-1,.35-1.72.35-2.75,2.06-3.1,3.79-6.2,8.27-5.17a7.27,7.27,0,0,1,1.37,2.07,101.74,101.74,0,0,1,0,25.15,13.73,13.73,0,0,1-1.72,3.1C1166,532.3,1164.31,534,1161.55,532.65Z"/><path class="cls-164" d="M1167.75,501c-2.41,1.72-5.17,3.44-7.58,5.17,0-9-.34-17.57-.34-26.53h0c2.75-2.41,3.79-8.62,9.3-3.79,1.72,6.54,1,13.43.69,20.33A4.5,4.5,0,0,1,1167.75,501Z"/><path class="cls-122" d="M1152.94,508.53c-3.79.34-5.17-2.07-4.83-5.51V487.17c2.76-2.07,5.52-4.48,5.52,2.06C1153.28,495.78,1153.28,502.33,1152.94,508.53Z"/><path class="cls-165" d="M1160.17,452.37c-6.54,3.44-6.2,3.44-6.89-4.14-.34-5.51,1.72-11-1.38-16.19.69-1,1-1.72,1.73-2.76,1.37,1,2.41.35,3.1-1,3.79-4.13,3.44-.34,3.79,2.07,3.44,5.86,1.72,12.06,1.72,18.26C1161.55,450.3,1161.21,451.68,1160.17,452.37Z"/><path class="cls-166" d="M1161.55,424.46V398.62c2.41,0,3.79-3.45,6.55-2.41.68,7.58,2.41,15.16,1.72,22.74C1168.1,422.74,1165.68,425.15,1161.55,424.46Z"/><path class="cls-167" d="M1168.1,420.33V396.21c.34-1.72-.35-3.79,1-5.51.35,6.2.35,12.4.35,18.6,2.75,2.76,2.41,6.2,2.06,9.65,0,5.86.69,11.37.35,17.22-.35,2.76.34,6.21-3.79,6.9C1164.31,435.49,1165,428.25,1168.1,420.33Z"/><path class="cls-168" d="M1168.1,420.33c.34,7.58.34,14.81.34,22.74a3.26,3.26,0,0,1,.69,3.44c-.34.69-.69,1-1,1.72-2.41,1.73-4.48,4.14-7.58,1.73V431c1.72-2.07.69-4.14,1-6.2C1163.62,423.43,1165.68,422.05,1168.1,420.33Z"/><path class="cls-169" d="M1231.15,632.22c-9,5.17-8.62,13.44-8.27,22.39.34,3.79,1.38,6.55,5.51,7.24-4.48,2.76-9.65.34-14.12,2.07-1.73.69-2.76-1.73-2.76-3.1-.35-8.27-1.72-16.2,1-24.47,3.45-2.75,7.93-2.75,11.37-5.16C1226.32,630.15,1229.08,629.81,1231.15,632.22Z"/><path class="cls-170" d="M1223.22,631.87c-2.41,4.83-6.89,3.79-10.68,4.14-2.41-2.41-1-5.51-1.38-7.93-3.44-6.2-5.16-12.05-1.37-18.6,4.13-2.76,9.3-.35,13.43-2.76A31.85,31.85,0,0,1,1223.22,631.87Z"/><path class="cls-169" d="M1209.79,609.48c-1,6.2,1.72,12.4,1.37,18.6-3.79,10.34-4.13,10.69-12.06,7.93V615.34C1199.11,607.76,1201.86,606.38,1209.79,609.48Z"/><path class="cls-167" d="M1167.75,501c0-9,.35-17.57.35-26.53-3.79-9-3.45-17.92-.35-27.22l.69.34a3.74,3.74,0,0,1,4.48-.68c8.27,2.75,16.54,4.82,24.46,8.61,2.41,1.38,4.14,2.76,4.14,5.51-.35,6.2.69,12.41-.69,18.61,0,9-.35,17.91-.35,26.87-.34,2.07.35,4.14-1.37,5.51a74,74,0,0,1-30.67-10.68Z"/><path class="cls-171" d="M1200.48,479.24c0-3.44-.69-7.23-.34-10.68,1.38-8.27-2.41-12.06-9.65-14.12l-22.74-7.24v-4.13c2.41-7.93.69-16.2,1-24.12A59.37,59.37,0,0,1,1197,431c1.37,1,2.75,1.72,4.13,2.75,0,12.75,0,25.5-.34,38.25C1201.52,474.42,1202.21,477.18,1200.48,479.24Z"/><path class="cls-172" d="M1197.73,431c-9.31-4.14-19-8.27-28.26-12.06v-9.3c4.48-1.38,2.42-5.17,2.76-7.93.69-5.86,2.41-6.55,7.93-4.48,7.23,3.1,13.78,8.27,22.74,6.89v9.31c-2.42,3.79-.69,8.26-1,12.05C1201.52,428.6,1201.52,431.35,1197.73,431Z"/><path class="cls-173" d="M1167.06,530.23c.35-.68,1-1,1.38-1.37a63.81,63.81,0,0,1,30.66,9.3c1,9.3-1.37,18.6-1.37,28.25-7.58-2.07-15.51-4.13-23.09-6.54-4.48-1.38-6.54-1-6.54,4.82.34,7.58,1.72,15.5-1,23.08-2.75-2.41-2.41-5.51-2.41-8.61a116.47,116.47,0,0,1,.35-18.95C1166.72,550.22,1164.65,540.23,1167.06,530.23Z"/><path class="cls-174" d="M1198.76,538.16c-10.34-3.1-20.67-6.2-30.66-9.3V500.6c10.33,3.11,21,6.21,30.66,10.68C1199.11,520.59,1198.76,529.2,1198.76,538.16Z"/><path class="cls-175" d="M1223.22,631.87V605h12.06c2.41,7.58,1,15.16,1.38,23.08.35,4.14-2.76,4.14-5.51,4.14S1226,631.87,1223.22,631.87Z"/><path class="cls-176" d="M1247.34,604c-2.76.34-5.51-.35-7.58,1.37-.34-9.3-.69-18.6-.69-27.9a2.59,2.59,0,0,0,.35-1.38c2.75,0,5.17-.35,7.92-.35,3.1.69,3.1,2.76,3.1,5.17C1249.75,588.46,1250.79,596.39,1247.34,604Z"/><path class="cls-177" d="M1249.75,546.43c-1.37,0-2.75-.35-4.13,0-5.51.69-7.24-1.38-6.89-6.89a63.5,63.5,0,0,0,0-11.37c-.35-4.48,1-6.55,5.85-6.2,5.17.34,5.52,2.75,5.17,6.89-.34,5.85.35,11.71,0,17.57Z"/><path class="cls-154" d="M1166.72,559.87c0,9.3,0,18.6.34,28.25a2.08,2.08,0,0,0-.34,1.38c-4.14,1-6.2,1.37-6.89-4.83-1-6.89,1-14.12-2.41-21,2.75-4.48,1-9.65,1.37-14.48.35-2.75-.69-5.85,1.38-8.26,3.45,3.79,2.07,8.26,2.07,12.4C1161.89,556.76,1163.27,559.18,1166.72,559.87Z"/><path class="cls-178" d="M1166.72,559.87c-6.2,3.79-6.55,3.44-6.89-3.79,0-5.17,0-10-.35-15.16v-3.79c.69-1.38,1-2.76,1.73-4.14,2.06-1,3.79-1.72,5.51-2.41C1169.13,540.23,1168.1,549.87,1166.72,559.87Z"/><path class="cls-179" d="M1167.75,446.86c0,8.95,0,17.91.35,27.21-2.76,1.73-5.17,3.45-7.93,5.17V452.37a7.49,7.49,0,0,0,.35-2.76C1163.62,450.3,1165,447.2,1167.75,446.86Z"/></g><polygon class="cls-98" points="1160.86 306.97 1136.4 331.78 1136.4 419.64 1160.86 396.55 1160.86 306.97"/><polygon class="cls-98" points="1201.52 417.91 1223.22 426.87 1223.22 326.96 1204.96 312.83 1201.52 417.91"/><polygon class="cls-135" points="1223.22 426.87 1201.52 444.79 1201.52 417.91 1223.22 426.87"/><polygon class="cls-180" points="1156.38 319.38 1141.22 334.88 1141.22 406.89 1156.38 392.42 1156.38 319.38"/><rect class="cls-124" x="1104.7" y="777.62" width="175.72" height="6.2"/><rect class="cls-100" x="1069.56" y="782.78" width="245.66" height="6.2"/><path class="cls-181" d="M1928.92,825.29a24,24,0,0,0-46.84,0Z"/><path class="cls-181" d="M1724.7,768.58A17.8,17.8,0,0,1,1707,786.25h0v-67h0c2.46,0,6.57,9,10.27,19.73l-8.22,4.52,9.45-.83C1721.82,753,1724.7,764.06,1724.7,768.58Z"/><path class="cls-3" d="M1707,718.86v67a17.8,17.8,0,0,1-17.67-17.67,36.72,36.72,0,0,1,1.23-7.81l10.27.41-9.45-3.69C1694.7,742.28,1702.92,719.27,1707,718.86Z"/><polygon class="cls-182" points="1707.03 762.01 1706.2 762.42 1704.15 804.33 1707.03 805.57 1707.03 762.01"/><polygon class="cls-183" points="1706.62 762.01 1706.62 805.57 1709.49 804.33 1707.85 762.01 1706.62 762.01"/><path class="cls-3" d="M1716.89,795.29a27,27,0,0,1,19.72,9,20.87,20.87,0,0,1,13.56-5.34,21.15,21.15,0,0,1,20.55,16.85H1691C1693.88,804.33,1704.56,795.29,1716.89,795.29Z"/><path class="cls-181" d="M1694.29,768.58a20.61,20.61,0,0,1-20.55,20.55h0V710.64h0c2.88,0,7.81,10.69,11.92,22.6l-9.45,5.35,11.09-.83C1691.41,750.5,1694.29,762.83,1694.29,768.58Z"/><path class="cls-3" d="M1673.33,710.64v78.49a20.61,20.61,0,0,1-20.55-20.55,46.33,46.33,0,0,1,1.24-9l11.91.41-11.09-4.11C1659.36,737.76,1669.22,711.05,1673.33,710.64Z"/><polygon class="cls-182" points="1673.33 760.77 1672.51 761.19 1670.45 810.09 1673.33 811.73 1673.33 760.77"/><polygon class="cls-183" points="1673.33 760.77 1673.33 811.73 1676.21 810.09 1674.56 760.77 1673.33 760.77"/><path class="cls-181" d="M114,825.29a24,24,0,0,1,46.84,0Z"/><path class="cls-181" d="M318.23,768.58a17.8,17.8,0,0,0,17.67,17.67h0v-67h0c-2.46,0-6.57,9-10.27,19.73l8.22,4.52-9.45-.83C321.11,753,318.23,764.06,318.23,768.58Z"/><path class="cls-3" d="M335.9,718.86v67a17.8,17.8,0,0,0,17.67-17.67,36.72,36.72,0,0,0-1.23-7.81l-10.27.41,9.45-3.69C348.23,742.28,340,719.27,335.9,718.86Z"/><polygon class="cls-182" points="335.9 762.01 336.72 762.42 338.78 804.33 335.9 805.57 335.9 762.01"/><polygon class="cls-183" points="336.31 762.01 336.31 805.57 333.44 804.33 335.08 762.01 336.31 762.01"/><path class="cls-3" d="M326,795.29a27,27,0,0,0-19.72,9A20.87,20.87,0,0,0,292.76,799a21.14,21.14,0,0,0-20.55,16.85h79.72C349.05,804.33,338.37,795.29,326,795.29Z"/><path class="cls-181" d="M348.64,768.58a20.61,20.61,0,0,0,20.55,20.55h0V710.64h0c-2.88,0-7.81,10.69-11.92,22.6l9.45,5.35-11.09-.83C351.52,750.5,348.64,762.83,348.64,768.58Z"/><path class="cls-3" d="M369.6,710.64v78.49a20.6,20.6,0,0,0,20.54-20.55,46.17,46.17,0,0,0-1.23-9L377,760l11.1-4.11C383.57,737.76,373.71,711.05,369.6,710.64Z"/><polygon class="cls-182" points="369.6 760.77 370.42 761.19 372.47 810.09 369.6 811.73 369.6 760.77"/><polygon class="cls-183" points="369.6 760.77 369.6 811.73 366.72 810.09 368.37 760.77 369.6 760.77"/></g></svg>