<svg xmlns="http://www.w3.org/2000/svg" viewBox="0 0 2000 1023.98"><defs><style>.cls-1{fill:#8bc34a;}.cls-2{fill:#fff;opacity:0.3;isolation:isolate;}.cls-3{fill:#bfbfbe;}.cls-4{fill:#9e9e9e;}.cls-5{fill:#f5f5eb;}.cls-6{fill:#e2e2e2;}.cls-7{fill:#d1d1cf;}.cls-8{fill:#fafafa;}.cls-9{fill:#a0ca4f;}.cls-10{fill:#a7cc42;}.cls-11{fill:#8baf3c;}.cls-12{fill:#abe0d6;stroke:#25597c;stroke-miterlimit:5.04;stroke-width:0.13px;}.cls-13{fill:#7f0033;}.cls-14{fill:#500130;}.cls-15{fill:#ee4234;}.cls-16{fill:#de4f2f;}.cls-17{fill:#2a102b;}.cls-18{fill:#e2cf8f;}.cls-19{fill:#c9223e;}.cls-20{fill:#7dad31;}</style></defs><g id="Capa_3" data-name="Capa 3"><polygon class="cls-1" points="2000 848.78 0 848.78 0 812.5 2000 812.5 2000 812.5 2000 848.78 2000 848.78"/><path class="cls-2" d="M1550.73,818.41,93,839.64C86.85,437.13,408.53,106.07,811,99.94,1213.54,94.23,1545,415.91,1550.73,818.41Z"/><polygon class="cls-3" points="1057.6 538.78 904.51 818 1184.55 818 1057.6 538.78"/><polygon class="cls-4" points="904.51 818 1055.96 816.78 1045.35 721.25 1029.02 700.03 1056.78 540 904.51 818"/><polygon class="cls-5" points="1067.39 619.61 1102.5 637.57 1057.6 538.78 1026.98 628.18 1040.45 633.49 1067.39 619.61"/><polygon class="cls-6" points="1011.47 622.06 1040.45 633.49 1056.78 540 1011.47 622.06"/><polygon class="cls-3" points="728.98 530.62 571.41 818 886.55 818 728.98 530.62"/><polygon class="cls-4" points="571.41 818 717.55 816.78 713.06 682.47 696.73 668.59 728.16 531.84 571.41 818"/><polygon class="cls-5" points="746.13 604.5 780.42 622.87 728.98 530.62 711.02 603.69 729.8 613.08 746.13 604.5"/><polygon class="cls-6" points="681.63 616.34 711.02 603.69 728.16 531.84 681.63 616.34"/><polygon class="cls-3" points="567.73 638.79 468.94 818 666.11 818 567.73 638.79"/><polygon class="cls-4" points="468.94 818 528.54 817.19 557.53 733.09 547.73 724.52 567.33 639.2 468.94 818"/><polygon class="cls-7" points="605.7 707.38 591.41 749.42 608.55 817.6 666.11 818 605.7 707.38"/><polygon class="cls-3" points="868.59 481.22 706.94 818 1064.13 818 951.87 609.81 938.8 606.95 868.59 481.22"/><polygon class="cls-4" points="670.61 818 764.5 816.78 792.25 708.19 822.46 677.58 867.77 482.45 784.91 634.71 762.05 647.37 670.61 818"/><polygon class="cls-7" points="951.87 609.81 938.8 606.95 909 553.07 920.84 668.59 924.11 710.64 978.81 818 1064.13 818 951.87 609.81"/><polygon class="cls-5" points="868.59 481.22 823.69 564.09 850.63 557.15 911.86 586.95 923.7 579.6 868.59 481.22"/><polygon class="cls-8" points="911.86 586.95 923.7 579.6 909 553.07 911.86 586.95"/><polygon class="cls-6" points="826.14 559.19 823.69 564.09 850.63 557.15 867.77 482.45 826.14 559.19"/><polygon class="cls-3" points="1183.74 663.7 1162.1 709.01 1155.16 724.93 1102.09 818 1259.26 818 1215.58 726.97 1209.05 721.66 1183.74 663.7"/><polygon class="cls-4" points="1124.55 759.63 1083.72 773.91 1060.86 818 1144.96 818 1158.43 764.12 1181.7 735.95 1183.74 663.7 1124.55 759.63"/><polygon class="cls-7" points="1215.58 726.97 1209.05 721.66 1195.58 691.46 1199.66 767.79 1212.31 799.23 1215.58 818 1259.26 818 1215.58 726.97"/><path class="cls-9" d="M1351.11,820.86c-84.5-32.25-178.39-50.21-276.78-50.21s-192.68,18-276.77,50.21Z"/><polygon class="cls-10" points="1251.91 760.44 1239.66 801.67 1252.32 804.94 1264.16 801.67 1251.91 760.44"/><polygon class="cls-11" points="1251.91 760.44 1239.66 801.67 1252.32 804.94 1251.91 760.44"/><polygon class="cls-10" points="1100.05 756.36 1087.81 797.59 1100.46 800.86 1112.3 797.59 1100.05 756.36"/><polygon class="cls-11" points="1100.05 756.36 1087.81 797.59 1100.46 800.86 1100.05 756.36"/><polygon class="cls-10" points="1135.57 744.52 1123.32 786.16 1135.97 789.02 1147.81 786.16 1135.57 744.52"/><polygon class="cls-11" points="1135.57 744.52 1123.32 786.16 1135.97 789.02 1135.57 744.52"/><path class="cls-12" d="M1475.21,822.9a20.25,20.25,0,0,1-2.86,2c-2.45,1.23-4.9,1.23-7.35,1.23h-24.08v-39.6h23.67a7.94,7.94,0,0,1,3.27.41,13.75,13.75,0,0,1,6.94,3.26,6.33,6.33,0,0,1,1.63,2.45,9.3,9.3,0,0,1,1.23,4.49,10.69,10.69,0,0,1-3.68,7.76c-.81.41-1.22.82-2.86,1.63l1.64.41a9,9,0,0,1,3.26,2,8.68,8.68,0,0,1,2.45,6.53S1478.06,820,1475.21,822.9ZM1465,811.47a4.72,4.72,0,0,0-4.08-2h-7.76v7.76h7.76a4,4,0,0,0,3.67-1.64,3.43,3.43,0,0,0,.82-2.45A4.06,4.06,0,0,0,1465,811.47Zm-.82-15.51a3.92,3.92,0,0,0-3.26-1.63h-7.35v6.53h6.94a4,4,0,0,0,3.67-1.64,4.4,4.4,0,0,0,.41-2A4,4,0,0,1,1464.18,796Z"/><path class="cls-12" d="M1481.74,825.76v-39.6h31.43v8.57h-18.78v6.13H1512v8.57h-17.56v7.76h20.41v8.57Z"/><path class="cls-12" d="M1518.07,825.76v-39.6h12.65v39.6Z"/><path class="cls-12" d="M1553.58,818.41a8.45,8.45,0,0,1-4.49,6.12c-2,.82-3.67,1.23-7.75,1.23h-8.17V816a7,7,0,0,0,3.27.41c2.86,0,4.08-.82,4.9-2a4.42,4.42,0,0,0,.41-2.45V786.16h12.65v28.58C1553.58,815.15,1553.58,817.19,1553.58,818.41Z"/><path class="cls-12" d="M1558.89,825.76v-39.6h12.66v39.6Z"/><path class="cls-12" d="M1600.94,825.76l-13.07-22.86.41,22.86h-11.43v-39.6h13.07L1603.39,809l-.41-22.86h11.84v39.6Z"/><path class="cls-12" d="M1648.29,800c-.41-1.22-.41-2-1.22-2.86-2-2.85-6.13-3.26-6.54-3.26a9.27,9.27,0,0,0-4.89,1.22c-4.9,2.86-4.49,9.39-4.49,10.62,0,1.63.4,3.26.4,4.89a9.76,9.76,0,0,0,6.13,6.54,7.11,7.11,0,0,0,3.26.4c2,0,4.09-.4,5.31-1.63.41-.41,1.22-.82,1.22-1.63l.82-2.45h-7.35v-8.17h18v21.64h-9.39v-2.86c-1.22.82-2,1.64-2.44,1.64-3.68,2-8.17,2-9.39,2a25.61,25.61,0,0,1-8.17-1.64c-4.08-2-11-7.34-11-18.77,0-2.45.41-9.39,5.31-14.7,4.08-4.9,9.79-6.94,15.92-6.94,6.53,0,13.47,2.45,17.55,7.76a13.45,13.45,0,0,1,2.45,4.9Z"/><rect class="cls-13" x="1311.92" y="817.19" width="65.72" height="6.94"/><rect class="cls-14" x="1311.92" y="815.55" width="65.72" height="2.04"/><rect class="cls-13" x="1311.92" y="808.61" width="65.72" height="6.94"/><rect class="cls-14" x="1311.92" y="806.98" width="65.72" height="2.04"/><rect class="cls-13" x="1311.92" y="800.04" width="65.72" height="6.94"/><rect class="cls-14" x="1311.92" y="798.41" width="65.72" height="2.04"/><rect class="cls-13" x="1311.92" y="791.47" width="65.72" height="6.94"/><rect class="cls-14" x="1311.92" y="789.43" width="65.72" height="2.04"/><rect class="cls-13" x="1311.92" y="782.9" width="65.72" height="6.94"/><rect class="cls-14" x="1311.92" y="781.26" width="65.72" height="2.04"/><path class="cls-15" d="M1460.51,711.05h0c-1.22.41-22,11-44.5,12.65-7.34.82-13.87,1.23-20.41,1.64-14.69,1.22-29.39,2-50.21,2H1345c-20.41,0-35.51-.82-49.8-2-6.94-.41-13.47-1.23-20.82-1.64-22-2-43.27-12.24-44.49-12.65h0c37.14,2.86,50.61-8.17,50.61-8.17h129.41C1409.89,702.48,1423.36,713.91,1460.51,711.05Z"/><path class="cls-16" d="M1438.47,626.14h0c-1.64,2-11,14.29-35.93,19.59-1.63.41-3.26.82-5.31,1.23a250.4,250.4,0,0,1-52.65,4.08h0a277.21,277.21,0,0,1-51.85-4.08c-2-.41-3.67-.82-5.71-1.23-25.31-5.3-34.7-17.14-35.93-19.18a.4.4,0,0,0-.41-.41c.41.41,16.33,6.94,27.36,6.53a13.78,13.78,0,0,0,4.08.41c4.08,0,11-1.23,21.63-4.9a226.73,226.73,0,0,0,40.42-18.37h.41A256.07,256.07,0,0,0,1385,628.18c11,3.67,17.55,4.9,21.63,4.9,1.23,0,2.86-.41,4.09-.41C1422.14,633.08,1438.06,626.55,1438.47,626.14Z"/><path class="cls-15" d="M1438.47,626.14h0c-1.64,2-11,14.29-35.93,19.59-1.63.41-3.26.82-5.31,1.23a250.4,250.4,0,0,1-52.65,4.08h0a277.21,277.21,0,0,1-51.85-4.08c-2-.41-3.67-.82-5.71-1.23-25.31-5.3-34.7-17.14-35.93-19.18a.4.4,0,0,0-.41-.41c.41.41,16.33,6.94,27.36,6.53a13.78,13.78,0,0,0,4.08.41c4.08,0,11-1.23,21.63-4.9a226.73,226.73,0,0,0,40.42-18.37h.41A256.07,256.07,0,0,0,1385,628.18c11,3.67,17.55,4.9,21.63,4.9,1.23,0,2.86-.41,4.09-.41C1422.14,633.08,1438.06,626.55,1438.47,626.14Z"/><path class="cls-13" d="M1407,728.6v-1.22s10.21,0,24.5-4.08c2.85-.82,2.85-.41,1.22,1.63-2,2-6.12,6.12-11.43,12.25H1407V728.6Z"/><path class="cls-14" d="M1407,727.38v9.8h9a121.72,121.72,0,0,0,9.39-12.25A142.51,142.51,0,0,1,1407,727.38Z"/><path class="cls-13" d="M1420.91,642.06c2-1.63.82,1.22-1.22,4.49-2.45,3.67-4.9,7.35-8.17,10.21h-14.29v-8.58h.41C1411.93,648.59,1417.24,644.92,1420.91,642.06Z"/><path class="cls-14" d="M1398.05,648.59h-.41v8.57h8.58a75.75,75.75,0,0,0,8.57-11.43C1411.12,647.37,1405.81,648.59,1398.05,648.59Z"/><rect class="cls-17" x="1411.52" y="737.18" width="5.71" height="42.05"/><path class="cls-13" d="M1411.52,737.18v42h-25.71v-42h1.63c3.26-3.68,5.71-6.13,7.35-7.76.4,0,7.75-.41,12.65-.82v8.58Z"/><polygon class="cls-13" points="1409.48 688.19 1409.48 702.48 1344.98 702.48 1344.98 702.48 1280.08 702.48 1280.08 688.19 1282.93 686.15 1288.65 686.15 1300.49 686.15 1304.98 686.15 1344.98 686.15 1344.98 686.15 1385.4 686.15 1389.89 686.15 1401.73 686.15 1407.44 686.15 1409.48 688.19"/><polygon class="cls-17" points="1407.44 656.76 1407.44 686.15 1401.73 686.15 1401.73 659.21 1401.73 656.76 1407.44 656.76"/><path class="cls-13" d="M1401.73,656.76v2a83.34,83.34,0,0,1-8.58,4.08l-10.2,1.63c-34.29,3.27-75.93.41-75.93.41l-9.8-1.63c-3.26-1.23-6.12-2.86-9-4.08v-2.45h4.08l14.29,4.89a393.12,393.12,0,0,0,75.93,0l14.29-4.89v.4l4.9-.4Z"/><path class="cls-17" d="M1397.64,650.22v4.9h0c-3.67,4.9-14.28,6.13-14.28,6.13a393.12,393.12,0,0,1-75.93,0s-11-1.64-14.29-6.13v-5.3C1292.73,650.22,1338.86,659.61,1397.64,650.22Z"/><path class="cls-18" d="M1397.64,655.53v1.23a23.43,23.43,0,0,1-4.49,6.12,7.29,7.29,0,0,0-1.63,2H1383v-5.31h.41c8.57,0,11.83-2.45,14.28-4.08Z"/><path class="cls-14" d="M1397.64,655.53v1.23c-.81,1.22-1.22,2-2,3.26s-1.63,2-2.45,3.27a7.16,7.16,0,0,0-1.63,2H1383V660h.41c8.57-.41,11.83-2.86,14.28-4.49Z"/><path class="cls-13" d="M1394.38,729.42c-1.63,1.63-4.08,4.08-7.35,7.76h-10.21v-6.94a79.53,79.53,0,0,0,17.15-2.86,1.5,1.5,0,0,1,1.22-.41C1396.83,727,1396,727.79,1394.38,729.42Z"/><rect class="cls-17" x="1385.4" y="664.92" width="4.49" height="21.23"/><polygon class="cls-17" points="1380.09 752.69 1380.09 737.17 1385.4 737.17 1385.4 779.22 1380.09 779.22 1380.09 767.79 1380.09 752.69"/><path class="cls-13" d="M1380.09,737.18v31a37,37,0,0,0-34.7-24.49h0a36.94,36.94,0,0,0-34.7,24.9v-31h2.86v-7.34s22.86,1.63,64.09,0v6.94Z"/><path class="cls-13" d="M1296,729.42c-1.64-2-2.45-2.86-1.23-2.45.41,0,.82.41,1.23.41a62.9,62.9,0,0,0,17.14,2.86v6.94h-10.2A78.12,78.12,0,0,0,1296,729.42Z"/><path class="cls-14" d="M1377.23,730.24v6.94h6.94a74.87,74.87,0,0,0,6.94-9A54.15,54.15,0,0,1,1377.23,730.24Z"/><path class="cls-14" d="M1310.29,737.18h2.85v-6.94a75.47,75.47,0,0,1-13.88-2c2.45,3.27,4.49,6.13,6.94,9Z"/><polygon class="cls-17" points="1310.29 768.2 1310.29 779.22 1304.98 779.22 1304.98 737.17 1310.29 737.17 1310.29 752.69 1310.29 768.2"/><path class="cls-18" d="M1307.43,661.65v3.27h-8.58c-.4-.41-.81-.82-1.22-1.22a62.09,62.09,0,0,1-4.49-6.54v-1.22a.4.4,0,0,1,.41.41c2.45,1.63,5.71,4.08,14.29,4.08h.4Z"/><path class="cls-14" d="M1307.43,661.65v3.27h-8.58c-.4-.41-.81-.82-1.22-1.22a62.09,62.09,0,0,1-4.49-6.54v-1.22a.4.4,0,0,1,.41.41c2.45,1.63,5.71,4.08,14.29,4.08h.4Z"/><rect class="cls-17" x="1300.49" y="664.92" width="4.49" height="21.23"/><path class="cls-13" d="M1305,737.18v42h-25.72v-42h4.49V728.6a83.28,83.28,0,0,0,12.25.82c1.63,1.63,4.08,4.08,7.35,7.76Z"/><path class="cls-19" d="M1460.51,711.05c-1.22.41-22,11-44.5,12.65-7.34.82-13.87,1.23-20.41,1.64-14.69,1.22-29.39,2-50.21,2H1345c-20.41,0-35.51-.82-49.8-2-6.94-.41-13.47-1.23-20.82-1.64-22-2-43.27-12.24-44.49-12.65a154.37,154.37,0,0,0,28.57,13.88c-2-2.45-2-2.86,1.23-2C1274,727,1284.16,727,1284.16,727v1.22a83.28,83.28,0,0,0,12.25.82c-1.64-2-2.45-2.86-1.23-2.45.41,0,.82.41,1.23.41a62.9,62.9,0,0,0,17.14,2.86s22.86,1.63,64.09,0a79.53,79.53,0,0,0,17.15-2.86,1.48,1.48,0,0,1,1.22-.41c1.23,0,.41.82-1.22,2.45.4,0,7.75-.41,12.65-.82V727s10.21,0,24.49-4.08c2.86-.82,2.86-.41,1.23,1.63A131.13,131.13,0,0,0,1460.51,711.05Z"/><path class="cls-13" d="M1292.73,656.76h0l-14.29.4a53.26,53.26,0,0,1-7.34-9.38c-2.86-4.09-4.09-7.35-2-5.72,4.09,2.86,9.39,6.53,22.87,6.53h.4l.41,8.17Z"/><path class="cls-14" d="M1292.73,656.76v-8.58h-.41c-7.75,0-13.06-1.22-16.73-2.85a73.23,73.23,0,0,0,8.16,11.43Z"/><polygon class="cls-17" points="1288.65 659.21 1288.65 686.15 1282.93 686.15 1282.93 656.76 1288.65 656.76 1288.65 659.21"/><path class="cls-13" d="M1283.75,728.6v8.58h-14.29c-5.3-6.13-9.39-9.8-11.43-11.84s-2-2.86,1.23-2c14.29,4.08,24.49,4.08,24.49,4.08Z"/><path class="cls-14" d="M1283.75,737.18v-9.8a99.37,99.37,0,0,1-19.19-2.86,103.86,103.86,0,0,0,10.62,12.66Z"/><rect class="cls-17" x="1273.55" y="737.18" width="5.71" height="42.05"/><path class="cls-17" d="M1345.39,742.89a37.17,37.17,0,0,0-34.7,24.09v2a36.81,36.81,0,0,1,46.13-23.68,38.64,38.64,0,0,1,23.68,22.86V767C1374.38,752.69,1360.5,742.89,1345.39,742.89Z"/><path class="cls-17" d="M1345.39,739.22a40.76,40.76,0,0,0-34.7,19.18V760a40.3,40.3,0,0,1,69.4-.41v-.82A41.26,41.26,0,0,0,1345.39,739.22Z"/><polygon class="cls-17" points="1372.74 755.95 1372.33 755.54 1375.19 753.1 1375.6 753.5 1372.74 755.95"/><polygon class="cls-17" points="1377.64 763.3 1378.05 764.12 1380.09 762.89 1380.09 762.08 1377.64 763.3"/><rect class="cls-17" x="1363.94" y="749.72" width="3.67" height="0.82" transform="translate(-27.98 1446.91) rotate(-55.34)"/><polygon class="cls-17" points="1357.23 745.34 1356.82 745.34 1358.05 741.67 1358.86 742.07 1357.23 745.34"/><polygon class="cls-17" points="1349.07 743.3 1348.25 743.3 1348.66 739.63 1349.47 739.63 1349.07 743.3"/><polygon class="cls-17" points="1338.86 744.12 1338.04 740.44 1338.86 740.03 1339.68 743.71 1338.86 744.12"/><polygon class="cls-17" points="1330.29 746.56 1328.65 743.3 1329.47 742.89 1330.7 746.56 1330.29 746.56"/><polygon class="cls-17" points="1322.53 751.46 1320.08 748.61 1320.49 748.2 1322.94 751.05 1322.53 751.46"/><polygon class="cls-17" points="1315.59 757.99 1312.73 755.54 1313.14 755.14 1316 757.59 1315.59 757.99"/><polygon class="cls-17" points="1310.29 764.93 1310.29 765.75 1311.1 766.16 1311.51 765.34 1310.29 764.93"/><polygon class="cls-17" points="1378.46 756.77 1378.87 757.18 1380.09 756.36 1380.09 755.54 1378.46 756.77"/><polygon class="cls-17" points="1372.74 749.83 1371.93 749.42 1374.38 746.56 1374.78 746.97 1372.74 749.83"/><polygon class="cls-17" points="1363.76 744.12 1362.94 743.71 1364.99 740.44 1365.8 740.85 1363.76 744.12"/><polygon class="cls-17" points="1354.37 740.44 1353.56 740.44 1354.37 736.77 1354.78 736.77 1354.37 740.44"/><polygon class="cls-17" points="1344.17 739.63 1343.35 739.63 1343.35 735.95 1344.17 735.95 1344.17 739.63"/><polygon class="cls-17" points="1333.14 741.67 1332.33 737.58 1333.14 737.58 1333.96 741.26 1333.14 741.67"/><polygon class="cls-17" points="1324.57 745.34 1322.53 742.07 1323.35 741.67 1325.39 744.93 1324.57 745.34"/><polygon class="cls-17" points="1316.41 751.87 1313.55 749.01 1314.37 748.61 1316.82 751.46 1316.41 751.87"/><path class="cls-17" d="M1345.39,735.54a43.94,43.94,0,0,0-34.7,16.74v1.22a46.26,46.26,0,0,1,34.7-17.14,43.9,43.9,0,0,1,34.7,16.74v-1.23A45.45,45.45,0,0,0,1345.39,735.54Z"/><polygon class="cls-14" points="1311.1 815.96 1268.24 815.96 1268.24 779.22 1318.04 779.22 1318.04 809.84 1311.1 815.96"/><polygon class="cls-14" points="1373.97 815.96 1416.83 815.96 1416.83 779.22 1367.44 779.22 1369.88 807.8 1373.97 815.96"/><path class="cls-19" d="M1326.21,773.92h0a3.07,3.07,0,0,1-2,2.85l-.4.41a1.43,1.43,0,0,0-.82.41h-2c-.41,0-.82,0-.82-.41l-.41-.41a3.07,3.07,0,0,1-2-2.85h0a2.45,2.45,0,0,1,1.23-2.45l1.63-.82c1.22-.82,2.45-.82,3.27,0l1.63.82C1325.39,771.87,1326.21,772.69,1326.21,773.92Z"/><rect class="cls-14" x="1317.22" y="776.77" width="8.57" height="23.27"/><polygon class="cls-13" points="1325.8 779.22 1311.92 793.92 1303.75 793.92 1317.63 779.22 1325.8 779.22"/><polygon class="cls-14" points="1325.8 779.22 1325.8 800.04 1311.92 824.13 1311.92 793.92 1325.8 779.22"/><path class="cls-19" d="M1312.33,790.65h0a3.07,3.07,0,0,1-2,2.86l-.41.41a1.43,1.43,0,0,0-.82.41h-2c-.41,0-.82,0-.82-.41l-.41-.41a3.07,3.07,0,0,1-2-2.86h0a2.47,2.47,0,0,1,1.23-2.45l1.63-.81c1.23-.82,2.45-.82,3.27,0l1.63.81A5.83,5.83,0,0,1,1312.33,790.65Z"/><rect class="cls-13" x="1303.75" y="793.92" width="8.57" height="30.21"/><path class="cls-19" d="M1364.17,773.92h0a3.07,3.07,0,0,0,2,2.85l.41.41c.41,0,.41.41.82.41h2c.41,0,.81,0,.81-.41l.41-.41a3.06,3.06,0,0,0,2-2.85h0a2.46,2.46,0,0,0-1.22-2.45l-1.63-.82c-1.23-.82-2.45-.82-3.27,0l-1.63.82A3.42,3.42,0,0,0,1364.17,773.92Z"/><rect class="cls-14" x="1364.58" y="776.77" width="8.57" height="23.27"/><polygon class="cls-13" points="1364.58 779.22 1378.05 793.92 1386.21 793.92 1372.74 779.22 1364.58 779.22"/><polygon class="cls-14" points="1364.58 779.22 1364.58 800.04 1378.05 824.13 1378.05 793.92 1364.58 779.22"/><path class="cls-19" d="M1377.64,790.65h0a3.07,3.07,0,0,0,2,2.86l.41.41c.41,0,.41.41.82.41h2c.41,0,.81,0,.81-.41l.41-.41a3.06,3.06,0,0,0,2-2.86h0a2.47,2.47,0,0,0-1.22-2.45l-1.63-.81c-1.23-.82-2.45-.82-3.27,0l-1.63.81A5.83,5.83,0,0,0,1377.64,790.65Z"/><rect class="cls-13" x="1378.05" y="793.92" width="8.57" height="30.21"/><path class="cls-14" d="M1414.79,630.22c-.41.41-.41.82-.82,1.23l-.41.4-.4.41c-.82.41-1.23.82-2.05.82a13.78,13.78,0,0,1-4.08.41c-4.08,0-11-1.23-21.63-4.9A226.73,226.73,0,0,1,1345,610.22c1.64,0,5.31-2.45,5.31-2.45a192.36,192.36,0,0,0,36.33,15.92,57.84,57.84,0,0,0,6.53,2c3.27.82,6.13,1.63,8.17,2,1.22.41,2.45.41,3.67.82.82,0,1.23.41,1.63.41a5.83,5.83,0,0,0,3.68-.41,1.39,1.39,0,0,0,.81-.41,1.5,1.5,0,0,0,.41-1.22,3.18,3.18,0,0,0-1.63-1.64,2.76,2.76,0,0,1-1.63-3.26h0c.41-.41.41-.41.41-.82h0l.4-.41.41-.41.41-.4a.4.4,0,0,0,.41-.41c.82-.41,1.22-.41,1.63,0a8.05,8.05,0,0,1,4.49,4.49C1416,627,1416,629,1414.79,630.22Z"/><path class="cls-14" d="M1274.36,625.32a8.11,8.11,0,0,1,4.49-4.49c.82-.41,1.23-.41,1.63,0a.4.4,0,0,1,.41.41l.41.41.41.41.41.41h0c.41.4.41.4.41.81.41,1.23-.41,2.45-1.63,3.27h0a3.18,3.18,0,0,0-1.64,1.63c-.41.41,0,.82.41,1.22a1.27,1.27,0,0,0,.82.41,11.23,11.23,0,0,0,3.67.41,2.43,2.43,0,0,0,1.63-.41c1.23-.41,2.45-.41,3.68-.81,2.45-.41,4.9-1.23,8.16-2,2-.82,4.08-1.23,6.53-2.05A262.6,262.6,0,0,0,1340.49,609a18.4,18.4,0,0,0,2.86-1.22c.41.41,2.86,2,2.45,3.67a256.07,256.07,0,0,1-40.41,18.37c-11,3.68-17.56,4.9-21.64,4.9-1.22,0-2.85-.41-4.08-.41-.82-.4-1.22-.4-2-.81l-.41-.41-.41-.41c-.41-.41-.81-.82-.81-1.22C1274.36,628.59,1274,627,1274.36,625.32Z"/><path class="cls-19" d="M1402.54,645.73c-1.63.41-3.26.82-5.31,1.23a250.4,250.4,0,0,1-52.65,4.08h0a277.21,277.21,0,0,1-51.85-4.08c-2-.41-3.67-.82-5.71-1.23-25.31-5.3-34.7-17.14-35.93-19.18a99.15,99.15,0,0,0,20,21.23c-2.86-4.09,21.22,2.85,21.22,2.85s46.13,9,104.91,0c0,0,24.5-7.35,22-3.67a95.09,95.09,0,0,0,18.37-20C1437.24,628.18,1427.44,640.84,1402.54,645.73Z"/><path class="cls-14" d="M1350.29,607.36a6.59,6.59,0,0,1-5.31,2.45h-.4a6.58,6.58,0,0,1-5.31-2.45,3.08,3.08,0,0,1-.82-1.63c0-2.45,2.86-4.08,6.13-4.08s6.12,2,6.12,4.08C1351.11,606.54,1350.7,607,1350.29,607.36Z"/><path class="cls-14" d="M1349.07,598.79c0,2-2,2.86-4.09,2.86-2.45,0-4.08-.82-4.08-2.86s2.45-4.49,4.08-4.49S1349.07,596.75,1349.07,598.79Z"/><path class="cls-14" d="M1347.84,591.44a2.86,2.86,0,1,1-5.71,0h0c0-1.63,2.85-6.94,2.85-6.94S1347.84,589.81,1347.84,591.44Z"/><path class="cls-14" d="M1460.51,711.05c-4.49,2.45-9,4.08-13.47,6.12-4.49,1.64-9.39,3.27-13.88,4.49a97.89,97.89,0,0,1-14.29,2.86c-4.9.82-9.8,1.22-14.69,1.63-9.8.82-19.6,1.64-29.4,2s-19.59.82-29.39.82-19.59-.41-29.39-.82-19.59-1.22-29.39-2c-4.9-.4-9.8-.81-14.7-1.63s-9.79-1.63-14.28-2.86a135,135,0,0,1-13.88-4.49,98.5,98.5,0,0,1-13.48-6.12,139.3,139.3,0,0,0,27.76,9.39,87.91,87.91,0,0,0,14.29,2.45l14.7,1.22c9.79.82,19.59,1.63,29.39,1.63,9.8.41,19.59.82,29.39.82s19.6-.41,29.39-.82,19.6-1.22,29.39-1.63l14.7-1.22c4.9-.41,9.8-1.64,14.29-2.45A193.36,193.36,0,0,0,1460.51,711.05Z"/><path class="cls-14" d="M1438.47,626.14a31.39,31.39,0,0,1-9,9,70.58,70.58,0,0,1-11,6.53c-4.08,1.63-7.75,3.27-11.83,4.08-4.09,1.23-8.17,2-12.25,2.86a246,246,0,0,1-24.9,3.27c-8.17.81-16.74.81-24.9.81s-16.74-.4-24.91-.81c-8.16-.82-16.73-1.64-24.9-3.27-4.08-.81-8.16-1.63-12.25-2.86a100.21,100.21,0,0,1-11.83-4.08c-4.09-1.63-7.35-4.08-11-6.53a31.39,31.39,0,0,1-9-9,44.52,44.52,0,0,0,4.09,4.49,18.92,18.92,0,0,0,4.9,3.67,47.41,47.41,0,0,0,11,5.72,65.43,65.43,0,0,0,11.83,3.67c4.09,1.23,8.17,1.64,12.25,2.45a367,367,0,0,0,99.2,0l12.25-2.45c4.08-1.22,8.16-2.45,11.83-3.67a93.2,93.2,0,0,0,11-5.72l4.89-3.67A15.64,15.64,0,0,0,1438.47,626.14Z"/><path class="cls-20" d="M1866.47,761a9.75,9.75,0,0,0-8.71,5.39,6.74,6.74,0,0,0-12.22,2.31H1876A9.72,9.72,0,0,0,1866.47,761Z"/></g></svg>