<svg xmlns="http://www.w3.org/2000/svg" viewBox="0 0 2000 1023.98"><defs><style>.cls-1{fill:#a0ca4f;}.cls-2{fill:#b9dc39;}.cls-3{fill:#d4e157;}.cls-4{fill:#8bc34a;}.cls-5{fill:#7dad31;}.cls-6{isolation:isolate;}.cls-7{fill:#abe0d6;stroke:#25597c;stroke-miterlimit:5.04;stroke-width:0.13px;}.cls-8{fill:#423745;}.cls-9{fill:#171617;}.cls-10{fill:#5d5b67;}.cls-11{fill:#594c40;}.cls-12{fill:#6c665f;}.cls-13{fill:#7d7166;}.cls-14{fill:#8a7f72;}.cls-15{fill:#746e66;}.cls-16{fill:#635c51;}.cls-17{fill:#7e7972;}.cls-18{fill:#414248;}.cls-19{fill:#464950;}.cls-20{fill:#44454c;}.cls-21{fill:#7c8191;}.cls-22{fill:#2a1b16;}.cls-23{fill:#d39c72;}.cls-24{fill:#e6b185;}.cls-25{fill:#1e1e1e;}.cls-26{fill:#f4c490;}.cls-27{fill:#80cebc;}</style></defs><g id="Capa_3" data-name="Capa 3"><path class="cls-1" d="M1865.83,822.29c-74.23-28.26-156.46-43.86-243.34-43.86s-169.11,15.6-243.34,43.86Z"/><path class="cls-2" d="M1651.17,822.29c-74.65,0-148.87-43-221-63.26-45.12-12.66-93.62-21.09-143.39-21.09-52.29,0-102.06,9.28-149.29,22.77a745,745,0,0,1-197.37,29.52L906,804.15l-11.39,30.37h755.74Z"/><path class="cls-3" d="M982.3,834.94a1108.49,1108.49,0,0,1-326-49.35,669.94,669.94,0,0,0-194-28.25h-3.37a669.94,669.94,0,0,0-194,28.25c-105.85,32.06-215.5,49.35-326,49.35h-48.08v8.85H1030.38v-8.85Z"/><path class="cls-1" d="M1129.49,775.47h0c-19-5.48-53.56-9.7-75.49-9.7h-9.28c-21.51,0-56.09,4.22-75.49,9.28v.42c-52.29,10.12-105.43,28.26-124.83,50.61h409.08C1234.92,803.73,1181.78,785.59,1129.49,775.47Z"/><rect class="cls-4" y="812.5" width="2000" height="36.28"/><path class="cls-5" d="M1632.41,784.43a16.24,16.24,0,0,1,14.79,9.65c3.22-5.79,10.29-7.07,15.44-4.5a11.51,11.51,0,0,1,5.79,7.72H1617A15.27,15.27,0,0,1,1632.41,784.43Z"/><path class="cls-5" d="M282.49,809.52a16.27,16.27,0,0,1,14.8,9.64c3.21-5.78,10.29-7.07,15.43-4.5a11.45,11.45,0,0,1,5.79,7.72H267.06C268.35,815.3,275.42,809.52,282.49,809.52Z"/><g class="cls-6"><path class="cls-7" d="M525,817.23c-3.86,4.51-11.57,10.94-25.08,10.94-7.72,0-14.79-1.93-21.22-7.08-10.29-9-10.94-21.22-10.94-25.72a36.29,36.29,0,0,1,6.44-20.58c8.36-12.22,20.58-12.86,25.72-12.86A33.15,33.15,0,0,1,525.6,773.5c1.93,2.57,2.57,3.86,3.85,5.79l-16.72,8.36c-.64-.64-.64-1.29-1.28-1.93-1.29-2.57-4.5-8.36-12.22-8.36-3.86,0-5.79,1.29-7.08,2.57-6.43,4.51-5.78,13.51-5.78,15.44,0,8.36,2.57,12.86,5.78,15.43a10.86,10.86,0,0,0,7.72,2.58c7.07,0,10.29-4.51,10.93-7.08a25.33,25.33,0,0,0,1.29-3.86l16.72,8.36A55.93,55.93,0,0,1,525,817.23Z"/><path class="cls-7" d="M579,825.59l-2.57-9H554.54l-2.58,9H530.74l23.79-62.38H577l23.16,62.38Zm-13.5-44.37-7.08,21.87H571.9Z"/><path class="cls-7" d="M604.06,825.59V763.21H624v46.31h23.8V825l-43.73.64Z"/><path class="cls-7" d="M651.65,825.59V763.21h19.93v62.38Z"/></g><rect class="cls-8" x="881.24" y="792.8" width="368.51" height="19.94"/><polygon class="cls-9" points="892.17 792.79 946.84 798.58 1238.17 798.58 1241.39 790.22 946.84 788.94 888.96 787.01 892.17 792.79"/><polygon class="cls-10" points="902.47 776.07 888.96 787.01 946.84 788.94 1241.39 790.22 1227.24 778 902.47 776.07"/><rect class="cls-11" x="917.26" y="771.57" width="290.69" height="6.43"/><polygon class="cls-12" points="941.7 755.49 941.7 771.57 1175.79 771.57 1175.79 755.49 979.64 750.99 941.7 755.49"/><polygon class="cls-13" points="1141.06 724.63 989.93 719.48 967.42 724.63 967.42 752.28 979.64 750.99 1141.06 754.85 1141.06 724.63"/><polygon class="cls-14" points="989.29 606.93 1006.01 600.5 1019.51 602.43 1013.08 720.12 989.93 719.48 977.71 722.05 989.29 606.93"/><polygon class="cls-15" points="1000.22 561.27 1027.87 545.84 1113.41 551.62 1128.2 724.63 1013.08 720.12 1019.51 602.43 1006.01 600.5 996.36 604.36 1000.22 561.27"/><polygon class="cls-16" points="1105.69 529.76 1105.69 550.98 1027.87 545.84 1000.86 561.27 1002.15 534.9 1027.87 522.68 1105.69 529.76"/><polygon class="cls-17" points="1095.4 520.11 1104.41 524.61 1104.41 529.76 1027.87 522.68 1003.43 534.26 1003.43 532.97 1029.8 501.46 1043.31 498.25 1067.75 498.25 1081.25 501.46 1090.26 509.82 1090.26 518.18 1090.26 519.47 1095.4 520.11"/><path class="cls-18" d="M1062,354.83l-.64-2.57s-1.29-7.72-7.72-9c0,0-4.5-1.28-7.72,0s-7.07,6.43-7.07,6.43-2.57,4.51,0,10.94l-1.93,4.5a9.68,9.68,0,0,1-9,0c-4.5-2.57-18,0-18,0s-12.22.64-15.44,1.93c0,0-14.79-7.72-26.37-12.22l-4.5-1.93-9-3.86h-9v2.57l9,1.29,1.93,1.93-2.57,1.29L950.7,358v4.51l1.29.64v2.57l5.14,1.29v-2.57l-.64-1.29,1.93-.64s6.43,5.14,9.65,1.93c0,0,9.64,11.57,21.22,17.36l24.44,1.29s2.57,2.57,9,3.21l3.86,10.94,6.43,12.21,1.29,1.93L1035,414l-5.79,18-.64,11.58,5.14,3.22,1.29,19.93-4.5,10.29-1.29,5.15.65,15.43.64,13.51-3.22,4.5.65,3.22,21.86,2.57,9.65-1.29s1.28-6.43-5.15-5.79l-10.93-4.5-2.57-1.93,1.28-17.36c-.64,0,.65-.65,1.29-2.57,1.29-1.93,1.93-5.15,1.93-10.94,0,0,5.15-4.5,4.5-7.07l1.93-3.86,1.29-15.44,3.21.65s1.93,3.86,18.65,8.36l-1.28,1.93-5.15,1.28-5.14,5.79-5.79,3.22L1049.1,477l-3.22.64s0,8.37-1.93,10.94l3.22,1.28,5.14,10.29,15.44,1.29a3.21,3.21,0,0,0-2.57-3.86l-5.15-1.93,1.29-10.93,12.22-5.79,19.29-9.65,3.22-2.57s2.57-4.5,0-8.36l-2.58-4.5-10.29-11.58-3.21-2.57L1069,428.79l-.64-3.86-1.28-.64v-5.15l1.92.64,6.44-5.78v-1.29l5.14-.64,5.79-3.22,1.29-3.86v-2.57l-1.93-.64,1.28-1.29-2.57-1.29-.64-2.57-3.22-.64-3.21-.64c-.65,0-5.79,5.78-5.79,5.78v1.29H1069l.65-9-.65-3.86-3.85-9.65-9-9.65L1053,369v-3.22l3.21,1.29,2.57-1.29v-4.5l1.93-.64h1.93s-.64-6.43-.64-7.08c-.64,0,1.29-1.28,1.29-1.28Z"/><path class="cls-19" d="M1031.09,365.12s.64,7.72,0,7.72-7.07,11.57-7.07,11.57l3.21,10.29,7.08,13.51,2.57-3.22c1.93-1.93,3.86-3.21,6.43-3.21h.64a9.3,9.3,0,0,1,4.5,1.28l18.65,14.79,1.93,1.93.65-14.79.64-9-.64-3.86-3.86-9.65-9-9.64-3.21-1.29s-16.72,1.29-14.15-7.72C1038.81,364.48,1035.59,366.41,1031.09,365.12Z"/><path class="cls-20" d="M1033.66,415.93h6.43s14.8,4.5,28.3,9l.64,3.86,9.65,9.64s-17.36-.64-21.22,12.22l.64-2.57a8,8,0,0,0-7.07-9c-7.08-1.29-15.44-.65-16.08,5.14L1029.8,441l.65-11.58Z"/><polygon class="cls-21" points="1099.26 691.18 1060.67 691.18 1060.67 643.59 1099.26 645.52 1099.26 691.18"/><polygon class="cls-8" points="1074.82 417.86 1074.82 421.71 1076.11 424.29 1076.11 428.14 1073.54 426.86 1069.03 428.14 1070.32 429.43 1073.54 429.43 1074.82 430.07 1074.18 502.75 1076.11 502.75 1078.04 432 1081.25 434.58 1081.25 435.22 1083.18 435.86 1083.83 432.65 1078.04 429.43 1078.04 424.93 1079.97 421.71 1080.61 417.86 1079.97 412.71 1079.97 409.49 1075.46 405.64 1074.82 412.71 1074.82 417.86"/><path class="cls-22" d="M813.07,825s-1.93,7.08.64,7.08c10.94,0,14.8-12.87,10.94-15.44C818.86,813.38,813.07,825,813.07,825Z"/><path class="cls-22" d="M748.76,811.45l-16.08,9s2.57,5.14,10.93,2.57c9-2.57,6.43-4.5,9-3.21s3.21.64,4.5-3.22C758.41,813.38,748.76,811.45,748.76,811.45Z"/><path class="cls-23" d="M838.8,657.74h0c-1.29-1.29-2.58-1.93-3.86-3.22,5.14-3.21,7.71-9,8.36-8.36s-1.29,3.22-2.57,5.79c1.93-1.93,2.57-2.57,3.21-1.93s-.64,1.93-1.93,3.22c.64-.64,1.29-.64,1.29,0,.64.64-2.57,2.57-4.5,4.5Z"/><path class="cls-24" d="M840.08,658.38c2.58-3.21,6.43-3.21,6.43-3.86-.64-.64-1.93-.64-4.5.65-1.93.64-4.5-.65-3.86-1.93s5.15-7.08,3.86-7.72-3.21,3.86-7.07,7.72c-2.57,2.57-1.29,7.72-1.29,7.72S836.87,662.24,840.08,658.38Z"/><path class="cls-24" d="M808.57,712.41h0c-.64-3.22-1.93-6.44-2.57-9l12.86-14.15L835.58,661l-1.93-3.21-23.79,25.08-21.23,17.37c-.64.64-1.93,1.28-2.57,1.92h0c-1.29,1.29-2.57,1.93-3.86,3.22-7.07,7.07-11.58,14.15-11.58,18l-7.07,23.15h10.29L781.56,733c3.86,2.58,8.36,5.79,12.86,7.08,1.93,3.86,3.22,8.36,1.93,9.65-2.57,2.57,20.58,14.79,26.37,7.71s-3.86-18.65-5.79-21.86S808.57,712.41,808.57,712.41Z"/><path class="cls-24" d="M788,704.69l-9-8.36a12.2,12.2,0,0,0-1.29-5.15c-5.79-9-12.86-6.43-16.72-2.57a11.29,11.29,0,0,0,.64,16.08c4.5,4.5,8.36,9,12.22,5.79,1.29-1.29,1.93-2.58,3.22-3.86l5.14,5.79Z"/><path class="cls-22" d="M758.41,700.83s5.78-1.93,8.36-4.5a6.51,6.51,0,0,0,3.21,1.28l2.57,3.22s-2.57-4.5-1.28-5.79,3.21,1.29,3.86,1.93c2.57.64,7.71,2.57,7.71,2.57s1.29-19.29-14.79-16.08C759.69,682.18,750.69,691.18,758.41,700.83Z"/><path class="cls-25" d="M815,782.51c3.22-7.72,10.93-24.44,10.93-29.59.65-7.07-7.07-14.79-7.07-14.79l-22.51,10.29S779.63,778,774.48,782.51s-29.58,27-29.58,27,11.58,10.29,14.15,10.93c7.72-10.93,26.37-29.58,27.65-30.23.65-.64,11.58-12.22,19.3-21.22-1.29,5.15-2.58,10.93-3.86,15.44-.64,1.28-.64,1.92,0,2.57.64,1.93.64,4.5,1.93,7.72,2.57,5.78,5.79,25.08,4.5,34.72,5.79-2.57,18-5.78,18.65-11.57C824.65,805.66,816.29,785.72,815,782.51Z"/><path class="cls-26" d="M816.29,782.51c.64,4.5-.65,7.71-3.22,9.64-3.21,1.93-26.37,14.79-28.3,19.3s-7.07,7.07-2.57,11.57c-3.21,1.93-7.07-5.79-6.43-9.64,1.29-3.86-.64-8.37,1.93-8.37,1.93,0,5.79,0,7.72-2.57,2.57-2.57,11.57-14.79,19.29-18.65-4.5-3.21-23.15-19.94-23.8-25.08,2.58-3.86,2.58-16.72,9-12.86C798.28,750.35,812.43,772.86,816.29,782.51Z"/><path class="cls-25" d="M808.57,712.41h0c-.64-3.22-1.93-6.44-2.57-9l12.86-14.15,18-27.65L833,657.74l-23.15,25.08-21.23,17.37-1.93,1.93a41.21,41.21,0,0,0-1.28,5.78c9.64.65,14.79,9,15.43,26.37.65,3.22-18.65-11.57-18.65-12.86,0,0-.64-9.65-1.28-10.29-1.29-.64-1.93-.64-2.58-1.29-4.5,5.15-7.07,10.29-7.07,13.51l-7.08,23.15h10.29L782.2,733c3.86,2.57,8.36,5.78,12.86,7.07,1.93,3.86,3.22,8.36,1.93,9.65-2.57,2.57,20.58,14.79,26.37,7.71s-3.86-18.65-5.79-21.86C815,732.34,808.57,712.41,808.57,712.41Z"/><path class="cls-26" d="M737.83,772.22l3.85-7.72s-3.21-17.37,3.86-20.58,12.22-6.43,15.44-7.72,18.65-3.22,30.22,9c-2.57,11.58-5.14,19.94-5.14,19.94s-10.93,1.29-12.22-10.93c-.64-6.43-7.72-5.15-10.29-3.22-1.93,1.29-5.15,10.94-12.86,16.72-4.5,3.22-1.29,10.94-1.29,10.94Z"/><path class="cls-26" d="M738.47,769s-5.79-1.93-6.43,1.93c-1.29,3.86-1.29,18,7.07,19.29,7.72,1.29,16.08-5.79,15.44-10.93C752.62,773.5,751.33,769,738.47,769Z"/><path class="cls-22" d="M735.25,788.94s7.08,7.07,15.44.64c8.36-7.07,5.14-17.36-1.29-18-2.57,3.22-1.93,8.36-4.5,9-2.57,1.28-3.21-3.86-3.21-3.86s-.65,6.43-2.58,7.07-6.43,2.57-6.43,2.57Z"/><path class="cls-22" d="M762.26,777.36a6.43,6.43,0,1,1-6.43-6.43A6.44,6.44,0,0,1,762.26,777.36Z"/><polygon class="cls-26" points="748.76 750.99 741.68 789.58 724.96 809.52 726.89 812.09 748.76 794.08 758.41 756.14 748.76 750.99"/><path class="cls-26" d="M726.25,808.87c-2.57-.64-3.22,3.22-8.36,1.93-1.93,0,1.28,2.58,3.21,2.58-2.57,3.21-7.07,1.28-7.07,3.21.64,1.29,7.07,2.57,9,1.29,3.22-1.93,5.15-6.43,5.15-6.43S726.89,808.87,726.25,808.87Z"/><path class="cls-27" d="M753.26,749.06c3.86-4.5,7.08-7.71,12.86-9.64,5.15-1.29,10.29-1.93,15.44-.65-9.65-4.5-18.65-3.21-20.58-2.57-3.22,1.29-8.36,4.5-15.44,7.72-5.78,2.57-4.5,14.79-4.5,19.29C745.54,758.71,749.4,753.57,753.26,749.06Z"/><path class="cls-27" d="M785.42,765.78h0l3.86,3.86a34.52,34.52,0,0,0,3.21-13.5c.64-3.22,0-6.43-.64-9.65-.64-.64-1.29-.64-1.93-1.29-1.93-2.57-4.5-3.85-6.43-5.14A19.43,19.43,0,0,1,778.34,751c-1.93,1.93-3.21,3.86-5.14,5.15A12,12,0,0,0,785.42,765.78Z"/><path class="cls-24" d="M763.55,753.57s.64.64,0-3.22c-.64-2.57,1.93-6.43,3.22-5.79.64.64-1.29,2.57-.65,5.15,1.29.64,2.58-1.93,3.22-3.22s-.64-4.5,1.29-4.5c2.57-.64,5.14,4.5,4.5,7.72s-3.22,7.07-5.79,7.07A7.13,7.13,0,0,1,763.55,753.57Z"/><path d="M780.91,805s-3.21-1.92-5.14,1.29-3.86,3.22-3.86,3.22v.64l3.22-1.29c.64.65-2.58,16.72,7.07,16.08,0-.64,1.93-.64-.64-3.21-1.29.64-3.22.64-3.86-2.58S778.34,806.94,780.91,805Z"/></g></svg>