<svg xmlns="http://www.w3.org/2000/svg" viewBox="0 0 2000 1023.98"><defs><style>.cls-1{fill:#8bc34a;}.cls-2{fill:#fff;opacity:0.3;}.cls-3{fill:#999698;}.cls-10,.cls-4{fill:#6d696d;}.cls-5{fill:#a5a0a4;}.cls-6{fill:#bcb7bb;}.cls-7{fill:#5b575b;}.cls-8{fill:#878286;}.cls-9{fill:#969295;}.cls-10{opacity:0.5;isolation:isolate;}.cls-11{fill:#abe0d6;stroke:#25597c;stroke-miterlimit:5.04;stroke-width:0.13px;}.cls-12{fill:#c6b2a9;}.cls-13{fill:#b9b4ae;}.cls-14{fill:#d8cac2;}.cls-15{fill:#7e878f;}.cls-16{fill:#69686b;}.cls-17{fill:#d0cbc5;}.cls-18{fill:#75787d;}.cls-19{fill:#999688;}.cls-20{fill:#07090d;}.cls-21{fill:#d9d3c9;}.cls-22{fill:#8c9ba5;}</style></defs><g id="Capa_3" data-name="Capa 3"><polygon class="cls-1" points="2000 848.78 0 848.78 0 812.5 2000 812.5 2000 812.5 2000 848.78 2000 848.78"/><path class="cls-2" d="M1167.81,816.43l-1385.5,20.26c-5.59-382.59,300-697.28,682.62-702.88S1162.22,433.83,1167.81,816.43Z"/><path class="cls-3" d="M1852.44,769.17a6.19,6.19,0,0,1,2.27-3.63,20.6,20.6,0,0,1,3.17-3.17c1.82-.91,3.18,0,4.54.9a18.36,18.36,0,0,1,5.45,4.54c1.82,1.82,4.08,4.09,4.54,6.36.91,4.54-5.45,4.54-8.17,3.17l-.45.91a.45.45,0,0,1-.46.46C1857.43,780.52,1850.62,775.53,1852.44,769.17Z"/><path class="cls-3" d="M1857,778.71a.45.45,0,0,1,.46-.46h.45c.91.46,1.36.46,2.27.91.91,0,1.36,0,1.82-.45a.45.45,0,0,0,.45-.46l.46-.45c.45-.45.45-.91.91-1.36l.45.45h.45l.46.45a6.39,6.39,0,0,0,5-.45c2.27-1.36,2.73-4.08,3.18-2.72.45,1.81.45,3.18-.45,4.54-.91,4.08-2.73,10-3.63,14.07-.46,1.81-1.82,7.26-1.82,7.26.45,0,.45,0,.45.45V801c-.45,2.27-2.72,3.17-4.53,3.63a36,36,0,0,1-10,2.27l-.46-.46h0C1853.34,796.86,1855.16,787.78,1857,778.71Z"/><path class="cls-4" d="M1849.26,781c.45-3.18.45-6.81,1.36-10s2.72-4.54,5-6.35c0-.46.46-.46.46,0v.45l.9-.91h.46v.45c-2.27,1.82-3.18,4.09-4.09,6.36,1.37,2.27,2.27,4.54,3.63,6.81a6.54,6.54,0,0,0,2.73.91c.45.45.45.9-.46.9-1.81-.45-1.36,1.37-1.81,2.27a9.86,9.86,0,0,1-.46,3.63c-.45,2.73-.9,5-1.36,7.27-.9,4.54-1.81,8.62-2.27,13.16.46,0,.91.45,1.82-.45.45-.46,3.63-1.37,4.08-1.82a20,20,0,0,0,2.73-3.18c0-.45,1.36-1.81,2.27-2.27a8.32,8.32,0,0,0-.91,3.18v.45c0,.46-.46,1.37-.91,1.37,0,.45,0,.45.45.45h.91l.91-.91h.46c.45-.45.9-1.36,1.36-1.81.45-.91,1.36-2.27,1.36-3.18a22.43,22.43,0,0,1,.91,7.72c-1.36,1.36-3.18.45-4.54.45h-.46a3.88,3.88,0,0,0-3.18,0,7.73,7.73,0,0,1-2.26.91,20.57,20.57,0,0,1-5,.45c-1.36-1.36-2.72-2.72-4.54-3.18C1848.35,802.31,1848.81,788.69,1849.26,781Z"/><path class="cls-5" d="M1856.07,764.18a4.81,4.81,0,0,1,5.44-.45,18.3,18.3,0,0,1,7.27,5.9c-1.36,1.36-6.81-2.73-8.63-2.27-4.08,1.36-2.72,5.9-2.27,8.62l-4.54-4.54C1853.8,771.44,1853.34,766,1856.07,764.18Z"/><path class="cls-6" d="M1857.43,762.82c1.81-.91,4.54.45,5.9,1.82-2.27-.91-5.9-1.82-7.72.45a8.71,8.71,0,0,0-1.81,5.45c0,1.36.45.9,1.81,1.81,1.36.46,1.36,1.36,1.82,2.73.45.9,1.36,1.36,1.81,1.81.91,1.36.91.91,1.36.91s.91.91,1.36.91a1.91,1.91,0,0,0,1.82-1.82,5.58,5.58,0,0,0,3.18.91c.91-.46,1.36-.46,2.27-.91s1.36-.91,1.36-1.81a4.15,4.15,0,0,0-.91-5,10.69,10.69,0,0,1,2.72,4.09c.46,1.36.46,2.27-.45,3.17a5.08,5.08,0,0,1-3.63,1.37c-.46.45-1.36.45-1.36.9-1.82,3.18-1.82,6.81-2.73,9.54-.45.45-.91.45-.91,0a9,9,0,0,1,.46-5,13.8,13.8,0,0,1,1.81-4.54l-.9-1.36-.46.46v.9l-.45.91c-.91.46-1.36,0-1.82-.45-.45,0-1.36-.91-1.81.91a19.36,19.36,0,0,1-1.82,3.17,110.76,110.76,0,0,1-3.18,13.17,5.83,5.83,0,0,1-.45-2.73c1.36-5.44,2.27-11.34,1.36-16.79-.46-.91-3.18-4.54-3.63-7.26C1852.89,766.9,1855.16,763.73,1857.43,762.82Z"/><path class="cls-7" d="M1853.8,772.81c.91-.46,1.36,0,2.27.45-.46.45-.91,1.36-1.36,1.36-.91,5-1.82,9.53-2.27,14.53-.91,5.44-.91,10.89-1.37,16.34a3.39,3.39,0,0,0-1.81-.91C1850.17,794.14,1853.34,775.08,1853.8,772.81Z"/><path class="cls-7" d="M1863.33,779.61a3.43,3.43,0,0,0,.45-1.81l1.82,1.36c-.46,1.82-.91,5.45-1.36,7.72s-.46,5.44-1.36,7.26C1861.51,790.51,1862.87,779.61,1863.33,779.61Z"/><path class="cls-7" d="M1861.06,804.12a3.06,3.06,0,0,1,1.36-1.81c.45-.91.91-2.72,1.82-3.18.45,1.36.9,3.18,1.36,4.54,0,.91-.46,1.82,0,2.27.9.45,2.27-.45,3.17,0-1.36,1.82-4.53.91-6.35.45s-3.63,1.37-5.9.91C1857,805.49,1860.15,805.94,1861.06,804.12Z"/><path class="cls-4" d="M1851.53,781c-.46-2.27-7.72-4.54-10-5a58.8,58.8,0,0,0-8.62-1.81,27.16,27.16,0,0,0-8.63,0c-2.72.45-5.9.91-8.17,2.27-.91.45-1.36,1.36-1.81,1.81,1.81,5.45,8.17,7.26,13.16,8.63s10.44,2.72,15.43.9c.91-.45,3.63-1.36,4.54-1.81.91,1.81-1.81,3.18-2.72,4.08-3.63,2.27-3.63,6.36-3.63,10a34.59,34.59,0,0,0-.91,6.81,17.16,17.16,0,0,0-.45,4.54,15.3,15.3,0,0,0,5.44-2.73c3.63-3.63,5-13.16,5.45-16.34C1851.07,787.78,1852,784.61,1851.53,781Z"/><path class="cls-3" d="M1846.08,776c-.91-.45-1.36-.45-1.81-.91l-1.36,1.37c-2.73,1.36-6.36.45-9.54-.46-1.36-.45-5.44-1.36-6.35,0s.91,1.82,1.36,2.27.91.91,1.36,1.36.45,1.37-.45,1.37c-1.82,1.36-4.09,2.26-6.36,3.63l-.91.9a36.58,36.58,0,0,0,14.07,2.27c3.18.46,6.36-.45,9.54-1.36,2.27-.91,5-2.27,5.44-4.54C1851.53,778.25,1847.9,776.89,1846.08,776Z"/><path class="cls-5" d="M1829.74,781c.45-.46.91-.91.45-1.37l-1.36-1.36c-.9-.45-2.27-1.36-1.36-2.27s5,0,6.36,0c2.72.46,6.81,1.82,9.53.46l1.36-1.36a18.78,18.78,0,0,0-7.26-1.37,58.36,58.36,0,0,0-12.71-.9c-2.72,0-7.72,0-8.62,2.72V776c0,.46,0,.46-.46.91-.91,2.27.91,4.09,2.27,5.45a27.63,27.63,0,0,0,5,2.72l.91-.91C1825.66,783.25,1827.93,781.88,1829.74,781Z"/><path class="cls-8" d="M1825.2,786.88c0-.46.46-1.37.91-1.37-4.54-1.36-10-3.17-11.35-8.17-.45,1.37.91,5,.91,5.45a78.06,78.06,0,0,0,4.09,10.9,95.42,95.42,0,0,0,6.8,13.61,27.19,27.19,0,0,0,3.18,1.82c-.45-1.82-.91-3.63-1.36-5C1827,799.13,1826.11,791.87,1825.2,786.88Z"/><path class="cls-8" d="M1847.44,785.06c-.91.45-3.63,1.36-4.54,1.82-4.54,1.36-10,.45-14.52-.91a2.37,2.37,0,0,1,.91,1.81c.45,2.73,0,5.45.45,8.17a86.29,86.29,0,0,0,2.72,15,10.6,10.6,0,0,0,3.63.91c1.82-.45,3.18-.45,4.54-.91a13.86,13.86,0,0,1,.46-4.54,35.26,35.26,0,0,0,.91-6.8c.45-3.64.45-7.72,3.63-10C1845.63,788.69,1847.9,786.88,1847.44,785.06Z"/><path class="cls-4" d="M1828.38,786.42a2.94,2.94,0,0,0-2.27-.91h-.45l1.81.46Z"/><path class="cls-4" d="M1829.29,787.78a2.37,2.37,0,0,0-.91-1.81l-.91-.46-1.82-.45c-.45.45-.9.91-.9,1.36.9,5,1.81,12.26,2.72,17.25.45,1.82.91,3.63,1.36,5A21.81,21.81,0,0,0,1832,810a87.62,87.62,0,0,1-2.73-15C1829.29,793.23,1829.74,790.51,1829.29,787.78Z"/><path class="cls-7" d="M1847,785.06a7.3,7.3,0,0,1-5.9,2.72,6.8,6.8,0,0,1-3.18-.45v-.45c-.45-.91-1.36-.91-2.27-.46l-.45.46h-1.36c-.91,0-3.18.9,1.81,2.72a21.23,21.23,0,0,1,2.27,11.8,30.66,30.66,0,0,0,0,9.08c1.36-.45,2.72-.45,3.63-1.36,0-3.18-.45-5.9-.45-8.63.45-2.27.45-4.54,1.36-6.81.45-1.36.91-2.72,1.36-4.53,1.81-.91,3.63-2.27,4.08-4.54C1847.9,785.51,1847.44,785.06,1847,785.06Z"/><path class="cls-6" d="M1842.45,786c-2.72,0-12.26.45-14.07-2.27a8.5,8.5,0,0,1-3.18.91,26.25,26.25,0,0,0,1.36-2.27,27.58,27.58,0,0,1-5.9-.46,16.22,16.22,0,0,1-4.54-3.17c-.91-1.37-.91-3.63.91-4.54,1.36-1.36,5.45-1.82,8.17-2.27-2.72,0-5.45-.46-8.17.91a5.21,5.21,0,0,0-2.27,6.35c.45.45.45.91.91,1.36a13.06,13.06,0,0,0,8.17,5,26.66,26.66,0,0,0,1.81,8.17c.46,1.82.91,3.18,1.36,4.54.46-1.36-.45-11.34-.45-12.25,1.82.45,3.18.91,5,1.36a18.39,18.39,0,0,0,8.63-.45c3.63-.46,10.89-2.27,11.34-7.27C1849.26,782.34,1846.54,786,1842.45,786Z"/><path class="cls-6" d="M1838.36,798.68a12.7,12.7,0,0,0-.45-4.09,16.66,16.66,0,0,0-2.27-5c1.36,3.18.91,5,1.36,8.17.46,3.63,0,9.53.91,12.26A47.49,47.49,0,0,0,1838.36,798.68Z"/><path class="cls-8" d="M1783.44,806.39c.46.46.91-.45,1.36-1.36,1.82-4.54,2.27-10,5.45-13.61.91-1.37.91.45.45.9-.9,5,.91,7.27.91,11.35,0,.91-.91,3.18-.91,4.54-.45,1.82,0,3.18-.45,5h0l.45.46c.46-.91.91-1.37.91-1.82.91-1.36,1.82-1.36,1.82-1.36,0,.45,0,.45-.46.91v2.27c.91,0,1.36.45,2.27.45.91.45,1.36,1.36,2.27,1.82l4.09,1.36a99.68,99.68,0,0,0-2.73-16.8c-1.81-5.44-4.54-10.89-4.08-18.61a74.41,74.41,0,0,0-9.53,11.35,32,32,0,0,0-4.54,14.07,1.57,1.57,0,0,0,.45.91c.46-.45.46-.91.91-1.36C1782.54,805.94,1783,806.39,1783.44,806.39Z"/><path class="cls-4" d="M1794.79,813.66a4,4,0,0,0-2.27-.46v-2.27c0-.45,0-.45.45-.9,0-.46-.9-.46-1.81,1.36-.46.91-.91,1.36-.91,1.81a13.63,13.63,0,0,0,4.54,1.82l2.27.91C1796.61,815,1795.7,814.56,1794.79,813.66Z"/><path class="cls-4" d="M1786.62,809.57c1.36.91,1.82,2.72,3.18,3.63a18.72,18.72,0,0,0,.45-5,15.93,15.93,0,0,0,.91-4.54c0-4.54-1.36-6.81-.91-11.35,0-.45.46-1.81-.45-.9-3.18,3.63-3.63,9.07-5.45,13.61a3.34,3.34,0,0,1-1.36,1.36c-.45-.45-.91-.9-1.36-.45s-.91.91-.91,1.36h0C1783,808.21,1785.26,808.66,1786.62,809.57Z"/><path class="cls-3" d="M1807.05,798.22c1.36-.9,2.27-1.36,3.63-2.27a16.17,16.17,0,0,0,4.53-3.17v-.46A118.31,118.31,0,0,0,1803,783.7c-2.27-1.36-5.45-3.63-8.17-3.63h0c-.91,7.71,2.27,13.16,4.08,18.61a53,53,0,0,1,1.82,8.17,33.45,33.45,0,0,1,3.18-5.45Z"/><path class="cls-8" d="M1806.59,791c-.91-.91-2.27-.45-3.18,0a3.46,3.46,0,0,0-1.81-.91c-.91,0-4.09.91-4.54-.45-.91-.91-.91-.91-.91.45a10.34,10.34,0,0,0,2.72,5.45c.46.45.91,0,1.36-.45,1.82-.91,4.54-2.73,6.81-2.73.46,0,.46-.9-.45-1.36Z"/><path class="cls-4" d="M1820.21,802.31a57.43,57.43,0,0,0-5-9.08c-.45.45-.45.91-.9.91l.45.45c.45,1.36,1.36,2.27,1.36,3.63-.45,1.37-.91,2.73-1.36,4.09a5.79,5.79,0,0,0-.45,2.72,4.89,4.89,0,0,0-.46,2.27c.46,1.82.91,3.18,1.36,5a10.84,10.84,0,0,0,5-2.72C1822,806.85,1821.12,804.58,1820.21,802.31Z"/><path class="cls-4" d="M1808.41,798.22h0l-1.36.46a12.82,12.82,0,0,0-4.09,4.54,34.12,34.12,0,0,0-3.18,5.44,55,55,0,0,1,.91,8.63h0a48.91,48.91,0,0,1,8.63-3.63c-.46-2.27-.91-4.09-.46-5.9C1808.86,804.58,1808,801,1808.41,798.22Z"/><path class="cls-7" d="M1814.31,794.14h0a24.82,24.82,0,0,1-3.18,1.81c-.91.46-1.81,1.37-2.72,1.82h0a181.59,181.59,0,0,0,5.9-3.63Z"/><path class="cls-7" d="M1814.31,804.12c0-.9.45-1.81.45-2.72.91-1.36.91-2.72,1.36-4.08,0-1.37-.91-2.27-1.36-3.64l-.45-.45a15.71,15.71,0,0,1-3.63,2.27,9.8,9.8,0,0,0-2.27,1.36c0,.46,0,.46.45.46h0c-.45,3.17.46,6.35.91,9.07a23.64,23.64,0,0,0,.46,5.9l2.72-.9,2.72-.91c-.91-1.82-.91-3.18-1.36-5C1813.85,805.94,1813.85,805,1814.31,804.12Z"/><path class="cls-5" d="M1813,791.42c-1.37,0-2.27-.46-3.63,0s-3.18.45-4.54,1.36a20,20,0,0,0-3.18,1.81,3.66,3.66,0,0,1-4.09-1.36c-.91-1.36-1.36-4.54-1.81-6.35-.46-.91-1.82-4.09-1.36-5.45-.91,0-5.45,5.45-6.36,7.26,1.36-.91,3.18-4.08,5-2.27a25.25,25.25,0,0,1,1.81,5.45,25.2,25.2,0,0,0,3.18,8.62,10.35,10.35,0,0,1,1.36,5c-.45,2.27.45,4.08,1.36,5.9.46-1.82.91-2.27,1.36-4.54s2.27-4.09,3.18-5.9c1.82-2.73,5.45-4.09,7.72-5.45l2.72-1.36A5.33,5.33,0,0,0,1813,791.42Z"/><path class="cls-6" d="M1814.76,792.78c-.91-.91-12.71-9.53-14.52-10-.91-.45-3.63-2.27-5.9-1.36-1.36.45-2.73,2.72-3.63,4.08a6.92,6.92,0,0,1,3.63-1.81c.91.45,1.36,1.81,1.81,2.72.91,2.27.91,4.54,1.82,6.81a12.2,12.2,0,0,0,3.18,3.63c.9.46.9,1.36.9,2.27a2.91,2.91,0,0,0,0,2.72c0,.46.46,0,.46-.45.45-1.36.91-2.72,1.36-4.08v-.46h0c-.91-.45,0-.91.45-1.36s.91-1.36,1.36-1.82a9.25,9.25,0,0,1,5-1.36c1.36.46,1.81-.45,2.72,0,1.36.46,2.73,1.36,3.63,1.36C1816.12,794.14,1814.76,792.78,1814.76,792.78Zm-7.71-1.36c-1.82.9-3.18,1.36-5,2.26a3,3,0,0,1-4.08-.9,51.22,51.22,0,0,0-2.73-7.72c0-.45-.45-.91-.45-1.36s0-1.36.45-1.36c1.36-.91,5,1.36,5.9,1.81,2.27,1.36,7.72,5.9,8.63,6.36.45.45.45.45,0,.91h-2.72Z"/><path class="cls-5" d="M1903.27,812.75a1.61,1.61,0,0,0-.45-.91c-.46-.91-.46-1.36-.91-2.27h0c-.45-.91-.45-1.81-.91-2.27a51.81,51.81,0,0,1-1.81-8.17,22.43,22.43,0,0,1-.91-5.45,56,56,0,0,0,4.08,5.45c.91.91,1.82.91,2.27,0,.46-1.36.91-.91,1.82-.45a1.67,1.67,0,0,0,1.36.45c.45.46.45,1.36.91,1.82a9.54,9.54,0,0,0,1.81,2.72c0-.91-.91-2.72-1.36-4.08a3.08,3.08,0,0,0-1.81-2.73,57.24,57.24,0,0,1-5.45-3.63c-1.36-1.36-1.82-2.72-2.73-4.54a10.07,10.07,0,0,1-.45-3.63c0-.91-1.36-2.27-1.36-3.18-.46-2.27,1.36-3.17,1.36-4.08-.45-1.82-.45-3.18.45-3.18a25,25,0,0,1,3.63,2.72,6.52,6.52,0,0,1,.91,3.18c.46.91,0,1.36-.45,1.82s-.46,1.36.45.91,1.36.45,1.82,1.81a73.2,73.2,0,0,1,4.08,13.16c.91,3.18,2.27,7.27.91,10.44-.91,1.37-2.72,2.27-4.08,3.64s-2.27,3.17-3.63,4.08a10.54,10.54,0,0,1-.91-3.63C1903.73,813.66,1903.27,813.2,1903.27,812.75Z"/><path class="cls-8" d="M1903.27,811.84c-.45-.91-.45-1.36-.91-2.27h0C1902.82,810.48,1902.82,811.39,1903.27,811.84Z"/><path class="cls-8" d="M1903.27,812.75c0,.45.46.91.46,1.36C1903.73,813.66,1903.27,813.2,1903.27,812.75Z"/><path class="cls-5" d="M1891,773.71c2.27-.9,4.08,1.36,4.54,2.73s.45,3.17.9,4.54c1.82,2.72,1.37,5.44,1.82,8.62.45,3.63.45,7.26.91,8.17.45,1.82.45,3.18.91,4.54-.46-.45-.46-.45-.91-.45-5-2.73-1.36-8.63-5-12.71a8.12,8.12,0,0,1-2.27-3.18,13.8,13.8,0,0,1-.46-4.54c0-.91,1.82-4.09.46-5.45-1.82-1.81-3.18,1.36-5.45.91H1886a9.6,9.6,0,0,1,5-3.18Z"/><path class="cls-6" d="M1898.73,793.68c0-.45,0-.9-.45-.9C1898.73,793.23,1898.73,793.23,1898.73,793.68Z"/><path class="cls-6" d="M1898.73,791.87a2.77,2.77,0,0,0-.45-1.82C1898.28,791,1898.73,791.42,1898.73,791.87Z"/><path class="cls-6" d="M1900.1,776c-.91-.45-.91,1.36-.46,3.18.46,1.36-1.36,1.82-1.36,4.09,0,.9,1.36,2.26,1.36,3.17-.45,1.36,0,2.27.46,3.63.9,1.82,1.36,3.18,2.72,4.54a54.23,54.23,0,0,0,5.45,3.63,2.5,2.5,0,0,1,1.81,2.73c.46,1.81,1.36,3.17,1.36,4.08a9.33,9.33,0,0,1-1.81-2.72c-.46-.45-.46-1.36-.91-1.82a1.68,1.68,0,0,0-1.36-.45c-.91-.91-1.36-1.36-1.82.45-.45.91-1.36.91-2.27,0a21.47,21.47,0,0,1-4.08-5.44c.45,1.81.45,3.63.91,5.44a53,53,0,0,0,1.81,8.17c.46.91.46,1.82.91,2.27h0a32.93,32.93,0,0,1-1.81-6.35h0a2.71,2.71,0,0,1-.46-1.82h0c-.45-.45-.45-.91-.45-1.81v-.46a1.64,1.64,0,0,1-.46-1.36v-.45c0-.46-.45-.91-.45-1.36v-.46c0-.45-.46-.91-.46-1.36v-.91c0-.45,0-.91-.45-.91,0-.45,0-.9-.45-.9v-.91a2.73,2.73,0,0,0-.46-1.82c-.45-4.54-.45-9.53-.91-14.07v-5.9h0a38.51,38.51,0,0,1,6.36,8.63C1902.82,777.8,1901.46,776.89,1900.1,776Z"/><path class="cls-6" d="M1901,803.67h0c.46,2.27,1.36,4.09,1.82,6.36-1.36-.91-1.82-3.64-2.72-6.36a2.69,2.69,0,0,1-.46-1.81C1899.64,802.31,1900.55,803.22,1901,803.67Z"/><path class="cls-6" d="M1884.66,776.89l.91.45a9.52,9.52,0,0,1-3.63,2.73A19.94,19.94,0,0,1,1884.66,776.89Z"/><path class="cls-6" d="M1902.36,810h0a33.75,33.75,0,0,1-1.81-6.36A33,33,0,0,1,1902.36,810Z"/><path class="cls-6" d="M1897.83,770.54v5.9c.45,4.54.45,9.53.9,14.07a2.69,2.69,0,0,0,.46,1.81v.91c0,.45,0,.91.45.91,0,.45,0,.91.46.91v.9c0,.46.45.91.45,1.37v.45c0,.45.46.91.46,1.36v.46c0,.45.45.9.45,1.36v.45c.45.45.45.91.45,1.82h0a2.69,2.69,0,0,1,.46,1.81h0a3.53,3.53,0,0,0-1.82-1.81,20.2,20.2,0,0,1-.9-4.54c0-.91-.46-4.54-.91-8.17-.46-3.18,0-6.36-1.82-8.63-.91-1.36-.45-3.17-.91-4.54-.45-1.81-2.27-3.63-4.54-2.72a16.32,16.32,0,0,0-5.44,3.63l-.91-.45A20.11,20.11,0,0,1,1897.83,770.54Z"/><path class="cls-6" d="M1901,803.67a2.73,2.73,0,0,1-.45-1.81A2.73,2.73,0,0,0,1901,803.67Z"/><path class="cls-6" d="M1900.55,801.86c-.45-.46-.45-.91-.45-1.82C1900.1,801,1900.1,801.4,1900.55,801.86Z"/><path class="cls-6" d="M1899.19,796.41c0-.46-.46-.91-.46-1.36C1899.19,796,1899.19,796,1899.19,796.41Z"/><path class="cls-6" d="M1899.64,798.22c0-.45-.45-.9-.45-1.36C1899.19,797.32,1899.64,797.77,1899.64,798.22Z"/><path class="cls-6" d="M1898.73,794.59c0-.45,0-.91-.45-.91A1.43,1.43,0,0,1,1898.73,794.59Z"/><path class="cls-6" d="M1900.1,800a1.65,1.65,0,0,1-.46-1.36C1899.64,799.13,1900.1,799.59,1900.1,800Z"/><path class="cls-4" d="M1876,809.57c-.45-.91-2.72-3.18-2.72-3.63-.46-2.72-2.27-3.63-.91-5.45,2.72-4.08,2.27-6.35,3.63-7.71,3.18-3.63,2.27-5.9,1.81-7.27a25.39,25.39,0,0,1,2.73-3.63l1.36-1.36v.91a19,19,0,0,1-1.36,7.26,1.66,1.66,0,0,0-.46,1.36,14,14,0,0,1-2.27,4.54,5.15,5.15,0,0,0-1.36,3.63A5.83,5.83,0,0,1,1876,801a3.39,3.39,0,0,0-.46,1.81,2.5,2.5,0,0,0,1.36,2.27c2.27,1.82,5,1.82,7.27,3.18a31.5,31.5,0,0,1,5.9,5,21.34,21.34,0,0,1,2.72,6.81h-.45c-5-1.36-9.08-.45-14.08-1.81a13.73,13.73,0,0,1-1.81-3.64C1875.59,811.84,1877,810.93,1876,809.57Z"/><path class="cls-7" d="M1874.22,814.11c-2.72-.45-4.54-1.36-5-2.27-1.82-3.63.45-9.08,1.81-12.71a64.21,64.21,0,0,1,6.81-13.62c.46,1.82,1.82,4.09-1.81,7.27-1.82,1.81-.91,3.63-3.63,7.71-1.36,2.27.45,3.18.91,5.45,0,.45,2.27,3.18,2.72,3.63.91,1.82-.45,2.72.45,4.09.46,1.36,1.36,2.27,1.82,3.63h-.46C1876.49,816.38,1876,814.11,1874.22,814.11Z"/><path class="cls-8" d="M1891,810a25.59,25.59,0,0,0-5.45-8.17c-2.27-1.37-3.18-3.64-3.18-6.36,0-2.27-1.36-4.08-2.27-5.9a1.6,1.6,0,0,1,.46-.91,1.67,1.67,0,0,0,.45-1.36,20.49,20.49,0,0,0,1.36-7.26v-.91h0a25.56,25.56,0,0,0,3.63-2.72h.46c2.27.45,3.63-2.73,5.44-.91s-.45,4.54-.45,5.45c0,1.36.45,2.72.45,4.53a19,19,0,0,0,2.27,3.18c3.63,4.09,0,10.44,5,12.71.45.46.45.46.91.46a2.73,2.73,0,0,1,.45,1.81c.91,2.72,1.81,5.45,2.72,6.36.46.9.46,1.36.91,2.27a1.56,1.56,0,0,0,.46.9c0,.46.45.91.45,1.36a10.59,10.59,0,0,1,.91,3.64,2.75,2.75,0,0,1-1.82.45c-4.08-.45-6.8,1.82-10.43,1.36l-1.37-4.08A35.11,35.11,0,0,0,1891,810Z"/><path class="cls-5" d="M1884.66,807.3c-2.27-1.36-5-1.81-7.26-3.18a2.48,2.48,0,0,1-1.36-2.26c0-.91.45-1.37.45-1.82a5.7,5.7,0,0,0,.46-2.72,5.15,5.15,0,0,1,1.36-3.64,8.93,8.93,0,0,0,1.81-3.63,9.58,9.58,0,0,1,2.27,5.9,7.93,7.93,0,0,0,3.18,6.36,16.3,16.3,0,0,1,5.45,8.17c.91,2.72.91,4.08.45,4.54-.45-.91-.9-1.82-1.36-2.72A28.18,28.18,0,0,0,1884.66,807.3Z"/><path class="cls-8" d="M1818.39,815.47a1.68,1.68,0,0,1,1.36-.45c.91-.46,1.82-.46,2.73-.91h.91a2.39,2.39,0,0,0-.91-1.82,3.37,3.37,0,0,0-2.73-.9,2.73,2.73,0,0,0-1.81.45c-.46.45-.46,0-.46-.45.46-.46.46-.46.91-.46a1,1,0,0,1,.91-.9c.46-.46.91,0,1.36-.46.91-.45,1.82.91,2.73,1.36a.45.45,0,0,1,.45.46,19.42,19.42,0,0,0-2.27-3.18c-.45-.45-.45-.45-.91-.45-.91-.46-3.18-1.82-4.08-1.82-.46,0-1.36,0-2.27,1.82a3.7,3.7,0,0,0-.46,3.17c0,3.18.91,6.36,1.36,9.08a22.3,22.3,0,0,0,1.37,3.18h.9v-.46C1816.12,821.37,1815.67,815.93,1818.39,815.47Z"/><path class="cls-6" d="M1811.58,807.76a20.94,20.94,0,0,0-.45,9.07,8.91,8.91,0,0,0,.45-3.17,12.41,12.41,0,0,1,.46-4.09,25.38,25.38,0,0,1,2.72-3.63,1.71,1.71,0,0,1,2.73,0h0l2.72,1.36-.91-.91c-1.81-1.81-4.54-2.72-6.81-1.81-1.36.91-2.72,1.36-4.08,2.27s-2.73,1.36-3.63,2.27v.45c1.81-.91,2.72-.45,4.54-1.36C1809.32,808.66,1811.13,807.76,1811.58,807.76Z"/><path class="cls-5" d="M1816.12,806.39c1.36,0,3.18,1.37,4.09,1.82.45.45.45.45.91.45,0-.45-.91-.9-.91-1.36l-2.73-1.36a1.7,1.7,0,0,0-2.72,0h0a7.05,7.05,0,0,0-2.72,3.63,12.41,12.41,0,0,0-.46,4.09,6.74,6.74,0,0,1-.45,3.17,12.43,12.43,0,0,1,.45-9.07c-.45,0-1.81.9-2.27.9-1.81.91-3.18.46-4.54,1.37a4.92,4.92,0,0,0-1.36,3.17c-.45,1.82-.91,5.45,0,6.81a.45.45,0,0,0,.46.46c-.46-.91.45-1.37.91-2.27a9.26,9.26,0,0,1,3.63-3.64h0c.45-.45.91-1.36,1.36-1.81h0a18.53,18.53,0,0,1-2.27,4.08,6.39,6.39,0,0,1-1.36,1.82,6.4,6.4,0,0,0-.91,2.72h0c0,.46.45.46.91.46a4.52,4.52,0,0,1,1.81-2.27,3.4,3.4,0,0,1,1.82-.46,1.67,1.67,0,0,1,1.36-.45,3.2,3.2,0,0,1,2.27,1.82c.45.45.91-.46,1.36-.91l.91-.91a49.36,49.36,0,0,1-.91-8.17c0-.91.45-2.27.45-3.18C1814.76,806.39,1816.12,806.39,1816.12,806.39Z"/><path class="cls-9" d="M1809.32,810c-.91,0-1.37.45-2.27.9-.46.46-.46.91-.91,1.36l-1.36,1.37a5.13,5.13,0,0,0-1.36,3.63c-.46.91-.91,2.27.45,2.72h.45a25.39,25.39,0,0,1,2.73-3.63c.91-.91,1.81-1.82,1.81-2.72a10.16,10.16,0,0,1,1.36-2.27C1810.22,810,1809.32,810,1809.32,810Z"/><path class="cls-8" d="M1805.23,818.2a6.21,6.21,0,0,1,1.36-1.82,18,18,0,0,0,2.27-4.09h0a6.35,6.35,0,0,0-1.36,1.82h0a13.92,13.92,0,0,0-3.63,3.63c-.45.91-.91,1.36-.91,2.27.46.45.91.91,1.36.91h0A6.45,6.45,0,0,1,1805.23,818.2Z"/><path class="cls-9" d="M1813.85,819.56c-.45.45-.9.91-1.36.91-.91-.91-.91-1.82-2.27-1.82a1.68,1.68,0,0,0-1.36.45,3.39,3.39,0,0,1-1.81.46,3,3,0,0,0-1.82,2.27h.46c.91-1.37,2.72-1.37,4.08-.91a2.36,2.36,0,0,1,1.82.91,2.36,2.36,0,0,0,1.81.9c.91-.45.91.46,1.36.91h1.36a4.9,4.9,0,0,1-1.36-3.18c0-.45-.45-.45-.45-.9S1813.85,819.1,1813.85,819.56Z"/><path class="cls-4" d="M1825.2,817.29a15.4,15.4,0,0,0-1.81-5.45l-.46-.45c-.91-.46-1.81-1.82-2.72-1.36s-.91,0-1.36.45-.46.91-.91.91c0,.45-.91.45-.91.45,0,.45,0,.45.45.45.46-.45.91-.45,1.82-.45.91.45,2.27,0,2.72.91s.46,1.36.91,1.81H1822a6.36,6.36,0,0,1-2.72.91c-.45,0-.91.46-1.36.46-2.73.45-1.82,5.44-1.36,7.26v.45h1.36c.91,0,1.36-.45,1.81-.45,2.27-2.27,2.73-8.17,2.73-8.17,0-.46.91-.46.91-.46a.44.44,0,0,1,.45.46v.45a17.27,17.27,0,0,1,.46,6.81l.9-.91Z"/><path class="cls-7" d="M1823.84,814.11h0c-.91-.45-.91,0-1.36.45,0,0-.91,5.9-2.72,8.17,1.36-.45,2.72.46,3.63-.45.91-.45,1.36-.91,1.36-1.36A40.67,40.67,0,0,0,1823.84,814.11Z"/><path class="cls-8" d="M1813,821.83a2.37,2.37,0,0,1-1.82-.91,3.46,3.46,0,0,0-1.81-.91c-1.37-.45-3.18-.45-4.09.91h0l4.09,1.36c1.81.45,3.17.45,5,.91A1.2,1.2,0,0,0,1813,821.83Z"/><path class="cls-5" d="M1823.84,814.11a1.41,1.41,0,0,0-.91-.45l-.91-.46a5.68,5.68,0,0,1-2.72.46c-.91-.46-1.82,0-2.72.45-.46.45-.46.45-.91.91-.46.91-.91.91-.91.91-.46.45.45,1.36,0,1.81,0,.46,0,.46.45,0a10,10,0,0,1,1.82-2.27,2.77,2.77,0,0,1,2.72-.45,19.17,19.17,0,0,0,2.27-.46C1823.39,814.56,1822.93,814.11,1823.84,814.11Z"/><path class="cls-5" d="M1759.84,806.39a1,1,0,0,0,.91-.9h0c0-2.27-.91-4.09,0-5.9.91-1.37,2.27-1.82,2.27-3.64,0-.45,0-.45-.46-.9a13.44,13.44,0,0,0-4.53,1.81c-.46.46-3.64,2.27-4.54,4.54a9.76,9.76,0,0,0-.91,5C1753.94,807.76,1758.48,806.39,1759.84,806.39Z"/><path class="cls-5" d="M1768,799.13c-.91,2.27.45,2.73-.91,4.09-.45.9-.91,1.81-.45,2.27a5.59,5.59,0,0,0,4.54.9c1.36-.45,2.27-2.27,3.17-3.17s1.36-1.82,2.27-2.73c.91-.45,1.36-.9,2.27-.9h0a6.83,6.83,0,0,0,2.73-2.27c-.91-.91-5.9-1.82-9.08-1.37-1.82.46-3.18.91-5,.46C1768.46,797.77,1768.46,798.68,1768,799.13Z"/><path class="cls-3" d="M1793,815.93c0-3.63-.45-5.9-1.81-8.17a4.77,4.77,0,0,1-1.82,5.9c-.9.45-.9,1.36-1.81,1.81a6.26,6.26,0,0,0-3.63,2.27c-.46.46-1.36.46-1.82.91a19.29,19.29,0,0,1-3.17,2.27c-3.64,1.81-12.71,5-16.35,2.72-.45-.45-1.81-2.27-1.81-2.27a16.73,16.73,0,0,0,8.17-3.63,12.13,12.13,0,0,1,2.72-2.27c3.63-1.36,1.82-1.81,2.27-3.17s2.27-1.82,3.63-2.27,3.63-.91,4.09-2.27.91-2.27.45-3.18a15.68,15.68,0,0,0-4.08-1.36c-.46,0-.46-.46-.46-.91a.44.44,0,0,1,.46-.45,3,3,0,0,1,3.17-.91A8.23,8.23,0,0,0,1778,800c-.91.45-1.36.45-2.27.91a11.87,11.87,0,0,0-2.27,2.72c-.91,1.36-1.36,2.72-2.73,3.63a4.11,4.11,0,0,1-4.54-1.36c-.45-.45,0-1.36.46-2.27,1.36-1.36-.46-2.27.91-4.08a2,2,0,0,0,0-2.27h-.46a20.73,20.73,0,0,1-3.18-1.82,3.43,3.43,0,0,0-1.81-.45c0,.45.45.45.45.9,0,1.82-1.36,2.73-2.27,3.64-.9,1.81,0,4.08,0,5.9a1,1,0,0,1-.9.9h0c-1.36,0-5.9,1.82-6.81,0a13.26,13.26,0,0,0,.91,4.54l-.46,3.18a15,15,0,0,0,.46,7.72c1.36,4.08,5.44,6.35,8.62,8.17.45.45.91,0,1.36-.46h0c.45,0,.45,0,.91-.45,1.36-.91,2.72.91,4.54,2.27a50.92,50.92,0,0,0,16.79-4.54c2.27-.91,7.27-5,7.27-5.45S1793,816.38,1793,815.93Z"/><path class="cls-5" d="M1778.45,801.86c-.45.45-.45.45-.45.9l.45.46a3.46,3.46,0,0,0,1.82.45c.9.45,1.81.45,2.27.91.45.91-.46,2.27-.46,3.18-.45.9-2.72,1.81-4.08,2.27s-3.18.9-3.63,2.26,1.36,1.82-2.27,3.18c-.91.91-1.82,1.36-2.73,2.27a12.21,12.21,0,0,1-8.17,3.63s1.36,1.82,1.82,2.27c4.08,2.73,13.16-.91,16.34-2.72a8.12,8.12,0,0,0,3.18-2.27c.45-.45,1.36-.45,1.81-.91a4.64,4.64,0,0,1,3.63-2.27c.91-.45,1.36-1.36,1.82-1.81,2.27-1.37,3.18-3.63,1.81-5.9a11.9,11.9,0,0,0-2.27-2.73,16.69,16.69,0,0,0-7.71-4.54A6,6,0,0,0,1778.45,801.86Z"/><path class="cls-8" d="M1768.46,826.37c-1.36-2.73-4.08-4.54-6.35-6.36-4.54-3.63-8.17-10.44-8.17-14.07a17.2,17.2,0,0,1-.45-4.54,16,16,0,0,0-1.36,6.36,49.81,49.81,0,0,0,.45,8.17c.45,2.72.45,5.9,1.81,7.71a21.43,21.43,0,0,0,6.81,5.9c2.27,1.36,7.27,1.82,7.27,1.82C1768.92,829.54,1768.46,827.73,1768.46,826.37Z"/><path class="cls-4" d="M1783.9,814.56a20.73,20.73,0,0,0-3.18,1.82,9.8,9.8,0,0,0-2.27,1.36A27.43,27.43,0,0,1,1773,820c-3.18.91-7.72,2.72-10.44.45,1.36,2.73,4.54,6.81,5.45,10.44h0a7.05,7.05,0,0,1-3.63-2.72,29.06,29.06,0,0,0-4.09-3.63c-.9-.45-1.36-.45-1.81-.91a4.47,4.47,0,0,0-2.27-1.81,9.46,9.46,0,0,1-2.72-4.54,17.94,17.94,0,0,0,1.81,6.35c3.18,4.09,5.45,5.45,8.62,6.36l5.45,1.36c2.27-.46,4.54-.46,6.81-.91a123.15,123.15,0,0,0,11.8-4.54c2.73-1.36,7.72-3.63,7.72-4.08v-5c0-.9-.45-1.81-.45-2.72-2.27.45-5.9,1.36-7.72,2.72A9.75,9.75,0,0,1,1783.9,814.56Z"/><path class="cls-7" d="M1787.53,811.84c-1.36.91-2.27,1.82-3.63,2.72a39.89,39.89,0,0,0,3.63,2.27c1.81-1.36,5.45-2.27,7.72-2.72-.91-2.72-2.27-6.35-3.63-7.72C1790.7,809.12,1788.89,810.48,1787.53,811.84Z"/><path class="cls-7" d="M1783,815a5.7,5.7,0,0,0-2.72-.46,5.83,5.83,0,0,1,.45,2.73c.45,3.18,1.36,7.71,1.36,7.71,0,.46,1.82-.45,1.82-.9A51.39,51.39,0,0,0,1783,815Z"/><path class="cls-3" d="M1810.68,822.73c-4.09-3.63-9.54-9.53-15-8.62a27.39,27.39,0,0,0-8.63,2.72,33.46,33.46,0,0,0-8.62,7.27c-.45.45.91.9,1.36.9a56.59,56.59,0,0,0,31.32-.9c.45,0,.45-.46.45-.91Z"/><path class="cls-8" d="M1802.51,825.46a2.71,2.71,0,0,0-1.82-.46,16.8,16.8,0,0,1-4.54.46,35.91,35.91,0,0,1-10-.46,57.54,57.54,0,0,1-8.17-1.81,18.36,18.36,0,0,0-.46,5c0,.91.46,1.82.46,2.72l2.72,1.37,1.36.45c.46-.91,1.36-.91,2.27-.91,2.27.46,3.63.91,4.54-1.36a7.76,7.76,0,0,0,0-4.54.44.44,0,0,1,.45-.45h0c1.36.91,1.82,0,2.73.91a3.89,3.89,0,0,1,1.36,2.72c.45.91.45,1.81.91,2.72a.45.45,0,0,0,.45.46c1.82.9,3.63-.46,5.45,1.36h0l1.36-.46c.91-.9,1.82-1.81,2.72-2.72,0-1.82.46-1.82.46-3.63C1803,826.82,1803,825.91,1802.51,825.46Z"/><path class="cls-4" d="M1798.88,833.17h-.46c-1.81-1.81-3.63-.45-5.45-1.36v-.45a6.52,6.52,0,0,1-.9-2.72c-.46-1.37,0-2.73-.46-3.18-.91-1.36-2.72.45-4.08-.46h-.46a7.6,7.6,0,0,1,0,4.54c-.91,2.27-2.27,1.82-4.54,1.37a1.66,1.66,0,0,0-2.27.9c1.36.46,2.27.91,3.63,1.36,5.45,1.37,8.63.91,13.62-.45h0Z"/><path class="cls-4" d="M1782.54,801c-.46-1.36-.91-2.27-1.37-3.63-.9.9-2.72.9-3.63,1.36-2.27,1.81-2.72,3.18-5,4.54-.91.9-1.36,2.72-2.72,2.27s-3.63-.91-4.54.45c1.81.45,3.18.91,4.54,1.36a6.52,6.52,0,0,0,3.18-.91,13.63,13.63,0,0,1,3.63-3.63C1778.9,802.31,1781.63,803.22,1782.54,801Z"/><path class="cls-4" d="M1811.13,822.73a1.67,1.67,0,0,0-1.36-.45c-2.27.45-4.09.91-6.35,1.36H1803a3.46,3.46,0,0,0-1.81-.91c-.46,0-.46,0-.46.46-.45.91-.91,1.81-.45,2.72l-.46.46v.45a.44.44,0,0,0-.45.45c-.46,1.82-.46,3.18.91,4.54,1.36.46,2.27,1.82,3.63,1.36,2.27-.9,4.08-1.36,5.9-2.27A11,11,0,0,0,1811.13,822.73Z"/><path class="cls-5" d="M1809.32,822.28c-.46-1.36-1.37-2.27-2.27-2.27-1.82.45-4.54,1.36-6.36.91a11.35,11.35,0,0,0-3.63-.45c-.45,0-.91.45-1.36.9v.91a8.06,8.06,0,0,1-2.27,1.82,28.17,28.17,0,0,1-10.44,1.81,126,126,0,0,0,13.62,1.82c1.81-.46,4.08-.91,4.54-2.73a7.62,7.62,0,0,0,8.17-.9Z"/><path class="cls-6" d="M1811.13,822.73a52.82,52.82,0,0,0-7.72-6.35c-.45.91,3.18,2.72,5,5.45.45.45.45,1.36-1.36,1.36-.46,0-2.73.91-4.09-.46a6.48,6.48,0,0,0-2.72-.9c0,.9,0,2.72-1.36,3.17a4,4,0,0,1-2.27.46h-6.36c-3.63-.46-7.71-.91-11.34-1.36a75.11,75.11,0,0,0,13.16,2.72c1.81,0,5.9-.45,5.9.91,0,.91-.46,3.17.91,5,1.36,0,.45-3.18.9-5v-1.36l.46-.46a.44.44,0,0,0,.45-.45.45.45,0,0,0-.45-.46h0a.44.44,0,0,0,.45-.45h0v-1.82h0c.46.46.46.46.91.46h.46l.45.45C1802.51,825,1810.68,823.64,1811.13,822.73Z"/><path class="cls-6" d="M1788.44,804.12a4.62,4.62,0,0,1,1.36,4.54c-1.36,2.27-4.54,4.54-5,4.54-1.36-.45-2.27-.91-2.27-.45a1.56,1.56,0,0,1,.46.91l-.46.45a10,10,0,0,1-2.27-1.36s-1.36-.91-1.36,0c-.45,1.36,0,2.27-.91,3.18a19.07,19.07,0,0,1-3.63,2.72c-1.36.91-5.9,3.18-8.62,2.72a9.19,9.19,0,0,1-3.63-1.81,24.13,24.13,0,0,1-5.45-6.36,15.82,15.82,0,0,1-2.72-6.35c.45.45,5,.45,6.35-1.36-1.81.9-4.08,1.36-5.45-.46a1.67,1.67,0,0,1-.45-1.36,7.29,7.29,0,0,1,1.82-3.18c.9-1.36,1.36-2.27,2.27-3.63,1.36-.91,2.72-1.36,3.63-2.72-5.45.45-7.27,4.54-9.08,6.35a14.14,14.14,0,0,0,1.36,10.44c1.36,2.27,2.72,4.54,4.54,5.9.91.91,4.54,5.45,5.44,6.36a39.89,39.89,0,0,1,2.27,3.63c0-.91-.45-3.63.91-5.45a71.47,71.47,0,0,0,10.44-4.54c.91-.45,1.82-1.36,2.73-1.81,0-.91,0-1.36-.46-1.82a6.4,6.4,0,0,0,2.73.91c.45,0,8.16-5,8.62-7.26A23.73,23.73,0,0,0,1788.44,804.12Z"/><path class="cls-6" d="M1781.63,797.77c-2.73-2.27-7.72-1.82-10.44-.91,1.81.46,5-.45,7.26.46.91.45,1.36.9,0,1.36a3.51,3.51,0,0,0-1.81,1.81c-.91.91-2.73,3.18-2.73,3.18-.91.91-1.36,1.82-2.27,1.82-.45,0-.91.45-1.36.45-.91,0-2.27.45-3.18.45,1.36,0,3.18,1.37,5,.91,1.36-.45,1.81-1.36,2.72-2.27s1.36-2.27,2.27-3.17a13.63,13.63,0,0,1,3.18-2.27c.45-.46.91-.46,1.36-.91Z"/><path class="cls-7" d="M1802.51,824.1c0-.46-1.82-1.37-1.82-.91s-.45,1.81-.45,2.72c-.46.91-.91,2.27-1.36,3.18a4.38,4.38,0,0,0,.45,4.08c.91-.45,1.82-.45,2.27-.9a5,5,0,0,0,2.27.45C1804.32,830.9,1803,826.37,1802.51,824.1Z"/><path class="cls-8" d="M1868.78,818.65a90,90,0,0,0-1.36-10.89c-.46,0-.91.45-1.37.45-.9.91-1.36,1.36-2.26,1.36a47.1,47.1,0,0,1,.45,7.72,22.23,22.23,0,0,0,.45,5.44,16.27,16.27,0,0,1,4.09-1.81Z"/><path class="cls-8" d="M1873.77,817.74v-1.81c-.45-2.27-.91-4.54-1.36-6.36a18.06,18.06,0,0,1-.91-3.18l-.45-.45c-.91.45-1.36.91-1.82.91.46,2.72,1.36,5.9,1.36,8.17a5.68,5.68,0,0,1,.46,2.72,6.67,6.67,0,0,1-.46,3.18H1872c.46,0,.91-.91.91-.91C1873.77,819.56,1873.77,818.65,1873.77,817.74Z"/><path class="cls-7" d="M1872.41,810c.45,1.81.91,4.53,1.36,6.8a18.72,18.72,0,0,0,.45-5c-.45-2.27-.45-4.54-1.36-6.81a2.69,2.69,0,0,1-1.81.46c0,.9-.46.9.45,1.36h0l.45.45A15.93,15.93,0,0,1,1872.41,810Z"/><path class="cls-4" d="M1871.5,818.2a5.83,5.83,0,0,1-.45-2.73c-.46-2.27-1.36-5.44-1.36-8.17-.46,0-.91.46-1.82.46H1867a88,88,0,0,1,1.36,10.89v2.72h0c.91,0,1.82.46,2.73.46A11.38,11.38,0,0,0,1871.5,818.2Z"/><path class="cls-4" d="M1864.24,809.57a1.66,1.66,0,0,1-1.36.46,25.27,25.27,0,0,1-3.18-.46c.45.91,0,1.36-.46,1.36h-.9a34.89,34.89,0,0,1,1.36,9.53v5h.45c.91-.46,1.36-.91,1.36-1.82a5.83,5.83,0,0,0,2.73-.45l.45-.46a22.23,22.23,0,0,0-.45-5.44A22.2,22.2,0,0,0,1864.24,809.57Z"/><path class="cls-4" d="M1876,815c0-1.36-.45-2.27.91-1.82.45.46.45-1.36.45-2.72a6.4,6.4,0,0,0,.91-2.72c0-1.37-.45-3.18-.45-4.54-1.82.45-3.63.9-5,1.36q.69,3.4,1.36,6.81a18.79,18.79,0,0,1-.45,5c0-.45,0-.45-.45-.91V820a.44.44,0,0,1,.45-.45l1.82-.91C1876,818.2,1876,816.38,1876,815Z"/><path class="cls-7" d="M1879.67,810.93a44.55,44.55,0,0,0-.45-7.26l-1.82.45v4.54a6.4,6.4,0,0,1-.91,2.73c0,.9,0,2.72-.45,2.72-.91-.45-.91.45-.91,1.82v4.53l4.08-1.36A54.3,54.3,0,0,0,1879.67,810.93Z"/><path class="cls-3" d="M1871.5,805.49c1.36,0,5-1.37,8.17-1.82h0a46.24,46.24,0,0,1-6.81-3.18,9.66,9.66,0,0,1-2.27-1.36,8.47,8.47,0,0,1-3.63-.91c-1.36-.45-2.72-1.36-4.08-.45a8.06,8.06,0,0,1-2.27,1.82c-1.36.45-2.73.45-3.63,1.36s-1.82,1.81-1.82,2.72a3.78,3.78,0,0,0,2.73,4.54c.45,0,1.81,1.36,2.27,2.27v-.91a25.55,25.55,0,0,0,3.17.45c1.36.46,2.27-.9,3.18-1.81a2,2,0,0,1,2.27-.45,8.62,8.62,0,0,0,3.63-.91C1871.05,806.39,1871.5,806.39,1871.5,805.49Z"/><path class="cls-5" d="M1857.88,808.21c-1.81-.91-3.17-2.72-2.72-4.54.45-1.36.91-2.27,1.81-2.72a11.79,11.79,0,0,1,3.63-1.36,10,10,0,0,0,2.27-1.82c1.37-.91,2.73-.45,4.09.45a6.08,6.08,0,0,0,3.63.91l-.45-.45c-.91-.91.45-2.27-.46-3.18-.45-1.36-2.27-1.36-3.63-1.36-2.72,0-5.45.45-8.17.45-5,.46-10,1.36-15,2.27a34.27,34.27,0,0,0-7.26,1.82l-2.72,1.36c-.46,1.82,3.17,3.18,4.54,3.63a27.35,27.35,0,0,0,5.44,2.27c3.63,1.36,10,3.63,13.62,4.54.91-.45,2.27,0,2.72-.45a1.6,1.6,0,0,0,.46-.91C1859.24,809.12,1857.88,807.76,1857.88,808.21Z"/><path class="cls-4" d="M1857,822.73c0-.45-.45-.9-.9-1.36h-.46V825c1.36,0,2.27.46,3.18.46A9.62,9.62,0,0,1,1857,822.73Z"/><path class="cls-4" d="M1855.61,825h0v-3.63a2.69,2.69,0,0,0-1.81.46l-.91.9a3.38,3.38,0,0,1-1.82.91c-2.72-.45-5-.91-7.71-1.36a30.85,30.85,0,0,1-3.63-1.36,8.12,8.12,0,0,1-3.18-2.27c-.46-.45-.46-1.36-.46-.45-.45,1.81-1.36,1.81-2.72,1.36-.45,0-.91,0-.91-.46,2.73.91,6.36,2.27,8.63,3.18C1846.08,823.19,1852,825,1855.61,825Z"/><path class="cls-8" d="M1860.15,823.19V820a34.45,34.45,0,0,0-1.36-9.53h-2.27c-3.63-1.36-10-3.63-13.61-4.54a41.63,41.63,0,0,1-4.54-2.27v.91c.45.45.45,1.36.91,1.81s.45.91-.46.46c0-.46-.45,0-.91.45s-.45.91-.91,1.36a6.63,6.63,0,0,0-.91,3.18,16,16,0,0,1-1.81,5s-.45.46-.45,0h0a15.86,15.86,0,0,1-.91-4.54,18.36,18.36,0,0,0-.46-5h0v.46c.91-1.37,1.36-2.73,2.27-4.09h0c-1.36-.91-2.27-1.82-2.27-2.72-.45.45-.45.91-.91,1.36-.45,2.72-.91,5.45-1.36,8.17a50.45,50.45,0,0,0-.91,8.17c-.45,0,1.82.91,4.09,1.36,0,0,.91,0,.91.45,1.36.46,2.27.46,2.72-1.36.46-.9.46.46.46.46a5.25,5.25,0,0,0,3.17,2.27c1.36.45,2.27.9,3.63,1.36a23.06,23.06,0,0,0,7.72,1.36c.91.45,1.36,0,1.82-.91l.91-.91c.45-.45.9-.45,1.81-.45h.45c.46.45.91.91.91,1.36.46,1.36.91,2.27,1.82,2.73a1.65,1.65,0,0,0,1.36-.46A4.47,4.47,0,0,1,1860.15,823.19Z"/><path class="cls-4" d="M1832.92,806.39c.45,1.82.91,3.64.45,5a13.6,13.6,0,0,0,.91,4.54s.46.45.46,0h0a9.62,9.62,0,0,0,1.81-5,8.46,8.46,0,0,1,.91-3.17c.45-.46.91-.91.91-1.37s.45-.9.91-.45.45-.45.45-.45c-.45-.46-.45-1.37-.91-1.82v-.91l-.91-.45a9.8,9.8,0,0,0-2.27-1.36h0A50.28,50.28,0,0,1,1832.92,806.39Z"/><path class="cls-6" d="M1877,802.31c-1.82-.91-3.63-1.36-5-2.27a3.5,3.5,0,0,1-1.81-1.82,1.64,1.64,0,0,1-.46-1.36c0-.91.46-1.36-.45-1.81.45.9-.91,2.27-1.36,2.72,0,.45,0,.91,1.36,1.36l2.72,1.36a16.31,16.31,0,0,0,4.09,1.82c.45.45.91.91-.46,1.36-.45,0-.91.45-1.36.45-.91,0-2.27.46-3.18.46-1.36,0-.9-.91-.9-1.82-1.37.46-.91.91-1.37,1.36,0,.46.46.91.46,1.37.45.45.45.9-.46,1.36h-.45a5.81,5.81,0,0,1-2.72.45c-1.36.45-2.27.91-2.73,1.82l-.45.45c0,.45-.46.45-.91.45-1.82.46-6.35-1.81-7.26-2.27a6.15,6.15,0,0,1,1.81,1.37c.91.45.46.9.46.9-.46.91-2.73.91-3.18.46-2.27-.46-4.54-1.36-6.81-1.82-4.54-1.36-8.17-3.63-12.26-5.44-.91-.46-1.36-.91-2.27-1.37a1.82,1.82,0,0,1,.91-2.72c-.45,0-.91.45-1.36.45s-.91.91-1.36.91c0,.46.45.91.91,1.36l.45.46a1.39,1.39,0,0,1,.46.91c-.46.9-.46,1.81-.91,2.27a2.21,2.21,0,0,0-.46,1.36,5.22,5.22,0,0,0,2.27-3.18l.46-.45c1.81.9,7.72,3.63,10.89,5a55.6,55.6,0,0,0,6.36,2.27c1.81.45,5,.91,5.9,2.72a10.75,10.75,0,0,1,.9,3.63,31.77,31.77,0,0,1,.46,6.36,17.35,17.35,0,0,0,0-6.81c0-1.36-.46-2.27,0-3.63v-2.27a11.35,11.35,0,0,0,3.63.45c.45,0,.91-.45,1.36-.91.91-.45,1.36-1.36,2.27-1.81h2.72c.91,0,1.82-.46,1.82-.91a2,2,0,0,0-.46-1.36s.91,0,.91-.46a19.55,19.55,0,0,0,2.27-.45c1.82-.45,3.18-.91,5-1.36C1878.76,803.67,1877,802.31,1877,802.31Z"/><path class="cls-4" d="M1858.34,817.74c0-.91,0-2.72-.91-3.18s-.46-1.36-1.36-1.81c-.46-.46-1.36,0-1.36-.46-.46-.9-.91-1.36-1.37-1.36a5.28,5.28,0,0,0,.91,4.54c0,.46.91.91.91.91.46.45-.45,1.36.46,1.36.9.46,1.36.46,1.36,1.36s.45,2.73,1.36,2.73c.45,0-.46-.91-.46-2.27C1858.34,819.56,1858.79,818.65,1858.34,817.74Z"/><path class="cls-10" d="M1836.55,776.44c-4.09-.91-8.62-1.36-12.26,0-.91.45-1.81.9-1.81,1.36-.46,1.36.45,2.27,1.36,3.18a19.81,19.81,0,0,0,11.35,2.27,22.93,22.93,0,0,0,5.44-.91c1.36-.46,3.18-1.36,3.63-2.73C1844.72,777.34,1837.91,776.44,1836.55,776.44Z"/><path class="cls-10" d="M1858.79,799.59c-4.08-.91-9.08-1.37-13.16,0a9.46,9.46,0,0,0-2.27,1.36c-.46,1.36.45,2.27,1.81,3.17a21.15,21.15,0,0,0,11.8,2.27,23.13,23.13,0,0,0,5.9-.9c1.37-.46,3.63-1.37,4.09-2.73C1867.87,800.49,1860.15,799.59,1858.79,799.59Z"/><path class="cls-10" d="M1798,817.29c-3.63-.91-7.72-1.36-10.9,0a6.28,6.28,0,0,0-1.81,1.36,2.77,2.77,0,0,0,1.36,3.18,15.6,15.6,0,0,0,10,2.27,19.53,19.53,0,0,0,5-.91,4.84,4.84,0,0,0,3.18-2.72C1805.23,818.2,1799.33,817.74,1798,817.29Z"/><path class="cls-3" d="M1823.84,776a9.54,9.54,0,0,1,2.72-4.54l1.37-1.36h.45l.91.46h.45a.45.45,0,0,0,.46-.46h0c0-.45,0-.45-.46-.91v-.9a9.42,9.42,0,0,1,2.73-1.82c1.81-.91,5.44-3.18,7.26-.45.91,2.72.45,6.35-.91,8.17a12.85,12.85,0,0,1-8.17,6.35,22.66,22.66,0,0,1-5.9-1.81C1823.84,779.16,1823.39,777.34,1823.84,776Z"/><path class="cls-8" d="M1840.63,776c-.9.91-1.36,2.27-2.27,2.73a14.52,14.52,0,0,1-3.17,2.72,12.7,12.7,0,0,1-4.09-.45,12.83,12.83,0,0,0,8.17-6.36c.91-2.27,1.82-5.9.91-8.17l.45.45a18.84,18.84,0,0,1,3.63,8.17h-.45A4.43,4.43,0,0,0,1840.63,776Z"/><path class="cls-4" d="M1838.36,781.43a10.07,10.07,0,0,1-3.63.45,20.46,20.46,0,0,1,3.18-2.72c.91-.91,1.36-2.27,2.27-2.72a3.34,3.34,0,0,1,2.73-.91h.45c0,1.36.45,2.27.45,3.63C1842.9,779.61,1840.18,781.43,1838.36,781.43Z"/><path class="cls-5" d="M1830.19,768.72a7.39,7.39,0,0,1,3.18-1.82,13.38,13.38,0,0,1,4.09-.9c.45,0,2.27.9,2.27,1.36.91,1.81-.46,2.72-.91,4.54-.91,2.27-1.82,3.63-3.63,2.27a25.21,25.21,0,0,0-4.09-3.18C1829.29,770.54,1829.29,769.63,1830.19,768.72Z"/><path class="cls-6" d="M1825.66,772.35a9.21,9.21,0,0,1,2.72-3.18,1.39,1.39,0,0,0,.91.46v-1.36a25.09,25.09,0,0,1,3.18-1.82c1.81-.91,3.63-1.82,5.44-1.36.91.45,1.37.45,1.82.91a17.85,17.85,0,0,1,3.63,6.35c-.45-1.36-1.82-3.18-2.27-2.72a10.77,10.77,0,0,0-.91,3.63c-1.36,3.18-4.54,7.72-8.17,7.72l2.73-1.37a8.88,8.88,0,0,0,4.08-5.9c.46-1.81,1.36-4.08.46-5.44-.46-1.37-1.82-1.82-3.18-1.82a13.42,13.42,0,0,0-4.54,1.82c-.91.45-1.82.9-1.36,1.81,0,.46.45.91.91,1.36-.91-.45-1.82-.45-2.73-.9C1827.93,771,1826.56,772.81,1825.66,772.35Z"/><path class="cls-5" d="M1841.09,816.38a33.79,33.79,0,0,0-6.36-1.82,12.64,12.64,0,0,0-4.08-.45c-1.36.45-3.18,1.36-2.72,3.18.9,1.81,1.36,3.63,2.72,5,0,0,6.35-1.36,7.26-1.36,2.27-.91,4.54-1.36,6.81-2.72a.44.44,0,0,0-.45-.46C1844.27,816.83,1842,816.38,1841.09,816.38Z"/><path class="cls-4" d="M1830.19,820a6.35,6.35,0,0,0,1.37,1.82A6.35,6.35,0,0,0,1830.19,820Z"/><path class="cls-8" d="M1829.74,825c.91-1.36,1.82-2.27,2.72-3.63-.45-.9-1.81-.9-2.27-1.81a5,5,0,0,1-1.36-3.18c-.45-1.82.46-2.72,2.27-3.18a9.2,9.2,0,0,0-3.63,1.82,17.19,17.19,0,0,0-4.54,5.45,18.92,18.92,0,0,0,5,3.17C1827.93,824.55,1829.29,825,1829.74,825Z"/><path class="cls-7" d="M1846.54,826.82a31,31,0,0,0-.91-6.36h-.46l-5.44,2.73c-1.82.91-3.64,1.36-5,2.72a8.63,8.63,0,0,0-2.27,5.9h.46C1837.91,830.9,1842.45,828.18,1846.54,826.82Z"/><path class="cls-4" d="M1829.74,825c-.91,0-1.81-.9-2.72-.9a19,19,0,0,1-5-3.18c-.91,1.81-1.81,4.08-2.72,5.9a29,29,0,0,0,8.62,3.63,10.54,10.54,0,0,0,.91-3.63A3.38,3.38,0,0,0,1829.74,825Z"/><path class="cls-4" d="M1832.92,821.37l-1.36.46a27.21,27.21,0,0,0-1.82,3.17,31.33,31.33,0,0,1,2.27-3.17A1.56,1.56,0,0,1,1832.92,821.37Z"/><path class="cls-4" d="M1844.72,818.2l-6.81,2.72-.91.45a20,20,0,0,1-1.81,3.18,7.87,7.87,0,0,1-2.27.91c-.46.45-1.36.45-1.82.91a21.62,21.62,0,0,0-1.81,5v.45a7.6,7.6,0,0,0,3.17.46,9.55,9.55,0,0,1,2.27-5.9c1.82-.91,3.18-1.82,5-2.73l5.44-2.72h.46A6.45,6.45,0,0,0,1844.72,818.2Z"/><path class="cls-7" d="M1837.46,820.47c.45-.91-2.73.45-4.54,1.36l4.54-1.36Z"/><path class="cls-7" d="M1831.56,825.46c.45-.46,1.36-.46,1.81-.91.91-.45,1.82-.45,2.27-.91a11.51,11.51,0,0,0,1.82-3.18l-4.54.91c-.46.46-.91.46-1.36.91a28.77,28.77,0,0,0-2.27,3.18c-.46.91-.91,1.36-.91,2.27-.46.91-.46,2.27-.91,3.63a2.73,2.73,0,0,0,1.81.45v-.45C1830.19,829.09,1830.65,826.82,1831.56,825.46Z"/><path class="cls-6" d="M1844.72,818.2a47.53,47.53,0,0,0-8.63,2.27,4.48,4.48,0,0,1-5.9-1.82c-.9-1.36-1.36-2.72-.45-4.09-1.36.46-.91,2.73-.45,3.64s.45,1.36.9,1.81a3.38,3.38,0,0,1,.91,1.82c0,1.81-.91,2.27-.45,3.63,1.81-1.82,2.27-3.18,4.54-3.63,1.81-.46,6.35-1.82,6.35-1.82A26.1,26.1,0,0,0,1844.72,818.2Z"/><path class="cls-6" d="M1841.09,821.37c-1.36.46-.91.91-1.82,1.36-.45.46-1.81.91-2.27,1.37s-2.27.45-2.27.9a6.52,6.52,0,0,0-.9,2.73c.9-.91,1.36-1.82,2.26-2.27a23.06,23.06,0,0,0,3.18-1.36,37.47,37.47,0,0,1,5.9-3.18A12.64,12.64,0,0,0,1841.09,821.37Z"/><path class="cls-3" d="M1882.39,821.37c-.91,0-1.36,1.36-1.36,1.82a2.73,2.73,0,0,0-.45,1.81c0,.91,1.36.91,2.27.91h.45c0-.91-.91-1.36-.91-1.81Z"/><path class="cls-4" d="M1884.21,824.1c-.46-1.37-1.36-3.18-1.82-3.18h0a2.91,2.91,0,0,0,0,2.72c0,.91.91,1.36.91,1.82C1883.75,825.46,1884.66,825,1884.21,824.1Z"/><path class="cls-6" d="M1883.3,821.83c0-.46-.45-.46-.45-.91-.46,0-.46-.45-.91,0s-.91.91-.91,1.36c.45,0,.45-.45.91-.91-.46.91,0,1.82.45,2.73,0-.46-.45-.91,0-1.37a1.66,1.66,0,0,1,.46-1.36l.45.46h0a1.57,1.57,0,0,0,.45.9A1.57,1.57,0,0,0,1883.3,821.83Z"/><path class="cls-3" d="M1823.84,827.73c-.91,0-1.36,1.36-1.36,1.81a2.76,2.76,0,0,0-.45,1.82c0,.91,1.36.91,2.27.91h.45c-.45-.91-.91-1.36-.91-1.82Z"/><path class="cls-4" d="M1826.11,830.9c-.45-1.36-1.36-3.17-1.81-3.17h0a5.68,5.68,0,0,0-.46,2.72c0,.91.91,1.36.91,1.82A1.46,1.46,0,0,0,1826.11,830.9Z"/><path class="cls-6" d="M1825.2,828.18c-.45-.45-.45-.45-.45-.91-.46-.45-.46-.45-.91,0s-.91.91-.91,1.37c.45,0,.45-.46.91-.91-.46.91,0,1.81.45,2.72v-1.36a1.65,1.65,0,0,1,.46-1.36.44.44,0,0,0,.45.45c-.45,0-.45.46,0,0,0,.46,0,.91.46.91C1825.2,829.09,1825.2,828.64,1825.2,828.18Z"/><path class="cls-8" d="M1788.89,820c.45-.45.45-1.36.91-1.36.45-.45.45.45.45.91a1.65,1.65,0,0,0,.46,1.36c0,.45.45-.45.91.45.9.91,1.36,1.36,3.63,1.36a4.52,4.52,0,0,1,0-5.44,89.41,89.41,0,0,1,8.17-5.9c-.46-.91-.46-1.36-.91-2.27l-5.45-4.09a21.92,21.92,0,0,0-7.26,3.63c-.91.91-1.36,1.37-2.27,2.27,0,0-.46,5-.46,6.81v1.36A6.4,6.4,0,0,0,1788.89,820Z"/><path class="cls-3" d="M1800.69,807.76a24.61,24.61,0,0,0-4.08-3.18h-.46V805a2.69,2.69,0,0,1-1.81.46c-.46.45-1.36.45-1.82.9,0,.46-.91.46-.91.91v.46a.44.44,0,0,0-.45.45l-.46.45h-.45c-.45.46-.91.91-1.36.91a12.08,12.08,0,0,0-2.27,2.72A26.4,26.4,0,0,0,1793,820a105,105,0,0,0,9.08-7.72C1802.51,810,1802.05,808.66,1800.69,807.76Z"/><path class="cls-5" d="M1798.88,807.76a8.12,8.12,0,0,0-3.18-2.27c-1.36.45-2.27,2.27-1.82,2.72.91.91,0,1.36-.45,1.82,0,.45.45.9.45,1.36.46.45.46.45.91.45.46.45.91.91,1.36,1.36a27.1,27.1,0,0,1,.91,3.18.44.44,0,0,0,.46.45h0c1.36-.9,2.72-1.81,3.17-3.17C1800.69,810.48,1800.24,808.66,1798.88,807.76Z"/><path class="cls-4" d="M1796.15,817.74a1.67,1.67,0,0,1-.45-1.36c0,.45-.46.45-.91.91-.91.91-1.36,1.81-.91,2.72a6.32,6.32,0,0,0,.91,2.72,9.78,9.78,0,0,1-3.63-1.36,1.43,1.43,0,0,0-.91-.45,1.67,1.67,0,0,1-.45-1.36c0-.46.45-1.36-.46-.91-.45.45-.45,1.36-.91,1.36-.45.45-1.36-.45-1.81-.91v.46c2.72,3.63,6.35,3.63,10,2.72a5.81,5.81,0,0,1-.45-2.72C1796.61,819.56,1796.61,818.65,1796.15,817.74Z"/><path class="cls-4" d="M1802.05,814.11a5.44,5.44,0,0,0-.91,3.63v3.63c1.36-.91,2.73-1.36,4.09-2.27a77.33,77.33,0,0,1-1.82-8.17l-.91.46A15.08,15.08,0,0,1,1802.05,814.11Z"/><path class="cls-7" d="M1801.15,817.74a8.62,8.62,0,0,1,.9-3.63,4.89,4.89,0,0,0,.46-2.27c-2.27,1.36-4.54,3.18-6.81,4.54a1.67,1.67,0,0,0,.45,1.36c.46.91.91,1.36.91,2.27s.46,1.82.46,2.72a29.79,29.79,0,0,0,3.63-1.36A5,5,0,0,1,1801.15,817.74Z"/><path class="cls-6" d="M1801.15,808.21a16.6,16.6,0,0,0-4.54-3.18c-.91.46-2.27.46-3.18.91a17.75,17.75,0,0,0-4.54,3.63c1.36-.91,2.27-.91,3.18-1.81a6.87,6.87,0,0,1,3.63-1.82c.91.45,1.81,1.82,2.27,2.27.45.91,1.36,1.82,1.36,2.72a2.82,2.82,0,0,1-.91,3.18c-.91,1.36-3.18,1.82-4.09,2.72s-1.81,1.37-2.26.91a11.87,11.87,0,0,1-2.27-2.72l1.36-1.36c-.91,0-1.36.45-2.27.9-.91-.45-.46-.9-1.82-1.36,0,.46,1.82,2.27,3.18,4.54.91.91,1.82,1.36,1.82,2.27.45.91.45,1.36.9,2.27l.91-.91c0-.45.46-.45.46-.91v-.9a1.57,1.57,0,0,1,.45-.91c1.36-.91,2.27-1.82,3.63-2.72,1.36-1.37,3.18-2.27,3.63-4.09C1803,810.93,1802.05,809.12,1801.15,808.21Z"/><path class="cls-5" d="M1901.91,815.93c-.91.45-2.27.45-3.18.9-.91.91-.91,1.82-2.27,3.64-1.81,2.72-3.18,2.72-6.81,1.81a21.71,21.71,0,0,1,4.54-4.54c1.36-1.36,3.18-3.63,5-3.63a4.12,4.12,0,0,1,2.27.45c.45.46.9.46,1.36.91h0C1902.36,815,1902.36,815.47,1901.91,815.93Z"/><path class="cls-8" d="M1892.83,823.19a2.85,2.85,0,0,0-2.72,0c-.91.45-.91,2.27-.91,3.18v.45a.44.44,0,0,1-.45-.45,6.75,6.75,0,0,1,1.36-4.54c3.63.9,5,.9,6.8-1.82.91-1.81.91-2.72,2.27-3.63.91-.45,2.27-.45,3.18-.91.46-.45.91-.91.91-1.36h0c.46.45.91.91.91,1.36.45.91.91,1.36,1.36,2.27a7.39,7.39,0,0,0-3.18,1.82c-1.36,1.36-3.63,2.27-3.63,3.63a15.58,15.58,0,0,0-.45,4.54h-1.36c0-.91-.91-1.82-1.82-3.18A2.48,2.48,0,0,0,1892.83,823.19Z"/><path class="cls-7" d="M1889.66,825.91a6.52,6.52,0,0,1,.91-3.18,2.91,2.91,0,0,1,2.72,0,4.58,4.58,0,0,1,2.27,1.82c.91,1.36,1.81,2.27,1.81,3.18-2.72-.46-5.44-.46-7.71-1.82Z"/><path class="cls-4" d="M1900.1,822.28c-1.37.45-1.37.45-1.82,1.36h0c.45-1.81,2.27-2.72,3.63-3.63a11.21,11.21,0,0,1,3.18-1.81,21.62,21.62,0,0,1,1.81,5l-2.27,2.27c0-.46-.45-3.18-.9-3.18A3.46,3.46,0,0,0,1900.1,822.28Z"/><path class="cls-7" d="M1898.28,823.19c.45-.91.91-.91,1.82-1.36s2.26-.91,3.17-.46a8.37,8.37,0,0,1,.91,3.18,9.24,9.24,0,0,1-4.08,2.27c-.91,0-1.36.45-2.27.45h-.46v-.9A27.1,27.1,0,0,0,1898.28,823.19Z"/><path class="cls-6" d="M1891.47,821.83h2.27a2.5,2.5,0,0,0,2.27-1.36,9.62,9.62,0,0,0,1.82-2.73c.45-.45.45-1.36.9-1.81.46,0,.91-.46,1.37-.91a2.69,2.69,0,0,1,1.81-.46,1.66,1.66,0,0,0,.45-1.36c0-.45-.9-.9-.9-.9.9,0,1.36.45,2.27,1.36,0,.45-1.37,1.36-1.37,1.36a15.56,15.56,0,0,0-2.72,1.36c-.45.45,0,1.82.46,2.27a8.94,8.94,0,0,1,.45,3.18c-.45.9-.91.45-.91.9-.45.46,0,1.82-.91,2.27,0-.9.46-2.72-.45-3.63-.46-.45-.91-.45-2.27,0A5.51,5.51,0,0,1,1891.47,821.83Z"/><path class="cls-8" d="M1819.3,834.08a1.58,1.58,0,0,0-1.36-1.36h-2.27c-1.36,0-2.27-.45-3.18-.45.46,0,.91-.46.46-.46.45-.9.9-1.81,1.81-1.81a8.74,8.74,0,0,1,4.54,1.36,1.67,1.67,0,0,0,1.36.45c0,.46.45.46.45.91C1821.12,833.63,1819.75,834.08,1819.3,834.08Z"/><path class="cls-4" d="M1821.57,833.63c0,.91-1.36,1.36-1.81,1.36a12.7,12.7,0,0,1-4.09.45A5.79,5.79,0,0,1,1813,835c-.91-.45-.91-1.36-.46-2.27a8.94,8.94,0,0,0,3.18.45h2.27l.91.46a1.43,1.43,0,0,0,.45.91,4.84,4.84,0,0,0,2.27-.91c-.45-.46-.91-.46-.91-.91C1821.57,832.72,1821.57,833.17,1821.57,833.63Z"/><path class="cls-3" d="M1813.85,831.81a6.4,6.4,0,0,0,2.73.91c.45,0,1.36-.45,1.81.45l.91.91c-.91.46-1.81,0-2.72,0h-1.82c-.91,0-1.36-.45-2.27-.91,0-.45.46-.45.91-.45C1813.85,832.27,1813.85,832.27,1813.85,831.81Z"/><path class="cls-6" d="M1814.31,831.36c.91-1.36,2.72-.46,3.63-.46l2.72,1.37c.46.45-.45,0-.45,0a8.32,8.32,0,0,0-3.18-.91C1816.58,831.36,1814.76,831.81,1814.31,831.36Z"/><path class="cls-4" d="M1864.69,798.68c0-2.27.46-4.54-.91-6.81a5.46,5.46,0,0,0-2.27,2.27c-.45.91,0,1.36-.45,2.27.45,1.36.45,2.72.91,3.63a17.92,17.92,0,0,1,1.81,4.08C1865.14,803.22,1864.69,800.49,1864.69,798.68Z"/><path class="cls-8" d="M1863.78,804.12A17.92,17.92,0,0,0,1862,800a13.76,13.76,0,0,1-.91-3.63l-.46.45c-.9.46-1.36.46-2.26.91a4.91,4.91,0,0,0,0,3.63c.45.91.45,1.82.9,2.27s.46.91.91,1.82c.91-.46,2.27-.46,3.63-1.37Z"/><path class="cls-4" d="M1858.34,801a4.91,4.91,0,0,1,0-3.63h-.46a5.79,5.79,0,0,1-2.72.45c.45,1.82.45,3.18.91,4.54a5,5,0,0,1,.45,2.27V805c.91,0,2.27.46,3.18.46-.46-.46-.46-.91-.91-1.82A5,5,0,0,0,1858.34,801Z"/><path class="cls-8" d="M1857,805h0a5.79,5.79,0,0,1-.45-2.72,16.28,16.28,0,0,1-.91-4.54c-1.81,0-3.18-.45-4.08-.45a14.1,14.1,0,0,0-4.54.45c-.91,0-3.18-.45-3.63.45-.46.46-.46.91-.91,1.37,0,.45.45.45.45.9h.46c.91-.45,1.36-.9,1.81-.9,1.36.45,2.27,1.81,3.18,2.27a22.45,22.45,0,0,0,5,1.81,1.6,1.6,0,0,1,1.82,1.82L1857,805Z"/><path class="cls-4" d="M1853.34,803.22a16.38,16.38,0,0,1-5-1.82c-1.36-.91-1.81-2.27-3.18-2.27-.91-.45-1.36.46-1.81.91h-.46l.91.91c2.73,3.17,7.72,4.08,11.35,4.54v-1.37C1854.25,803.22,1853.8,803.22,1853.34,803.22Z"/><path class="cls-5" d="M1842.45,798.68l.45-.46c-.45,0-.45,0-.45.46Z"/><path class="cls-5" d="M1863.78,792.32c-.91-1.81-2.72-1.81-4.54-1.81a35.3,35.3,0,0,0-10,1.36l-1.36,1.36c-.46.45-1.36.91-1.82,1.36-1.36,2.27,2.73,2.73,4.09,3.18h1.36c1.81,0,3.63.91,6.81.45.9-.45,1.81-.45,2.72-.9s.45-1.82.91-2.27a3.06,3.06,0,0,1,1.81-2.73Z"/><path class="cls-3" d="M1843.36,797.77c-.46.45-.46.45-.46.91h.46c1.36,0,2.27-.46,3.18-.46l4.08-.9v-.46h-3.18C1846.08,797.32,1843.81,796.86,1843.36,797.77Z"/><path class="cls-3" d="M1846.54,794.14c.45-.91,1.36-.91,1.81-1.36l1.36-1.36a15.86,15.86,0,0,0-4.08,1.81,6.67,6.67,0,0,0-2.73,2.27,5.81,5.81,0,0,0-.45,2.72h.45c.46-.45.46-.45.46-.9.91-.91,2.72-.46,3.63-.46h3.63C1849.26,796.41,1845.63,796.41,1846.54,794.14Z"/><path class="cls-6" d="M1863.78,792.32a3.42,3.42,0,0,0-3.18-1.81,10.89,10.89,0,0,0-5.44,0,11.35,11.35,0,0,0,3.63.45h1.81c.46,0,.91.46,1.36.46.46.45.91.9.46.9-.91.46-1.36.91-1.36,1.82a4.58,4.58,0,0,1-1.82,2.27c-1.36,1.36-3.18,1.36-5,1.36h-5.91a9.51,9.51,0,0,0-3.63,0c-1.36.45-1.81.45-2.27-.45-1.36-.91,0-2.73.91-3.64h0a3,3,0,0,0-1.81,2.27,3.42,3.42,0,0,0,.45,3.64c.46-.46.46-.91.91-1.37s.46-.45.91-.45h1.36a17.12,17.12,0,0,0,5-.45H1852a20,20,0,0,1,2.27.45c.45.45.45,1.36.91,1.36.91,1.82.91,3.18,1.36,4.54,0-1.36-.46-2.72-.46-3.63a4.12,4.12,0,0,1-.45-2.27,6.44,6.44,0,0,0,4.08-.45c.46-.46.91-.46.91.45a15.54,15.54,0,0,0,1.36,2.72c.46.91.91,1.37,1.36,2.27a29.79,29.79,0,0,0-1.36-3.63c-.45-.91-.45-2.27-.91-3.18,0-1.36.91-1.81,1.82-2.27C1863.33,793.23,1864.24,793.23,1863.78,792.32Z"/><path class="cls-3" d="M1665.43,767.81a10,10,0,0,0-2.27-3.63c-.91-.91-1.82-2.72-3.18-3.18-1.82-.9-3.18,0-4.54.91a29.39,29.39,0,0,0-5.9,4.54c-1.81,1.82-4.08,4.09-4.54,6.81-.91,4.54,5.9,4.54,8.63,3.18a1.57,1.57,0,0,0,.45.9.44.44,0,0,0,.45.46C1660.44,779.61,1667.24,774.62,1665.43,767.81Z"/><path class="cls-8" d="M1660.44,777.8a.45.45,0,0,0-.46-.46h-.45c-.91.46-1.36.46-2.27.91-.91,0-1.36,0-1.82-.45a.45.45,0,0,1-.45-.46.44.44,0,0,0-.46-.45c-.45-.45-.9-.91-.9-1.36l-.46.45h-.45a.45.45,0,0,0-.46.46,6.25,6.25,0,0,1-5-.46c-2.27-1.36-3.18-4.08-3.18-2.72a9.39,9.39,0,0,0,0,5c.91,4.09,2.72,10.44,4.09,14.53.45,1.81,2.27,7.26,2.27,7.26-.46,0-.46,0-.46.45V801c.46,2.27,2.72,3.17,4.54,4.08A28.87,28.87,0,0,0,1665,807.3l.45-.45A183.41,183.41,0,0,0,1660.44,777.8Z"/><path class="cls-4" d="M1668.61,780.07c-.46-3.63-.46-6.81-1.37-10.44-.9-3.18-3.17-4.54-5-6.81,0-.45-.45-.45-.45,0v.45l-.91-.9v.45a10.73,10.73,0,0,1,4.08,6.81,45.26,45.26,0,0,1-4.08,6.81,6.52,6.52,0,0,1-2.73.9c-.45.46-.45.91,0,.91,1.82-.45,1.37,1.36,1.82,2.27a11.35,11.35,0,0,1,.45,3.63c.46,2.73.91,5.45,1.37,7.72q1.35,6.81,2.72,13.62c-.46,0-.91.45-1.82-.46-.45-.45-3.63-1.36-4.08-1.81-.91-.91-1.82-2.27-2.72-3.18-.46-.45-1.37-2.27-2.27-2.27A21.29,21.29,0,0,0,1655,801v.45c.45.91.45,1.36.91,1.82,0,.45,0,.45-.46.45h-.91c-.45-.45-.91-.45-.91-.91h-.45c-.46-.45-.91-1.36-1.36-1.81-.46-.91-1.36-2.27-1.36-3.18a25.07,25.07,0,0,0-.91,8.17c1.81,1.36,3.18.45,4.54.45h.45a3.88,3.88,0,0,1,3.18,0,6.4,6.4,0,0,0,2.72.91,21.84,21.84,0,0,0,5.45.46c1.36-1.37,2.73-2.73,4.54-3.18C1670,802.76,1669.51,787.78,1668.61,780.07Z"/><path class="cls-5" d="M1661.8,762.37a4.81,4.81,0,0,0-5.45-.46c-2.72,1.36-6.35,3.63-7.72,5.9,1.36,1.36,7.27-3.17,9.08-2.27,4.09,1.36,2.72,6.36,2.27,9.08l4.54-4.54S1664.52,764.18,1661.8,762.37Z"/><path class="cls-6" d="M1660.44,761c-1.82-.9-4.54.46-6.36,2.27,2.27-.9,6.36-1.81,7.72.46a9.12,9.12,0,0,1,1.81,5.9c0,1.36-.45,1.36-1.81,1.81s-1.36,1.37-1.82,3.18c-.45.91-1.36,1.36-1.81,1.82-.91,1.36-.91.9-1.36.9s-.91.91-1.36.91a1.9,1.9,0,0,1-1.82-1.81,5.62,5.62,0,0,1-3.18.9c-.9-.45-1.81-.45-2.27-.9s-1.36-.91-1.36-1.82a4.15,4.15,0,0,1,.91-5,25.16,25.16,0,0,0-3.18,4.08c0,1.37-.45,2.73.46,3.63,1.36,1.37,3.18,1.37,4.08,1.82.46.45,1.36.45,1.36.91,1.82,3.18,1.82,7.26,3.18,10,.46.46.91.46.91,0a11.12,11.12,0,0,0-.45-5.44,13.63,13.63,0,0,0-1.82-4.54l.91-1.36.45.45c0,.45,0,.45.46.91a1.41,1.41,0,0,1,.45.91c.91.45,1.36,0,2.27-.46.46,0,1.36-.91,1.82.91l1.81,3.63c.91,4.54,1.82,9.53,3.18,14.07a5.68,5.68,0,0,0,.46-2.72c-1.37-5.9-2.27-11.8-1.37-17.7.46-.91,3.64-4.54,3.64-7.72S1662.71,761.91,1660.44,761Z"/><path class="cls-7" d="M1664.07,771.9c-.91-.46-1.36,0-2.27.45.45.46.91,1.36,1.36,1.82.91,5.44,1.81,10,2.27,15,.91,5.44.91,11.34,1.36,16.79a3.46,3.46,0,0,1,1.81-.91C1668.15,793.68,1664.52,774.17,1664.07,771.9Z"/><path class="cls-7" d="M1654.53,778.71v-2.27a9.8,9.8,0,0,1-2.27,1.36,45.21,45.21,0,0,1,1.37,7.71c.45,2.27.45,5.45,1.36,7.27C1655.9,790.05,1654.53,778.71,1654.53,778.71Z"/><path class="cls-7" d="M1656.8,804.12a7.87,7.87,0,0,0-1.36-1.81c-.45-.91-.91-3.18-1.81-3.18-.46,1.82-.91,3.18-1.36,4.54,0,.91.45,2.27,0,2.27-.91.45-2.73-.45-3.18,0,1.36,1.82,4.54.91,6.81.45,1.81-.45,3.63,1.37,6.35,1.37C1660.44,805.49,1657.26,805.94,1656.8,804.12Z"/><path class="cls-5" d="M1621,802.31c0-.45.45-.45.45-.91a3.45,3.45,0,0,0,.45-1.81h0c.46-.91.46-1.37.91-2.27.46-2.73.91-5,1.36-7.72a19.11,19.11,0,0,0,.91-5,20.31,20.31,0,0,1-3.63,5c-.91.91-1.81.91-1.81,0-.46-1.36-.91-.91-1.82-.45a1.67,1.67,0,0,1-1.36.45c-.45.45-.45.91-.91,1.36a4.52,4.52,0,0,1-1.81,2.27c0-.91.91-2.27.91-4.08a2.07,2.07,0,0,1,1.81-2.27,18.73,18.73,0,0,0,5-3.18,18,18,0,0,0,2.27-4.09,7.6,7.6,0,0,0,.46-3.17c0-.91.91-2.27,1.36-3.18.45-2.27-1.36-2.72-1.36-4.09.45-1.81.45-3.17-.46-2.72a7.05,7.05,0,0,0-3.63,2.72,6.52,6.52,0,0,0-.9,2.73c-.46.9,0,1.36.45,1.81,0,.46.45.91-.45.46s-1.37.45-1.82,1.36c-1.81,4.08-2.72,8.17-4.08,12.25-.91,2.73-2.27,6.81-.91,9.54.91,1.36,2.72,2.26,3.63,3.63s1.81,3.17,3.18,3.63a8.48,8.48,0,0,1,.9-3.18Z"/><path class="cls-8" d="M1621,801.4a3.45,3.45,0,0,0,.45-1.81h0C1621.4,800.49,1621.4,801,1621,801.4Z"/><path class="cls-8" d="M1621,802.31l-.46.91Z"/><path class="cls-5" d="M1632.29,766c-1.81-.91-3.63.9-4.08,2.72-.46,1.36,0,2.72-.91,4.09-1.36,2.27-1.36,5-1.36,8.17-.45,3.63-.45,6.8-.91,7.71-.45,1.36-.45,2.73-.91,4.09.46-.46.46-.46.91-.46,4.54-2.27,1.36-8.17,4.54-11.8a12.13,12.13,0,0,0,2.27-2.72,12.67,12.67,0,0,0,.45-4.09c0-.9-1.81-3.63-.45-5,1.81-1.81,3.18,1.36,5,.91h.46a10.23,10.23,0,0,0-5-3.63Z"/><path class="cls-6" d="M1625.49,783.25l.45-1.82Z"/><path class="cls-6" d="M1624.12,768.27c.46-.46.91.9.46,2.72-.46,1.36,1.36,1.82,1.36,4.09,0,.9-1.36,2.26-1.36,3.17.45.91,0,2.27-.46,3.18a18.4,18.4,0,0,1-2.27,4.09,18.71,18.71,0,0,1-5,3.17,3,3,0,0,0-1.81,2.27,22.6,22.6,0,0,0-.91,4.09,7.84,7.84,0,0,0,1.81-2.27c.46-.46.46-.91.91-1.36a1.66,1.66,0,0,1,1.36-.46c.91-.91,1.36-.91,1.82.46a.94.94,0,0,0,1.81,0,20.11,20.11,0,0,0,3.63-5c-.45,1.82-.45,3.18-.91,5-.45,2.72-.9,5-1.36,7.71-.45.91-.45,1.36-.91,2.27h0c.46-1.81,1.37-4.08,1.82-5.9h0l.45-1.81h0a1.67,1.67,0,0,0,.46-1.37v-.45c0-.45.45-.91.45-1.36v-2.27c0-.45.46-.91.46-1.36V786l.45-.91v-1.81l.46-1.82c.45-4.54.45-8.62.9-13.16v-5.45h0a32.08,32.08,0,0,0-5.9,7.72C1621.4,770.08,1622.76,769.17,1624.12,768.27Z"/><path class="cls-6" d="M1623.67,793.68h0a29.07,29.07,0,0,1-1.82,5.91c.91-.91,1.82-3.64,2.73-5.91a3.45,3.45,0,0,1,.45-1.81C1624.58,792.78,1623.67,793.23,1623.67,793.68Z"/><path class="cls-6" d="M1638.19,769.17h-.91a25,25,0,0,0,3.64,2.73Z"/><path class="cls-6" d="M1621.85,799.59h0c.46-1.82,1.37-4.09,1.82-5.91A42.69,42.69,0,0,0,1621.85,799.59Z"/><path class="cls-6" d="M1626.39,763.27v5.45c-.45,4.54-.45,8.62-.9,13.16l-.46,1.82v1.82l-.45.9v.91c0,.45-.46.91-.46,1.36v.46c0,.45-.45.9-.45,1.36v2.27c0,.45-.46.9-.46,1.36h0l-.45,1.81h0c.45-.45.91-1.36,1.36-1.81a13.34,13.34,0,0,0,.91-4.09c0-.9.45-4.08.91-7.71,0-3.18,0-5.9,1.36-8.17.91-1.36.45-2.73.91-4.09s2.27-3.18,4.08-2.72a11.6,11.6,0,0,1,5,3.18h.91A16,16,0,0,0,1626.39,763.27Z"/><path class="cls-6" d="M1623.67,793.68l.45-1.81Z"/><path class="cls-6" d="M1623.67,792.32a1.66,1.66,0,0,0,.45-1.36A1.66,1.66,0,0,1,1623.67,792.32Z"/><path class="cls-6" d="M1625,787.33c0-.45.46-.91.46-1.36A1.65,1.65,0,0,0,1625,787.33Z"/><path class="cls-6" d="M1624.58,788.69c0-.45.45-.91.45-1.36A3.55,3.55,0,0,0,1624.58,788.69Z"/><path class="cls-6" d="M1625,785.51l.46-.9Z"/><path class="cls-6" d="M1624.12,790.51c0-.46.46-.91.46-1.36C1624.58,789.6,1624.12,790.05,1624.12,790.51Z"/><path class="cls-4" d="M1645.91,799.13c.46-.91,2.72-2.72,2.72-3.63.46-2.27,1.82-3.18.91-5-2.72-4.09-1.81-5.9-3.17-7.26-3.18-3.18-2.27-5.45-1.37-6.81-.9-1.36-1.81-2.27-2.72-3.63l-1.36-1.37v.91a18.17,18.17,0,0,0,1.36,6.81c0,.45.45.91.45,1.36a8.91,8.91,0,0,0,2.27,4.09,5.15,5.15,0,0,1,1.37,3.63,3.43,3.43,0,0,0,.45,2.27,2.73,2.73,0,0,1,.45,1.81c0,.91-.45,1.82-1.36,1.82-2.27,1.36-4.54,1.82-6.81,3.18a47.41,47.41,0,0,0-5.44,4.54c-1.36,1.81-1.82,4.08-2.27,6.35h.45c4.54-1.36,8.63-.45,12.71-1.36a26.4,26.4,0,0,0,1.82-3.18C1646.37,801.4,1645.46,800.49,1645.91,799.13Z"/><path class="cls-7" d="M1648.18,803.22c2.27-.46,4.08-1.36,4.54-2.27,1.81-3.18-.46-8.63-1.82-11.8a66.18,66.18,0,0,0-6.35-12.71c-.45,1.36-1.82,3.63,1.36,6.81,1.36,1.81.91,3.17,3.18,7.26,1.36,1.81-.46,2.72-.91,5,0,.45-2.27,2.72-2.72,3.63-.91,1.82.45,2.27-.46,4.09a7.28,7.28,0,0,1-1.81,3.17h.45C1645.91,805.49,1646.37,803.67,1648.18,803.22Z"/><path class="cls-8" d="M1632.29,799.59a12.58,12.58,0,0,1,5.45-7.27,7.74,7.74,0,0,0,3.18-5.9,13.92,13.92,0,0,1,2.27-5.44,1.56,1.56,0,0,0-.46-.91,1.68,1.68,0,0,1-.45-1.36,18.17,18.17,0,0,1-1.36-6.81V771h0c-1.36-.91-2.72-1.36-3.63-2.72h-.46c-2.26.45-3.17-2.73-5-.91-1.36,1.36.46,4.54.46,5a12.47,12.47,0,0,1-.46,4.09,4.61,4.61,0,0,1-2.27,2.72c-3.18,4.09,0,9.53-4.54,11.8-.45,0-.45.46-.91.46-.45.45-.45.9-.45,1.81-.91,2.27-1.82,5-2.72,5.9a3.4,3.4,0,0,0-.46,1.82c0,.45-.45.45-.45.91l-.46.9a8.5,8.5,0,0,0-.91,3.18c.46.45.91.45,1.82.45,3.63-.45,6.35,1.82,9.53.91,0-1.36.91-2.72,1.36-4.08C1631.84,803.22,1631.84,802.31,1632.29,799.59Z"/><path class="cls-5" d="M1638.19,797.32c2.27-1.37,4.54-1.82,6.81-3.18a2.43,2.43,0,0,0,1.36-1.82c0-.45-.45-1.36-.45-1.81a4.89,4.89,0,0,1-.46-2.27,5.13,5.13,0,0,0-1.36-3.63,11.21,11.21,0,0,1-1.81-3.18,13.9,13.9,0,0,0-2.27,5.45,7.74,7.74,0,0,1-3.18,5.9,21.93,21.93,0,0,0-5.45,7.26,7.17,7.17,0,0,0-.45,4.08,10.25,10.25,0,0,1,1.36-2.27C1634.56,800,1636.38,798.68,1638.19,797.32Z"/><path class="cls-8" d="M1701.29,790.51l-.46-.46c-.45.46-.91.46-1.36.91h0c-2.72.46-5,.91-7.71,1.36-1.82.46-4.09.91-5.45,1.36a4,4,0,0,1-2.27.46c-1.36.45-3.18-.46-3.63-.46l-.91,2.73a48.8,48.8,0,0,0-5,2.72,3.8,3.8,0,0,1-3.18,0l-.91.46s.45.45,0,.45c-.91,1.81-2.27,3.63-2.73,5a3.4,3.4,0,0,1,.46,1.82c.45,1.36,1.36,5.9,1.36,5.9s1.82-2.27,2.72-2.27a30.89,30.89,0,0,0,3.18-.91,22.39,22.39,0,0,0,3.18-1.36c.45-1.36.91-2.27,1.36-3.63a12.71,12.71,0,0,0,.46-4.09c.45-1.36-.46-3.63-.46-5a10.35,10.35,0,0,1,.46-1.82.44.44,0,0,1,.45-.45c1.36,0,2.72-.45,3.18.45l.45.91c1.36,1.82,5.9,2.73,8.63,2.73,1.36-.46,1.81.9,2.72.9a4.12,4.12,0,0,1,2.27-.45,22.39,22.39,0,0,0,3.18-1.36C1700.83,795.5,1701.29,791.87,1701.29,790.51Z"/><path class="cls-4" d="M1686.31,801.4a8.06,8.06,0,0,0-1.82,2.27c-.45.45-.91.91-1.36.91-.91.45-1.36,1.81-2.27,2.27-.45.45-1.36.91-1.81,1.36v.45c0,.46.45-.45.91-.45a7.26,7.26,0,0,0,3.17-1.82c1.36-1.36,10-7.26,11.81-7.71.45,0,1.81-.91,1.36-.91h0a6.54,6.54,0,0,1-2.73.91A15.16,15.16,0,0,0,1686.31,801.4Z"/><path class="cls-4" d="M1684.49,794.14l-.45-.91c-.46-.45-1.82-.45-3.18-.45a.44.44,0,0,0-.45.45,10.35,10.35,0,0,1-.46,1.82c0,1.36.91,3.63.46,5s.45,2.72-.46,4.08a5.15,5.15,0,0,0-1.36,3.64,6.35,6.35,0,0,0,1.82-1.37c.9-.45,1.36-1.81,2.26-2.27s1.37-.45,1.37-.9a9.77,9.77,0,0,1,1.81-2.27,15.35,15.35,0,0,1,6.81-3.18c.91-.45,1.81-.45,2.72-.91-.91,0-1.36-1.36-2.72-.91C1690.39,797.32,1685.85,796.41,1684.49,794.14Z"/><path class="cls-3" d="M1654.53,792.78c4.54,3.17,9.08,5,15,4.54.46,0,2.27.45,1.82.9-.46.91-.46,1.82-.91,2.73l1.36-1.82v-.45l.91-.46a3.84,3.84,0,0,0,3.18,0,48,48,0,0,0,5-2.72l.91-2.72c.91-.46,2.72.45,3.63.45s1.36-.45,2.27-.45c1.36-.46,4.08-.91,5.45-1.36,2.72-.46,5-.91,7.71-1.37h0c.46-.45.91-.45,1.36-.9-.45-.46-.45-.46-.9-.46a97.05,97.05,0,0,0-19.07-4.54c-8.62.91-26.78,3.63-30,4.54h0c.46.46.46.91.91,1.36C1652.26,791.42,1653.63,792.32,1654.53,792.78Z"/><path class="cls-5" d="M1669.06,805.94h0a9.11,9.11,0,0,1,1.36-5,25.52,25.52,0,0,0-1.81,3.17C1668.61,805,1669.06,805.49,1669.06,805.94Z"/><path class="cls-5" d="M1656.8,803.67c1.36,1.82,1.36,2.72,3.18,3.63,2.73,1.36,6.36,1.36,9.53,2.73a10.81,10.81,0,0,1-.9-3.64h0a2.69,2.69,0,0,1-.46-1.81,19.93,19.93,0,0,1,1.82-3.18,6.5,6.5,0,0,0,.91-2.72c.45-.46-1.37-.91-1.82-.91-5.9.45-10.44-1.36-15-4.54-.91-.91-2.27-1.36-3.18-2.27-.45-.45-.45-.91-.9-1.36a66.63,66.63,0,0,0-4.54,7.72C1649.54,799.13,1655,800.49,1656.8,803.67Z"/><path class="cls-3" d="M1700.83,796a22.3,22.3,0,0,0-3.18,1.37c-.9,0-1.36.45-2.26.45,3.17.91,6.35,4.09,8.62,5.9h.45c2.27-.45,5-.91,7.27-1.36a7.29,7.29,0,0,1,4.08-1.36C1714,800.49,1706.73,797.77,1700.83,796Z"/><path class="cls-5" d="M1692.66,798.68a11.91,11.91,0,0,0-6.81,3.18,7.81,7.81,0,0,0-1.81,2.26c-.46.46-.91.91-1.36.91-.91.46-1.36,1.82-2.27,2.27l-.46.46a6.17,6.17,0,0,1,1.82,1.36c.91.45,1.81-.46,2.72.45.91.45,1.36.91,1.82.91.91,0,1.81-.45,2.27.45.45.46.91.46.91.91,1.36-.91,2.27-1.36,3.63-2.27A37.16,37.16,0,0,1,1704,805c-2.27-2.27-5.45-5.44-8.62-5.9C1694.93,798.22,1694,798.22,1692.66,798.68Z"/><path class="cls-3" d="M1689,809.57c-.45-.91-1.36-.45-2.27-.45-.91.45-1.36-.91-1.81-.91-.91-.45-1.82.45-2.73-.45a6.15,6.15,0,0,1-1.81-1.37,14.12,14.12,0,0,1-4.54,2.27,26.54,26.54,0,0,1-3.18.91,7.54,7.54,0,0,0-2.72,2.27s-.91-4.08-1.36-5.9a8.62,8.62,0,0,0,.9,3.63c-3.17-1.81-7.26-1.81-9.53-2.72-1.81-.91-2.27-1.82-3.18-3.63-1.81-3.18-7.26-4.54-10.43-6.36a72.28,72.28,0,0,0-5.45,12.26c1.81,1.36,4.54,2.72,5.45.91.45-.91.9-1.37.9-1.82a18.73,18.73,0,0,1,3.18-5,19,19,0,0,0-1.81,6.81,18.13,18.13,0,0,0,2.27,4.08c1.81.91,3.63.45,5.44.91a4.52,4.52,0,0,1,2.27,1.81c.46.46,2.27.46,2.73.91,3.18,1.36,5.9.91,8.62,3.63l4.09.91c.45-3.18,3.63-5.45,6.8-6.81a46.92,46.92,0,0,0,9.54-5A5.57,5.57,0,0,1,1689,809.57Z"/><path class="cls-8" d="M1660.89,816.83c-.91-.45-2.27-.45-2.73-.9a4.5,4.5,0,0,0-2.26-1.82c-1.82-.45-3.64,0-5.45-.91-.91-1.36-1.36-2.72-2.27-4.08a19.18,19.18,0,0,1,1.81-6.81,11.85,11.85,0,0,0-3.18,5,2.38,2.38,0,0,1-.9,1.82c-1.36,1.81-4.09.9-5.45-.91a1.65,1.65,0,0,0-.46,1.36c7.72,4.09,20.43,8.17,29,10C1666.34,817.29,1664.07,817.74,1660.89,816.83Z"/><path class="cls-5" d="M1691.76,791c-.46,0-7.72-2.72-10.9-3.18-1.81-.45-3.18-.45-4.08,1.37v1.36a9.23,9.23,0,0,0,3.18,2.72c.45.45.9.91,2.72.91a26.43,26.43,0,0,0,8.62-1.82C1691.76,791.42,1692.21,791,1691.76,791Z"/><path class="cls-8" d="M1687.67,811.39A40.33,40.33,0,0,1,1680,815c-3.17.91-6.35,3.63-6.81,6.81h.46c1.36,0,8.17-1.36,13.62-2.73A21.42,21.42,0,0,1,1687.67,811.39Z"/><path class="cls-4" d="M1696.29,817.29c-.45-2.73-1.36-5.45-1.81-7.72-.46-.45-.91-.91-1.36-.91a.45.45,0,0,0-.46.46c0-.46-.45-.46-.45-.91-1.82.91-3.18,2.27-5,3.18a14.9,14.9,0,0,0-.46,7.71l5-.9A19.56,19.56,0,0,1,1696.29,817.29Z"/><path class="cls-4" d="M1711.73,802.31,1709,805c-1.36,3.63-1.36,6.36-2.27,9.53,3.63-.9,7.27-1.81,10.44-2.72a91.59,91.59,0,0,0-1.81-10.89h-.46a10.76,10.76,0,0,1-3.17,1.36Z"/><path class="cls-8" d="M1703.56,809.12a22.31,22.31,0,0,0,.45-5.45,41.62,41.62,0,0,0-10.44,4.09l-.91.45c.46.45.46.45.46.91a.87.87,0,0,1,1.36-.46l.45.46c.46,2.72,1.36,5.44,1.82,7.71l3.63-.9c.45-1.37,1.81-2.73,1.81-3.63S1703.1,810.48,1703.56,809.12Z"/><path class="cls-3" d="M1709.46,805l2.72-2.72.46-.45-.46.45a18.78,18.78,0,0,1-7.26,1.36,1.57,1.57,0,0,0-.91.45,21.8,21.8,0,0,1-.46,5.45c-.45,1.36-1.36,2.72-1.81,4.09a27.74,27.74,0,0,0-1.82,3.63,57.52,57.52,0,0,1,7.27-1.82C1708.1,811.39,1708.1,808.66,1709.46,805Z"/><path class="cls-6" d="M1710.82,802.31a72.76,72.76,0,0,1-8.63,1.81,48.77,48.77,0,0,0-8.62,3.18,7.29,7.29,0,0,1-4.08,1.36c-.46,0-1.37-.45-1.37.46a8.83,8.83,0,0,1-4.53,4.54c-1.37.9-2.73.9-4.54,1.36a5.71,5.71,0,0,0-2.73-.46c-.91-.45-1.36-.45-1.81-.9-2.27-2.27-3.63-2.27-4.54-2.27-.46-1.36,0-5.45-.91-6.36.91-2.27,1.82-4.08,3.63-5.44.91-.91,1.36-.46,2.27-.46a6.65,6.65,0,0,1,1.36-.91c3.63-.9,4.09-2.27,4.54-2.72.45-.91.45-1.36,0-1.82a3.39,3.39,0,0,0,1.81.46H1684c.9,0,1.81-.46,2.72-.46a5.79,5.79,0,0,1,2.72-.45c.91-.45,2.27-.45,3.18-.91s1.82,0,2.27,0a5.81,5.81,0,0,1,2.72-.45c.91-.45,3.64,0,4.09-.91,0-.45,0-.45-.45-.91a6.52,6.52,0,0,0-2.73-.9,1.64,1.64,0,0,1,.46,1.36,1.82,1.82,0,0,1-1.82.91c-1.36.45-3.63,0-4.54,0a29.79,29.79,0,0,0-3.63,1.36c-.91,0-1.36.45-2.27.45a4.63,4.63,0,0,0-1.36-.45c-.45,0-.45.45-.91.45s-.91-.45-1.36-.45c.46.45.91.45,1.36.9a.45.45,0,0,1,.46.46l-.46.45h-2.72c-.91.46-1.36-.45-1.82-.91,0-.45-1.36-.45-1.36-.45l.91.91c0,1.36.46,1.81,0,2.27a6.28,6.28,0,0,1-1.81,1.36,7.66,7.66,0,0,1-4.54,1.36,19.55,19.55,0,0,1-2.27-.45,12.44,12.44,0,0,0-4.09-.46c-.91,0-2.72-.9-4.54-.9a9.86,9.86,0,0,1-3.63-.46l-5.44-2.72a10.67,10.67,0,0,0,4.08,2.72,16.66,16.66,0,0,0,5,2.27,22.51,22.51,0,0,0,5.45.91,2.36,2.36,0,0,1,1.82.91c-.46,1.81-1.36,3.63-1.82,5.44a3.4,3.4,0,0,0,.46,1.82c-.46.91-.91,2.72-1.82,2.27s-1.81-.45-2.27-.91c-1.81-.45-3.63-.91-5-2.27-1.82-1.81-4.09-4.54-6.36-5a40.38,40.38,0,0,1,4.54,4.08,7.2,7.2,0,0,0,4.09,3.18c.91.46,2.27.46,3.18.91,1.81.45,3.17.91,4.53,1.36a2.5,2.5,0,0,1,1.37,2.27,44,44,0,0,0-4.54,1.82c.91.9,3.63.45,5-.91a2,2,0,0,1,2.72.91c.46.9.91,1.36.91,2.27.46,1.81-.91,3.17-.91,4.08.46.46.46,1.82.46,1.82a29,29,0,0,1,1.81-2.73c1.36-2.27,4.09-2.72,6.36-3.63,1.81-.45,4.08-1.36,5.44-1.81.91-.46.91-.91,1.37-1.36,1.36-1.37,2.27-2.73,3.17-2.73a6.75,6.75,0,0,0,4.09-.91,37.65,37.65,0,0,1,5.45-3.63c3.17-1.36,7.71-1.81,10.89-2.72,2.27-.91,3.18-1.82,4.54-2.27C1714.9,801,1713.54,801.4,1710.82,802.31Z"/><path class="cls-5" d="M1602.34,800c.45,0,.9-.45,1.36-.91h0c0-2.27-.91-4.08,0-6.35.91-1.36,2.27-2.27,2.27-4.09,0-.45,0-.45-.46-.91a13.72,13.72,0,0,0-4.54,1.82,14.31,14.31,0,0,0-5,4.54,10.6,10.6,0,0,0-.91,5C1596,801.4,1600.52,800,1602.34,800Z"/><path class="cls-5" d="M1611,792.32c-.91,2.27.45,3.18-.91,4.54-.45.91-.91,1.82-.45,2.27,1.36,1.36,3.17,1.36,5,.91a12.34,12.34,0,0,0,3.18-3.63,15.17,15.17,0,0,1,2.72-2.72c.91-.46,1.36-.91,2.27-.91h0c.91-.91,2.27-1.36,2.73-2.27-1.37-.91-6.36-1.82-9.54-1.36-1.81.45-3.63.9-5,.45Z"/><path class="cls-3" d="M1637.29,810c0-4.09-.46-6.36-1.82-8.63,1.36,2.72,0,4.54-2.27,6.36-.91.45-.91,1.81-1.81,1.81a6.26,6.26,0,0,0-3.63,2.27c-.46.45-1.36.45-1.82.91a8.15,8.15,0,0,1-3.18,2.27c-3.63,1.81-13.61,5.45-17.24,2.72-.46-.45-1.82-2.27-1.82-2.27a18.2,18.2,0,0,0,9.08-4.08,8,8,0,0,1,3.18-2.27c3.63-1.36,1.81-2.27,2.27-3.63s2.27-1.82,3.63-2.27,4.08-.91,4.08-2.27.91-2.27.46-3.63c-.46-.91-1.82-.91-2.27-.91a3.4,3.4,0,0,0-1.82-.46c-.45,0-.45-.45-.45-.9a.45.45,0,0,1,.45-.46,5.15,5.15,0,0,1,3.63-1.36,11.68,11.68,0,0,0-3.18-.91c-.91.46-1.81.46-2.27.91l-2.72,2.72c-.91,1.37-1.81,3.18-3.18,3.64a5.11,5.11,0,0,1-5-1.37c-.46-.45,0-1.36.45-2.27,1.36-1.36-.45-2.27.91-4.53a2.14,2.14,0,0,0-.45-2.73h0a20,20,0,0,1-3.18-1.81,3.4,3.4,0,0,0-1.82-.46c0,.46.46.46.46.91,0,1.82-1.36,2.72-2.27,4.09-1.36,2.27,0,4.08,0,6.35a1,1,0,0,1-.91.91h0c-1.36,0-6.35,1.81-7.26,0a19,19,0,0,0,.91,5c0,.91-.46,2.27-.46,3.18a16.69,16.69,0,0,0,.46,8.17c1.36,4.54,5.44,6.81,9.53,8.62.45.46.91,0,1.36-.45h0c.45,0,.45,0,.91-.45,1.36-.91,2.72.9,4.54,2.72a47,47,0,0,0,17.7-5c2.27-.91,7.72-5.45,7.72-5.9C1637.29,815.47,1637.29,810.48,1637.29,810Z"/><path class="cls-5" d="M1622.31,795.5c-.46.45-.46.45-.46.91l.46.45a3.39,3.39,0,0,0,1.81.46c.91.45,1.82.45,2.27.9.46.91-.45,2.27-.45,3.64-.46,1.36-3.18,1.81-4.09,2.26-1.36.46-3.18.91-3.63,2.27-.45,1.82,1.36,2.27-2.27,3.64a19.41,19.41,0,0,0-3.18,2.26,16.61,16.61,0,0,1-9.07,4.09c-.46,0,1.36,2.27,1.81,2.27,4.09,2.72,13.62-.91,17.25-2.72a8.33,8.33,0,0,0,3.18-2.27c.45-.46,1.36-.46,1.81-.91a4.64,4.64,0,0,1,3.63-2.27c.91-.45,1.36-1.36,1.82-1.82,2.27-1.81,3.18-3.63,2.27-6.35-.91-.91-1.36-1.82-2.27-2.72-2.27-2.27-5-4.09-7.72-4.54C1624.12,794.14,1623.22,794.59,1622.31,795.5Z"/><path class="cls-8" d="M1611,821.37c-1.36-2.72-4.09-5-6.35-6.81-4.54-4.08-8.63-10.89-8.63-15a18.83,18.83,0,0,1-.45-5,18.17,18.17,0,0,0-1.36,6.81V810c.45,2.72.45,5.9,1.81,8.17,1.82,2.72,4.54,4.53,7.26,6.35a37.33,37.33,0,0,0,7.72,2.27C1611.87,824.55,1611.41,823.19,1611,821.37Z"/><path class="cls-4" d="M1627.3,808.66a20,20,0,0,0-3.18,2.27l-2.72,1.36L1616,815c-3.18,1.36-8.17,2.72-11.35.45,1.36,2.73,5,7.26,5.45,10.9h0a10.82,10.82,0,0,1-4.08-2.73,19.66,19.66,0,0,0-4.54-4.08c-.91-.46-1.36-.46-1.82-.91a8.06,8.06,0,0,0-2.27-1.82,6.27,6.27,0,0,1-2.72-5c.45,4.09,1.36,5.9,2.27,6.81,3.18,4.08,5.9,5.9,9.08,6.81l5.44,1.36c2.73-.45,5-.45,7.27-1.36s10.89-3.63,12.25-4.54c2.73-1.36,7.72-3.63,8.17-4.09a10.89,10.89,0,0,0,0-5.44c-.45-.91-.45-2.27-.91-3.18-2.27.45-6.35,1.36-8.17,2.72C1630,810.48,1628.66,809.57,1627.3,808.66Z"/><path class="cls-7" d="M1630.93,805.94a10.67,10.67,0,0,1-4.08,2.72l4.08,2.73c1.82-1.36,5.45-2.27,8.17-2.73-.91-3.17-2.72-6.8-4.08-8.17C1634.56,802.76,1632.75,804.58,1630.93,805.94Z"/><path class="cls-7" d="M1626.85,809.12a5.71,5.71,0,0,0-2.73-.46,16.13,16.13,0,0,1,.46,2.73c.45,3.17,1.36,8.17,1.36,8.17,0,.45,1.81-.46,1.81-.91C1627.75,817.29,1626.85,810.93,1626.85,809.12Z"/><path class="cls-3" d="M1655.9,817.29c-4.09-4.09-10-10-15.89-9.08a21.67,21.67,0,0,0-9.08,3.18,52.74,52.74,0,0,0-9.53,7.26c-.45.45.91.91,1.36.91a63.23,63.23,0,0,0,33.14-.91c.45,0,.45-.45,0-1.36Z"/><path class="cls-8" d="M1647.27,820a3.42,3.42,0,0,0-2.27-.45,18.75,18.75,0,0,1-5,.45,26.84,26.84,0,0,1-10.44-.45c-2.72-.46-7.72-1.36-8.62-1.82a18.4,18.4,0,0,0-.46,5,15.93,15.93,0,0,0,.46,2.73,15,15,0,0,1,2.72,1.36l1.36.45a1.66,1.66,0,0,1,2.27-.9c2.27.45,3.63.9,4.54-1.37a9.35,9.35,0,0,0,0-5,.44.44,0,0,1,.45-.45h.46c1.36.9,1.81,0,3.18.9a9.58,9.58,0,0,1,1.81,2.73c.46.91.46,1.81.91,2.72a.45.45,0,0,0,.45.46c1.82.9,4.09-.46,5.45,1.36h.46m-1.37.91h.91a20,20,0,0,0,3.18-2.73c0-1.81.45-1.81.45-3.63a2.73,2.73,0,0,0-.45-1.81Z"/><path class="cls-4" d="M1643.64,828.18h-.45c-1.82-1.81-3.63-.45-5.45-1.36l-.46-.45a6.52,6.52,0,0,1-.9-2.73c-.46-1.36,0-2.72-.46-3.63-.91-1.36-2.72.46-4.08-.45h-.46V820a9.15,9.15,0,0,1,0,5c-.91,2.73-2.27,1.82-4.54,1.37a1.66,1.66,0,0,0-2.27.9l4.09,1.37c5.9,1.36,9.08.9,14.52-.46v-.45Z"/><path class="cls-4" d="M1626.39,794.14c-.45-1.36-.9-2.27-1.36-3.63-.91.91-3.18,1.36-3.63,1.81a51.09,51.09,0,0,0-5,5c-.91.9-1.36,2.72-2.72,2.27-1.82-.46-3.63-1.37-4.54.45,1.81.91,3.17.91,5,1.36a6.52,6.52,0,0,0,3.18-.91,10.79,10.79,0,0,1,4.08-3.63C1622.76,796,1625.49,796.41,1626.39,794.14Z"/><path class="cls-4" d="M1656.35,817.29c-.45-.46-.91-.46-1.82-.46-2.72.46-4.08.91-6.8,1.37h-.46a3.39,3.39,0,0,0-1.81-.91c-.46,0-.46,0-.46.45-.91.91-.91,1.82-.45,3.18,0,.45,0,.45-.46.45v.46l-.45.45a5.25,5.25,0,0,0,.91,4.54c1.36.45,2.72,1.82,3.63,1.36,2.27-.91,4.54-1.36,6.35-2.27C1656.8,823.19,1656.8,820,1656.35,817.29Z"/><path class="cls-5" d="M1654.53,816.83a3.57,3.57,0,0,0-2.27-2.72c-2.26.45-5,1.36-6.8.91a12.44,12.44,0,0,0-4.09-.46c-.45,0-.91.46-1.36.91s-.45.46-.45.91a9.62,9.62,0,0,1-2.73,1.82,30.52,30.52,0,0,1-10.89,1.81c-.45,0,10.89,1.82,14.53,1.82,2.26-.46,4.08-.91,5-2.73a8.5,8.5,0,0,0,8.62-.9C1654.53,817.29,1654.53,817.29,1654.53,816.83Z"/><path class="cls-6" d="M1656.35,817.29a54,54,0,0,0-8.17-6.81c-.45.91,3.18,3.18,5,5.45.46.45.46,1.36-1.36,1.36-.45,0-2.72.91-4.54-.46a6.55,6.55,0,0,0-3.17-.9c0,1.36-.46,2.72-1.37,3.17a4,4,0,0,1-2.26.46h-6.81c-3.63-.46-8.17-.91-11.81-1.36a76.88,76.88,0,0,0,14.08,2.72c1.81,0,5.9-.91,6.35.91,0,.9-.91,3.63.91,5.44,1.36,0,.45-3.63.91-5,0-.45.45-.45.45-.91v-.45l.46-.45v-.91h0l.45-.46v-1.81h0c.46.45.46.45.91.45h.45l.46.46C1647.27,819.56,1655.44,818.2,1656.35,817.29Z"/><path class="cls-6" d="M1632.29,797.77a4.12,4.12,0,0,1,1.36,5c-1.36,2.27-5,4.54-5.44,5-1.36-.46-2.27-.91-2.27-.46a1.61,1.61,0,0,1,.45.91.44.44,0,0,1-.45.45,9.46,9.46,0,0,1-2.27-1.36s-1.36-.91-1.36,0c0,1.36,0,2.27-.91,3.18-1.36,1.36-2.27,2.27-4.09,2.72-1.36.91-6.35,3.18-9.07,2.73a16.15,16.15,0,0,1-4.09-1.82,29.26,29.26,0,0,1-5.9-6.81,19.14,19.14,0,0,1-2.72-6.35c.45.45,5.44.45,6.81-1.82-1.82.91-4.09,1.36-5.9-.45a1.66,1.66,0,0,1-.46-1.36,9.18,9.18,0,0,1,1.82-3.64c.91-1.36,1.36-2.72,2.27-3.63l4.08-2.72c-5.45.45-7.72,4.54-9.53,6.81-1.36,3.63,0,7.72,1.36,11.35a22.61,22.61,0,0,0,4.54,6.35c.91.91,5,5.9,5.9,6.81a42.27,42.27,0,0,1,2.27,3.63c0-1.36-.46-3.63.91-5.9a83.78,83.78,0,0,0,11.34-4.54,8.12,8.12,0,0,0,3.18-2.27,4.12,4.12,0,0,0-.45-2.27,6.36,6.36,0,0,0,2.72.91c.46,0,8.63-5,9.08-7.72A22.71,22.71,0,0,0,1632.29,797.77Z"/><path class="cls-6" d="M1625,791c-2.72-2.27-8.17-1.81-10.89-.91,2.27.46,5.45-.45,7.71.46.91.45,1.37.91,0,1.81-.9.46-1.36,1.36-1.81,1.82l-3.18,3.18c-.91.9-1.36,1.81-2.72,2.27-.46,0-.91.45-1.36.45-1.36,0-2.27.45-3.18.45,1.36,0,3.18,1.37,5,.91a4.67,4.67,0,0,0,2.73-2.27,18.84,18.84,0,0,1,2.27-3.18,16.19,16.19,0,0,1,3.63-2.27c.45-.45.9-.45,1.81-.9C1625,791.42,1625.49,791,1625,791Z"/><path class="cls-7" d="M1647.27,818.65c0-.45-1.81-1.36-1.81-.91s-.46,1.82-.46,2.72c-.91.91-.91,2.27-1.36,3.18a5.38,5.38,0,0,0,.46,4.54c.9-.45,1.81-.45,2.72-.91a5.68,5.68,0,0,0,2.72.46C1649.09,825.91,1648.18,821.37,1647.27,818.65Z"/><path class="cls-4" d="M1643.19,810.48c.45-.91,2.27-.91,2.27-1.82a13.34,13.34,0,0,0,.91-4.08,42.45,42.45,0,0,1-4.09,2.27c-1.36.91-2.72.91-3.18,2.72a7.8,7.8,0,0,0-.45,3.18,6.36,6.36,0,0,0,.91,2.72h1.36c.45,0,.91-.45,1.36-.45A6.79,6.79,0,0,1,1643.19,810.48Z"/><path class="cls-7" d="M1647.27,810.93c1.36-1.81,1.36-5,.91-7.26,0-.45-.45-.45-.45-.91a3.59,3.59,0,0,1-1.82,1.82,13.05,13.05,0,0,1-.91,4.08c-.45.91-1.81.91-2.27,1.82a7.64,7.64,0,0,0-1.36,4.54A21.86,21.86,0,0,0,1647.27,810.93Z"/><path class="cls-8" d="M1646.37,801.4a9.78,9.78,0,0,0-5-.91h-2.27a53.25,53.25,0,0,0-8.17,1.82c-.91.91-1.36,4.08-.91,5.45,0,.45.46.9.46,1.36.45-.46.45-.46.45-.91-.45-.91,0-1.36.46-.91.45.91.45,1.36,1.36,1.82a2.24,2.24,0,0,1,.45,1.36c.91,1.36.91.45,1.36.91,1.36,1.36,1.82.91,3.18.91a2.38,2.38,0,0,0,1.82.9v-.45a7.8,7.8,0,0,1,.45-3.18c.46-1.81,1.82-1.81,3.18-2.72,1.81-.91,5.45-2.72,5.9-3.63A9.73,9.73,0,0,0,1646.37,801.4Z"/><path class="cls-4" d="M1634.11,810.93c-.46-.45-.91.46-1.36-.9,0-.46,0-1.37-.46-1.37-1.36-.45-.91-.9-1.36-1.81-.45-.46-.45,0-.45.91a1.56,1.56,0,0,1-.46.9c1.36,5.45,6.81,5.9,9.54,6.36h-.46c-.45-.91-.91-1.36-.91-2.27-.91,0-1.36-.91-1.81-.91C1635.92,811.39,1635.47,811.84,1634.11,810.93Z"/><path class="cls-3" d="M1647.73,802.31c-1.36-.91-2.73-1.82-4.09-1.82-4.08-.45-10.89,1.37-12.71,1.82a9.59,9.59,0,0,0,1.82,2.72v-.45a.44.44,0,0,1,.45-.46,6.52,6.52,0,0,1,2.73-.9l4.08-1.36c.46,0,.46,0,.46.45v.45a1.56,1.56,0,0,1-.46.91c-.45,0-.91.45-.45,1.82a7.6,7.6,0,0,1-.46,3.17,13.79,13.79,0,0,0,7.27-3.63,2.24,2.24,0,0,1,1.36-.45C1648.18,803.67,1648.63,803.22,1647.73,802.31Z"/><path class="cls-5" d="M1639.1,805c-.45-1.36.46-1.36.46-1.81.45-.46.45-.46.45-.91s0-.45-.45-.45h-.46l-4.08,1.36c-.91.45-1.82.45-2.73.9-.45,0-.45,0-.45.46V805a7.74,7.74,0,0,0,5.9,3.18h.45A4.89,4.89,0,0,0,1639.1,805Z"/><path class="cls-6" d="M1645.46,804.58a40.29,40.29,0,0,1-4.54,2.72,3.56,3.56,0,0,1-3.63.46c-1.36-.91-2.73-.91-3.18-1.37a9.45,9.45,0,0,1-1.82-2.72c-.45-.91-1.36-1.36-1.81-1.81a6.61,6.61,0,0,0,2.72,4.08c.46.45.91.91,1.36.91.91,0,1.36.45,2.27.45.46.46.91.46.91.91a4,4,0,0,1,.46,2.27c0,1.36-.46,2.72.9,3.63a9.35,9.35,0,0,1,0-5c0-.91.46-1.36.91-1.36a4.69,4.69,0,0,0,3.63-1.82c1.36-1.36,1.82-.45,2.73-1.36.45-.46.45-.91.91-.91.9-.45,1.36-.91,1.36-1.36C1647.27,803.67,1646.37,803.67,1645.46,804.58Z"/><path class="cls-8" d="M1646.37,805.49c-.46,1.36-.46,2.72-1.82,3.17a10.79,10.79,0,0,0-2.27,2.27c-.91.91-1.36,2.27-.45,3.18a4.65,4.65,0,0,1,1.36-2.72c.91-.46.91-1.82,1.81-2.27C1646.37,808.66,1646.82,806.85,1646.37,805.49Z"/><path class="cls-4" d="M1683.13,825.46c-.45-2.27.46-5-.91-6.81a11.87,11.87,0,0,0-2.72,2.27c-.46.91,0,1.81-.46,2.27,0,1.36.91,2.72.91,4.08a36.38,36.38,0,0,1,1.82,4.09C1683.58,830,1683.13,827.27,1683.13,825.46Z"/><path class="cls-8" d="M1681.77,830.9a17.87,17.87,0,0,0-1.82-4.08,13.34,13.34,0,0,1-.91-4.09v.46c-.9.45-1.81.45-2.26.91a6.2,6.2,0,0,0,0,4.08c0,.91.9,1.82.9,2.72.46.46.46,1.37.91,1.82.91-.91,2.27-.91,3.18-1.82Z"/><path class="cls-4" d="M1676.78,827.73a6.23,6.23,0,0,1,0-4.09h-.46a5.68,5.68,0,0,1-2.72.46,19.38,19.38,0,0,1,.91,5,5.79,5.79,0,0,1,.45,2.72v.46c.91,0,2.27.45,3.18.45-.46-.45-.46-1.36-.91-1.82C1677.23,829.54,1676.78,828.64,1676.78,827.73Z"/><path class="cls-8" d="M1675,831.81h0a5.79,5.79,0,0,0-.45-2.72,19.11,19.11,0,0,1-.91-5c-1.82,0-3.18-.91-4.54-.46a18.43,18.43,0,0,0-5,.46c-1.36,0-3.17-.46-4.08.45-.45.45-.91.91-.91,1.36s.46.46.46.91h.45c.91-.45,1.36-.91,2.27-.91,1.36.46,2.27,1.82,3.63,2.73,1.81.9,3.63,1.81,5.45,1.81a4.63,4.63,0,0,1,1.36.45v1.37a4.89,4.89,0,0,1,2.27-.46Z"/><path class="cls-4" d="M1670.88,829.54a25.08,25.08,0,0,1-5.45-1.81c-1.36-.91-2.27-2.27-3.63-2.73-.91-.45-1.36.46-2.27.91h-.46l.91.91c3.18,3.18,7.72,4.09,12.26,4.54V830A2.21,2.21,0,0,1,1670.88,829.54Z"/><path class="cls-5" d="M1659.53,825.46a.44.44,0,0,1,.45-.46l-.45-.45Z"/><path class="cls-5" d="M1682.22,818.65c-.91-1.82-3.18-2.27-5-2.27a38.63,38.63,0,0,0-10.44,1.36l-1.36,1.36c-.45.46-1.36.91-1.82,1.82-1.36,2.27,2.73,2.72,4.09,3.18h1.36c1.82,0,4.08.9,7.26.45.91-.45,1.82-.45,2.73-.91s0-1.81.91-2.27c.45-1.36.9-2.27,2.26-2.72Z"/><path class="cls-3" d="M1660.44,824.1c-.46.45-.46.45-.46.9h.46c1.36,0,2.27-.45,3.63-.45l4.08-.91v-.45h-3.63C1663.16,824.1,1661.34,823.64,1660.44,824.1Z"/><path class="cls-3" d="M1664.07,820.47c.45-.91,1.36-.91,1.81-1.82l1.36-1.36a13.71,13.71,0,0,0-4.54,1.81c-.9.46-2.72,1.82-2.72,2.73a7.75,7.75,0,0,0-.45,3.17l.45.46c.45-.46.45-.46.45-.91.91-.91,2.73-.45,4.09-.45h4.08C1666.79,823.19,1662.71,822.73,1664.07,820.47Z"/><path class="cls-6" d="M1682.22,818.65c-.91-1.36-1.81-2.27-3.18-2.27a13,13,0,0,0-5.9,0,12.73,12.73,0,0,0,4.09.45H1679c.46,0,1.37.46,1.82.46.45.45.91.91.45.91a3.51,3.51,0,0,0-1.81,1.81,4.54,4.54,0,0,1-1.82,2.27,6.25,6.25,0,0,1-5.44,1.36h-9.54c-1.36,0-1.81.46-2.27-.45-1.36-.91,0-2.72.91-3.63h0a5.46,5.46,0,0,0-2.27,2.27,3.43,3.43,0,0,0,.46,3.63c.45-.46.45-.91.9-1.36s.46-.46.91-.46a1.64,1.64,0,0,1,1.36.46c1.82,0,3.63-.46,5.45-.46.91,0,1.36-.45,2.27,0a19.17,19.17,0,0,1,2.27.46c0,.45.45,1.36.91,1.36.91,1.81.91,3.18,1.81,5,0-1.36-.45-2.72-.45-4.08a4.14,4.14,0,0,1-.45-2.27,6.38,6.38,0,0,0,4.08-.46c.45-.45.91-.45.91.46a21.72,21.72,0,0,0,1.36,3.17c.45.91.91,1.37,1.36,2.27l-1.36-4.08c-.45-1.36-.45-2.27-.91-3.63,0-1.37.91-1.82,1.82-2.27C1681.77,819.1,1682.22,819.1,1682.22,818.65Z"/><path class="cls-8" d="M1705.37,823.19c.46.45.91.45,1.36.91a24.24,24.24,0,0,1-.45-5.45c0-.45-.46-2.27,0-2.72,0-.46.91-1.37.45-1.82a.44.44,0,0,1-.45-.45c0,.45-.46.9-.46,1.36C1704.92,817.74,1705.37,820.47,1705.37,823.19Z"/><path class="cls-4" d="M1704.92,812.75v-.91c-1.82,2.27-1.36,6.36-.91,8.63a3.42,3.42,0,0,0,.91,2.26c.45.46.45.46.91.46a24.36,24.36,0,0,1,0-8.17c0-.46.45-.91.45-1.36C1705.37,813.66,1704.92,813.2,1704.92,812.75Z"/><path class="cls-3" d="M1720.8,814.56a4.07,4.07,0,0,0-2.72-2.72c-2.72,3.63-7.72,2.72-11.35,2.27a4.12,4.12,0,0,1-2.27-.45c.46.45.46.45.46.9s0,.91.45.91l1.36,1.36a50.07,50.07,0,0,1,5,2.73,39.18,39.18,0,0,0,4.54,3.63A9.2,9.2,0,0,0,1719,825a4.7,4.7,0,0,0,2.27.91l1.81-1.81a8.12,8.12,0,0,0,2.27-3.18A27.85,27.85,0,0,1,1720.8,814.56Z"/><path class="cls-5" d="M1717.63,811.39a6.67,6.67,0,0,0-3.18-.46c-.46.46-.91,1.37-1.36,1.37-1.82.9-4.54,1.36-5.9.45-.91-.45-.91-.91-.46-1.36-.45,0-.91.45-1.36.45-.91.45-1.81.91-1.36,1.82v.9a4,4,0,0,0,2.27.46c4.09-.91,9.08,0,11.35-3.63Z"/><path class="cls-3" d="M1707.64,812.29a6.65,6.65,0,0,0,5.9-.45c.91-.45,1.36-.91,1.36-1.36h-2.27a22.23,22.23,0,0,0-5.44.45C1706.73,811.39,1706.73,811.84,1707.64,812.29Z"/><path class="cls-4" d="M1724,820c-1.81,1.82-3.18,2.72-4.54,4.54l.46.91s-.91.91.45.91c1.82-.46,3.18-.46,4.54-1.37C1725.8,823.64,1725.34,821.83,1724,820Z"/><path class="cls-8" d="M1719.9,825a14.93,14.93,0,0,1-2.73-2.72,23,23,0,0,0-3.63-3.18,26.86,26.86,0,0,0-3.63-1.81,51.42,51.42,0,0,1,.46,8.17,13.35,13.35,0,0,0,5.9.91,16.51,16.51,0,0,1,4.08-.91C1720.35,825.91,1719.9,825.46,1719.9,825Z"/><path class="cls-4" d="M1709.46,817.29c-.91-.46-1.36-.46-1.82-.91-.45,0-1.36-.45-1.36-.91v2.27a20.09,20.09,0,0,1,.46,5.45c.45.45.9.45,1.36.91a9.88,9.88,0,0,1,2.27,1.36,48.68,48.68,0,0,0-.46-8.17Z"/><path class="cls-8" d="M1721.26,820a4.37,4.37,0,0,0-4.54-1.36c.45.91,1.36,3.18,2.27,5,0,.46,1.36-.45,1.36-.45.45-.46,1.82-1.36,1.82-1.82C1722.17,820.47,1721.71,820,1721.26,820Z"/><path class="cls-6" d="M1720.8,822.73c-.45,0-1.36,1.37-1.81-.45a9.28,9.28,0,0,1-.91-2.72,3.57,3.57,0,0,0-1.81-1.82c.45.46,1.81,3.18,1.36,3.63s-1.36-.45-1.82-.9a13.63,13.63,0,0,0-3.18-2.27,14,14,0,0,0-4.54-2.27c-2.72-.46-2.27-1.82-2.27-2.27a2.25,2.25,0,0,1,1.37-.46c-1.37-.45-2.27-.45-3.18-1.36-.46-.45-.46-.91.91-1.81-1.82.45-1.37,1.36-1.37,1.81.46.46.91.91.91,1.36a5.71,5.71,0,0,0,.46,2.73c0,.45.91,4.08.91,5.44.45-.9,0-3.63,0-5a5,5,0,0,0,2.27.45c.9,0,.9-.45,1.81,0s1.36.46,2.27.91l3.18,3.18c.91.91.45,1.36,1.81,1.81l2.73,1.37c0-.91,0-1.37.9-1.37,1.37-1.36,2.73-2.72,3.18-4.53C1722.17,820.47,1721.71,821.83,1720.8,822.73Z"/><path class="cls-6" d="M1719.44,812.75a4.93,4.93,0,0,0-4.08-1.82c.45.46,2.72.91,2.27,1.36a7.33,7.33,0,0,1-4.09,1.37,12.64,12.64,0,0,1-4.08.45c.91.45,3.63.45,5,.45a10.07,10.07,0,0,0,3.63-.45C1718.53,813.66,1719.9,813.2,1719.44,812.75Z"/><path class="cls-10" d="M1642.28,809.57c-3.18-.91-7.26-1.36-10.44,0a6.32,6.32,0,0,0-1.81,1.36,2.76,2.76,0,0,0,1.36,3.18c2.72,2.27,6.35,2.72,9.53,2.72a13.56,13.56,0,0,0,4.54-.9c.91-.46,2.72-1.37,3.18-2.73C1649.09,810.48,1643.19,810,1642.28,809.57Z"/><path class="cls-5" d="M1700.83,820.47c-.91-.46-1.36-.46-2.27-.91a1.65,1.65,0,0,0-1.36-.46c-.45.46-1.36.46-.91.91.46.91.46,1.36.91,1.82l2.73-.46c.91-.45,1.81-.45,2.27-.9V820A1.67,1.67,0,0,1,1700.83,820.47Z"/><path class="cls-4" d="M1697.2,821.83c0,.45.45.45.45.9C1697.65,822.28,1697.2,822.28,1697.2,821.83Z"/><path class="cls-8" d="M1696.75,823.64c.45-.45.45-.91.91-1.36a1.43,1.43,0,0,0-.91-.45,1.66,1.66,0,0,1-.46-1.36c-.45-.46.46-.91.91-.91-.45,0-.91.45-1.36.45-.91.45-1.36,1.36-1.81,1.82a2.36,2.36,0,0,0,1.81.9Z"/><path class="cls-7" d="M1702.65,824.1c0-.91-.46-1.37-.46-2.27h0c-.9.45-1.36.45-1.81.9-.91.46-1.36.46-1.82.91a3.49,3.49,0,0,0-.91,1.82h0A9.23,9.23,0,0,0,1702.65,824.1Z"/><path class="cls-4" d="M1696.75,823.64a1.57,1.57,0,0,1-.91-.45c-.91-.46-1.36-.91-1.82-.91-.45.91-.9,1.36-.9,2.27l2.72,1.36a1.67,1.67,0,0,0,.45-1.36A1.39,1.39,0,0,0,1696.75,823.64Z"/><path class="cls-4" d="M1698.11,822.28h-.46c0,.45-.45.91-.45,1.36,0-.45.45-.91.91-1.36C1697.65,822.73,1697.65,822.28,1698.11,822.28Z"/><path class="cls-4" d="M1702.19,821.37a7.39,7.39,0,0,1-2.27.91h-.45c-.45.45-.45.91-.91,1.36s-.45.46-.91.46a.44.44,0,0,0-.45.45c0,.45-.46,1.36-.46,1.82v.45a1.57,1.57,0,0,1,.91.45,2.37,2.37,0,0,1,.91-1.81,3.41,3.41,0,0,1,1.82-.91c.91-.45,1.36-.91,1.81-.91h0Z"/><path class="cls-7" d="M1699.47,821.83c0-.46-.91,0-1.82.45l1.82-.45Z"/><path class="cls-7" d="M1697.65,823.64a.44.44,0,0,0,.46-.45c.45,0,.45-.46.91-.46.45-.45.45-.9.91-1.36l-1.36.46a.44.44,0,0,0-.46.45,4.56,4.56,0,0,0-.46,1.36c-.9,0-.9,0-.9.46s-.46.9-.46,1.36l.46.45v-.45A3.46,3.46,0,0,1,1697.65,823.64Z"/><path class="cls-6" d="M1702.19,821.37c-.9.46-2.27.46-3.17.91a2,2,0,0,1-2.27-.45,1.66,1.66,0,0,1-.46-1.36c-.45,0-.45.9-.45,1.36s.45.45.45.9l.46.46c0,.45-.46.91-.46,1.36.46-.91.91-.91,1.82-1.36.45-.46,2.27-.46,2.27-.91C1701.29,821.83,1701.74,821.37,1702.19,821.37Z"/><path class="cls-6" d="M1700.83,822.28c-.45.45-.45.45-.91.45a1.56,1.56,0,0,0-.9.46,1.43,1.43,0,0,1-.91.45c-.46.46-.46.46-.46.91l.91-.91c.46,0,.91-.45,1.36-.45.91-.46,1.36-.91,2.27-.91Z"/><path class="cls-3" d="M1625,829.09c-.45,0-.91.91-.91,1.36a1.67,1.67,0,0,0-.45,1.36c0,.91.91.91,1.81.91h.46c0-.91-.91-.91-.91-1.36Z"/><path class="cls-4" d="M1626.85,831.36a6.53,6.53,0,0,0-1.36-2.27h0c-.46.91-.46,1.36,0,1.81,0,.46.9.91.9,1.37A1.6,1.6,0,0,0,1626.85,831.36Z"/><path class="cls-6" d="M1625.94,829.54a.44.44,0,0,0-.45-.45c-.46,0-.46-.45-.46,0l-.91.91a.45.45,0,0,1,.46-.46c0,.91,0,1.37.45,1.82V830c0-.46,0-.46.46-.91,0-.45.45,0,.45.45h0a1.57,1.57,0,0,0,.45.91Z"/><path class="cls-5" d="M1689.49,826.37a2.24,2.24,0,0,0,1.36.45c.45.45.45.91.91,1.82.9,1.36,1.36,1.36,3.17.9-.91-.9-1.36-1.36-2.27-2.27s-1.36-1.81-2.27-1.81h-.9a.44.44,0,0,0-.46.45h0A.45.45,0,0,0,1689.49,826.37Z"/><path class="cls-8" d="M1693.57,829.54a.85.85,0,0,1,1.36,0,2.23,2.23,0,0,1,.46,1.36v.46h.45a3.43,3.43,0,0,0-.91-2.27c-1.81.45-2.27.45-3.18-.91-.45-.91-.45-1.36-.91-1.81a2.21,2.21,0,0,0-1.36-.46.44.44,0,0,1-.45-.45h0c-.46.45-.46.45-.46.91-.45.45-.45.9-.9.9.45.46.9.46,1.36.91.91.46,1.81.91,1.81,1.82s.46,1.36.46,2.27h.45c0-.46.46-.91.91-1.36C1692.66,830,1693.12,830,1693.57,829.54Z"/><path class="cls-7" d="M1694.93,830.9a4.63,4.63,0,0,0-.45-1.36.85.85,0,0,0-1.36,0c-.46.46-.91.46-.91.91-.46.91-.91.91-.91,1.36a8.47,8.47,0,0,0,3.63-.91Z"/><path class="cls-4" d="M1689.94,829.09a1.61,1.61,0,0,1,.91.45h0c0-.9-1.36-1.36-1.82-1.81s-.91-.91-1.36-.91a7.87,7.87,0,0,0-.91,2.27c.46.45.91.91,1.36.91,0-.46.46-1.36.46-1.82A1.61,1.61,0,0,0,1689.94,829.09Z"/><path class="cls-7" d="M1690.85,830c-.46-.46-.46-.46-.91-.46a4.52,4.52,0,0,1-1.36-.45c-.46.45-.46.91-.46,1.82.46.45,1.36.9,1.82,1.36h.91v-.46C1691.3,830.9,1690.85,830.45,1690.85,830Z"/><path class="cls-6" d="M1694,829.09h-1.36a1.57,1.57,0,0,1-.9-.45c-.46-.46-.46-.91-.91-1.37a1.56,1.56,0,0,0-.46-.9l-.91-.46c-.45,0-.45-.45-.91-.45l-.45-.46a.44.44,0,0,1,.45-.45c-.45,0-.9,0-.9.45-.46.46.45.91.45.91a2.21,2.21,0,0,0,1.36.46c.46.45,0,.9,0,1.36v1.36c0,.45,0,.45.46.45a2.24,2.24,0,0,0,.45,1.36,2.73,2.73,0,0,1,.45-1.81h.91C1693.12,829.54,1693.57,829.54,1694,829.09Z"/><path class="cls-8" d="M1615.5,830a.45.45,0,0,1,.45-.46c.46,0,.46-.45.91-.45h1.82c.91,0,1.81-.45,2.72-.45a.45.45,0,0,1-.45-.46c-.46-.91-.46-1.36-1.36-1.36a8.4,8.4,0,0,0-3.63.91,1.57,1.57,0,0,0-.91.45c0,.46-.46.46-.46.91C1614.14,829.54,1615.05,830,1615.5,830Z"/><path class="cls-4" d="M1613.68,829.54c0,.91.91.91,1.36,1.36a9.86,9.86,0,0,0,3.63.46,4,4,0,0,0,2.27-.46c.46-.45.91-1.36.46-1.81a5.83,5.83,0,0,1-2.73.45h-1.81c-.46,0-.46.46-.91.46v.45a18.25,18.25,0,0,1-2.27-.91,1.38,1.38,0,0,0,.46-.9C1613.68,828.64,1613.68,829.09,1613.68,829.54Z"/><path class="cls-3" d="M1620,828.18a7.58,7.58,0,0,1-2.27.91c-.46,0-1.36,0-1.36.45-.46.46-.46.46-.91.46.45.45,1.81,0,2.27,0h1.36c.91,0,1.36-.46,1.81-.46a.44.44,0,0,0-.45-.45Z"/><path class="cls-6" d="M1619.59,827.73c-.91-.91-2.27-.46-2.73-.46-.91.46-1.81.46-2.27.91s.46,0,.46,0a7.76,7.76,0,0,1,2.27-.91A19.62,19.62,0,0,1,1619.59,827.73Z"/><path class="cls-11" d="M129.88,824.55l.46-31.77-8.63,31.77H111.27l-8.62-31.77v31.77H89.49v-44h20l7.26,27.69L124,780.52h20v44Z"/><path class="cls-11" d="M149,824.55v-44h35v9.53H163v6.81h19.51v9.53H163V815h22.69v9.53Zm19.51-46.75h-8.17l4.09-7.72H178Z"/><path class="cls-11" d="M221.57,824.55,212,808.66l-9.53,15.89H186.16L203,801l-14.07-20.43h16.34L212,792.78l7.26-12.26h15.89L221.12,801l16.79,23.6Z"/><path class="cls-11" d="M240.63,824.55v-44H254.7v44Z"/><path class="cls-11" d="M299.64,818.65c-2.72,3.18-8.17,7.72-17.7,7.72a23,23,0,0,1-15-5c-7.26-6.35-7.72-15-7.72-18.15a25.65,25.65,0,0,1,4.54-14.53c5.9-8.62,14.53-9.08,18.16-9.08a23.36,23.36,0,0,1,18.15,8.17c1.37,1.82,1.82,2.73,2.73,4.09l-11.8,5.9c-.46-.45-.46-.91-.91-1.36-.91-1.82-3.18-5.9-8.63-5.9a6.46,6.46,0,0,0-5,1.81c-4.54,3.18-4.08,9.54-4.08,10.9,0,5.9,1.81,9.08,4.08,10.89a7.67,7.67,0,0,0,5.45,1.82c5,0,7.26-3.18,7.72-5,0-.9.45-1.36.9-2.72l11.81,5.9A11,11,0,0,1,299.64,818.65Z"/><path class="cls-11" d="M345.94,820c-6.36,6.36-14.07,6.36-16.8,6.36s-10.89-.46-16.79-6.36c-4.54-4.54-6.36-10.89-6.36-17.25,0-3.17.46-11.34,6.81-17.25,2.73-2.72,8.17-6.35,17.25-6.35,2.72,0,10.44,0,16.8,5.9a23.62,23.62,0,0,1,6.8,17.25C352.75,805,352.29,813.66,345.94,820Zm-11.8-28.14a9,9,0,0,0-5-1.36,11,11,0,0,0-6.8,2.72c-1.82,1.82-3.18,5-3.18,10,0,.9,0,5.9,2.72,9.07a8.12,8.12,0,0,0,3.18,2.27,9.69,9.69,0,0,0,4.54.91,8.24,8.24,0,0,0,6.35-2.72c1.82-1.82,3.18-4.54,3.18-10C339.13,801.4,339.13,794.59,334.14,791.87Z"/><polygon class="cls-12" points="1088.97 817.74 1265.09 817.74 1283.7 664.32 1240.58 672.49 1236.04 677.03 1088.97 817.74"/><polygon class="cls-12" points="1478.42 817.74 1265.09 817.74 1283.7 664.32 1345.88 672.49 1390.82 721.97 1478.42 817.74"/><polygon class="cls-13" points="1219.7 680.66 1215.16 693.83 1202 697.91 1196.55 710.62 1184.75 713.34 1177.48 726.05 1166.59 729.68 1159.78 742.85 1148.43 744.66 1142.08 758.28 1131.19 758.73 1124.38 773.26 1112.58 774.17 1106.22 788.24 1094.42 789.15 1088.97 802.31 1088.97 817.74 1236.04 677.03 1219.7 680.66"/><polygon class="cls-13" points="1360.41 678.39 1366.76 691.1 1381.29 693.83 1385.83 707.9 1400.35 709.26 1406.25 723.78 1418.51 725.15 1426.22 740.13 1438.93 741.49 1447.1 755.56 1459.36 756.01 1466.17 770.99 1476.61 771.44 1486.14 786.42 1499.3 786.42 1503.84 796.86 1503.84 817.74 1478.42 817.74 1344.07 672.49 1360.41 678.39"/><polygon class="cls-14" points="1281.88 679.3 1262.82 682.48 1257.83 697.91 1249.66 699.27 1244.21 713.34 1236.04 714.71 1231.5 730.14 1224.24 731.5 1218.34 747.39 1211.98 747.39 1204.72 765.54 1199.27 765.54 1192.01 780.98 1187.92 780.98 1179.3 798.22 1173.85 798.22 1164.32 817.74 1265.09 817.74 1281.88 679.3"/><polygon class="cls-15" points="1281.88 679.3 1306.39 682.48 1311.38 697.91 1319.56 699.27 1325 713.34 1333.17 714.71 1337.71 730.14 1344.97 731.5 1351.33 747.39 1357.23 747.39 1364.49 765.54 1369.94 765.54 1377.2 780.98 1381.29 780.98 1389.91 798.22 1395.36 798.22 1404.89 817.74 1265.09 817.74 1281.88 679.3"/><polygon class="cls-16" points="1271.9 666.59 1271.9 681.12 1262.82 682.48 1257.37 699.27 1249.66 699.27 1243.75 714.71 1236.04 714.71 1231.05 731.5 1224.24 731.5 1218.34 747.39 1211.98 747.39 1204.72 765.54 1199.27 765.54 1192.01 780.98 1187.92 780.98 1179.3 798.22 1173.85 798.22 1164.78 817.74 1129.82 817.74 1271.9 666.59"/><polygon class="cls-16" points="1297.77 666.59 1297.77 681.12 1306.39 682.48 1311.84 697.91 1319.56 699.27 1325.46 713.34 1333.17 714.71 1337.71 730.14 1345.43 731.5 1351.33 747.39 1357.23 747.39 1364.49 765.54 1369.94 765.54 1377.65 780.98 1381.29 780.98 1389.91 798.22 1395.36 798.22 1404.89 817.74 1439.84 817.74 1297.77 666.59"/><polygon class="cls-17" points="1345.88 672.49 1283.7 664.32 1240.58 672.49 1240.58 646.17 1293.68 630.28 1345.88 642.08 1345.88 672.49"/><polygon class="cls-18" points="1292.78 637.54 1240.58 652.52 1240.58 644.8 1292.78 630.28 1345.88 642.08 1345.88 650.25 1292.78 637.54"/><polygon class="cls-19" points="1292.78 665.68 1292.78 637.54 1345.88 649.8 1345.88 672.49 1292.78 665.68"/><polygon class="cls-18" points="1292.78 651.61 1240.58 666.59 1240.58 659.33 1292.78 644.35 1345.88 656.61 1345.88 663.87 1292.78 651.61"/><polygon class="cls-20" points="1316.38 660.24 1328.63 662.96 1328.63 670.22 1316.38 668.86 1316.38 660.24"/><polygon class="cls-20" points="1266.45 661.6 1266.45 667.5 1252.83 670.22 1252.83 665.23 1266.45 661.6"/><polygon class="cls-21" points="1267.36 798.22 1173.85 798.22 1170.22 806.39 1266.45 806.39 1267.36 798.22"/><polygon class="cls-21" points="1269.63 780.98 1187.47 780.98 1183.84 789.15 1268.26 789.15 1269.63 780.98"/><polygon class="cls-21" points="1271.44 765.54 1199.27 765.54 1195.64 773.26 1270.53 773.26 1271.44 765.54"/><polygon class="cls-21" points="1273.71 747.39 1211.98 747.39 1208.81 755.56 1272.8 755.56 1273.71 747.39"/><polygon class="cls-21" points="1275.53 731.5 1224.24 731.5 1221.06 739.67 1274.62 739.67 1275.53 731.5"/><polygon class="cls-21" points="1277.34 714.71 1236.04 714.71 1233.77 722.42 1276.44 722.42 1277.34 714.71"/><polygon class="cls-21" points="1279.16 699.27 1249.66 699.27 1246.48 707.44 1278.25 707.44 1279.16 699.27"/><polygon class="cls-21" points="1281.88 679.3 1262.82 682.48 1260.55 688.83 1280.97 687.02 1281.88 679.3"/><polygon class="cls-22" points="1267.36 798.22 1395.36 798.22 1399.44 806.39 1266.45 806.39 1267.36 798.22"/><polygon class="cls-22" points="1269.63 780.98 1381.74 780.98 1385.37 789.15 1268.26 789.15 1269.63 780.98"/><polygon class="cls-22" points="1271.44 765.54 1369.94 765.54 1374.03 773.26 1270.53 773.26 1271.44 765.54"/><polygon class="cls-22" points="1273.71 747.39 1357.23 747.39 1360.41 755.56 1272.8 755.56 1273.71 747.39"/><polygon class="cls-22" points="1275.53 731.5 1344.97 731.5 1348.15 739.67 1274.62 739.67 1275.53 731.5"/><polygon class="cls-22" points="1277.34 714.71 1333.17 714.71 1335.44 722.42 1276.44 722.42 1277.34 714.71"/><polygon class="cls-22" points="1279.16 699.27 1319.56 699.27 1322.73 707.44 1278.25 707.44 1279.16 699.27"/><polygon class="cls-22" points="1281.88 679.3 1306.39 682.48 1308.66 688.83 1280.97 687.02 1281.88 679.3"/><polygon class="cls-12" points="380.89 818.2 705.88 818.2 740.83 534.96 661.4 549.94 652.78 558.11 380.89 818.2"/><polygon class="cls-12" points="1100.78 818.2 705.88 818.2 740.83 534.96 855.67 549.94 938.73 641.17 1100.78 818.2"/><polygon class="cls-13" points="621.91 564.47 614.65 589.43 589.68 596.69 579.7 620.29 557.46 625.29 544.29 648.89 524.32 655.25 511.61 679.76 490.73 683.39 478.48 708.35 458.5 709.26 446.25 736.49 424.01 737.86 413.12 763.73 390.88 765.09 380.89 789.6 380.89 818.2 652.78 558.56 621.91 564.47"/><polygon class="cls-13" points="882 560.83 894.71 584.44 921.03 589.43 929.66 615.3 955.98 617.57 967.33 644.8 990.02 647.53 1003.64 674.76 1027.24 677.49 1042.22 703.36 1064.92 704.72 1077.17 731.5 1097.6 732.86 1115.3 760.1 1138.9 760.1 1147.53 780.07 1147.53 818.2 1099.87 818.2 852.04 549.94 882 560.83"/><polygon class="cls-14" points="736.75 562.2 702.25 568.1 692.26 596.69 677.74 599.41 667.75 625.29 652.78 628.01 644.15 656.15 630.53 658.88 619.64 688.38 608.29 688.38 594.68 721.51 584.69 721.51 571.53 750.11 563.81 750.11 547.92 782.34 537.94 782.34 520.24 818.2 705.88 818.2 736.75 562.2"/><polygon class="cls-15" points="736.75 562.2 782.14 568.1 792.12 596.69 807.1 599.41 817.09 625.29 832.07 628.01 840.24 656.15 854.31 658.88 865.2 688.38 876.09 688.38 889.71 721.51 899.7 721.51 913.32 750.11 921.03 750.11 936.92 782.34 946.9 782.34 964.61 818.2 705.88 818.2 736.75 562.2"/><polygon class="cls-16" points="718.14 539.05 718.14 565.37 702.25 568.1 691.36 599.41 677.74 599.41 666.85 627.56 652.78 628.01 643.7 658.88 630.53 658.88 619.64 688.38 608.29 688.38 594.68 721.51 584.69 721.51 571.53 750.11 563.81 750.11 547.92 782.34 537.94 782.34 520.69 818.2 456.24 818.2 718.14 539.05"/><polygon class="cls-16" points="766.7 539.05 766.7 565.37 782.59 568.1 792.58 596.69 807.55 599.41 817.54 625.29 832.07 628.01 840.69 656.15 854.76 658.88 865.65 688.38 876.55 688.38 890.17 721.51 900.15 721.51 913.77 750.11 921.03 750.11 937.37 782.34 947.36 782.34 964.61 818.2 1028.61 818.2 766.7 539.05"/><polygon class="cls-17" points="855.67 549.94 740.83 534.96 661.4 549.94 661.4 501.83 759.44 471.87 855.67 494.11 855.67 549.94"/><polygon class="cls-18" points="758.08 485.49 661.4 512.72 661.4 499.1 758.08 471.87 855.67 494.11 855.67 508.18 758.08 485.49"/><polygon class="cls-19" points="758.08 537.23 758.08 485.49 855.67 507.73 855.67 549.94 758.08 537.23"/><polygon class="cls-18" points="758.08 511.36 661.4 538.59 661.4 524.98 758.08 497.74 855.67 520.44 855.67 534.51 758.08 511.36"/><polygon class="cls-20" points="801.2 527.7 823.44 532.69 823.44 545.86 801.2 542.68 801.2 527.7"/><polygon class="cls-20" points="708.61 529.97 708.61 540.86 683.64 545.86 683.64 536.32 708.61 529.97"/><polygon class="cls-21" points="710.42 782.34 537.94 782.34 530.67 797.32 708.61 797.32 710.42 782.34"/><polygon class="cls-21" points="714.05 750.56 562.45 750.56 556.55 765.09 712.69 765.09 714.05 750.56"/><polygon class="cls-21" points="717.68 721.51 584.69 721.51 577.43 736.49 716.32 736.49 717.68 721.51"/><polygon class="cls-21" points="721.77 688.38 608.29 688.38 602.39 703.36 719.95 703.36 721.77 688.38"/><polygon class="cls-21" points="725.4 658.88 630.53 658.88 625.09 673.4 723.58 673.4 725.4 658.88"/><polygon class="cls-21" points="729.03 627.56 652.78 628.01 648.24 642.54 727.67 642.54 729.03 627.56"/><polygon class="cls-21" points="732.66 599.41 677.74 599.41 671.84 613.94 730.85 614.39 732.66 599.41"/><polygon class="cls-21" points="736.75 562.2 702.25 568.55 698.17 580.35 735.38 577.17 736.75 562.2"/><polygon class="cls-22" points="710.42 782.34 946.9 782.34 953.71 797.32 708.61 797.32 710.42 782.34"/><polygon class="cls-22" points="714.05 750.56 921.94 750.56 928.29 765.09 712.69 765.54 714.05 750.56"/><polygon class="cls-22" points="717.68 721.51 899.7 721.51 906.96 736.49 716.32 736.49 717.68 721.51"/><polygon class="cls-22" points="721.77 688.38 876.09 688.38 882.45 703.36 719.95 703.36 721.77 688.38"/><polygon class="cls-22" points="725.4 658.88 854.31 658.88 859.75 673.4 723.58 673.4 725.4 658.88"/><polygon class="cls-22" points="729.03 627.56 831.61 628.01 836.15 642.54 727.67 642.54 729.03 627.56"/><polygon class="cls-22" points="732.66 599.41 807.1 599.41 813 613.94 730.85 614.39 732.66 599.41"/><polygon class="cls-22" points="736.75 562.2 782.14 568.55 786.68 580.35 735.38 577.17 736.75 562.2"/></g></svg>