<svg xmlns="http://www.w3.org/2000/svg" viewBox="0 0 2000 1023.98"><defs><style>.cls-1{fill:#8bc34a;}.cls-2,.cls-3,.cls-4{fill:#bcabd0;isolation:isolate;}.cls-2{opacity:0.7;}.cls-3{opacity:0.41;}.cls-4{opacity:0.42;}.cls-5{fill:none;}.cls-6{fill:#575757;}.cls-7{fill:#94949b;}.cls-8{fill:#ffe564;}.cls-9{fill:#495930;}.cls-10{fill:#2d996e;}.cls-11{fill:#95402e;}.cls-12{fill:#ee9f7d;}.cls-13{fill:#f2efef;}.cls-14{fill:#a95f47;}.cls-15{fill:#873929;}.cls-16{fill:#f2efed;}.cls-17{fill:#d29e8b;}.cls-18{fill:#eaa482;}.cls-19{fill:#7d311a;}.cls-20{fill:#57876e;}.cls-21{fill:#e6a07e;}.cls-22{fill:#f2ead4;}.cls-23{fill:#b49751;}.cls-24{fill:#e5a831;}.cls-25{fill:#1b4f39;}.cls-26{fill:#954c30;}.cls-27{fill:#427056;}.cls-28{fill:#de996f;}.cls-29{fill:#843819;}.cls-30{fill:#dca07f;}.cls-31{fill:#f2eae4;}.cls-32{fill:#9f4c34;}.cls-33{fill:#48804b;}.cls-34{fill:#e3cf5f;}.cls-35{opacity:0.3;}.cls-36{fill:#0e0e05;}.cls-37{fill:#d5b259;}.cls-38{fill:#f1cd67;}.cls-39{fill:#886419;}.cls-40{fill:#3b4e3b;}.cls-41{opacity:0.4;}.cls-42{fill:#0d1e1b;}.cls-43{fill:#2d7e73;}.cls-44{fill:#70301f;}.cls-45{fill:#195344;}.cls-46{fill:#e7f3df;}.cls-47{fill:#002418;}.cls-48{fill:#564f47;}.cls-49{fill:#5b1f18;}.cls-50{fill:#9d4a30;}.cls-51{fill:#231618;}.cls-52{fill:#eaa275;}.cls-53{fill:#923f1d;}.cls-54{fill:#e9aa85;}.cls-55{fill:#fff4ee;}.cls-56{fill:#a8593d;}.cls-57{fill:#95442c;}.cls-58{fill:#b76c49;}.cls-59{fill:#be5d2e;}.cls-60{fill:#d9cdc5;}.cls-61{fill:#9c9a8e;}.cls-62{fill:#fde3d4;}.cls-63{fill:#ffb728;}.cls-64{fill:#b4852e;}.cls-65{fill:#ffc146;}.cls-66{fill:#3a3120;}.cls-67{fill:#f3aa84;}.cls-68{fill:#fff4de;}.cls-69{fill:#e2bc5e;}.cls-70{fill:#007842;}.cls-71{fill:#009555;}.cls-72{fill:#be473b;}.cls-73{fill:#1b1c0e;}.cls-74{fill:#fdd76b;}.cls-75{fill:#956d1b;}.cls-76{fill:#faa883;}.cls-77{fill:#fffbfb;}.cls-78{fill:#f6ae8a;}.cls-79{fill:#aa572e;}.cls-80{fill:#b7664e;}.cls-81{fill:#fffbf8;}.cls-82{fill:#dfa893;}.cls-83{fill:#5f9377;}.cls-84{fill:#33895b;}.cls-85{fill:#ad5239;}.cls-86{fill:#006054;}.cls-87{fill:#00935d;}.cls-88{fill:#fdece3;}.cls-89{fill:#833f26;}.cls-90{fill:#52ab81;}.cls-91{fill:#007142;}.cls-92{fill:#e02238;}.cls-93{fill:#1d781c;}.cls-94{opacity:0.2;}.cls-95{fill:#89371e;}.cls-96{fill:#00bc82;}.cls-97{fill:#c1a157;}.cls-98{fill:#4690c7;}.cls-99{fill:#225c43;}.cls-100{fill:#a35336;}.cls-101{fill:#ebf4f3;}.cls-102{fill:#3389d0;}.cls-103{fill:#031122;}.cls-104{fill:#668e4b;}.cls-105{fill:#509549;}.cls-106{fill:#ffc545;}.cls-107{fill:#abe0d6;stroke:#25597c;stroke-miterlimit:5.04;stroke-width:0.13px;}</style></defs><g id="Capa_3" data-name="Capa 3"><polygon class="cls-1" points="2000 848.78 0 848.78 0 812.5 2000 812.5 2000 812.5 2000 848.78 2000 848.78"/><polygon class="cls-2" points="1829.72 841.58 1568.9 832.85 328.78 843.65 113.23 818.32 304.28 715.32 445.07 671.3 451.3 682.1 457.94 682.1 474.97 675.45 509.44 682.1 693.01 608.17 701.32 604.43 746.59 537.98 815.11 498.94 843.35 486.07 843.35 477.35 886.55 421.69 912.3 449.52 935.97 490.64 977.08 540.06 1004.91 540.06 1031.07 565.81 1129.92 630.18 1254.93 675.45 1300.2 667.14 1328.02 682.1 1429.36 606.51 1461.75 582.84 1543.57 567.88 1573.47 555.01 1668.16 615.23 1856.3 657.59 1978.4 834.1 1829.72 841.58"/><polygon class="cls-3" points="389 712.41 445.07 671.3 451.3 682.1 457.94 682.1 474.97 675.45 509.44 682.1 474.97 677.53 449.22 690.82 431.78 707.85 449.22 684.17 445.07 675.45 440.5 677.53 438.43 688.74 421.4 694.97 423.47 690.82 389 712.41"/><polygon class="cls-3" points="384.44 774.71 447.15 740.24 457.94 740.24 457.94 746.47 569.66 710.34 647.33 643.47 826.33 602.36 869.1 537.98 871.59 505.59 852.08 486.07 879.9 501.02 923.09 505.59 929.32 492.71 914.37 449.52 935.97 492.71 977.08 540.06 1004.91 540.06 1028.58 565.81 1002.83 546.29 959.64 550.86 899.42 587.4 948.84 548.37 929.32 514.31 905.65 550.86 836.71 604.43 834.63 636.83 649.82 649.7 591.26 720.72 524.39 731.52 503.21 811.26 380.28 811.26 384.44 774.71"/><polygon class="cls-3" points="817.6 755.61 895.27 671.3 908.14 634.75 987.88 587.4 1041.46 602.36 1031.07 565.81 1129.92 630.18 1257 675.45 1162.31 649.7 1125.35 665.07 1138.64 651.78 1125.35 634.75 1002.83 667.14 955.49 694.97 938.46 688.74 817.6 755.61"/><path class="cls-3" d="M899.42,783.43c2.08-4.15,49.42-45.27,49.42-45.27h21.6l40.7-34.47,58.14-17,185.23-10.79L1211.32,777.2,953,783.85H899.42Z"/><polygon class="cls-3" points="1254.93 675.45 1302.27 667.14 1328.02 682.1 1282.75 722.8 1280.68 682.1 1254.93 675.45"/><polygon class="cls-3" points="1310.58 701.2 1362.49 684.17 1345.46 734.01 1453.03 776.79 1211.73 776.79 1257 755.61 1244.13 753.11 1310.58 701.2"/><polygon class="cls-3" points="1571.39 555.01 1636.18 602.36 1629.54 615.23 1530.28 643.47 1657.78 630.18 1823.49 660.5 1668.16 615.23 1571.39 555.01"/><path class="cls-3" d="M1829.72,671.3c-4.15,0-159.48-12.88-159.48-12.88l-54,23.68-21.6,2.07-109.64,86,77.66,6.65,38.63-43.2L1642,722.8l-32.4,17L1596.73,783H1642l129.16,32.39L1786.53,766Z"/><polygon class="cls-3" points="1498.3 677.53 1459.26 680.02 1420.64 701.2 1498.3 677.53"/><polygon class="cls-3" points="1517.4 602.36 1526.13 596.13 1541.08 596.13 1517.4 602.36"/><polygon class="cls-3" points="1582.19 643.47 1543.57 647.62 1521.97 667.14 1502.45 675.45 1467.98 727.36 1517.4 677.53 1620.82 675.45 1597.14 643.47 1582.19 643.47"/><path class="cls-4" d="M693,608.17,562.6,660.91,509.44,682.1l-19.1-3.74-14.95-2.91-14.12,5.4h0L458,682.1H451.3l-6.65-10.8-1.66.41L366.16,695.8l-39.87,12.46-19.1,5.81,35.3,8.73-45.27,14.12-19.11,37.37L165.56,803,393.15,641.39l10.8,10.8,17-2.07,10.8,10.79,10.8-4.15,14.95,4.15,101.34-64.37s51.91-6.64,54-6.64,25.75-19.52,25.75-19.52Z"/><polygon class="cls-4" points="693.01 608.17 562.6 660.91 608.7 626.03 638.6 626.03 664.77 609 638.6 569.96 693.01 608.17"/><polygon class="cls-4" points="457.94 660.5 443.41 671.71 366.57 695.8 378.2 684.17 427.63 671.3 431.78 665.07 425.97 654.27 431.78 660.5 442.99 656.35 457.94 660.5"/><polygon class="cls-4" points="358.27 696.22 377.79 670.05 412.26 661.75 403.54 659.25 356.19 672.13 333.77 698.29 330.44 702.45 335.43 702.45 339.58 702.45 358.27 696.22"/><polygon class="cls-4" points="563.43 600.28 563.43 630.18 567.59 630.18 574.23 643.47 563.43 600.28"/><path class="cls-4" d="M509.44,649.7l-4.15,8.72-15,19.94-14.95-2.91-14.12,5.4c3.32-3.32,39.87-24.92,39.87-24.92Z"/><rect class="cls-5" x="324.21" y="229.82" width="1492.63" height="680.7"/><path class="cls-6" d="M1854.12,835.35a2.91,2.91,0,0,1-5.8.44v-.44l-.45-107.92a2.91,2.91,0,1,1,5.8-.44v.44Z"/><path class="cls-6" d="M1843,840.7s4.46-2.68,4.46-4.91h4v5.8Z"/><path class="cls-6" d="M1859.47,840.7S1855,838,1855,835.79h-4v5.8Z"/><path class="cls-7" d="M1855,844.26h-12.48a1,1,0,0,1-.9-.89h0v-2.23a1,1,0,0,1,.9-.89h17.39a1,1,0,0,1,.89.89v2.23c0,.45,0,.89-.89.89H1855Z"/><path class="cls-7" d="M1847,834.9h8a1,1,0,0,1,.89.89v.89a1,1,0,0,1-.89.9h-8a1,1,0,0,1-.89-.9v-.89C1846.54,835.35,1846.54,834.9,1847,834.9Z"/><path class="cls-7" d="M1846.54,729.66h8.92a1,1,0,0,1,.89.9v.89a1,1,0,0,1-.89.89h-8.92a1,1,0,0,1-.89-.89v-.89A1,1,0,0,1,1846.54,729.66Z"/><path class="cls-6" d="M1850.55,738.14c-.89,0-1.34-.9-1.34-1.79a1.43,1.43,0,0,1,1.34-1.34l58.86-.44h0c.9,0,1.79.44,1.79,1.34s-.45,1.78-1.34,1.78h-.45l-58.86.45Z"/><path class="cls-6" d="M1866.6,748.84a1,1,0,0,1-.89-.89h0V736.8a1,1,0,0,1,.89-.89h0a1,1,0,0,1,.9.89h0V748a1,1,0,0,1-.9.89Z"/><path class="cls-6" d="M1899.16,748.39a1,1,0,0,1-.9-.89V736.35a1,1,0,0,1,.9-.89h0a1,1,0,0,1,.89.89h0V747.5C1900.5,748,1900.05,748.39,1899.16,748.39Z"/><rect class="cls-8" x="1861.74" y="747.95" width="42.81" height="51.73" transform="translate(-1.62 3.95) rotate(-0.12)"/><path class="cls-7" d="M1859.92,800.56l-.45-54.4H1905l.45,54.4Zm3.12-51.28v48.16h39.68V749.28Z"/><rect class="cls-9" x="344.65" y="780.94" width="476.24" height="36.57"/><rect class="cls-10" x="344.65" y="810.37" width="476.24" height="7.13"/><rect class="cls-11" x="344.65" y="817.51" width="476.24" height="4.46"/><rect class="cls-12" x="345.54" y="721.19" width="101.22" height="89.18"/><rect class="cls-13" x="345.54" y="735.91" width="101.22" height="5.35"/><rect class="cls-13" x="350.45" y="735.91" width="3.57" height="74.47"/><rect class="cls-13" x="439.18" y="735.91" width="3.57" height="74.47"/><rect class="cls-13" x="377.2" y="735.91" width="3.57" height="74.47"/><rect class="cls-13" x="411.09" y="735.91" width="3.57" height="74.47"/><polygon class="cls-14" points="362.04 731.45 345.54 809.93 378.99 809.93 362.04 731.45"/><polygon class="cls-15" points="376.75 810.38 376.75 810.38 347.32 810.38 347.32 810.38 347.77 809.93 350.45 795.66 354.46 778.72 362.04 741.7 376.75 809.93 376.75 810.38"/><rect class="cls-16" x="356.69" y="767.57" width="11.15" height="42.36"/><rect class="cls-17" x="358.03" y="769.35" width="7.58" height="39.69"/><polygon class="cls-14" points="395.93 731.45 378.99 809.93 412.88 809.93 395.93 731.45"/><polygon class="cls-15" points="410.64 810.38 410.64 810.38 381.21 810.38 381.21 810.38 381.21 809.93 395.93 742.15 395.93 741.7 410.64 809.93 410.64 810.38"/><rect class="cls-16" x="390.13" y="767.57" width="11.15" height="42.36"/><rect class="cls-17" x="391.92" y="769.35" width="7.58" height="39.69"/><polygon class="cls-14" points="429.82 731.45 412.88 809.93 446.76 809.93 429.82 731.45"/><polygon class="cls-15" points="429.82 741.7 415.11 810.38 444.09 810.38 429.82 741.7"/><rect class="cls-16" x="424.02" y="767.57" width="11.15" height="42.36"/><rect class="cls-17" x="425.81" y="769.35" width="7.58" height="39.69"/><rect class="cls-18" x="345.54" y="721.19" width="101.22" height="5.8"/><rect class="cls-19" x="345.54" y="726.54" width="101.22" height="1.78"/><rect class="cls-13" x="345.54" y="715.39" width="101.22" height="5.8"/><rect class="cls-20" x="345.54" y="712.27" width="101.22" height="3.12"/><rect class="cls-21" x="359.36" y="625.32" width="72.68" height="81.6"/><rect class="cls-22" x="359.36" y="625.32" width="72.68" height="2.68"/><rect class="cls-22" x="359.36" y="633.35" width="72.68" height="2.68"/><rect class="cls-22" x="359.36" y="643.16" width="72.68" height="4.46"/><rect class="cls-23" x="359.36" y="621.31" width="72.68" height="4.46"/><rect class="cls-24" x="349.11" y="614.62" width="94.09" height="6.24"/><rect class="cls-25" x="359.36" y="683.29" width="72.68" height="23.63"/><polygon class="cls-26" points="371.85 697.56 347.32 697.56 348.22 695.33 359.37 654.75 359.37 654.75 367.39 683.29 370.96 695.33 371.85 697.56"/><polygon class="cls-26" points="383.89 654.75 371.85 697.56 395.93 697.56 383.89 654.75"/><polygon class="cls-26" points="407.97 654.75 395.93 697.56 420.01 697.56 407.97 654.75"/><polygon class="cls-26" points="432.05 654.75 420.01 697.56 444.09 697.56 432.05 654.75"/><path class="cls-27" d="M446.77,695.33v17.83H345.54V695.33Z"/><path class="cls-28" d="M362,695.33a16.93,16.93,0,0,0-16.94,16.94H379A17,17,0,0,0,362,695.33Z"/><path class="cls-29" d="M362,697.56c-8,0-14.71,6.69-14.71,14.27h29C376.76,704.25,370.07,697.56,362,697.56Z"/><path class="cls-30" d="M362,698.9c-7.13,0-13.38,5.79-13.38,12.93H375C375.42,704.69,369.62,698.9,362,698.9Z"/><path class="cls-31" d="M362,701.57a10.85,10.85,0,0,0-10.7,10.7h21A10,10,0,0,0,362,701.57Z"/><rect class="cls-32" x="358.03" y="703.8" width="8.47" height="8.47"/><path class="cls-28" d="M395.93,695.33A16.94,16.94,0,0,0,379,712.27h33.89A16.93,16.93,0,0,0,395.93,695.33Z"/><path class="cls-29" d="M395.93,697.56c-8,0-14.72,6.69-14.72,14.27h29A14.37,14.37,0,0,0,395.93,697.56Z"/><path class="cls-30" d="M395.93,698.9A12.93,12.93,0,0,0,383,711.83h26.31c0-7.14-6.25-12.93-13.38-12.93Z"/><path class="cls-31" d="M395.93,701.57a10.85,10.85,0,0,0-10.7,10.7h21A10.2,10.2,0,0,0,395.93,701.57Z"/><rect class="cls-32" x="391.47" y="703.8" width="8.47" height="8.47"/><path class="cls-28" d="M429.82,695.33a16.94,16.94,0,0,0-16.95,16.94h33.9A17.23,17.23,0,0,0,429.82,695.33Z"/><path class="cls-29" d="M429.82,697.56c-8,0-14.72,6.69-14.72,14.27h29A14.37,14.37,0,0,0,429.82,697.56Z"/><path class="cls-30" d="M429.82,698.9c-7.14,0-13.38,5.79-13.38,12.93h26.31A12.94,12.94,0,0,0,429.82,698.9Z"/><path class="cls-31" d="M429.82,701.57a10.85,10.85,0,0,0-10.7,10.7h21a10.48,10.48,0,0,0-10.26-10.7Z"/><rect class="cls-32" x="425.36" y="703.8" width="8.47" height="8.47"/><path class="cls-33" d="M459.7,579.83h0v4a1.64,1.64,0,0,1-.45,1.34c-.45,1.78-.45,3.12-.89,4.9a2.67,2.67,0,0,0-.45,1.78c-.45,1.79-1.34,3.57-1.78,4.91a1.63,1.63,0,0,0-.45,1.34l-1.34,2.67c-.44.45-.44.89-.89,1.34v.45a11.05,11.05,0,0,0-1.78,3.12c-.45.44-.45.89-.89.89-.45.45-.45.89-.9,1.34s-.44.89-.89,1.34a3.51,3.51,0,0,1-1.78,1.78l-1.34,1.34-.89.89-3.57,3.57v.44H347.32l-.44-.44c-.45-.45-1.79-1.34-3.13-2.68l-1.33-1.34a9.44,9.44,0,0,1-1.79-2.23c-.44-.44-.44-.89-.89-.89-.45-.44-.89-1.34-1.34-1.78l-.44-.45c-.45-.44-.45-.89-.9-1.34-.44-.89-1.33-1.78-1.78-2.67l-1.34-2.68a9.9,9.9,0,0,0-1.33-2.23v-.89a33.86,33.86,0,0,1-2.23-6.24c-.45-.89-.45-2.23-.89-3.12a8.64,8.64,0,0,1-.45-3.12v-.9a16.7,16.7,0,0,1,0-6.68,92.69,92.69,0,0,1,2.23-10.71,1.64,1.64,0,0,0,.44-1.33,35.81,35.81,0,0,1,3.57-7.14c.45-.89,1.34-2.23,1.78-3.12,1.79-2.68,3.57-5.35,5.36-7.58.89-1.34,2.23-2.68,3.12-4l2.67-2.68,1.34-1.34.45-.44c16.05-17,25-26.76,30.32-35.23l.89-1.34c.45-.44.45-.89.89-1.34s.45-.44.45-.89.45-.89.89-1.34h0a1.61,1.61,0,0,0,.45-1.33c.45-.9.45-1.34.89-1.79v-.44c.45-.9.45-1.34.9-2.23v-.89a37.64,37.64,0,0,0,1.78-6.69,12.94,12.94,0,0,0,.89-4,5.59,5.59,0,0,0,.45-2.67c.44-1.34.44-3.12.89-4.46.45-1.79.89-4,1.34-6.24l.44-2.23V467c0-.45,0-.45.45-.89v-.45c0-.45,0-.89.45-.89l.44-1.79c0-.44.45-.89.45-1.33,0-.9.45-2.23.45-3.12.44-1.79.89-4,1.33-5.8v-.45a1.57,1.57,0,0,1,.45-.89V451c0,.45.45.9.45,1.34v.45c.89,3.12,1.33,5.8,1.78,8a2.73,2.73,0,0,1,.44,1.79,1.57,1.57,0,0,0,.45.89v.45c0,.44,0,.89.45.89v1.78a19.25,19.25,0,0,1,.89,4.91c.45,2.67.89,4.9,1.34,7.13v.45c.44,1.78.89,3.56,1.33,4.9.45.45.45.89.45,1.79a2.64,2.64,0,0,1,.45,1.78,1.66,1.66,0,0,0,.44,1.34c.45.89.45,1.78.9,2.67.89,2.23,1.78,4.46,2.67,6.25.45.44.45.44.45.89l.44.89c.45.45.45.89.9,1.34a9.21,9.21,0,0,0,1.78,2.67c1.34,2.23,2.68,4,4,6.25,4,5.35,8.48,10.25,12.93,15.16,2.23,2.67,4.91,4.9,7.59,8l6.24,6.25,1.34,1.33a78.44,78.44,0,0,1,5.79,6.69,47.58,47.58,0,0,1,6.69,9.81,90.41,90.41,0,0,1,4.46,9.37l.45.44c.44.9.44,1.34.89,1.79a2.69,2.69,0,0,1,.44,1.78,4,4,0,0,1,.45,2.23,3.34,3.34,0,0,1,.45,1.78,7.72,7.72,0,0,1,.44,3.13,1.61,1.61,0,0,0,.45,1.33v.9C459.25,576.71,459.7,579.39,459.7,579.83Z"/><path class="cls-34" d="M459.7,579.83h0V583h0a74.76,74.76,0,0,1-4.91,7.58,107.73,107.73,0,0,1-22.74,24.52H348.66a55.42,55.42,0,0,1-4.46-8.92,21.49,21.49,0,0,1-1.78-4.9,46.3,46.3,0,0,1-2.23-12.93,21.45,21.45,0,0,1,0-7.58c0-2.23.45-4.91.45-7.14a70.46,70.46,0,0,1,2.67-13.38c2.23-7.13,4.46-14.26,8-20.51.44-.44.44-.44.44-.89,16.06-16.94,25-26.75,30.32-35.23l.9-1.33c.44-.45.44-.9.89-1.34s.45-.45.45-.89.44-.9.89-1.34h0a64.71,64.71,0,0,1,5.8-4c1.78-1.33,3.56-2.22,5.35-3.56a35.46,35.46,0,0,1,7.13-3.57h0a1.63,1.63,0,0,1,.45,1.34c.45.89.45,1.78.89,2.67.89,2.23,1.78,4.46,2.68,6.25.44.44.44.44.44.89v.89c.45.45.45.89.9,1.34a9.21,9.21,0,0,0,1.78,2.67c1.34,2.23,2.68,4,4,6.25,4,5.35,8.47,10.25,12.93,15.16,2.23,2.67,4.91,4.9,7.59,8l6.24,6.25,1.33,1.33a76.87,76.87,0,0,1,5.8,6.69,47.58,47.58,0,0,1,6.69,9.81,91.4,91.4,0,0,1,4.46,9.37l.44.44c.45.9.45,1.34.9,1.79a2.7,2.7,0,0,1,.44,1.78,4,4,0,0,1,.45,2.23,3.34,3.34,0,0,1,.45,1.78,7.72,7.72,0,0,1,.44,3.13,1.61,1.61,0,0,0,.45,1.33v.9S459.7,579.39,459.7,579.83Z"/><path class="cls-33" d="M453.45,556.65a94.3,94.3,0,0,1-12,21.85l-4,5.35c-10.7,13.82-23.19,24.08-36.12,30.77H348.66l-.44-.45c-.45-.44-1.79-1.34-3.13-2.67l-1.33-1.34a9.87,9.87,0,0,1-1.79-2.23c-.44-.45-.44-.89-.89-.89-.44-.45-.89-1.34-1.34-1.79l-.44-.44c-.45-.45-.45-.9-.89-1.34-.45-.89-1.34-1.78-1.79-2.68l-1.33-2.67a10,10,0,0,0-1.34-2.23c-.45-.45-.45-.45-.45-.89a35.49,35.49,0,0,1-2.23-6.25c-.44-.89-.44-2.23-.89-3.12a8.64,8.64,0,0,1-.45-3.12v-.89a17.12,17.12,0,0,1,0-6.69,92.52,92.52,0,0,1,2.23-10.7,1.63,1.63,0,0,0,.45-1.34,35.46,35.46,0,0,1,3.57-7.13c.44-.9,1.33-2.23,1.78-3.13,1.78-2.67,3.57-5.35,5.35-7.58.89-1.33,2.23-2.67,3.12-4l2.68-2.67,1.34-1.34.44-.45c16.06-16.94,25-26.75,30.32-35.23l.9-1.33c.44-.45.44-.9.89-1.34s.45-.45.45-.89.44-.9.89-1.34h0a1.63,1.63,0,0,0,.45-1.34c.44-.89.44-1.34.89-1.78v-.45c.44-.89.44-1.34.89-2.23,0-.44.45-.44.45-.89a37.64,37.64,0,0,0,1.78-6.69,12.88,12.88,0,0,0,.89-4,5.63,5.63,0,0,0,.45-2.68c.45-1.33.45-3.12.89-4.46.89-.44,1.34-.89,2.23-.89.89-.44,1.34-.44,2.23-.89l4-1.34h0c.45,2.68.9,4.91,1.34,7.14v.44c.45,1.79.89,3.57,1.34,4.91.44.44.44.89.44,1.78a2.68,2.68,0,0,0,.45,1.79,1.61,1.61,0,0,1,.45,1.33c.44.89.44,1.79.89,2.68.89,2.23,1.78,4.46,2.68,6.24.44.45.44.45.44.89v.89c.45.45.45.9.89,1.34a9.5,9.5,0,0,0,1.79,2.68c1.33,2.23,2.67,4,4,6.24,4,5.35,8.47,10.26,12.93,15.16,2.23,2.68,4.91,4.91,7.58,8l6.25,6.24,1.33,1.34a76.87,76.87,0,0,1,5.8,6.69C449,550.4,451.22,553.53,453.45,556.65Z"/><path class="cls-34" d="M446.77,547.28A126.77,126.77,0,0,1,432.94,574a134.9,134.9,0,0,1-14.27,17.39,101.74,101.74,0,0,1-22.29,16.94,91.72,91.72,0,0,1-15.17,6.69h-32.1l-.45-.44c-.45-.45-1.78-1.34-3.12-2.68l-1.34-1.34a9.43,9.43,0,0,1-1.78-2.23c-.45-.44-.45-.89-.89-.89-.45-.44-.9-1.34-1.34-1.78l-.45-.45c-.44-.44-.44-.89-.89-1.34-.45-.89-1.34-1.78-1.78-2.67s-.9-1.78-1.34-2.68a9.88,9.88,0,0,0-1.34-2.23c-.44-.44-.44-.44-.44-.89a33.86,33.86,0,0,1-2.23-6.24c-.45-.89-.45-2.23-.9-3.12a6.68,6.68,0,0,0-.44-3.12v-.89a16.75,16.75,0,0,1,0-6.69,88.66,88.66,0,0,1,2.23-10.71,1.64,1.64,0,0,0,.44-1.33,35.81,35.81,0,0,1,3.57-7.14c.45-.89,1.34-2.23,1.78-3.12,1.79-2.67,3.57-5.35,5.36-7.58.89-1.34,2.23-2.68,3.12-4l2.67-2.68,1.34-1.34.45-.44c16.05-16.95,25-26.76,30.32-35.23l.89-1.34c.45-.44.45-.89.89-1.34,0-.44,0-.44.45-.89,0-.44.45-.89.89-1.34h0a1.61,1.61,0,0,0,.45-1.33c.45-.89.45-1.34.89-1.79v-.44c0-.89.45-1.34.89-2.23,0-.45.45-.45.45-.89a36.81,36.81,0,0,0,1.78-6.69,13,13,0,0,0,.9-4,5.7,5.7,0,0,0,.44-2.67c.45-1.34.45-3.12.9-4.46.44-1.78.89-4,1.33-6.24l.45-2.23h.45a4.8,4.8,0,0,1,2.23-.45,5.7,5.7,0,0,1,2.67-.44,1.57,1.57,0,0,0,.45.89v.89a19.18,19.18,0,0,1,.89,4.9c.45,2.68.89,4.91,1.34,7.14v.44c.44,1.79.89,3.57,1.33,4.91a3.32,3.32,0,0,0,.45,1.78,2.68,2.68,0,0,1,.45,1.79,1.64,1.64,0,0,1,.44,1.33c.45.9.45,1.79.9,2.68.89,2.23,1.78,4.46,2.67,6.24,0,.45,0,.45.45.89l.44.9c.45.44.45.89.9,1.33a9.11,9.11,0,0,0,1.78,2.68c1.34,2.23,2.68,4,4,6.24,4,5.35,8.48,10.26,12.93,15.16,2.23,2.68,4.91,4.91,7.59,8l6.24,6.24,1.34,1.34C442.75,542.82,445,545.05,446.77,547.28Z"/><path class="cls-33" d="M433.83,533a116.3,116.3,0,0,1-37.9,54.41c-.89.44-1.34,1.33-2.23,1.78s-1.78,1.34-2.68,1.78c-15.16,10.71-31.66,16.5-46.37,15.16-1.79-.44-3.12-.44-4.91-.89l-.44-.44c-.45-.45-.45-.9-.9-1.34-.44-.89-1.33-1.78-1.78-2.68l-1.34-2.67a9.67,9.67,0,0,0-1.33-2.23c-.45-.45-.45-.45-.45-.89a35.49,35.49,0,0,1-2.23-6.25c-.45-.89-.45-2.23-.89-3.12a8.64,8.64,0,0,1-.45-3.12v-.89a17.12,17.12,0,0,1,0-6.69,92.52,92.52,0,0,1,2.23-10.7,1.63,1.63,0,0,0,.45-1.34,36,36,0,0,1,3.56-7.13c.45-.9,1.34-2.23,1.79-3.13,1.78-2.67,3.56-5.35,5.35-7.58.89-1.33,2.23-2.67,3.12-4l2.68-2.67,1.33-1.34.45-.45c16.05-16.94,25-26.75,30.32-35.23l.89-1.33c.45-.45.45-.9.9-1.34s.44-.45.44-.89.45-.9.9-1.34h0a1.66,1.66,0,0,0,.44-1.34c.45-.89.45-1.34.9-1.78h0c.44-.89.44-1.34.89-2.23,0-.45.44-.45.44-.89a36.85,36.85,0,0,0,1.79-6.69,13.23,13.23,0,0,0,.89-4,5.59,5.59,0,0,0,.45-2.67c.44-1.34.44-3.12.89-4.46.45-1.78.89-4,1.34-6.24l.44-2.23v-.45c0-.44,0-.44.45-.89v-.45c0-.44,0-.89.45-.89v-1.78c0-.45.44-.89.44-1.34a7.52,7.52,0,0,0,.45-3.12c.44-1.79.89-4,1.34-5.8h.44c.89,3.12,1.34,5.8,1.78,8a2.65,2.65,0,0,1,.45,1.78v1.34c0,.45,0,.89.45.89a1.54,1.54,0,0,0,.44.89v.9a18.77,18.77,0,0,1,.9,4.9c.44,2.68.89,4.91,1.33,7.13v.45c.45,1.78.9,3.57,1.34,4.91.45.44.45.89.45,1.78A2.69,2.69,0,0,0,404,484a1.64,1.64,0,0,1,.45,1.34c.45.89.45,1.78.89,2.68.89,2.23,1.79,4.46,2.68,6.24.44.44.44.44.44.89V496c.45.45.45.89.9,1.34A9.38,9.38,0,0,0,411.1,500c1.34,2.23,2.68,4,4,6.24,4,5.35,8.48,10.26,12.93,15.16C428.48,527.66,431.16,530.34,433.83,533Z"/><path class="cls-34" d="M426.25,525.43A121.74,121.74,0,0,1,410.65,558a138.28,138.28,0,0,1-14.72,17.4,118.68,118.68,0,0,1-11.15,9.81c-3.12,2.67-6.69,4.46-9.81,6.68a65.43,65.43,0,0,1-31.21,9.82H338c-.44-.9-.89-1.79-1.34-2.68a9.9,9.9,0,0,0-1.33-2.23c-.45-.45-.45-.45-.45-.89a35.68,35.68,0,0,1-2.23-6.24c-.44-.9-.44-2.23-.89-3.13a8.61,8.61,0,0,1-.45-3.12v-.89a17.12,17.12,0,0,1,0-6.69,92.52,92.52,0,0,1,2.23-10.7,1.63,1.63,0,0,0,.45-1.34,35.46,35.46,0,0,1,3.57-7.13c.44-.89,1.33-2.23,1.78-3.12,1.78-2.68,3.56-5.36,5.35-7.58.89-1.34,2.23-2.68,3.12-4l2.68-2.67,1.34-1.34.44-.45c16.06-16.94,25-26.75,30.32-35.22l.9-1.34c.44-.45.44-.89.89-1.34s.45-.45.45-.89.44-.89.89-1.34h0a1.66,1.66,0,0,0,.44-1.34c.45-.89.45-1.34.9-1.78v-.45c.44-.89.44-1.33.89-2.23,0-.44.45-.44.45-.89a37.64,37.64,0,0,0,1.78-6.69,12.88,12.88,0,0,0,.89-4,5.61,5.61,0,0,0,.45-2.68c.44-1.33.44-3.12.89-4.46,0-1.78.89-4,1.34-6.24l.44-2.23v-.44c0-.45,0-.45.45-.9v-.44c0-.45,0-.89.45-.89v-1.79c0-.44.44-.89.44-1.33a7.56,7.56,0,0,0,.45-3.13c.45-1.78.89-4,1.34-5.79v-.45l.44-.89v1.34c.9,3.12,1.34,5.79,1.79,8a2.73,2.73,0,0,1,.44,1.79,1.57,1.57,0,0,0,.45.89v1.34a1.57,1.57,0,0,0,.45.89v.89a19.17,19.17,0,0,1,.89,4.91c.44,2.67.89,4.9,1.33,7.13v.45c.45,1.78.9,3.56,1.34,4.9.45.45.45.89.45,1.78a2.73,2.73,0,0,1,.44,1.79c0,.44.45.89.45,1.34.45.89.45,1.78.89,2.67.9,2.23,1.79,4.46,2.68,6.24.45.45.45.45.45.9l.44.89c0,.44.45.89.89,1.34a9.46,9.46,0,0,0,1.79,2.67c1.33,2.23,2.67,4,4,6.24C417.33,515.18,421.79,520.53,426.25,525.43Z"/><path class="cls-33" d="M413.32,509.83c-3.57,12.93-8.92,25.41-16.94,36.56-.45.45-.45.89-.9.89a127,127,0,0,1-25,26.31A88.59,88.59,0,0,1,354,583.4a69.22,69.22,0,0,1-12.48,4.46,52.61,52.61,0,0,1-8,1.79c-.44-.9-.44-2.23-.89-3.13a8.61,8.61,0,0,1-.45-3.12v-.89a17.12,17.12,0,0,1,0-6.69,92.52,92.52,0,0,1,2.23-10.7,1.63,1.63,0,0,0,.45-1.34,35.46,35.46,0,0,1,3.57-7.13c.44-.89,1.33-2.23,1.78-3.12,1.78-2.68,3.57-5.35,5.35-7.58.89-1.34,2.23-2.68,3.12-4l2.68-2.67,1.34-1.34.44-.45c16.06-16.94,25-26.75,30.32-35.22l.9-1.34c.44-.45.44-.89.89-1.34s.45-.45.45-.89c.44-.45.44-.89.89-1.34h0A1.66,1.66,0,0,0,387,496c.45-.89.45-1.33.9-1.78v-.45c.44-.89.44-1.33.89-2.23,0-.44.45-.44.45-.89A37.64,37.64,0,0,0,391,484a12.88,12.88,0,0,0,.89-4,5.61,5.61,0,0,0,.45-2.68c.45-1.33.45-3.12.89-4.46.45-1.78.89-4,1.34-6.24l.44-2.23v-.44c0-.45,0-.45.45-.9v-1.33l.45-1.79c0-.44.44-.89.44-1.33a7.56,7.56,0,0,0,.45-3.13c.45-1.78.89-4,1.34-5.79v-1.79c0,.45.44.89.44,1.34v.45c.9,3.12,1.34,5.79,1.79,8a2.73,2.73,0,0,1,.44,1.79v1.33s0,.9.45.9a1.57,1.57,0,0,0,.45.89v.89a19.17,19.17,0,0,1,.89,4.91c.44,2.67.89,4.9,1.34,7.13v.45c.44,1.78.89,3.56,1.33,4.9.45.45.45.89.45,1.78a2.73,2.73,0,0,0,.44,1.79,1.62,1.62,0,0,1,.45,1.34c.45.89.45,1.78.89,2.67.9,2.23,1.79,4.46,2.68,6.24.45.45.45.45.45.9v.89c.44.44.44.89.89,1.34a9.41,9.41,0,0,0,1.78,2.67C410.2,505.81,411.54,508,413.32,509.83Z"/><path class="cls-34" d="M406.19,498.68c-.45,1.78-.9,3.57-1.34,5.35a119.6,119.6,0,0,1-9.37,25,121.71,121.71,0,0,1-7.58,12.93,123.15,123.15,0,0,1-23.19,25,97.13,97.13,0,0,1-18.28,11.6l-5.35,2.67c-3.12,1.34-6.24,2.23-8.92,3.12v-.44a16.75,16.75,0,0,1,0-6.69,92.09,92.09,0,0,1,2.23-10.7,1.63,1.63,0,0,0,.45-1.34A35.78,35.78,0,0,1,338.4,558c.45-.89,1.34-2.22,1.79-3.12,1.78-2.67,3.56-5.35,5.35-7.58.89-1.33,2.23-2.67,3.12-4l2.68-2.68,1.33-1.33.45-.45c16.05-16.94,25-26.75,30.32-35.23l.89-1.33c.45-.45.45-.9.9-1.34,0-.45,0-.45.44-.89,0-.45.45-.9.9-1.34h0a1.66,1.66,0,0,0,.44-1.34c.45-.89.45-1.34.9-1.78v-.45c0-.89.44-1.34.89-2.23,0-.44.44-.44.44-.89A36.85,36.85,0,0,0,391,485.3a13.23,13.23,0,0,0,.89-4,5.63,5.63,0,0,0,.45-2.68c.44-1.34.44-3.12.89-4.46.45-1.78.89-4,1.34-6.24l.44-2.23v-.45c0-.44,0-.44.45-.89V463l.45-1.78c0-.45.44-.89.44-1.34a7.52,7.52,0,0,0,.45-3.12c.44-1.78.89-4,1.33-5.8v-1.78c0,.45.45.89.45,1.34V451c.89,3.13,1.34,5.8,1.78,8a2.67,2.67,0,0,1,.45,1.78v1.34s0,.89.45.89a1.58,1.58,0,0,0,.44.9v.89a18.77,18.77,0,0,1,.9,4.9c.44,2.68.89,4.91,1.33,7.14v.44c.45,1.79.9,3.57,1.34,4.91.45.44.45.89.45,1.78a2.73,2.73,0,0,0,.44,1.79,1.61,1.61,0,0,1,.45,1.33c.45.9.45,1.79.89,2.68C404.4,494.66,405.29,496.45,406.19,498.68Z"/><path class="cls-33" d="M393.7,475c-.45,4-.45,8-1.34,11.6-.44,3.12-1.33,5.79-1.78,8.47-.89,2.68-1.78,5.8-2.68,8.47a114.63,114.63,0,0,1-32.1,47.27,79.73,79.73,0,0,1-12,9.36,97.08,97.08,0,0,1-8.92,5.36c0,.44-.9.44-1.34.89a1.63,1.63,0,0,0,.45-1.34,35.43,35.43,0,0,1,3.56-7.13c.45-.9,1.34-2.23,1.79-3.13,1.78-2.67,3.56-5.35,5.35-7.58.89-1.33,2.23-2.67,3.12-4l2.68-2.68,1.33-1.33.45-.45c16-16.94,25-26.75,30.32-35.23l.89-1.33c.45-.45.45-.9.9-1.34s.44-.45.44-.89.45-.9.9-1.34h0a1.66,1.66,0,0,0,.44-1.34c.45-.89.45-1.34.89-1.78v-.45c.45-.89.45-1.34.9-2.23V492a37.64,37.64,0,0,0,1.78-6.69c0-1.34.89-2.67.89-4a5.63,5.63,0,0,0,.45-2.68c.45-1.34.45-3.12.89-4.46.45-1.78.9-4,1.34-6.24l.45-2.23v-.45c0-.44,0-.44.44-.89v-.44c0-.45,0-.9.45-.9,0,.9.44,1.34.44,1.79h0A36.57,36.57,0,0,0,393.7,475Z"/><g class="cls-35"><path class="cls-36" d="M459.7,579.83h0v4a1.64,1.64,0,0,1-.45,1.34c-.45,1.78-.45,3.12-.89,4.9a2.67,2.67,0,0,0-.45,1.78c-.45,1.79-1.34,3.57-1.78,4.91a1.63,1.63,0,0,0-.45,1.34l-1.34,2.67c-.44.45-.44.89-.89,1.34a18.69,18.69,0,0,1-2.23,3.12c-.44.45-.44.89-.89.89-.45.45-.45.9-.89,1.34s-.45.89-.9,1.34a3.44,3.44,0,0,1-1.78,1.78l-1.34,1.34-.89.89L441,616.4v.45H346.88l-.45-.45c-.45-.45-1.78-1.34-3.12-2.68L342,612.39a9.59,9.59,0,0,1-1.78-2.23c-.45-.45-.45-.89-.9-.89-.44-.45-.89-1.34-1.33-1.79l-.45-.44c-.45-.45-.45-.9-.89-1.34-.45-.89-1.34-1.79-1.79-2.68l-1.33-2.67a9.66,9.66,0,0,0-1.34-2.23v-.89a35.49,35.49,0,0,1-2.23-6.25,8.18,8.18,0,0,0-.89-3.12,8.64,8.64,0,0,1-.45-3.12v-4.9a9.75,9.75,0,0,1,.45-3.57,39.21,39.21,0,0,1,4.46-15.61h0a25.74,25.74,0,0,1,1.78-3.57c.45-.44.45-.89.89-.89.45-.89.9-1.34,1.34-2.23,1.78-2.67,3.57-5.35,5.35-7.58.9-1.34,2.23-2.67,3.13-4l2.67-2.68,1.34-1.34v.45a118,118,0,0,0,4,11.59A67.22,67.22,0,0,0,362.93,566a44.68,44.68,0,0,0,5.8,7.14A58.24,58.24,0,0,0,383,584.29a86.35,86.35,0,0,0,9.36,4.46c.89.45,1.34.45,2.23.9a53.14,53.14,0,0,0,14.27,2.22,48.73,48.73,0,0,0,8-.89,56.08,56.08,0,0,0,18.73-7.13,62.08,62.08,0,0,0,19.61-19.18,1.64,1.64,0,0,1,.45,1.34c.45.45.45,1.34.89,1.79a2.64,2.64,0,0,1,.45,1.78,4,4,0,0,1,.45,2.23,3.4,3.4,0,0,1,.44,1.78,7.52,7.52,0,0,1,.45,3.12,1.62,1.62,0,0,0,.45,1.34v.89C459.7,578.5,459.7,579.39,459.7,579.83Z"/></g><path class="cls-33" d="M409.31,504H382.55l.89-1.34.9-1.34c.44-.44.44-.44.44-.89s.45-.89.9-1.34.44-.44.44-.89a.44.44,0,0,1,.45-.44c.44-.9.44-1.34.89-1.79v-.44c.45-.9.45-1.34.89-2.23,0-.45.45-.45.45-.89.45-.9.45-1.79.89-2.68s.45-1.78.9-2.68a2.69,2.69,0,0,0,.44-1.78,12.88,12.88,0,0,0,.89-4,5.63,5.63,0,0,0,.45-2.68c.45-2.23.89-4.46,1.34-7.13.44-.89.44-2.23.89-3.12a5.65,5.65,0,0,0,.45-2.68c0-.45.44-.45.44-.89v-.45c0-.44,0-.89.45-.89l.45-1.78c0-.45.44-.9.44-1.34a7.52,7.52,0,0,0,.45-3.12c.45-1.79.89-3.57,1.34-5.8V451c0-.44.44-.89.44-1.33h0c0,.44.45.89.45,1.33v.45h0c.89,3.12,1.34,5.8,1.78,8h0l.45,1.78a1.54,1.54,0,0,0,.44.89v.45s0,.89.45.89a1.53,1.53,0,0,0,.45.89v.89a23.46,23.46,0,0,1,.89,4.91,7.52,7.52,0,0,1,.45,3.12c.44,1.78.44,3.12.89,4.46v.45c.45,1.78.89,3.56,1.34,4.9a3.39,3.39,0,0,0,.44,1.78,2.68,2.68,0,0,1,.45,1.79c0,.44.44.89.44,1.34.45.89.45,1.78.9,2.67.89,2.23,1.78,4.46,2.67,6.24,0,.45,0,.45.45.9l.45.89c.44.44.44.89.89,1.34C408,502.25,408.42,503.14,409.31,504Z"/><path class="cls-37" d="M402.62,486.64H389.69a13.23,13.23,0,0,0,.89-4A5.59,5.59,0,0,0,391,480c.44-2.23.89-4.46,1.33-7.14.45-.89.45-2.22.89-3.12a5.59,5.59,0,0,0,.45-2.67c0-.45.45-.45.45-.89v-.45c0-.45,0-.89.44-.89L395,463c0-.44.45-.89.45-1.33a7.68,7.68,0,0,0,.44-3.12c.45-1.79.9-3.57,1.34-5.8v-.45c0-.44.45-.89.45-1.34h0c0,.45.44.9.44,1.34v.45h0c.9,3.12,1.34,5.8,1.79,8h0l.44,1.78a1.57,1.57,0,0,0,.45.89v.45s0,.89.44.89a1.57,1.57,0,0,0,.45.89v.89a22.82,22.82,0,0,1,.89,4.91,7.52,7.52,0,0,1,.45,3.12c.45,1.78.45,3.12.89,4.46v.44c.45,1.79.9,3.57,1.34,4.91C402.17,485.75,402.17,486.19,402.62,486.64Z"/><polygon class="cls-38" points="398.16 464.34 393.7 464.34 394.14 458.99 394.14 454.09 395.93 408.16 395.93 407.26 397.71 454.09 398.16 462.56 398.16 464.34"/><path class="cls-39" d="M403.06,460.77a2.73,2.73,0,0,1-.44,1.79,7.24,7.24,0,0,1-7.14,5.35h0a19.44,19.44,0,0,1-2.23-.45h-.44V467h0a7.62,7.62,0,0,1-4-9.37,8.77,8.77,0,0,1,4-4,4.8,4.8,0,0,1,2.23-.45h.89a2.64,2.64,0,0,1,1.78.45C400.83,455,403.06,457.65,403.06,460.77Z"/><path class="cls-38" d="M403.06,460.77a3.74,3.74,0,0,1-4.9,1.79h-.89a6.14,6.14,0,0,1-1.79-1.34l-1.33-1.34h0c-.45-.44-.45-.89-.9-.89a8.37,8.37,0,0,1-.89-3.12v-1.78a4.8,4.8,0,0,1,2.23-.45h.89a2.68,2.68,0,0,1,1.79.45C400.83,455,403.06,457.65,403.06,460.77Z"/><rect class="cls-40" x="349.11" y="614.62" width="94.09" height="2.23"/><g class="cls-41"><path class="cls-42" d="M395.93,408.16V810.37H345.09v-115h3.13l11.59-40.58v-27.2h0v-6.69h-10.7v-6.24h-.45l-.44-.45c-.45-.45-1.79-1.34-3.13-2.67l-1.33-1.34a9.87,9.87,0,0,1-1.79-2.23c-.44-.45-.44-.89-.89-.89-.44-.45-.89-1.34-1.34-1.79l-.44-.44c-.45-.45-.45-.9-.89-1.34-.45-.89-1.34-1.78-1.79-2.68l-1.33-2.67a10,10,0,0,0-1.34-2.23c-.45-.45-.45-.45-.45-.89a35.49,35.49,0,0,1-2.23-6.25c-.44-.89-.44-2.23-.89-3.12a7.52,7.52,0,0,0-.45-3.12v-4.9a9.75,9.75,0,0,1,.45-3.57,39.21,39.21,0,0,1,4.46-15.61h0a28.18,28.18,0,0,1,1.78-3.57c.45-.44.45-.89.9-.89.44-.89.89-1.34,1.33-2.23,1.79-2.67,3.57-5.35,5.35-7.58.9-1.34,2.23-2.67,3.13-4l2.67-2.68,1.34-1.33.45-.45c16-17,25-26.76,30.32-35.23l.89-1.34.89-1.33c.45-.45.45-.45.45-.9s.45-.89.89-1.33h0a1.63,1.63,0,0,0,.45-1.34c.44-.89.44-1.34.89-1.78V492c.45-.89.45-1.34.89-2.23,0-.45.45-.45.45-.89.45-.89.45-1.79.89-2.68s.45-1.78.9-2.67a2.73,2.73,0,0,0,.44-1.79,12.82,12.82,0,0,0,.89-4,5.59,5.59,0,0,0,.45-2.67c.45-2.23.89-4.46,1.34-7.14.44-.89.44-2.23.89-3.12a5.61,5.61,0,0,0,.45-2.68,7.61,7.61,0,0,1-4-9.36,8.77,8.77,0,0,1,4-4c.44,0,.44-.45.89-.45Z"/></g><rect class="cls-43" x="527.92" y="571.36" width="155.63" height="26.31"/><rect class="cls-44" x="527.92" y="711.83" width="155.63" height="69.12"/><rect class="cls-45" x="527.92" y="711.83" width="155.63" height="13.38"/><rect class="cls-46" x="527.92" y="725.2" width="155.63" height="4.01"/><polygon class="cls-47" points="536.84 711.83 527.92 725.2 545.31 725.2 536.84 711.83"/><polygon class="cls-46" points="536.84 714.5 529.7 725.2 543.53 725.2 536.84 714.5"/><polygon class="cls-44" points="536.84 717.18 531.49 725.2 541.75 725.2 536.84 717.18"/><polygon class="cls-47" points="559.58 711.83 550.66 725.2 568.5 725.2 559.58 711.83"/><polygon class="cls-46" points="559.58 714.5 552.89 725.2 566.72 725.2 559.58 714.5"/><polygon class="cls-44" points="559.58 717.18 554.23 725.2 564.93 725.2 559.58 717.18"/><polygon class="cls-47" points="582.77 711.83 573.85 725.2 591.69 725.2 582.77 711.83"/><polygon class="cls-46" points="582.77 714.5 575.63 725.2 589.46 725.2 582.77 714.5"/><polygon class="cls-44" points="582.77 717.18 577.42 725.2 588.12 725.2 582.77 717.18"/><polygon class="cls-47" points="605.51 711.83 596.59 725.2 614.43 725.2 605.51 711.83"/><polygon class="cls-46" points="605.51 714.5 598.82 725.2 612.64 725.2 605.51 714.5"/><polygon class="cls-44" points="605.51 717.18 600.61 725.2 610.86 725.2 605.51 717.18"/><polygon class="cls-47" points="628.7 711.83 619.78 725.2 637.62 725.2 628.7 711.83"/><polygon class="cls-46" points="628.7 714.5 621.56 725.2 635.83 725.2 628.7 714.5"/><polygon class="cls-44" points="628.7 717.18 623.35 725.2 634.05 725.2 628.7 717.18"/><polygon class="cls-47" points="651.89 711.83 642.52 725.2 660.36 725.2 651.89 711.83"/><polygon class="cls-46" points="651.89 714.5 644.75 725.2 658.58 725.2 651.89 714.5"/><polygon class="cls-44" points="651.89 717.18 646.09 725.2 657.24 725.2 651.89 717.18"/><polygon class="cls-47" points="674.63 711.83 665.71 725.2 683.55 725.2 674.63 711.83"/><polygon class="cls-46" points="674.63 714.5 667.5 725.2 681.76 725.2 674.63 714.5"/><polygon class="cls-44" points="674.63 717.18 669.28 725.2 679.98 725.2 674.63 717.18"/><path class="cls-46" d="M550.66,746.16c0-6.69-4.46-12-9.81-12s-9.81,5.35-9.81,12V780.5h19.17V746.16Z"/><path class="cls-48" d="M548.43,747.05c0-5.79-3.56-10.25-7.58-10.25s-7.58,4.46-7.58,10.25v29H548l.44-29Z"/><rect class="cls-49" x="531.49" y="763.11" width="19.17" height="17.39"/><rect class="cls-46" x="531.49" y="761.77" width="19.17" height="2.23"/><path class="cls-46" d="M576.53,746.16c0-6.69-4.46-12-9.82-12s-9.81,5.35-9.81,12V780.5h19.18V746.16Z"/><path class="cls-48" d="M574.3,747.05c0-5.79-3.57-10.25-7.59-10.25s-7.58,4.46-7.58,10.25v29h14.72l.45-29Z"/><rect class="cls-49" x="557.35" y="763.11" width="19.17" height="17.39"/><rect class="cls-46" x="557.35" y="761.77" width="19.17" height="2.23"/><path class="cls-46" d="M602.39,746.16c0-6.69-4.46-12-9.81-12s-9.81,5.35-9.81,12V780.5h19.17V746.16Z"/><path class="cls-48" d="M600.16,747.05c0-5.79-3.57-10.25-7.58-10.25S585,741.26,585,747.05v29h14.71l.45-29Z"/><rect class="cls-49" x="583.21" y="763.11" width="19.17" height="17.39"/><rect class="cls-46" x="583.21" y="761.77" width="19.17" height="2.23"/><path class="cls-46" d="M628.25,746.16c0-6.69-4.46-12-9.81-12s-9.81,5.35-9.81,12V780.5H627.8V746.16Z"/><path class="cls-48" d="M626,747.05c0-5.79-3.56-10.25-7.58-10.25s-7.58,4.46-7.58,10.25v29h14.71l.45-29Z"/><rect class="cls-49" x="609.08" y="763.11" width="19.17" height="17.39"/><rect class="cls-46" x="609.08" y="761.77" width="19.17" height="2.23"/><path class="cls-46" d="M654.12,746.16c0-6.69-4.46-12-9.81-12s-9.82,5.35-9.82,12V780.5h19.18V746.16Z"/><path class="cls-48" d="M651.89,747.05c0-5.79-3.57-10.25-7.58-10.25s-7.59,4.46-7.59,10.25v29h14.72l.45-29Z"/><rect class="cls-49" x="634.94" y="763.11" width="19.17" height="17.39"/><rect class="cls-46" x="634.94" y="761.77" width="19.17" height="2.23"/><path class="cls-46" d="M680,746.16c0-6.69-4.46-12-9.81-12s-9.81,5.35-9.81,12V780.5h19.17V746.16Z"/><path class="cls-48" d="M677.75,747.05c0-5.79-3.57-10.25-7.58-10.25s-7.58,4.46-7.58,10.25v29H677.3l.45-29Z"/><rect class="cls-49" x="660.36" y="763.11" width="19.17" height="17.39"/><rect class="cls-46" x="660.36" y="761.77" width="19.17" height="2.23"/><rect class="cls-50" x="527.92" y="665.01" width="155.63" height="46.82"/><rect class="cls-45" x="527.92" y="665.01" width="155.63" height="8.92"/><rect class="cls-46" x="527.92" y="674.37" width="155.63" height="2.68"/><rect class="cls-51" x="527.92" y="710.49" width="155.63" height="1.34"/><rect class="cls-46" x="527.92" y="704.69" width="155.63" height="0.89"/><path class="cls-52" d="M553.79,571.36c-14.27,0-25.87,12-25.87,27.2H580.1C579.65,583.4,568.05,571.36,553.79,571.36Z"/><path class="cls-53" d="M553.79,574.93c-12.49,0-22.3,10.7-22.3,23.19h44.59C576.08,585.19,566.27,574.93,553.79,574.93Z"/><path class="cls-54" d="M553.79,577.16c-11.15,0-20.07,9.36-20.07,21H574.3A20.84,20.84,0,0,0,553.79,577.16Z"/><path class="cls-55" d="M553.79,581.17c-8.92,0-16.06,7.58-16.06,17h32.55C569.84,588.75,562.7,581.17,553.79,581.17Z"/><path class="cls-52" d="M605.51,571.36c-14.27,0-25.86,12-25.86,27.2h52.17C631.82,583.4,619.78,571.36,605.51,571.36Z"/><path class="cls-53" d="M605.51,574.93c-12.48,0-22.3,10.7-22.3,23.19h44.6A22.3,22.3,0,0,0,605.51,574.93Z"/><path class="cls-54" d="M605.51,577.16c-11.15,0-20.07,9.36-20.07,21H626A20.84,20.84,0,0,0,605.51,577.16Z"/><path class="cls-55" d="M605.51,581.17c-8.92,0-16,7.58-16,17H622C621.56,588.75,614.43,581.17,605.51,581.17Z"/><path class="cls-52" d="M657.68,571.36c-14.27,0-25.86,12-25.86,27.2H684C683.55,583.4,672,571.36,657.68,571.36Z"/><path class="cls-53" d="M657.68,574.93c-12.48,0-22.29,10.7-22.29,23.19H680C680,585.19,669.72,574.93,657.68,574.93Z"/><path class="cls-54" d="M657.68,577.16c-11.14,0-20.06,9.36-20.06,21H678.2C677.75,586.52,668.83,577.16,657.68,577.16Z"/><path class="cls-55" d="M657.68,581.17c-8.91,0-16,7.58-16,17h32.55C673.74,588.75,666.6,581.17,657.68,581.17Z"/><rect class="cls-43" x="534.16" y="546.84" width="143.14" height="24.08"/><path class="cls-52" d="M557.8,546.84c-13.38,0-23.63,11.15-23.63,25h47.71C581.88,558,571.18,546.84,557.8,546.84Z"/><path class="cls-53" d="M557.8,550.4c-11.15,0-20.51,9.81-20.51,21.41h41A20.4,20.4,0,0,0,557.8,550.4Z"/><path class="cls-54" d="M557.8,552.63c-10.26,0-18.73,8.92-18.73,19.62h37.46C576.53,561.11,568.05,552.63,557.8,552.63Z"/><path class="cls-55" d="M557.8,556.2c-8.47,0-14.72,7.14-14.72,15.61H573A15.42,15.42,0,0,0,557.8,556.2Z"/><path class="cls-52" d="M605.51,546.84c-13.38,0-23.63,11.15-23.63,25h47.71C629.59,558,618.89,546.84,605.51,546.84Z"/><path class="cls-53" d="M605.51,550.4c-11.15,0-20.51,9.81-20.51,21.41h41A20.4,20.4,0,0,0,605.51,550.4Z"/><path class="cls-54" d="M605.51,552.63c-10.25,0-18.73,8.92-18.73,19.62h37.46C624.24,561.11,615.77,552.63,605.51,552.63Z"/><path class="cls-55" d="M605.51,556.2c-8.47,0-14.71,7.14-14.71,15.61h29.87A15.42,15.42,0,0,0,605.51,556.2Z"/><path class="cls-52" d="M653.67,546.84c-13.38,0-23.63,11.15-23.63,25h47.71C677.3,558,666.6,546.84,653.67,546.84Z"/><path class="cls-53" d="M653.67,550.4c-11.15,0-20.51,9.81-20.51,21.41h41C673.74,559.77,664.82,550.4,653.67,550.4Z"/><path class="cls-54" d="M653.67,552.63c-10.25,0-18.73,8.92-18.73,19.62H672.4C672,561.11,663.48,552.63,653.67,552.63Z"/><path class="cls-55" d="M653.67,556.2c-8.47,0-14.71,7.14-14.71,15.61h29.87C668.39,563.34,661.7,556.2,653.67,556.2Z"/><rect class="cls-43" x="543.97" y="525.88" width="123.07" height="20.96"/><path class="cls-52" d="M564.49,525.88c-11.15,0-20.52,9.81-20.52,21.4h41C585,535.24,576.08,525.88,564.49,525.88Z"/><path class="cls-53" d="M564.49,528.55c-9.81,0-17.39,8.48-17.39,18.29h35.22C582.32,537,574.3,528.55,564.49,528.55Z"/><path class="cls-54" d="M564.49,530.34c-8.92,0-16.06,7.58-16.06,16.94h32.11C580.54,537.92,573.41,530.34,564.49,530.34Z"/><path class="cls-55" d="M564.49,533.46a13.63,13.63,0,0,0-12.93,13.38h25.86C577.86,539.7,571.62,533.91,564.49,533.46Z"/><path class="cls-52" d="M605.51,525.88c-11.15,0-20.51,9.81-20.51,21.4h41A20.4,20.4,0,0,0,605.51,525.88Z"/><path class="cls-53" d="M605.51,528.55c-9.81,0-17.39,8.48-17.39,18.29h35.23C623.35,537,615.32,528.55,605.51,528.55Z"/><path class="cls-54" d="M605.51,530.34c-8.92,0-16,7.58-16,16.94h32.1C621.56,537.92,614.43,530.34,605.51,530.34Z"/><path class="cls-55" d="M605.51,533.46a13.64,13.64,0,0,0-12.93,13.38h25.86A13.32,13.32,0,0,0,605.51,533.46Z"/><path class="cls-52" d="M646.54,525.88c-11.15,0-20.52,9.81-20.52,21.4h41C667.05,535.24,658.13,525.88,646.54,525.88Z"/><path class="cls-53" d="M646.54,528.55c-9.82,0-17.84,8.48-17.84,18.29h35.23A17.62,17.62,0,0,0,646.54,528.55Z"/><path class="cls-54" d="M646.54,530.34c-8.92,0-16.06,7.58-16.06,16.94h32.11C662.59,537.92,655.45,530.34,646.54,530.34Z"/><path class="cls-55" d="M646.54,533.46a13.64,13.64,0,0,0-12.94,13.38h25.87C659.91,539.7,654.12,533.91,646.54,533.46Z"/><rect class="cls-56" x="527.92" y="597.67" width="155.63" height="68.23"/><rect class="cls-45" x="527.92" y="597.67" width="155.63" height="13.38"/><rect class="cls-46" x="527.92" y="610.6" width="155.63" height="4.01"/><rect class="cls-46" x="527.92" y="617.74" width="155.63" height="0.89"/><polygon class="cls-57" points="539.07 631.12 535.95 625.32 532.38 631.12 532.38 631.12 532.38 666.34 539.07 666.34 539.07 631.12"/><polygon class="cls-57" points="559.13 631.12 556.01 625.32 552.45 631.12 552.45 631.12 552.45 666.34 559.13 666.34 559.13 631.12"/><polygon class="cls-57" points="579.2 631.12 575.63 625.32 572.07 631.12 572.07 631.12 572.07 666.34 579.2 666.34 579.2 631.12"/><polygon class="cls-57" points="599.27 631.12 595.7 625.32 592.13 631.12 592.13 631.12 592.13 666.34 599.27 666.34 599.27 631.12"/><polygon class="cls-57" points="618.89 631.12 615.77 625.32 612.2 631.12 612.2 631.12 612.2 666.34 618.89 666.34 618.89 631.12"/><polygon class="cls-57" points="638.95 631.12 635.83 625.32 632.26 631.12 632.26 631.12 632.26 666.34 638.95 666.34 638.95 631.12"/><polygon class="cls-57" points="659.02 631.12 655.45 625.32 652.33 631.12 652.33 631.12 652.33 666.34 659.02 666.34 659.02 631.12"/><polygon class="cls-57" points="679.09 631.12 675.52 625.32 671.95 631.12 671.95 631.12 671.95 666.34 679.09 666.34 679.09 631.12"/><rect class="cls-58" x="543.97" y="483.96" width="123.07" height="41.47"/><rect class="cls-45" x="543.97" y="483.96" width="123.07" height="8.03"/><rect class="cls-46" x="543.97" y="491.99" width="123.07" height="2.23"/><rect class="cls-46" x="543.97" y="496.45" width="123.07" height="0.89"/><polygon class="cls-59" points="642.52 483.96 568.95 483.96 588.12 376.94 588.57 374.27 591.24 359.11 605.96 281.07 619.78 359.11 622.46 374.27 622.9 376.94 642.52 483.96"/><polygon class="cls-60" points="622.46 374.27 588.57 374.27 591.24 359.11 619.78 359.11 622.46 374.27"/><polygon class="cls-61" points="622.9 376.94 588.12 376.94 588.57 374.27 622.46 374.27 622.9 376.94"/><rect class="cls-62" x="593.03" y="335.92" width="25.42" height="14.27"/><rect class="cls-63" x="593.03" y="312.73" width="25.42" height="4.46"/><path class="cls-64" d="M625.13,302.92a14.87,14.87,0,0,1-4.9,9.81H591.69c-3.12-3.12-5.35-7.13-4.91-11.59a21.28,21.28,0,0,1,5.8-12,17.09,17.09,0,0,1,4-4c8.47-9.36,7.14-10.25,9.81-23.63,2.68,15.16,1.34,14.27,13.38,27.65,4,4.46,5.8,8.47,5.8,12A2.64,2.64,0,0,0,625.13,302.92Z"/><path class="cls-65" d="M625.13,302.92c-3.56.89-7.13.45-11.15-1.34-5.79-2.67-11.59-7.58-16.5-14.27-.44-.44-.89-1.33-1.33-1.78,8.47-9.37,7.13-10.26,9.81-23.63,2.67,15.16,1.34,14.26,13.38,27.64,4,4.46,5.79,8.47,5.79,12Z"/><g class="cls-35"><path class="cls-66" d="M625.13,302.92a14.87,14.87,0,0,1-4.9,9.81H591.69c-3.12-3.12-5.35-7.13-4.91-11.59h38.35Z"/></g><rect class="cls-60" x="593.03" y="317.19" width="25.42" height="19.17"/><rect class="cls-59" x="593.03" y="320.76" width="25.42" height="12.49"/><rect class="cls-67" x="729.03" y="608.37" width="68.22" height="81.6"/><rect class="cls-68" x="729.03" y="608.37" width="68.22" height="2.68"/><rect class="cls-68" x="729.03" y="615.95" width="68.22" height="2.68"/><rect class="cls-68" x="729.03" y="626.21" width="68.22" height="4.46"/><rect class="cls-69" x="729.03" y="603.91" width="68.22" height="4.46"/><rect class="cls-70" x="726.8" y="599.01" width="72.68" height="5.35"/><path class="cls-71" d="M812.86,574.48h0a18.75,18.75,0,0,1-.89,4.91,53,53,0,0,1-3.57,8.92,18.53,18.53,0,0,1-2.23,3.12h0l-.89.89a41.8,41.8,0,0,1-4,4.46l-.89.89L799,599H725.46c-.89-.45-1.34-1.34-1.78-1.78-3.57-3.57-10.26-11.6-11.15-23.19h0A31.77,31.77,0,0,1,717.88,554c1.79-2.67,3.12-5.35,5.35-7.58,1.34-1.78,3.13-3.57,4.46-5.35l.9-.89h0a50.46,50.46,0,0,1,4.9-4.91c2.23-2.23,4-4.46,5.8-6.24,3.56-4,7.13-7.58,10.25-11.59a31,31,0,0,0,3.13-4.91,18.3,18.3,0,0,0,2.23-4,28.72,28.72,0,0,0,2.67-8,1.62,1.62,0,0,0,.45-1.34c.89-3.12,1.33-6.69,2.23-10.7.44-1.34.44-2.67.89-4.46v-.89c0-.89.45-1.34.45-1.78a26.14,26.14,0,0,1,.89-3.12c.45-1.34.45-3.13.89-4.46v-1.34h0a1.57,1.57,0,0,0,.45.89v.45c.44,2.23.89,4.46,1.33,6.24,0,.44.45.89.45,1.34s.45.89.45,1.33.44.9.44,1.34v.45c.45,2.23.9,4.46,1.34,6.24a71.7,71.7,0,0,1,1.78,8.47,64.11,64.11,0,0,0,3.57,9.81A13.23,13.23,0,0,1,775,512.5c4,6.69,10.71,14.27,23.19,27.2l1.34,1.34A52.49,52.49,0,0,1,812,559.77h0a1.62,1.62,0,0,1,.45,1.34h0C812.42,565.12,813.31,570,812.86,574.48Z"/><path class="cls-72" d="M805.73,578.05A70.86,70.86,0,0,1,804,588.31c0,1.34-.9,2.67-1.34,4A23.43,23.43,0,0,1,799,599H734.38c-6.68-5.8-12.93-12-17.39-19.17a41.79,41.79,0,0,1-3.56-5.8h0A31.71,31.71,0,0,1,718.78,554c1.78-2.67,3.12-5.35,5.35-7.58,1.34-1.78,3.12-3.57,4.46-5.35l.89-.89h0a51.65,51.65,0,0,1,4.91-4.91c2.23-2.23,4-4.46,5.79-6.24,3.57-4,7.14-7.58,10.26-11.59a29.74,29.74,0,0,0,3.12-4.91,17.51,17.51,0,0,0,2.23-4,28.44,28.44,0,0,0,2.68-8,34.13,34.13,0,0,1,5.35,3.12l4,2.68c1.34.89,3.13,2.23,4.46,3.12a13.57,13.57,0,0,1,1.79,3.57c4,6.69,10.7,14.27,23.18,27.2A110.9,110.9,0,0,1,804,557.09a81.83,81.83,0,0,1,2.23,10.26,25.18,25.18,0,0,1,.45,5.8C805.73,574.48,805.73,576.27,805.73,578.05Z"/><path class="cls-71" d="M812.86,574.48h0a18.75,18.75,0,0,1-.89,4.91,53,53,0,0,1-3.57,8.92,18.53,18.53,0,0,1-2.23,3.12h0l-.89.89a41.8,41.8,0,0,1-4,4.46l-.89.89L799,599H758.46c-11.59-5.8-22.3-15.16-31.21-28.09a108.09,108.09,0,0,1-9.37-17.39c1.78-2.68,3.12-5.36,5.35-7.58,1.34-1.79,3.12-3.57,4.46-5.36l.89-.89h0a51.49,51.49,0,0,1,4.91-4.9c2.23-2.23,4-4.46,5.8-6.25,3.56-4,7.13-7.58,10.25-11.59a29.68,29.68,0,0,0,3.12-4.9,17.56,17.56,0,0,0,2.23-4,28.38,28.38,0,0,0,2.68-8,1.64,1.64,0,0,0,.45-1.34c.89-3.12,1.33-6.69,2.22-10.7a8.41,8.41,0,0,0,3.13.89c.89.44,1.33.44,1.78.89.89.45,1.34.45,1.78.89a71.86,71.86,0,0,1,1.79,8.47,64.1,64.1,0,0,0,3.56,9.81,13.27,13.27,0,0,1,1.79,3.57c4,6.69,10.7,14.27,23.19,27.2l1.33,1.34a52.53,52.53,0,0,1,12.49,18.73h0a1.65,1.65,0,0,1,.44,1.34h0C812.42,565.12,813.31,570,812.86,574.48Z"/><path class="cls-72" d="M812.86,574.48h0a18.75,18.75,0,0,1-.89,4.91,53,53,0,0,1-3.57,8.92,18.53,18.53,0,0,1-2.23,3.12h0l-.89.89a41.8,41.8,0,0,1-4,4.46l-.89.89L799,599h-25a70.91,70.91,0,0,1-12-5.35,87.54,87.54,0,0,1-29-26.76A93.07,93.07,0,0,1,722.34,546c1.34-1.79,3.12-3.57,4.46-5.36l.89-.89h0a49.27,49.27,0,0,1,4.91-4.9c2.23-2.23,4-4.46,5.79-6.25,3.57-4,7.14-7.58,10.26-11.59a29.68,29.68,0,0,0,3.12-4.9,18.36,18.36,0,0,0,2.23-4,28.38,28.38,0,0,0,2.68-8,1.67,1.67,0,0,0,.44-1.34c.9-3.12,1.34-6.69,2.23-10.7.45-1.34.45-2.68.89-4.46,0-.45,0-.45.45-.9.89,0,1.34.45,2.23.45a3.34,3.34,0,0,0,1.78.45h.45c.45,2.23.89,4.46,1.34,6.24a73.77,73.77,0,0,1,1.78,8.47,63.07,63.07,0,0,0,3.57,9.81,13.53,13.53,0,0,1,1.78,3.57c4,6.69,10.7,14.27,23.19,27.2l1.34,1.34a52.62,52.62,0,0,1,12.48,18.73h0a1.61,1.61,0,0,1,.45,1.33h0C812.42,565.12,813.31,570,812.86,574.48Z"/><path class="cls-71" d="M812.86,574.48h0a18.75,18.75,0,0,1-.89,4.91,53,53,0,0,1-3.57,8.92,18.53,18.53,0,0,1-2.23,3.12h0a11.16,11.16,0,0,1-3.56.44c-11.6.9-24.08-3.56-36.12-11.59-1.34-.89-2.23-1.78-3.57-2.67a90.56,90.56,0,0,1-17.84-19.18,87,87,0,0,1-11.59-23.19c2.23-2.23,4-4.46,5.8-6.24,3.56-4,7.13-7.58,10.25-11.59a30.17,30.17,0,0,0,3.12-4.91,17.51,17.51,0,0,0,2.23-4,28.44,28.44,0,0,0,2.68-8,1.62,1.62,0,0,0,.45-1.34c.89-3.12,1.33-6.68,2.22-10.7.45-1.34.45-2.67.9-4.46,0-.44,0-.44.44-.89v-1.78a27.92,27.92,0,0,1,.9-3.12c.44-1.34.44-3.13.89-4.46h.45c.44,2.23.89,4.46,1.33,6.24,0,.45.45.89.45,1.34s.45.89.45,1.33.44.9.44,1.34v.45c.45,2.23.89,4.46,1.34,6.24a71.7,71.7,0,0,1,1.78,8.47,63.07,63.07,0,0,0,3.57,9.81A13.23,13.23,0,0,1,775,512.5c4,6.69,10.7,14.27,23.19,27.2l1.34,1.34A52.49,52.49,0,0,1,812,559.77h0a1.62,1.62,0,0,1,.45,1.34h0C812.42,565.12,813.31,570,812.86,574.48Z"/><path class="cls-72" d="M812.86,574.48h0a18.75,18.75,0,0,1-.89,4.91,53,53,0,0,1-3.57,8.92h-4.46a63.56,63.56,0,0,1-24.08-7.58,76.64,76.64,0,0,1-16.5-12.49c-4.45-4-8-8.92-11.59-13.38a94.84,94.84,0,0,1-12-25.41c3.57-4,7.14-7.58,10.26-11.6a31.05,31.05,0,0,0,3.12-4.9,18.36,18.36,0,0,0,2.23-4,28.35,28.35,0,0,0,2.67-8,1.63,1.63,0,0,0,.45-1.34c.89-3.12,1.34-6.69,2.23-10.7.45-1.34.45-2.68.89-4.46v-.89c0-.9.45-1.34.45-1.79a26.7,26.7,0,0,1,.89-3.12c.45-1.34.45-3.12.89-4.46v-.44l.45-.9h0v1.34c.45,2.23.89,4.46,1.34,6.25,0,.44.44.89.44,1.33s.45.89.45,1.34.45.89.45,1.34v.44c.44,2.23.89,4.46,1.33,6.25a71.44,71.44,0,0,1,1.79,8.47,64.1,64.1,0,0,0,3.56,9.81,13.27,13.27,0,0,1,1.79,3.57c4,6.69,10.7,14.27,23.18,27.2.45.44.9.89,1.34,1.34a52.5,52.5,0,0,1,12.49,18.72h0a1.67,1.67,0,0,1,.44,1.34h0C812.42,565.12,813.31,570,812.86,574.48Z"/><path class="cls-71" d="M812.86,574.48h0a18.75,18.75,0,0,1-.89,4.91c-2.23-.45-4.46-.89-6.24-1.34a63.07,63.07,0,0,1-9.81-3.57h0c-12-5.35-23.64-15.16-33-28.53-.45-.45-.45-.45-.45-.9-6.24-8.47-10.25-18.28-12.93-28.54a29.68,29.68,0,0,0,3.12-4.9,17.72,17.72,0,0,0,2.23-4,28.54,28.54,0,0,0,2.68-8,1.63,1.63,0,0,0,.45-1.34c.89-3.12,1.33-6.69,2.22-10.7.45-1.34.45-2.68.9-4.46,0-.45,0-.45.44-.89v-1.79a29.25,29.25,0,0,1,.9-3.12c.44-1.33.44-3.12.89-4.46v-.44l.45-.89h0a1.58,1.58,0,0,0,.44.89v.44c.45,2.23.89,4.46,1.34,6.25,0,.44.45.89.45,1.33s.44.9.44,1.34.45.89.45,1.34v.45c.44,2.23.89,4.46,1.33,6.24a71.86,71.86,0,0,1,1.79,8.47,64.1,64.1,0,0,0,3.56,9.81,13.27,13.27,0,0,1,1.79,3.57c4,6.69,10.7,14.27,23.19,27.2l1.33,1.34a52.53,52.53,0,0,1,12.49,18.73h0a1.64,1.64,0,0,1,.44,1.33h0C812.42,565.12,813.31,570,812.86,574.48Z"/><path class="cls-72" d="M812.86,574.48h0c-2.67-.89-4.9-1.33-7.13-2.23a19,19,0,0,0-4.46-1.78h0c-12-5.8-23.19-15.61-32.55-28.54a79.55,79.55,0,0,1-6.25-10.25c-3.12-6.25-5.79-12.49-7.13-19.18a12.88,12.88,0,0,1-.89-4,28.4,28.4,0,0,0,2.67-8,1.62,1.62,0,0,0,.45-1.34c.89-3.12,1.34-6.69,2.23-10.7.44-1.34.44-2.67.89-4.46v-.89c0-.89.45-1.34.45-1.78a26.14,26.14,0,0,1,.89-3.12c.45-1.34.45-3.13.89-4.46v-.45l.45-.89h0v1.34c.45,2.23.89,4.46,1.34,6.24,0,.44.44.89.44,1.34s.45.89.45,1.33.45.9.45,1.34v.45c.44,2.23.89,4.46,1.33,6.24a73.94,73.94,0,0,1,1.79,8.47,63.05,63.05,0,0,0,3.56,9.81,13.57,13.57,0,0,1,1.79,3.57c4,6.69,10.7,14.27,23.18,27.2L799,541a52.53,52.53,0,0,1,12.49,18.73h0a1.65,1.65,0,0,1,.44,1.34h0C812.42,565.12,813.31,570,812.86,574.48Z"/><path class="cls-71" d="M811.08,561.11c-.45-.45-.45-.45-.89-.45-2.68-1.34-4.91-2.67-7.14-4a88.48,88.48,0,0,1-23.19-23.19A100.44,100.44,0,0,1,769.16,513a39.78,39.78,0,0,1-2.23-6.69,17.94,17.94,0,0,1-1.34-6.69,67.35,67.35,0,0,1-.89-9.36v-7.59c0,.45.45,1.34.45,1.79.44,2.23.89,4.46,1.34,6.24.89,3.12,1.33,6.24,1.78,8.47a64.1,64.1,0,0,0,3.56,9.81,13.27,13.27,0,0,1,1.79,3.57c4,6.69,10.7,14.27,23.19,27.2l1.33,1.34a52.53,52.53,0,0,1,12.49,18.73C810.63,560.21,811.08,560.66,811.08,561.11Z"/><g class="cls-35"><path class="cls-73" d="M812.86,574.48h0a18.75,18.75,0,0,1-.89,4.91,53,53,0,0,1-3.57,8.92,18.53,18.53,0,0,1-2.23,3.12h0c-.44.44-.44.89-.89.89a41.8,41.8,0,0,1-4,4.46l-.89.89c-.9.89-1.34.89-1.34,1.34H725.46l-1.78-1.78c-3.57-3.57-10.26-11.6-11.15-23.19h0A31.77,31.77,0,0,1,717.88,554c1.79-2.67,3.12-5.35,5.35-7.58,1.34-1.78,3.13-3.57,4.46-5.35l.9-.89c4.9,19.17,17.83,34.33,34.33,39.24a10.64,10.64,0,0,0,3.57.89,49.18,49.18,0,0,0,7.58.89,40,40,0,0,0,21.4-6.24,66.85,66.85,0,0,0,5.8-4l4-4a59.45,59.45,0,0,0,4.91-6.24l.44-.89a1.62,1.62,0,0,1,.45,1.34h0A33.41,33.41,0,0,1,812.86,574.48Z"/></g><path class="cls-71" d="M773.18,512.5H752.66a17.51,17.51,0,0,0,2.23-4,28.44,28.44,0,0,0,2.68-8,1.62,1.62,0,0,0,.45-1.34c.89-3.12,1.33-6.68,2.22-10.7.45-1.34.45-2.67.9-4.46,0-.44,0-.44.44-.89v-1.78a27.92,27.92,0,0,1,.9-3.12c.44-1.34.44-3.13.89-4.46v-.45l.45-.89h0v1.34c.44,2.23.89,4.46,1.33,6.24,0,.45.45.89.45,1.34s.45.89.45,1.33.44.9.44,1.34v.45c.45,2.23.89,4.46,1.34,6.24a71.7,71.7,0,0,1,1.78,8.47,63.07,63.07,0,0,0,3.57,9.81C771.84,509.83,772.29,511.16,773.18,512.5Z"/><path class="cls-69" d="M767.83,499.12H757.57c.89-3.12,1.34-6.68,2.23-10.7.45-1.34.45-2.67.89-4.46,0-.44,0-.44.45-.89v-1.78a30.54,30.54,0,0,1,.89-3.12c.45-1.34.45-3.13.9-4.46v-.45l.44-.89h0a1.57,1.57,0,0,0,.45.89v.45c.44,2.23.89,4.46,1.33,6.24,0,.45.45.89.45,1.34s.45.89.45,1.33.44.9.44,1.34v.45c.45,2.23.9,4.46,1.34,6.24C766.93,493.77,767.38,496.45,767.83,499.12Z"/><polygon class="cls-74" points="764.7 481.29 761.14 481.29 761.58 477.27 761.58 473.71 762.92 437.59 762.92 437.14 764.26 473.71 764.7 480.39 764.7 481.29"/><path class="cls-75" d="M768.27,479.06a1.64,1.64,0,0,1-.45,1.34,6.31,6.31,0,0,1-3.56,4,.44.44,0,0,0-.45.44h0a3.34,3.34,0,0,1-1.78.45h0c-.89,0-1.34-.45-2.23-.45-3.12-1.33-4.46-4.45-3.12-7.13a5,5,0,0,1,3.56-3.12l.9-.45c.44,0,.89-.44,1.33-.44h.45a1.67,1.67,0,0,1,1.34.44A4,4,0,0,1,768.27,479.06Z"/><path class="cls-74" d="M768.27,479.06a1.64,1.64,0,0,1-.45,1.34,4.05,4.05,0,0,1-2.23.44c-.89,0-1.33,0-1.78-.44h-.45a4.61,4.61,0,0,1-2.67-2.23c-.45-.45-.45-.45-.45-.9a6.4,6.4,0,0,1-.89-2.67,1.63,1.63,0,0,1,.45-1.34l.89-.45c.45,0,.89-.44,1.34-.44h.89a1.67,1.67,0,0,1,1.34.44A6.74,6.74,0,0,1,768.27,479.06Z"/><rect class="cls-76" x="705.4" y="708.71" width="115.49" height="101.67"/><rect class="cls-77" x="705.4" y="725.65" width="115.49" height="6.24"/><rect class="cls-77" x="711.19" y="725.65" width="4.46" height="85.17"/><rect class="cls-77" x="812.42" y="725.65" width="4.46" height="85.17"/><rect class="cls-77" x="741.52" y="725.65" width="4.46" height="85.17"/><rect class="cls-77" x="780.31" y="725.65" width="4.46" height="85.17"/><rect class="cls-78" x="705.4" y="708.71" width="115.49" height="6.24"/><rect class="cls-79" x="704.95" y="705.14" width="115.49" height="20.07"/><rect class="cls-77" x="705.4" y="702.46" width="115.49" height="6.69"/><polygon class="cls-80" points="724.57 720.3 705.4 809.93 743.75 809.93 724.57 720.3"/><polygon class="cls-11" points="741.07 810.38 741.07 810.38 707.63 810.38 707.63 810.38 707.63 809.93 711.19 793.88 715.65 774.25 724.57 732.34 741.07 809.93 741.07 810.38"/><rect class="cls-81" x="718.33" y="761.77" width="12.48" height="48.61"/><rect class="cls-82" x="720.11" y="763.55" width="8.92" height="45.04"/><polygon class="cls-80" points="762.92 720.3 743.75 809.93 782.54 809.93 762.92 720.3"/><polygon class="cls-11" points="779.87 810.38 779.87 810.38 745.98 810.38 745.98 810.38 746.42 809.93 756.68 761.77 762.92 732.78 762.92 732.34 779.87 809.93 779.87 810.38"/><rect class="cls-81" x="756.68" y="761.77" width="12.48" height="48.61"/><rect class="cls-82" x="758.46" y="763.55" width="8.92" height="45.04"/><polygon class="cls-80" points="801.27 720.3 782.54 809.93 820.89 809.93 801.27 720.3"/><polygon class="cls-11" points="801.27 732.34 784.77 810.38 818.21 810.38 801.27 732.34"/><rect class="cls-81" x="795.03" y="761.77" width="12.48" height="48.61"/><rect class="cls-82" x="796.81" y="763.55" width="8.92" height="45.04"/><rect class="cls-83" x="705.4" y="698.45" width="115.49" height="3.57"/><rect class="cls-84" x="705.4" y="679.27" width="115.49" height="20.07"/><path class="cls-52" d="M724.57,679.27a19,19,0,0,0-19.17,19.18h38.35A19.05,19.05,0,0,0,724.57,679.27Z"/><path class="cls-53" d="M724.57,682a16.46,16.46,0,0,0-16.5,16.5h33A16.46,16.46,0,0,0,724.57,682Z"/><path class="cls-54" d="M724.57,683.29a15,15,0,0,0-15.16,15.16h30.32a15,15,0,0,0-15.16-15.16Z"/><path class="cls-55" d="M724.57,686.41a12,12,0,0,0-12,12h24.08A12,12,0,0,0,724.57,686.41Z"/><rect class="cls-85" x="719.67" y="688.64" width="9.81" height="9.81"/><path class="cls-52" d="M762.92,679.27a19,19,0,0,0-19.17,19.18H782.1A19.05,19.05,0,0,0,762.92,679.27Z"/><path class="cls-53" d="M762.92,682a16.46,16.46,0,0,0-16.5,16.5h33C779.86,689.08,772.29,682,762.92,682Z"/><path class="cls-54" d="M762.92,683.29a15,15,0,0,0-15.16,15.16h30.32a15,15,0,0,0-15.16-15.16Z"/><path class="cls-55" d="M762.92,686.41a12,12,0,0,0-12,12H775a12,12,0,0,0-12-12Z"/><rect class="cls-85" x="758.02" y="688.64" width="9.81" height="9.81"/><path class="cls-52" d="M801.27,679.27a19,19,0,0,0-19.17,19.18h38.35C820.89,687.75,812,679.27,801.27,679.27Z"/><path class="cls-53" d="M801.27,682a16.46,16.46,0,0,0-16.5,16.5h33c.44-9.37-7.14-16.5-16.5-16.5Z"/><path class="cls-54" d="M801.27,683.29a15,15,0,0,0-15.16,15.16h30.32a15,15,0,0,0-15.16-15.16Z"/><path class="cls-55" d="M801.27,686.41a12,12,0,0,0-12,12h24.08c.44-6.69-4.91-12-12-12Z"/><rect class="cls-85" x="796.36" y="688.64" width="9.81" height="9.81"/><rect class="cls-84" x="715.65" y="662.78" width="91.41" height="16.05"/><path class="cls-52" d="M730.81,662.78a15,15,0,0,0-15.16,15.16H746A15,15,0,0,0,730.81,662.78Z"/><path class="cls-53" d="M730.81,665a12.94,12.94,0,0,0-12.93,12.93h26.31A13.63,13.63,0,0,0,730.81,665Z"/><path class="cls-54" d="M730.81,666.34a12,12,0,0,0-12,12h23.64A11.62,11.62,0,0,0,730.81,666.34Z"/><path class="cls-55" d="M730.81,668.57a9.42,9.42,0,0,0-9.36,9.37h19.17c-.44-4.91-4.45-9.37-9.81-9.37Z"/><rect class="cls-85" x="726.8" y="670.36" width="8.03" height="8.03"/><path class="cls-52" d="M761.14,662.78A15,15,0,0,0,746,677.94H776.3A15,15,0,0,0,761.14,662.78Z"/><path class="cls-53" d="M761.14,665a12.93,12.93,0,0,0-12.93,12.93h26.31A13.64,13.64,0,0,0,761.14,665Z"/><path class="cls-54" d="M761.14,666.34a12,12,0,0,0-12,12h23.63c0-7.13-4.9-12-11.59-12Z"/><path class="cls-55" d="M761.14,668.57a9.43,9.43,0,0,0-9.37,9.37H771C770.5,673,766.49,668.57,761.14,668.57Z"/><rect class="cls-85" x="757.12" y="670.36" width="8.03" height="8.03"/><path class="cls-52" d="M791.46,662.78a15,15,0,0,0-15.16,15.16h30.32C807.07,669.46,799.93,662.78,791.46,662.78Z"/><path class="cls-53" d="M791.46,665a12.93,12.93,0,0,0-12.93,12.93h26.31c0-7.14-6.25-12.93-13.38-12.93Z"/><path class="cls-54" d="M791.46,666.34a12,12,0,0,0-12,12h23.63c.45-7.13-4.9-12-11.59-12Z"/><path class="cls-55" d="M791.46,668.57a9.43,9.43,0,0,0-9.37,9.37h18.73a9.42,9.42,0,0,0-9.36-9.37Z"/><rect class="cls-85" x="787.89" y="670.36" width="8.03" height="8.03"/><g class="cls-35"><path class="cls-42" d="M762.92,437.59V810.37H705.4V724.76H705V704.69h.45V678.83H729v-.45H715.65v-15.6H729V603.91h-2.68v-5.35h-.44c-.9-.44-1.34-1.33-1.79-1.78-3.56-3.57-10.25-11.59-11.15-23.19h0a31.75,31.75,0,0,1,5.36-20.06c1.78-2.68,3.12-5.36,5.35-7.58,1.34-1.79,3.12-3.57,4.46-5.36l.89-.89h0a49.27,49.27,0,0,1,4.91-4.9c2.23-2.23,4-4.46,5.79-6.25,3.57-4,7.14-7.58,10.26-11.59a30.35,30.35,0,0,0,3.12-4.9,18.36,18.36,0,0,0,2.23-4,28.38,28.38,0,0,0,2.68-8,1.67,1.67,0,0,0,.44-1.34c.89-3.12,1.34-6.69,2.23-10.7.45-1.34.45-2.68.89-4.46-3.12-1.34-4.46-4.46-3.12-7.14a5,5,0,0,1,3.57-3.12l.89-.45Z"/></g><rect class="cls-67" x="423.58" y="714.95" width="49.05" height="71.35"/><rect class="cls-68" x="423.58" y="714.95" width="49.05" height="2.23"/><rect class="cls-68" x="423.58" y="720.75" width="49.05" height="2.23"/><rect class="cls-68" x="423.58" y="749.28" width="49.05" height="5.35"/><rect class="cls-69" x="423.58" y="711.38" width="49.05" height="4.01"/><path class="cls-86" d="M476.19,706.92h0v4.46H420v-4.46Z"/><rect class="cls-87" x="408.86" y="753.3" width="78.04" height="57.08"/><path class="cls-52" d="M448.1,809.93H408.86a19.8,19.8,0,0,1,19.62-19.62C439.18,790.75,448.1,799.23,448.1,809.93Z"/><path class="cls-88" d="M445.43,809.93H411.54a16.28,16.28,0,0,1,16.94-16.5A16.85,16.85,0,0,1,445.43,809.93Z"/><path class="cls-89" d="M443.64,809.93H412.87a15.39,15.39,0,0,1,30.77,0Z"/><path class="cls-52" d="M486.9,809.93H447.66V807.7a19.8,19.8,0,0,1,21.4-17.39c10.26,1.34,17.84,9.81,17.84,19.62Z"/><path class="cls-88" d="M467.28,793.43a16.94,16.94,0,0,0-16.95,16.94h33.89a16.65,16.65,0,0,0-16.94-16.94Z"/><path class="cls-89" d="M467.28,794.77a15,15,0,0,0-15.17,15.16h30.77A15.42,15.42,0,0,0,467.28,794.77Z"/><path class="cls-52" d="M422.24,777.82a12.94,12.94,0,0,0-12.93,12.93h26.31c-.9-7.13-6.25-12.93-13.38-12.93Z"/><path class="cls-88" d="M422.24,779.61a11,11,0,0,0-11.15,11.14h22.3C432.94,784.51,428,779.61,422.24,779.61Z"/><path class="cls-89" d="M422.24,780.5A10.09,10.09,0,0,0,412,790.75h20.07a10,10,0,0,0-9.81-10.25Z"/><path class="cls-52" d="M448.1,777.82a12.94,12.94,0,0,0-12.93,12.93h26.31a13.64,13.64,0,0,0-13.38-12.93Z"/><path class="cls-88" d="M448.1,779.61A11,11,0,0,0,437,790.75h22.3a11,11,0,0,0-11.15-11.14Z"/><path class="cls-89" d="M448.1,780.5a10.09,10.09,0,0,0-10.25,10.25h20.06c.45-5.79-4.46-10.25-9.81-10.25Z"/><path class="cls-52" d="M474,777.82A12.94,12.94,0,0,0,461,790.75h26.31A13.63,13.63,0,0,0,474,777.82Z"/><path class="cls-88" d="M474,779.61a11,11,0,0,0-11.14,11.14h22.29A11,11,0,0,0,474,779.61Z"/><path class="cls-89" d="M474,780.5a10.09,10.09,0,0,0-10.25,10.25h20.07c.44-5.79-4-10.25-9.82-10.25Z"/><path class="cls-52" d="M422.24,764.45a12.93,12.93,0,0,0-12.93,12.93h26.31C434.72,770.24,429.37,764.45,422.24,764.45Z"/><path class="cls-88" d="M422.24,766.23a11,11,0,0,0-11.15,11.15h22.3C432.94,771.13,428,766.23,422.24,766.23Z"/><path class="cls-89" d="M422.24,767.57A10.09,10.09,0,0,0,412,777.82h20.07a10,10,0,0,0-9.81-10.25Z"/><path class="cls-52" d="M448.1,764.45a12.94,12.94,0,0,0-12.93,12.93h26.31a13.63,13.63,0,0,0-13.38-12.93Z"/><path class="cls-88" d="M448.1,766.23A11,11,0,0,0,437,777.38h22.3a11.33,11.33,0,0,0-11.15-11.15Z"/><path class="cls-89" d="M448.1,767.57a10.09,10.09,0,0,0-10.25,10.25h20.06c.45-5.79-4.46-10.25-9.81-10.25Z"/><path class="cls-52" d="M474,764.45A12.94,12.94,0,0,0,461,777.38h26.31A13.62,13.62,0,0,0,474,764.45Z"/><path class="cls-88" d="M474,766.23a11,11,0,0,0-11.14,11.15h22.29A11.32,11.32,0,0,0,474,766.23Z"/><path class="cls-89" d="M474,767.57a10.09,10.09,0,0,0-10.25,10.25h20.07c.44-5.79-4-10.25-9.82-10.25Z"/><rect class="cls-90" x="408.86" y="753.3" width="78.04" height="8.03"/><path class="cls-91" d="M486,688.64a8.38,8.38,0,0,1-.9,3.57h0a4.05,4.05,0,0,0-.44,2.23c-.45,1.33-.9,2.23-1.34,3.56-.45.45-.45,1.34-.89,1.79a9.46,9.46,0,0,1-1.79,2.67,22.93,22.93,0,0,1-4.46,4.91l-.44.44-.45.45H419.12a5.44,5.44,0,0,0-1.34-.89l-.45-.45c-2.67-2.67-8-8.92-8.47-17.84h0c-.45-5.35,1.34-10.7,4-15.6a64.71,64.71,0,0,1,4-5.8h0a29.14,29.14,0,0,1,3.56-4l.89-.89a28.65,28.65,0,0,0,3.57-4,45,45,0,0,0,4.46-4.9c2.68-3.12,5.35-5.8,7.58-8.92a24.55,24.55,0,0,1,2.68-3.57,26.61,26.61,0,0,0,1.78-3.12,35.39,35.39,0,0,0,2.23-6.24,1.53,1.53,0,0,1,.45-.89,36.18,36.18,0,0,0,1.78-8c.45-1.34.45-2.23.89-3.57v-.89c0-.45.45-.89.45-1.34a5.59,5.59,0,0,0,.45-2.67,10.41,10.41,0,0,1,.89-3.57v-.45c0-.44,0-.44.44-.89v1.78a22.9,22.9,0,0,1,.9,4.91c0,.45,0,.89.44.89,0,.45,0,.89.45.89V620a22.64,22.64,0,0,1,.89,4.9c.45,2.68.9,4.46,1.34,6.69.89,2.68,1.78,5.35,2.68,7.58l1.33,2.68c3.12,5.35,8.47,10.7,17.84,21l.89,1.33a39.06,39.06,0,0,1,9.81,14.27c0,.45.45.45.45.89s.45.9.45,1.34V682c.44,1.34.44,2.67.89,4C486,686,486,687.3,486,688.64Z"/><path class="cls-92" d="M480.65,691.31c-.44,2.68-.89,5.36-1.33,8-.45.89-.45,2.23-.9,3.12a39.33,39.33,0,0,1-2.23,4.46h0l-.44.45h-49.5l-.89-.45a65.41,65.41,0,0,1-12.93-14.27c-.9-1.34-1.79-3.12-2.68-4.46h0c-.45-5.35,1.34-10.7,4-15.6a64.71,64.71,0,0,1,4-5.8h0a28.57,28.57,0,0,1,3.56-4l.9-.9a28.57,28.57,0,0,0,3.56-4,44,44,0,0,0,4.46-4.9c2.68-3.13,5.35-5.8,7.58-8.92a25.29,25.29,0,0,1,2.68-3.57,25.23,25.23,0,0,0,1.78-3.12,35.68,35.68,0,0,0,2.23-6.24c1.34.89,3.12,1.33,4.46,2.22a25.53,25.53,0,0,0,3.12,1.79c1.34.89,2.23,1.78,3.57,2.67l1.34,2.68c3.12,5.35,8.47,10.7,17.83,21a45.41,45.41,0,0,1,4.91,12.93,51.15,51.15,0,0,1,1.78,8,15,15,0,0,1,.45,4.46A6.36,6.36,0,0,0,480.65,691.31Z"/><path class="cls-91" d="M486,688.64a8.38,8.38,0,0,1-.9,3.57h0a4.05,4.05,0,0,0-.44,2.23c-.45,1.33-.9,2.23-1.34,3.56-.45.45-.45,1.34-.89,1.79a9.46,9.46,0,0,1-1.79,2.67,22.93,22.93,0,0,1-4.46,4.91l-.44.44-.45.45H444.09c0-.45-.9-.45-1.34-.45A60.44,60.44,0,0,1,420,686.86a53.12,53.12,0,0,1-7.14-12.94,64.48,64.48,0,0,1,4-5.79h0a29.19,29.19,0,0,1,3.56-4l.89-.89a28.6,28.6,0,0,0,3.57-4,45,45,0,0,0,4.46-4.91c2.68-3.12,5.35-5.79,7.58-8.92a25,25,0,0,1,2.68-3.56,26.61,26.61,0,0,0,1.78-3.12,35.49,35.49,0,0,0,2.23-6.25,1.57,1.57,0,0,1,.45-.89,36.05,36.05,0,0,0,1.78-8c.89.45,1.78.45,2.23.9a1.66,1.66,0,0,0,1.34.44,1.61,1.61,0,0,0,1.33.45c.45,2.67.9,4.46,1.34,6.69.89,2.67,1.78,5.35,2.68,7.58l1.33,2.67c3.13,5.35,8.48,10.7,17.84,21l.89,1.34a39,39,0,0,1,9.81,14.27c0,.44.45.44.45.89s.45.89.45,1.34a1.65,1.65,0,0,1,.44,1.34c.45,1.33.45,2.67.9,4C486,686,486,687.3,486,688.64Z"/><path class="cls-92" d="M486,688.64a8.38,8.38,0,0,1-.9,3.57h0a4.05,4.05,0,0,0-.44,2.23c-.45,1.33-.9,2.23-1.34,3.56-.45.45-.45,1.34-.89,1.79a9.46,9.46,0,0,1-1.79,2.67,22.93,22.93,0,0,1-4.46,4.91l-.44.44-.45.45H456.13l-1.79-.45a59.39,59.39,0,0,1-7.58-3.56,60.3,60.3,0,0,1-21.85-20.52,69.07,69.07,0,0,1-8.47-16.05h0a28.6,28.6,0,0,1,3.57-4l.89-.89a28.65,28.65,0,0,0,3.57-4,45,45,0,0,0,4.46-4.9c2.67-3.12,5.35-5.8,7.58-8.92a24.54,24.54,0,0,1,2.67-3.57,25.53,25.53,0,0,0,1.79-3.12A35.39,35.39,0,0,0,443.2,632a1.54,1.54,0,0,1,.44-.89,35.59,35.59,0,0,0,1.79-8c.44-1.34.44-2.23.89-3.57v-.89c.45,0,1.34.45,1.78.45s.89.44,1.34.44h0a22.82,22.82,0,0,1,.89,4.91c.45,2.67.89,4.46,1.34,6.69.89,2.67,1.78,5.35,2.67,7.58.45.89.9,1.78,1.34,2.67,3.12,5.35,8.47,10.7,17.84,21l.89,1.34a39,39,0,0,1,9.81,14.27c0,.44.45.44.45.89s.44.89.44,1.34v1.33c.45,1.34.45,2.68.9,4S486,687.3,486,688.64Z"/><path class="cls-91" d="M486,688.64a8.38,8.38,0,0,1-.9,3.57h0a4.05,4.05,0,0,0-.44,2.23c-.45,1.33-.9,2.23-1.34,3.56-.45.45-.45,1.34-.89,1.79a9.46,9.46,0,0,1-1.79,2.67,5.59,5.59,0,0,1-2.67.45c-8.92.89-18.73-2.68-27.65-8.92h0a9.11,9.11,0,0,0-2.68-1.78,70,70,0,0,1-22.74-32.56,45,45,0,0,0,4.46-4.9c2.68-3.12,5.35-5.8,7.58-8.92a25.11,25.11,0,0,1,2.68-3.57,25.82,25.82,0,0,0,1.78-3.12,35.39,35.39,0,0,0,2.23-6.24,1.53,1.53,0,0,1,.45-.89,36.18,36.18,0,0,0,1.78-8c.45-1.34.45-2.23.89-3.57v-.89c0-.44.45-.89.45-1.34a5.59,5.59,0,0,0,.45-2.67c.44-1.34.44-2.23.89-3.57H449a22.8,22.8,0,0,1,.9,4.91v.89c.44.44,0,.89.44.89a1.63,1.63,0,0,1,.45,1.34v.44a22.82,22.82,0,0,1,.89,4.91c.45,2.67.9,4.46,1.34,6.69.89,2.67,1.78,5.35,2.68,7.58l1.33,2.67c3.12,5.35,8.47,10.71,17.84,21l.89,1.34a39,39,0,0,1,9.81,14.27c0,.44.45.44.45.89a1.63,1.63,0,0,0,.45,1.34,1.65,1.65,0,0,1,.44,1.34c.45,1.33.45,2.67.89,4C486,686,486,687.3,486,688.64Z"/><path class="cls-92" d="M486,688.64a8.38,8.38,0,0,1-.9,3.57h0a4.05,4.05,0,0,0-.44,2.23c-.45,1.33-.9,2.23-1.34,3.56-.45.45-.45,1.34-.89,1.79h-3.57a46.07,46.07,0,0,1-18.73-5.8,65.44,65.44,0,0,1-12.48-9.36,73,73,0,0,1-18.29-30.33c2.68-3.12,5.35-5.79,7.58-8.91a25.29,25.29,0,0,1,2.68-3.57,25.23,25.23,0,0,0,1.78-3.12,34,34,0,0,0,2.23-6.25,1.57,1.57,0,0,1,.45-.89,35.53,35.53,0,0,0,1.78-8c.45-1.34.45-2.23.9-3.57v-.89c0-.45.44-.9.44-1.34a5.63,5.63,0,0,0,.45-2.68,10.36,10.36,0,0,1,.89-3.56v-.45c0-.45,0-.45.45-.89v1.78a23.46,23.46,0,0,1,.89,4.91c0,.44,0,.89.45.89.44.44,0,.89.44.89v1.78a22.9,22.9,0,0,1,.9,4.91c.44,2.67.89,4.46,1.33,6.69.89,2.67,1.79,5.35,2.68,7.58l1.33,2.67c3.13,5.35,8.48,10.71,17.84,21l.89,1.34a39,39,0,0,1,9.82,14.27c0,.44.44.44.44.89s.45.89.45,1.34v1.34c.44,1.33.44,2.67.89,4C486,686,486,687.3,486,688.64Z"/><path class="cls-91" d="M486,688.64a8.38,8.38,0,0,1-.9,3.57h0c-1.78-.45-3.56-.45-4.9-.9-2.68-.89-5.36-1.78-7.58-2.67h0a64.92,64.92,0,0,1-25-21.4c-.44-.45-.44-.45-.44-.9a64.43,64.43,0,0,1-9.81-21.85,25,25,0,0,1,2.67-3.56,26.12,26.12,0,0,0,1.79-3.13,34.56,34.56,0,0,0,2.22-6.24,1.57,1.57,0,0,1,.45-.89,35.63,35.63,0,0,0,1.78-8c.45-1.33.45-2.23.9-3.56v-.9c0-.44.44-.89.44-1.33a5.65,5.65,0,0,0,.45-2.68c.45-1.34.45-2.23.89-3.57v-.44c0-.45,0-.45.45-.89v1.78a22.74,22.74,0,0,1,.89,4.9c0,.45,0,.9.45.9v.89a1.65,1.65,0,0,1,.44,1.34v.44a22.9,22.9,0,0,1,.9,4.91c.44,2.67.89,4.46,1.33,6.69.9,2.67,1.79,5.35,2.68,7.58l1.34,2.67c3.12,5.35,8.47,10.7,17.83,21l.9,1.34A39,39,0,0,1,486,677.94c0,.44.44.44.44.89s.45.89.45,1.34.45.89.45,1.33c.44,1.34.44,2.68.89,4C486,686,486,687.3,486,688.64Z"/><path class="cls-92" d="M486,688.64c-1.79-.45-3.57-1.34-5.36-1.78-1.33-.45-2.23-.9-3.56-1.34a58.37,58.37,0,0,1-24.53-21.85,69,69,0,0,1-4.46-7.58,62.57,62.57,0,0,1-5.79-15.16,28.83,28.83,0,0,0-.9-3.13,33.86,33.86,0,0,0,2.23-6.24,1.57,1.57,0,0,1,.45-.89,35.63,35.63,0,0,0,1.78-8c.45-1.33.45-2.23.9-3.56v-.9c0-.44.44-.89.44-1.33a5.65,5.65,0,0,0,.45-2.68c.44-1.34.44-2.23.89-3.57v-.44c0-.45,0-.45.45-.89v1.78a23.38,23.38,0,0,1,.89,4.9c0,.45,0,.9.45.9.44.44,0,.89.44.89a1.62,1.62,0,0,1,.45,1.34v.44c0,1.79.89,3.57.89,4.91.45,2.67.89,4.46,1.34,6.69.89,2.67,1.78,5.35,2.67,7.58.45.89.9,1.78,1.34,2.67,3.12,5.35,8.47,10.7,17.84,21l.89,1.34A39,39,0,0,1,486,677.94c0,.44.45.44.45.89s.44.89.44,1.34a1.61,1.61,0,0,1,.45,1.33,13.23,13.23,0,0,0,.89,4C486,686,486,687.3,486,688.64Z"/><path class="cls-91" d="M484.67,678.38l-.89-.44c-1.79-.89-3.57-2.23-5.36-3.12A68,68,0,0,1,460.59,657a57.6,57.6,0,0,1-8-15.61,33.46,33.46,0,0,1-1.78-4.9c-.45-1.34-.89-3.57-1.34-5.35a38.73,38.73,0,0,1-.89-7.14v-4.46l.89,4.91c.45,2.67.89,4.46,1.34,6.69.89,2.67,1.78,5.35,2.67,7.58.45.89.9,1.78,1.34,2.67,3.12,5.35,8.47,10.7,17.84,21l.89,1.34a39,39,0,0,1,9.81,14.27C484.67,677.94,484.67,678.38,484.67,678.38Z"/><g class="cls-35"><path class="cls-73" d="M486,688.64a8.38,8.38,0,0,1-.9,3.57h0a4.05,4.05,0,0,0-.44,2.23c-.45,1.33-.9,2.23-1.34,3.56-.45.45-.45,1.34-.89,1.79a9.46,9.46,0,0,1-1.79,2.67,22.93,22.93,0,0,1-4.46,4.91l-.44.44-.45.45H419.12a5.44,5.44,0,0,0-1.34-.89l-.45-.45c-2.67-2.67-8-8.92-8.47-17.84h0c-.45-5.35,1.34-10.7,4-15.6a64.71,64.71,0,0,1,4-5.8h0a29.14,29.14,0,0,1,3.56-4l.89-.89c4,14.71,13.83,26.75,26.31,30.32.9.44,1.79.44,2.68.89a24.79,24.79,0,0,0,9.81.45,34.8,34.8,0,0,0,16.94-7.59,35,35,0,0,0,6.69-7.58l.45-.44c0,.44.45.44.45.89a1.66,1.66,0,0,1,.44,1.34c0,.44.45.89.45,1.34.45,1.33.45,2.67.89,4C486,686.41,486,687.3,486,688.64Z"/></g><path class="cls-93" d="M456.13,641.37H440.52a25.23,25.23,0,0,0,1.78-3.12,33.86,33.86,0,0,0,2.23-6.24,1.53,1.53,0,0,1,.45-.89,35.63,35.63,0,0,0,1.78-8c.45-1.34.45-2.23.9-3.57v-.89c0-.45.44-.89.44-1.34a5.59,5.59,0,0,0,.45-2.67c.44-1.34.44-2.23.89-3.57v-.45c0-.44,0-.44.45-.89v1.79a23.26,23.26,0,0,1,.89,4.9c0,.45,0,.89.45.89v.89a1.67,1.67,0,0,1,.44,1.34V620a22.72,22.72,0,0,1,.9,4.9c.44,2.68.89,4.46,1.33,6.69.9,2.68,1.79,5.35,2.68,7.58C454.79,639.59,455.24,640.48,456.13,641.37Z"/><path class="cls-69" d="M452.11,631.12h-7.58a35.59,35.59,0,0,0,1.79-8c.44-1.34.44-2.23.89-3.57v-.89c0-.45.45-.89.45-1.34a5.7,5.7,0,0,0,.44-2.67c.45-1.34.45-2.23.89-3.57v-.45c0-.44,0-.44.45-.89v1.79a22.64,22.64,0,0,1,.89,4.9c0,.45,0,.89.45.89v.89a1.64,1.64,0,0,1,.45,1.34V620a23.26,23.26,0,0,1,.89,4.9A7.59,7.59,0,0,0,452.11,631.12Z"/><polygon class="cls-74" points="449.44 617.74 446.76 617.74 446.76 614.62 447.21 611.5 448.1 583.85 448.1 586.52 449 611.5 449.44 616.85 449.44 617.74"/><path class="cls-75" d="M452.11,615.51v.89a4.67,4.67,0,0,1-2.67,3.12H449a1.61,1.61,0,0,1-1.33.45h0c-.9,0-1.34-.45-1.79-.45a4.43,4.43,0,0,1-2.23-5.8,2.83,2.83,0,0,1,2.68-2.22c.45,0,.45,0,.45-.45a1.57,1.57,0,0,0,.89-.45h.89c.45,0,.89,0,.89.45A4.9,4.9,0,0,1,452.11,615.51Z"/><path class="cls-74" d="M452.11,615.51v.89c-.44.45-.89.45-1.78.45a1.64,1.64,0,0,1-1.34-.45h-.44a1.38,1.38,0,0,0-.89-.45l-.9-.89v-.89a3.4,3.4,0,0,1-.44-1.78c0-.45,0-.89.44-.89s.45,0,.45-.45a1.53,1.53,0,0,0,.89-.45H449c.45,0,.9,0,.9.45A7.11,7.11,0,0,1,452.11,615.51Z"/><g class="cls-94"><path class="cls-42" d="M448.1,586.52V809.93H408.86V752.85h14.72V710.93H420v-4h0a5.81,5.81,0,0,0-1.34-.89l-.44-.45c-2.68-2.67-8-8.91-8.48-17.83h0c-.44-5.35,1.34-10.71,4-15.61a64.08,64.08,0,0,1,4-5.8h0a29.17,29.17,0,0,1,3.57-4l.89-.89a28.65,28.65,0,0,0,3.57-4,45,45,0,0,0,4.46-4.9c2.67-3.12,5.35-5.8,7.58-8.92a25.1,25.1,0,0,1,2.67-3.57,24.8,24.8,0,0,0,1.79-3.12,35.39,35.39,0,0,0,2.23-6.24,1.54,1.54,0,0,1,.44-.89,36.15,36.15,0,0,0,1.79-8c.44-1.34.44-2.23.89-3.57a4.42,4.42,0,0,1-2.23-5.79,2.82,2.82,0,0,1,2.67-2.23c.45,0,.45,0,.45-.45l1.34-28.09Z"/></g><rect class="cls-76" x="472.63" y="724.31" width="111.03" height="97.66"/><rect class="cls-77" x="472.63" y="739.92" width="111.03" height="5.8"/><rect class="cls-77" x="478.42" y="739.92" width="4.01" height="81.6"/><rect class="cls-77" x="575.64" y="739.92" width="4.01" height="81.6"/><rect class="cls-77" x="507.85" y="739.92" width="4.01" height="81.6"/><rect class="cls-77" x="544.42" y="740.37" width="4.01" height="81.6"/><polygon class="cls-80" points="490.91 735.46 472.63 821.52 509.64 821.52 490.91 735.46"/><polygon class="cls-11" points="507.41 821.52 507.41 821.97 475.3 821.97 475.3 821.52 475.3 821.52 478.42 806.36 482.44 787.19 490.91 746.61 507.41 821.52"/><rect class="cls-81" x="485.11" y="775.15" width="12.04" height="46.38"/><rect class="cls-82" x="486.9" y="776.93" width="8.47" height="43.25"/><polygon class="cls-80" points="528.37 735.46 509.64 821.52 546.65 821.52 528.37 735.46"/><polygon class="cls-11" points="544.42 821.52 544.42 821.97 511.87 821.97 511.87 821.52 511.87 821.52 528.37 747.05 528.37 746.61 543.97 821.52 544.42 821.52"/><rect class="cls-81" x="522.12" y="775.15" width="12.04" height="46.38"/><rect class="cls-82" x="523.91" y="776.93" width="8.47" height="43.25"/><polygon class="cls-80" points="565.38 735.46 546.65 821.52 583.66 821.52 565.38 735.46"/><polygon class="cls-11" points="565.38 746.61 549.33 821.97 581.43 821.97 565.38 746.61"/><rect class="cls-81" x="559.14" y="775.15" width="12.04" height="46.38"/><rect class="cls-82" x="560.92" y="776.93" width="8.47" height="43.25"/><rect class="cls-78" x="472.63" y="724.31" width="111.03" height="6.24"/><rect class="cls-95" x="472.63" y="730.11" width="111.03" height="1.78"/><rect class="cls-77" x="472.63" y="717.62" width="111.03" height="6.24"/><rect class="cls-96" x="472.63" y="714.5" width="111.03" height="3.57"/><rect class="cls-67" x="488.23" y="619.08" width="79.82" height="89.18"/><rect class="cls-68" x="488.23" y="619.08" width="79.82" height="2.68"/><rect class="cls-68" x="488.23" y="627.99" width="79.82" height="2.68"/><rect class="cls-68" x="488.23" y="638.7" width="79.82" height="4.9"/><rect class="cls-97" x="488.23" y="614.17" width="79.82" height="4.9"/><rect class="cls-98" x="485.56" y="608.82" width="85.17" height="5.8"/><rect class="cls-99" x="488.23" y="682.4" width="79.82" height="26.31"/><polygon class="cls-100" points="501.61 698.45 475.3 698.45 475.75 695.77 488.24 651.63 488.24 651.18 497.15 682.4 501.17 695.77 501.61 698.45"/><polygon class="cls-100" points="514.99 651.18 501.61 698.45 528.37 698.45 514.99 651.18"/><polygon class="cls-100" points="541.3 651.18 528.37 698.45 554.68 698.45 541.3 651.18"/><polygon class="cls-100" points="568.05 651.18 554.68 698.45 581.43 698.45 568.05 651.18"/><path class="cls-96" d="M583.66,695.77V715h-111V695.77Z"/><path class="cls-52" d="M490.91,695.77a18.37,18.37,0,0,0-18.28,18.29h37c0-10.26-8-18.29-18.73-18.29Z"/><path class="cls-53" d="M490.91,698.45a16,16,0,0,0-16.05,16H507A16,16,0,0,0,490.91,698.45Z"/><path class="cls-54" d="M490.91,699.79a14.37,14.37,0,0,0-14.27,14.27h29c0-8-6.25-14.27-14.72-14.27Z"/><path class="cls-55" d="M490.91,702.46a11.8,11.8,0,0,0-11.59,11.6H502.5c.45-6.25-4.9-11.6-11.59-11.6Z"/><rect class="cls-85" x="486.45" y="705.14" width="9.36" height="9.36"/><path class="cls-52" d="M528.37,695.77a18.37,18.37,0,0,0-18.29,18.29h37a19,19,0,0,0-18.72-18.29Z"/><path class="cls-53" d="M528.37,698.45a16,16,0,0,0-16.06,16h32.11C544,705.58,536.84,698.45,528.37,698.45Z"/><path class="cls-54" d="M528.37,699.79a14.37,14.37,0,0,0-14.27,14.27h29A15.05,15.05,0,0,0,528.37,699.79Z"/><path class="cls-55" d="M528.37,702.46a11.81,11.81,0,0,0-11.6,11.6H540c-.44-6.25-5.35-11.6-11.59-11.6Z"/><rect class="cls-85" x="523.46" y="705.14" width="9.36" height="9.36"/><path class="cls-52" d="M565.38,695.77a18.37,18.37,0,0,0-18.29,18.29h37a18.74,18.74,0,0,0-18.72-18.29Z"/><path class="cls-53" d="M565.38,698.45a16,16,0,0,0-16.06,16h32.11C581,705.58,574.3,698.45,565.38,698.45Z"/><path class="cls-54" d="M565.38,699.79a14.37,14.37,0,0,0-14.27,14.27h29a14.74,14.74,0,0,0-14.71-14.27Z"/><path class="cls-55" d="M565.38,702.46a11.81,11.81,0,0,0-11.6,11.6H577A11.8,11.8,0,0,0,565.38,702.46Z"/><rect class="cls-85" x="560.47" y="705.14" width="9.36" height="9.36"/><path class="cls-98" d="M491.36,608.82h-5.8s-35.67-28.09,2.23-66.89c13.82-14.27,21.85-23.19,27.2-30.77h1.79c-4,6.69-10.26,14.72-20.07,26.76-.89,1.34-2.23,2.67-3.12,4C460.59,580.73,491.36,608.82,491.36,608.82Z"/><path class="cls-98" d="M502.06,549.07c-15.16,35.22,2.67,59.75,2.67,59.75H497.6s-25.86-28.09,1.34-66.44c.44-.45.44-.45.44-.89,10.26-14.27,16.06-23.19,19.62-30.77h2.23c-3.12,7.58-7.58,16-15.16,30.77A25,25,0,0,0,502.06,549.07Z"/><path class="cls-98" d="M523,511.16h3.12c-.89,7.58-2.23,16.06-4.46,30.77A221.66,221.66,0,0,0,519,566c-1.33,25.87,2.23,42.36,2.23,42.36h-8.92s-9.81-21-3.56-51.72c1.33-5.35,2.67-10.26,4.46-15.61C518.11,527.22,520.79,518.74,523,511.16Z"/><path class="cls-98" d="M543.53,541.93c4.46,11.15,6.24,23.19,6.69,35.23,0,19.17-5.8,31.66-5.8,31.66H535.5s2.68-12.93,2.68-33.89q-.67-16.73-2.68-33.44c-2.23-14.27-3.56-23.19-4.46-30.77h3.13C535.06,518.74,538.18,527.22,543.53,541.93Z"/><path class="cls-98" d="M559.14,608.82H552s8.92-12.49,8.47-32.11a81.15,81.15,0,0,0-9.81-35.22c-8-14.27-12.48-23.19-15.16-30.77h2.23c3.57,7.58,9.36,16,19.62,30.77,8.47,12,12,22.74,12.48,32.55A47.13,47.13,0,0,1,559.14,608.82Z"/><path class="cls-98" d="M570.73,608.82h-5.8s16.5-15.16,12.49-38.35c-1.34-8.47-5.8-18.28-14.27-28.54-12-14.27-18.73-23.19-23.19-30.77h1.78c4.91,7.58,12.93,16.06,27.2,30.77,8,8.47,12.49,16.05,15.16,23.19C592.58,591.43,570.73,608.82,570.73,608.82Z"/><path class="cls-101" d="M492.69,541.93c-32.55,38.8-1.78,66.89-1.78,66.89h5.8S470.4,580.73,498,541.93c10.26-14.27,16.06-23.19,19.62-30.77h-1.78C511.87,518.74,505.18,527.22,492.69,541.93Z"/><path class="cls-101" d="M557.8,541.93c27.65,38.8,1.34,66.89,1.34,66.89h5.79s30.77-28.09-1.78-66.89c-12-14.27-18.73-23.19-23.19-30.77h-1.78C541.74,518.74,548,527.22,557.8,541.93Z"/><path class="cls-101" d="M543.53,541.93c14.27,38.8.89,66.89.89,66.89h8s20.06-28.09-1.34-66.89c-8-14.27-12.49-23.19-15.16-30.77h-2.68C535.06,518.74,538.18,527.22,543.53,541.93Z"/><path class="cls-101" d="M505.18,541.93c-21,38.8-1.34,66.89-1.34,66.89h8s-13.38-28.09.89-66.89c5.35-14.27,8.47-23.19,10.26-30.77h-2.68C517.67,518.74,513.21,527.22,505.18,541.93Z"/><path class="cls-101" d="M521.23,541.93c-6.24,38.8-.44,66.89-.44,66.89h13.82s5.8-28.09-.45-66.89c-2.23-14.27-3.56-23.19-4.46-30.77h-4.45C525.25,518.74,523.91,527.22,521.23,541.93Z"/><path class="cls-102" d="M541.74,511.16H514.1a47.7,47.7,0,0,0,8-18.28,49.62,49.62,0,0,0,1.79-9.36,22.75,22.75,0,0,0,.89-5.35c.45-1.34.45-2.68.89-4a13.17,13.17,0,0,1,.89-4c0-.45.45-1.34.45-1.78.45-2.23.89-4,1.34-6.25h0c.44,2.23.89,4.46,1.33,6.25a5.59,5.59,0,0,1,.45,2.67c.89,4.91,1.78,8.92,2.23,12.49.89,3.56,1.34,6.69,2.23,9.36A43.7,43.7,0,0,0,541.74,511.16Z"/><g class="cls-35"><path class="cls-103" d="M570.73,608.82H485.56s-35.67-28.09,2.23-66.89c2.67-2.67,4.9-5.35,7.13-7.58a63,63,0,0,0,22.3,30.32c22.74,16.5,51.73,16.5,66.89,0C593,591.43,570.73,608.82,570.73,608.82Z"/></g><path class="cls-74" d="M534.16,492.88H522.57a49.66,49.66,0,0,0,1.78-9.36,22.27,22.27,0,0,0,.9-5.35c.44-1.34.44-2.68.89-4s.44-2.67.89-4c0-.45.45-1.34.45-1.78.44-2.23.89-4,1.33-6.25h0c.45,2.23.9,4.46,1.34,6.25a5.59,5.59,0,0,1,.45,2.67c.89,4.91,1.78,8.92,2.23,12.49A29.69,29.69,0,0,0,534.16,492.88Z"/><polygon class="cls-74" points="530.15 491.1 526.14 491.1 526.58 470.14 526.58 468.8 527.03 461.22 527.03 455.42 528.37 412.62 528.37 410.83 529.26 455.42 529.7 463 529.7 468.8 529.7 471.03 529.7 471.03 530.15 491.1"/><path class="cls-75" d="M535.06,462.11a2.68,2.68,0,0,1-.45,1.79,8.05,8.05,0,0,1-5.35,5.35h-1.79a1.61,1.61,0,0,1-1.33-.45h-.45a7.33,7.33,0,0,1-5.35-8,7,7,0,0,1,4.46-4.91,1.63,1.63,0,0,1,1.34-.45h2.67C532.83,455.87,535.06,458.55,535.06,462.11Z"/><path class="cls-74" d="M535.06,462.11a2.68,2.68,0,0,1-.45,1.79,5.72,5.72,0,0,1-2.68.44,4.72,4.72,0,0,1-2.67-.89c-.45-.45-.89-.45-1.34-.89h0l-1.34-1.34a7.18,7.18,0,0,1-1.33-4,2.73,2.73,0,0,1,.44-1.79A1.67,1.67,0,0,1,527,455h2.67A7.23,7.23,0,0,1,535.06,462.11Z"/><g class="cls-94"><path class="cls-42" d="M528.37,412.62V822.41H472.63V696.22h3.12l12.48-44.15v-37h-2.67v-5.79h0s-35.68-28.1,2.23-66.89c13.82-14.27,21.85-23.19,27.2-30.77a47.76,47.76,0,0,0,8-18.28A49.73,49.73,0,0,0,524.8,484a22.58,22.58,0,0,0,.89-5.35c.45-1.34.45-2.67.89-4s.45-2.68.89-4V468.8a7.35,7.35,0,0,1-5.35-8,7,7,0,0,1,4.46-4.9,1.63,1.63,0,0,1,1.34-.45Z"/></g><rect class="cls-67" x="653.67" y="699.79" width="57.52" height="83.83"/><rect class="cls-68" x="653.67" y="699.79" width="57.52" height="2.68"/><rect class="cls-68" x="653.67" y="706.92" width="57.52" height="2.68"/><rect class="cls-68" x="653.67" y="739.92" width="57.52" height="6.24"/><rect class="cls-69" x="653.67" y="695.33" width="57.52" height="4.46"/><rect class="cls-104" x="649.21" y="689.98" width="65.55" height="5.35"/><rect class="cls-87" x="636.28" y="744.82" width="91.86" height="66.89"/><path class="cls-52" d="M682.21,811.71H636.28A22.84,22.84,0,0,1,659,789,22.39,22.39,0,0,1,682.21,811.71Z"/><path class="cls-88" d="M679.09,811.71H639.4a19.85,19.85,0,0,1,39.69,0Z"/><path class="cls-89" d="M677.3,811.71H641.63a17.89,17.89,0,0,1,17.84-17.83c9.81-.45,17.83,8,17.83,17.83Z"/><path class="cls-52" d="M728.14,811.71H682.21a3.33,3.33,0,0,1,.45-2.23,23.44,23.44,0,0,1,25.86-20.06,22.62,22.62,0,0,1,19.62,22.29Z"/><path class="cls-88" d="M705.4,791.65a19.79,19.79,0,0,0-19.62,19.62h39.68C725,800.56,716.1,791.65,705.4,791.65Z"/><path class="cls-89" d="M705.4,793.43a17.9,17.9,0,0,0-17.84,17.84h35.67A18.18,18.18,0,0,0,705.4,793.43Z"/><path class="cls-52" d="M651.89,773.36a15,15,0,0,0-15.16,15.16h30.76A16,16,0,0,0,651.89,773.36Z"/><path class="cls-88" d="M651.89,775.59c-7.14,0-13.38,5.8-13.38,12.93h26.31A12.94,12.94,0,0,0,651.89,775.59Z"/><path class="cls-89" d="M651.89,776.93a12,12,0,0,0-12,12h23.63A11.9,11.9,0,0,0,651.89,776.93Z"/><path class="cls-52" d="M682.21,773.36a15,15,0,0,0-15.16,15.16h30.77A15.72,15.72,0,0,0,682.21,773.36Z"/><path class="cls-88" d="M682.21,775.59c-7.14,0-13.38,5.8-13.38,12.93h26.31A12.94,12.94,0,0,0,682.21,775.59Z"/><path class="cls-89" d="M682.21,776.93a12,12,0,0,0-12,12H693.8a11.35,11.35,0,0,0-11.59-12Z"/><path class="cls-52" d="M713,773.36a15,15,0,0,0-15.16,15.16h30.76A15.7,15.7,0,0,0,713,773.36Z"/><path class="cls-88" d="M713,775.59c-7.14,0-13.38,5.8-13.38,12.93h26.31A12.94,12.94,0,0,0,713,775.59Z"/><path class="cls-89" d="M713,776.93a12,12,0,0,0-12,12h23.63A11.9,11.9,0,0,0,713,776.93Z"/><path class="cls-52" d="M651.89,758.2a15,15,0,0,0-15.16,15.16h30.76A16,16,0,0,0,651.89,758.2Z"/><path class="cls-88" d="M651.89,760.43c-7.14,0-13.38,5.8-13.38,12.93h26.31A12.94,12.94,0,0,0,651.89,760.43Z"/><path class="cls-89" d="M651.89,761.32a12,12,0,0,0-12,12h23.63A11.9,11.9,0,0,0,651.89,761.32Z"/><path class="cls-52" d="M682.21,758.2a15,15,0,0,0-15.16,15.16h30.77a15.72,15.72,0,0,0-15.61-15.16Z"/><path class="cls-88" d="M682.21,760.43c-7.14,0-13.38,5.8-13.38,12.93h26.31A12.94,12.94,0,0,0,682.21,760.43Z"/><path class="cls-89" d="M682.21,761.32a12,12,0,0,0-12,12H693.8a11.35,11.35,0,0,0-11.59-12Z"/><path class="cls-52" d="M713,758.2a15,15,0,0,0-15.16,15.16h30.76A15.7,15.7,0,0,0,713,758.2Z"/><path class="cls-88" d="M713,760.43c-7.14,0-13.38,5.8-13.38,12.93h26.31A12.94,12.94,0,0,0,713,760.43Z"/><path class="cls-89" d="M713,761.32a12,12,0,0,0-12,12h23.63A11.9,11.9,0,0,0,713,761.32Z"/><rect class="cls-90" x="636.28" y="744.82" width="91.86" height="9.36"/><path class="cls-105" d="M727.25,669c-.45,1.34-.45,3.12-.9,4.46h0c-.89,3.12-1.78,5.79-3.56,8,0,.45-.89,1.34-.89,1.79h0l-.9,1.34a28.37,28.37,0,0,1-5.79,6.68h-66l-.89-.44-.89-.89-.45-.45-.89-.89-.45-.45a20.81,20.81,0,0,1-4-5.35h0c-.89-1.34-1.34-2.67-2.23-3.57,0-.89-.89-1.33-.89-2.22a1.64,1.64,0,0,1-.45-1.34c-.45-.89-.45-1.34-.89-2.23a22.9,22.9,0,0,1-.9-4.91h0a32.85,32.85,0,0,1,4.46-18.28c1.34-2.23,3.13-4.46,4.46-6.69h0a40.78,40.78,0,0,1,4-4.46c.44-.44.44-.89.89-.89h0l4.46-4.46a67.89,67.89,0,0,1,5.35-5.8c3.12-3.56,6.24-7.13,8.92-10.7a27.43,27.43,0,0,0,3.12-4.46c.89-1.33,1.34-2.67,2.23-3.56,1.34-2.23,1.78-4.91,2.68-7.14a1.65,1.65,0,0,0,.44-1.34c.89-2.67,1.34-5.79,2.23-9.81.45-1.33.45-2.67.89-4,0-.45,0-.45.45-.89v-1.79a6.54,6.54,0,0,0,.45-3.12c.44-1.33.44-2.67.89-4v-.45c0-.44,0-.44.45-.89,0,.45,0,.45.44.89v.9c.45,2.22.89,4,1.34,5.79,0,.45.45.89.45,1.34s.44.89.44,1.34.45.89.45,1.34v.44a31.12,31.12,0,0,1,.89,5.8,31.93,31.93,0,0,0,1.78,7.58,53.19,53.19,0,0,0,3.13,8.92,18.9,18.9,0,0,0,1.78,3.12c3.57,6.24,9.81,12.93,21,24.52l1.34,1.34c5.79,6.24,9.36,11.6,11.14,17a1.36,1.36,0,0,1,.45.89C726.8,661,727.25,665,727.25,669Z"/><path class="cls-106" d="M720.56,672.59a70.08,70.08,0,0,1-1.78,9.36c-.45,1.34-.9,2.23-1.34,3.57-.89,2.23-1.78,4-2.68,5.79l-.44.9h-58l-.9-.9a89,89,0,0,1-15.16-16.49c-1.33-1.79-2.23-3.57-3.56-5.36h0a32.68,32.68,0,0,1,4.46-18.28c1.33-2.23,3.12-4.46,4.46-6.69h0a39.75,39.75,0,0,1,4-4.46c.44-.44.44-.89.89-.89h0l4.46-4.46a67.82,67.82,0,0,1,5.35-5.79c3.12-3.57,6.24-7.14,8.92-10.71a26.41,26.41,0,0,0,3.12-4.46c.9-1.33,1.34-2.67,2.23-3.56,1.34-2.23,1.79-4.91,2.68-7.14a49.15,49.15,0,0,1,4.9,2.68c1.34.89,2.68,1.34,3.57,2.23l4,2.67a19.17,19.17,0,0,0,1.79,3.12c3.56,6.25,9.81,12.94,21,24.53a62.83,62.83,0,0,1,5.79,15.16,68.38,68.38,0,0,1,1.78,9.37,19.76,19.76,0,0,1,.45,4.9Z"/><path class="cls-105" d="M727.25,669c-.45,1.34-.45,3.12-.9,4.46h0c-.89,3.12-1.78,5.79-3.56,8,0,.45-.89,1.34-.89,1.79h0l-.9,1.34a28.37,28.37,0,0,1-5.79,6.68H678.64l-1.34-.89a79.54,79.54,0,0,1-27.2-24.52,76.5,76.5,0,0,1-8.47-15.61c1.34-2.23,3.12-4.46,4.46-6.69h0a41.8,41.8,0,0,1,4-4.46c.45-.44.45-.89.89-.89h0l4.46-4.46a69.61,69.61,0,0,1,5.36-5.8c3.12-3.56,6.24-7.13,8.91-10.7a27.51,27.51,0,0,0,3.13-4.46c.89-1.33,1.33-2.67,2.23-3.56,1.33-2.23,1.78-4.91,2.67-7.14a1.62,1.62,0,0,0,.45-1.34c.89-2.67,1.34-5.79,2.23-9.81.89.45,1.78.45,2.67.89a1.64,1.64,0,0,0,1.34.45l1.34.89a31.45,31.45,0,0,0,1.78,7.58,52,52,0,0,0,3.12,8.92,19.17,19.17,0,0,0,1.79,3.12c3.56,6.25,9.81,12.93,21,24.53l1.33,1.34c5.8,6.24,9.37,11.59,11.15,16.94a1.38,1.38,0,0,1,.45.89A119.36,119.36,0,0,1,727.25,669Z"/><path class="cls-106" d="M727.25,669c-.45,1.34-.45,3.12-.9,4.46h0c-.89,3.12-1.78,5.79-3.56,8,0,.45-.89,1.34-.89,1.79h0l-.9,1.34a28.37,28.37,0,0,1-5.79,6.68h-22.3c-.89-.44-1.34-.44-1.78-.89a79.5,79.5,0,0,1-8.92-4,84.67,84.67,0,0,1-26.31-24.08,94,94,0,0,1-9.81-18.73h0a41.8,41.8,0,0,1,4-4.46c.45-.44.45-.89.89-.89h0l4.46-4.46a69.61,69.61,0,0,1,5.36-5.8c3.12-3.56,6.24-7.13,8.91-10.7a27.51,27.51,0,0,0,3.13-4.46c.89-1.34,1.33-2.67,2.23-3.56,1.33-2.23,1.78-4.91,2.67-7.14a1.63,1.63,0,0,0,.45-1.34c.89-2.67,1.34-5.79,2.23-9.81.44-1.34.44-2.67.89-4,0-.45,0-.45.45-.89a4.05,4.05,0,0,0,2.23.44c.89,0,.89.45,1.78.45h.45a31.12,31.12,0,0,1,.89,5.8,31.93,31.93,0,0,0,1.78,7.58,52.75,52.75,0,0,0,3.12,8.91,19.76,19.76,0,0,0,1.79,3.13c3.56,6.24,9.81,12.93,21,24.52l1.33,1.34c5.8,6.24,9.37,11.59,11.15,16.94a1.39,1.39,0,0,1,.45.9C726.8,660.55,727.69,665,727.25,669Z"/><path class="cls-105" d="M727.25,669c-.45,1.34-.45,3.12-.9,4.46h0c-.89,3.12-1.78,5.79-3.56,8,0,.45-.89,1.34-.89,1.79h0l-.9,1.34a9.9,9.9,0,0,1-3.56.44c-10.26.89-21.85-3.12-32.55-10.7h0a13.77,13.77,0,0,0-3.13-2.23c-12.48-9.81-21.4-23.19-26.75-38.35a67.89,67.89,0,0,1,5.35-5.8c3.12-3.56,6.24-7.13,8.92-10.7a27.43,27.43,0,0,0,3.12-4.46c.89-1.33,1.34-2.67,2.23-3.56,1.34-2.23,1.78-4.91,2.68-7.14a1.65,1.65,0,0,0,.44-1.34c.89-2.67,1.34-5.79,2.23-9.81.45-1.33.45-2.67.89-4v-.89c0-.45.45-1.34.45-1.79a6.54,6.54,0,0,0,.45-3.12c.44-1.34.44-2.67.89-4h.45c.44,2.23.89,4,1.33,5.8,0,.44.45.89.45,1.33s.45.9.45,1.34.44.89.44,1.34v.44a30.42,30.42,0,0,1,.89,5.8,31.9,31.9,0,0,0,1.79,7.58,52,52,0,0,0,3.12,8.92,20,20,0,0,0,1.78,3.12c3.57,6.25,9.81,12.93,21,24.53l1.34,1.34c5.8,6.24,9.36,11.59,11.15,16.94,0,.45,0,.89.44.89C726.8,660.55,727.25,665,727.25,669Z"/><path class="cls-106" d="M727.25,669c-.45,1.34-.45,3.12-.9,4.46h0c-.89,3.12-1.78,5.79-3.56,8h-4a48.59,48.59,0,0,1-21.85-7.13,70.83,70.83,0,0,1-14.72-11.15A89.68,89.68,0,0,1,660.81,628c3.12-3.56,6.24-7.13,8.92-10.7a27.43,27.43,0,0,0,3.12-4.46c.89-1.33,1.34-2.67,2.23-3.56,1.34-2.23,1.78-4.91,2.67-7.14a1.62,1.62,0,0,0,.45-1.34c.89-2.67,1.34-5.79,2.23-9.81.45-1.33.45-2.67.89-4v-.89c0-.45.45-1.34.45-1.79a6.54,6.54,0,0,0,.45-3.12c.44-1.34.44-2.67.89-4v-.45c0-.44,0-.44.44-.89,0,.45,0,.45.45.89v.9c.45,2.22.89,4,1.34,5.79,0,.45.44.89.44,1.34s.45.89.45,1.34.45.89.45,1.34v.44a31.12,31.12,0,0,1,.89,5.8,31.93,31.93,0,0,0,1.78,7.58,53.19,53.19,0,0,0,3.13,8.92,18.9,18.9,0,0,0,1.78,3.12c3.56,6.24,9.81,12.93,21,24.52l1.33,1.34c5.8,6.24,9.37,11.6,11.15,17,0,.44,0,.89.45.89C726.8,661,727.25,665,727.25,669Z"/><path class="cls-105" d="M727.25,669c-.45,1.34-.45,3.12-.9,4.46h0c-2.23-.45-4-.89-5.79-1.34a52.3,52.3,0,0,1-8.92-3.12h0c-10.7-4.91-21-13.38-29.43-25l-.89-.89a79.34,79.34,0,0,1-11.6-25.87,26.82,26.82,0,0,0,3.12-4.46c.9-1.33,1.34-2.67,2.23-3.56,1.34-2.23,1.79-4.91,2.68-7.14a1.62,1.62,0,0,0,.45-1.34c.89-2.67,1.33-5.79,2.23-9.81.44-1.33.44-2.67.89-4,0-.45,0-.45.44-.89,0-.45.45-1.34.45-1.79a6.54,6.54,0,0,0,.45-3.12c.44-1.34.44-2.67.89-4v-.45c0-.44,0-.44.45-.89,0,.45,0,.45.44.89v.9c.45,2.22.9,4,1.34,5.79,0,.45.45.89.45,1.34s.44.89.44,1.34.45.89.45,1.34v.44a30.3,30.3,0,0,1,.89,5.8,31.93,31.93,0,0,0,1.78,7.58,53.19,53.19,0,0,0,3.13,8.92,18.9,18.9,0,0,0,1.78,3.12c3.57,6.24,9.81,12.93,21,24.52l1.34,1.34c5.79,6.24,9.36,11.6,11.14,17a1.36,1.36,0,0,1,.45.89C726.8,660.55,727.25,665,727.25,669Z"/><path class="cls-106" d="M727.25,669a26.19,26.19,0,0,1-6.25-2.23c-1.33-.45-2.67-1.34-4-1.78-10.7-4.91-21-13.83-29.43-25.87-2.23-2.67-3.57-5.79-5.35-8.92a66.59,66.59,0,0,1-6.69-17.83c-.45-1.34-.45-2.68-.89-3.57,1.33-2.23,1.78-4.91,2.67-7.13a1.64,1.64,0,0,0,.45-1.34c.89-2.68,1.34-5.8,2.23-9.81.45-1.34.45-2.68.89-4,0-.44,0-.44.45-.89,0-.44.44-1.34.44-1.78a6.56,6.56,0,0,0,.45-3.12c.45-1.34.45-2.68.89-4v-.44c0-.45,0-.45.45-.89,0,.44,0,.44.45.89v.89c.44,2.23.89,4,1.33,5.8,0,.44.45.89.45,1.33s.45.9.45,1.34.44.89.44,1.34v.44a30.51,30.51,0,0,1,.9,5.8,31.45,31.45,0,0,0,1.78,7.58,52,52,0,0,0,3.12,8.92,20,20,0,0,0,1.78,3.12c3.57,6.25,9.82,12.93,21,24.53l1.34,1.34c5.8,6.24,9.36,11.59,11.15,16.94a1.4,1.4,0,0,1,.44.89C726.8,661,727.25,665,727.25,669Z"/><path class="cls-105" d="M725.46,657l-.89-.45c-2.23-1.33-4.46-2.23-6.24-4a78.11,78.11,0,0,1-21-21,93.43,93.43,0,0,1-9.81-18.73,40.91,40.91,0,0,1-1.78-5.79,52.82,52.82,0,0,1-2.23-14.27v-6.69c0,.44.44.89.44,1.34.45,2.22.9,4,1.34,5.79a31.93,31.93,0,0,0,1.78,7.58,53.76,53.76,0,0,0,3.12,8.92,19.17,19.17,0,0,0,1.79,3.12c3.56,6.25,9.81,12.93,21,24.53l1.33,1.34c5.8,6.24,9.37,11.59,11.15,16.94C725,656.09,725.46,656.53,725.46,657Z"/><g class="cls-35"><path class="cls-73" d="M727.25,669c-.45,1.34-.45,3.12-.9,4.46h0c-.89,3.12-1.78,5.79-3.56,8,0,.45-.89,1.34-.89,1.79h0l-.9,1.34a28.37,28.37,0,0,1-5.79,6.68h-66l-.89-.44-.89-.89-.45-.45-.89-.89-.45-.45a20.81,20.81,0,0,1-4-5.35h0c-.89-1.34-1.34-2.67-2.23-3.57,0-.89-.89-1.33-.89-2.22a1.64,1.64,0,0,1-.45-1.34c-.45-.89-.45-1.34-.89-2.23a22.9,22.9,0,0,1-.9-4.91h0a32.85,32.85,0,0,1,4.46-18.28c1.34-2.23,3.13-4.46,4.46-6.69h0a40.78,40.78,0,0,1,4-4.46c.44-.44.44-.89.89-.89,4.46,17.39,16,31.21,30.77,35.23.89.44,2.23.44,3.12.89h0a34.39,34.39,0,0,0,7.13.89,34.8,34.8,0,0,0,19.18-5.79l5.35-4,3.57-3.57a28.29,28.29,0,0,0,4.45-5.79l.45-.45a1.38,1.38,0,0,1,.45.89C726.8,660.55,727.25,665,727.25,669Z"/></g><path class="cls-93" d="M691.57,612.83H672.84c.9-1.33,1.34-2.67,2.23-3.56,1.34-2.23,1.79-4.91,2.68-7.14a1.62,1.62,0,0,0,.45-1.34c.89-2.67,1.33-5.79,2.23-9.81.44-1.33.44-2.67.89-4v-.89c0-.45.44-1.34.44-1.79a6.54,6.54,0,0,0,.45-3.12c.45-1.34.45-2.67.89-4v-.45c0-.44,0-.44.45-.89,0,.45,0,.45.45.89v.9c.44,2.22.89,4,1.33,5.79,0,.45.45.89.45,1.34s.45.89.45,1.34.44.89.44,1.34v.44a30.39,30.39,0,0,1,.9,5.8,31.45,31.45,0,0,0,1.78,7.58,52.3,52.3,0,0,0,3.12,8.92C690.23,611.05,691.13,611.94,691.57,612.83Z"/><path class="cls-69" d="M686.67,601.24h-8.92c.89-2.68,1.34-5.8,2.23-9.81.45-1.34.45-2.68.89-4,0-.45,0-.45.45-.9,0-.44.44-1.33.44-1.78a6.54,6.54,0,0,0,.45-3.12c.45-1.34.45-2.68.89-4v-.44c0-.45,0-.45.45-.89,0,.44,0,.44.45.89v.89c.44,2.23.89,4,1.33,5.8,0,.44.45.89.45,1.34s.45.89.45,1.33.44.89.44,1.34v.45a30.41,30.41,0,0,1,.9,5.79C685.78,596.33,686.22,599,686.67,601.24Z"/><polygon class="cls-74" points="683.99 585.19 680.87 585.19 680.87 581.62 680.87 578.5 682.21 545.5 682.65 549.07 683.55 578.5 683.99 584.29 683.99 585.19"/><path class="cls-75" d="M687.11,583v1.33c-.44,1.79-1.33,3.13-3.12,3.57h-.44c-.45.45-.9.45-1.79.45h-.44c-.9,0-1.34-.45-2.23-.45a5.26,5.26,0,0,1-2.68-6.69,5.16,5.16,0,0,1,2.68-2.67c.44,0,.44,0,.44-.45.45,0,.9-.44,1.34-.44h.45a1.64,1.64,0,0,1,1.33.44C685.78,578.94,687.11,580.73,687.11,583Z"/><path class="cls-74" d="M687.11,583v1.33a3.32,3.32,0,0,1-1.78.45,2.65,2.65,0,0,1-1.78-.45h-.45c-.44-.44-.89-.44-1.34-.89l-1.33-1.34c-.45-.44-.45-.44-.45-.89-.44-1.34-.89-2.23-.44-3.56l.44-.45c.45,0,.89-.45,1.34-.45h.44a1.62,1.62,0,0,1,1.34.45C685.78,578.94,687.11,580.73,687.11,583Z"/><g class="cls-41"><path class="cls-42" d="M682.66,549.07V811.71H636.73V744.82h16.94V695.77h-4v-4.46h-.45l-.89-.44-.89-.89-.45-.45-.89-.89-.45-.45a20.81,20.81,0,0,1-4-5.35h0c-.89-1.34-1.34-2.67-2.23-3.56,0-.9-.89-1.34-.89-2.23a1.64,1.64,0,0,1-.45-1.34c-.45-.89-.45-1.34-.89-2.23a22.9,22.9,0,0,1-.9-4.91h0a32.85,32.85,0,0,1,4.46-18.28c1.34-2.23,3.13-4.46,4.46-6.69h0a40.78,40.78,0,0,1,4-4.46c.44-.44.44-.89.89-.89h0l4.46-4.46a67.89,67.89,0,0,1,5.35-5.8c3.12-3.56,6.24-7.13,8.92-10.7a27,27,0,0,0,3.12-4.46c.89-1.33,1.34-2.67,2.23-3.56,1.34-2.23,1.78-4.91,2.68-7.14a1.65,1.65,0,0,0,.44-1.34c.89-2.67,1.34-5.79,2.23-9.81.45-1.33.45-2.67.89-4a5.26,5.26,0,0,1-2.67-6.69,5.14,5.14,0,0,1,2.67-2.67c.45,0,.45,0,.45-.45l1.34-33Z"/></g><path class="cls-107" d="M108.31,821.52l.45-31.21-8.47,31.21H90l-8.47-31.21v31.21H68.63V778.27H88.25l7.13,27.2,7.14-27.2h19.62v43.25Z"/><path class="cls-107" d="M165.84,816.62c-6.25,6.24-13.83,6.24-16.5,6.24s-10.7-.45-16.5-6.24c-4.46-4.46-6.25-10.7-6.25-17,0-3.12.45-11.15,6.69-16.94,2.68-2.68,8-6.24,16.95-6.24,2.67,0,10.25,0,16.5,5.79a23.23,23.23,0,0,1,6.69,17C172.53,802.35,172.08,810.37,165.84,816.62ZM153.8,789a8.84,8.84,0,0,0-4.91-1.34,10.82,10.82,0,0,0-6.69,2.68c-1.78,1.78-3.12,4.9-3.12,9.81,0,.89,0,5.8,2.68,8.92a8,8,0,0,0,3.12,2.23,9.67,9.67,0,0,0,4.46.89,8.08,8.08,0,0,0,6.24-2.68c1.78-1.78,3.12-4.46,3.12-9.81C158.7,798.33,158.7,791.65,153.8,789Z"/><path class="cls-107" d="M210.87,818.85c-5.79,4-12.93,4-14.71,4-6.24,0-12.49-1.34-17.39-4.9a15.53,15.53,0,0,1-4.46-4.91l10.25-6.69a7.51,7.51,0,0,0,2.23,2.68c2.68,2.23,7.14,3.12,9.81,3.12,4,0,6.69-1.34,6.69-3.57,0-.44-.44-.89-.44-1.34a3.17,3.17,0,0,0-2.23-1.78c-1.79-.45-4.46-.89-8-1.78-5.79-1.34-8.92-2.68-11.15-4.46a12,12,0,0,1-4-8.92,11.47,11.47,0,0,1,1.78-6.69c4.46-8,15.61-8,17.39-8,2.23,0,9.82.45,16.06,4.91a22.09,22.09,0,0,1,3.56,3.12l-8.47,7.13c-.44-.89-.89-1.33-1.33-1.33-2.68-2.23-6.69-3.12-10.26-3.12a8.79,8.79,0,0,0-3.12.44c-.45.45-1.79.89-1.79,2.23a2.46,2.46,0,0,0,1.34,2.23,10.21,10.21,0,0,0,4.91,1.34,85.81,85.81,0,0,1,9.81,2.23c2.67.89,9.36,3.12,9.36,12C217.12,813.94,213.1,817.51,210.87,818.85Z"/><path class="cls-107" d="M260.37,815.28c-2.68,3.12-8,7.58-17.39,7.58a22.57,22.57,0,0,1-14.71-4.9c-7.14-6.25-7.59-14.72-7.59-17.84a25.19,25.19,0,0,1,4.46-14.27c5.8-8.47,14.27-8.92,17.84-8.92a23,23,0,0,1,17.84,8c1.33,1.78,1.78,2.67,2.67,4l-11.59,5.8c-.45-.45-.45-.89-.89-1.34-.9-1.78-3.13-5.8-8.48-5.8a6.28,6.28,0,0,0-4.9,1.79c-4.46,3.12-4,9.36-4,10.7,0,5.8,1.79,8.92,4,10.7A7.55,7.55,0,0,0,243,812.6c4.91,0,7.13-3.12,7.58-4.9a17.37,17.37,0,0,0,.89-2.68l11.6,5.8A13,13,0,0,1,260.37,815.28Z"/><path class="cls-107" d="M305,811.71c-3.12,8-10.7,10.7-18.28,10.7a30,30,0,0,1-10.26-2.23,16.65,16.65,0,0,1-8.47-8.47c-.89-2.23-1.34-4-1.34-8.47V777.38h13.83v27.2a12.66,12.66,0,0,0,.44,3.56,5.28,5.28,0,0,0,5.36,3.57c.89,0,4.46-.44,5.79-3.57a9.67,9.67,0,0,0,.45-3.56v-27.2H306.3v25.86A22.49,22.49,0,0,1,305,811.71Zm-16-36.12h-8l4-7.58h13.37Z"/></g></svg>